ISO-10303-21;
HEADER;
/* Generated by software containing ST-Developer
 * from STEP Tools, Inc. (www.steptools.com) 
 */

FILE_DESCRIPTION(
/* description */ (''),
/* implementation_level */ '2;1');

FILE_NAME(
/* name */ 'cartridgeUndercut.step',
/* time_stamp */ '2026-08-04T10:36:41+02:00',
/* author */ (''),
/* organization */ (''),
/* preprocessor_version */ 'ST-DEVELOPER v20.1',
/* originating_system */ 'Autodesk Translation Framework v15.8.0.0',
/* authorisation */ '');

FILE_SCHEMA (('AUTOMOTIVE_DESIGN { 1 0 10303 214 3 1 1 }'));
ENDSEC;

DATA;
#10=MECHANICAL_DESIGN_GEOMETRIC_PRESENTATION_REPRESENTATION('',(#13),#1267);
#11=SHAPE_REPRESENTATION_RELATIONSHIP('SRR','None',#1274,#12);
#12=ADVANCED_BREP_SHAPE_REPRESENTATION('',(#14),#1266);
#13=STYLED_ITEM('',(#1283),#14);
#14=MANIFOLD_SOLID_BREP('Body1',#307);
#15=B_SPLINE_SURFACE_WITH_KNOTS('',3,3,((#634,#635,#636,#637,#638,#639,
#640,#641,#642,#643,#644,#645,#646,#647,#648,#649,#650,#651,#652,#653,#654,
#655,#656,#657),(#658,#659,#660,#661,#662,#663,#664,#665,#666,#667,#668,
#669,#670,#671,#672,#673,#674,#675,#676,#677,#678,#679,#680,#681),(#682,
#683,#684,#685,#686,#687,#688,#689,#690,#691,#692,#693,#694,#695,#696,#697,
#698,#699,#700,#701,#702,#703,#704,#705),(#706,#707,#708,#709,#710,#711,
#712,#713,#714,#715,#716,#717,#718,#719,#720,#721,#722,#723,#724,#725,#726,
#727,#728,#729)),.UNSPECIFIED.,.F.,.F.,.F.,(4,4),(4,1,1,1,1,1,1,1,1,1,1,
1,1,1,1,1,1,1,1,1,1,4),(0.,0.0658179306876174),(8.30838445208321,9.3044457471673,
10.3005070422514,11.2965683373355,12.2926296324196,13.2886909275036,14.2847522225877,
15.2808135176718,16.2768748127559,17.27293610784,18.2689974029241,19.2650586980081,
20.2611199930922,21.2571812881763,22.2532425832604,23.2493038783445,24.2453651734286,
25.2414264685126,26.2374877635967,27.2335490586808,28.2296103537649,29.225671648849),
 .UNSPECIFIED.);
#16=B_SPLINE_SURFACE_WITH_KNOTS('',3,3,((#944,#945,#946,#947,#948,#949,
#950,#951,#952,#953,#954,#955,#956,#957,#958,#959,#960,#961,#962,#963,#964,
#965,#966,#967),(#968,#969,#970,#971,#972,#973,#974,#975,#976,#977,#978,
#979,#980,#981,#982,#983,#984,#985,#986,#987,#988,#989,#990,#991),(#992,
#993,#994,#995,#996,#997,#998,#999,#1000,#1001,#1002,#1003,#1004,#1005,
#1006,#1007,#1008,#1009,#1010,#1011,#1012,#1013,#1014,#1015),(#1016,#1017,
#1018,#1019,#1020,#1021,#1022,#1023,#1024,#1025,#1026,#1027,#1028,#1029,
#1030,#1031,#1032,#1033,#1034,#1035,#1036,#1037,#1038,#1039)),
 .UNSPECIFIED.,.F.,.F.,.F.,(4,4),(4,1,1,1,1,1,1,1,1,1,1,1,1,1,1,1,1,1,1,
1,1,4),(0.,0.0658179306876174),(11.6150328478183,12.6110941429024,13.6071554379865,
14.6032167330706,15.5992780281547,16.5953393232387,17.5914006183228,18.5874619134069,
19.583523208491,20.5795845035751,21.5756457986592,22.5717070937432,23.5677683888273,
24.5638296839114,25.5598909789955,26.5559522740796,27.5520135691637,28.5480748642478,
29.5441361593318,30.5401974544159,31.5362587495,32.5323200445841),
 .UNSPECIFIED.);
#17=FACE_BOUND('',#54,.T.);
#18=FACE_BOUND('',#60,.T.);
#19=FACE_BOUND('',#63,.T.);
#20=FACE_BOUND('',#67,.T.);
#21=FACE_BOUND('',#69,.T.);
#22=PLANE('',#332);
#23=PLANE('',#338);
#24=PLANE('',#342);
#25=PLANE('',#348);
#26=PLANE('',#349);
#27=FACE_OUTER_BOUND('',#46,.T.);
#28=FACE_OUTER_BOUND('',#47,.T.);
#29=FACE_OUTER_BOUND('',#48,.T.);
#30=FACE_OUTER_BOUND('',#49,.T.);
#31=FACE_OUTER_BOUND('',#50,.T.);
#32=FACE_OUTER_BOUND('',#51,.T.);
#33=FACE_OUTER_BOUND('',#52,.T.);
#34=FACE_OUTER_BOUND('',#53,.T.);
#35=FACE_OUTER_BOUND('',#55,.T.);
#36=FACE_OUTER_BOUND('',#56,.T.);
#37=FACE_OUTER_BOUND('',#57,.T.);
#38=FACE_OUTER_BOUND('',#58,.T.);
#39=FACE_OUTER_BOUND('',#59,.T.);
#40=FACE_OUTER_BOUND('',#61,.T.);
#41=FACE_OUTER_BOUND('',#62,.T.);
#42=FACE_OUTER_BOUND('',#64,.T.);
#43=FACE_OUTER_BOUND('',#65,.T.);
#44=FACE_OUTER_BOUND('',#66,.T.);
#45=FACE_OUTER_BOUND('',#68,.T.);
#46=EDGE_LOOP('',(#192,#193,#194,#195));
#47=EDGE_LOOP('',(#196,#197,#198,#199));
#48=EDGE_LOOP('',(#200,#201,#202,#203));
#49=EDGE_LOOP('',(#204,#205,#206,#207));
#50=EDGE_LOOP('',(#208,#209,#210,#211));
#51=EDGE_LOOP('',(#212,#213,#214,#215));
#52=EDGE_LOOP('',(#216,#217,#218,#219));
#53=EDGE_LOOP('',(#220));
#54=EDGE_LOOP('',(#221));
#55=EDGE_LOOP('',(#222,#223,#224,#225,#226,#227,#228,#229,#230,#231));
#56=EDGE_LOOP('',(#232,#233,#234,#235));
#57=EDGE_LOOP('',(#236,#237,#238,#239,#240,#241,#242,#243,#244,#245));
#58=EDGE_LOOP('',(#246,#247,#248,#249));
#59=EDGE_LOOP('',(#250));
#60=EDGE_LOOP('',(#251,#252,#253,#254));
#61=EDGE_LOOP('',(#255,#256,#257,#258));
#62=EDGE_LOOP('',(#259));
#63=EDGE_LOOP('',(#260));
#64=EDGE_LOOP('',(#261,#262,#263,#264));
#65=EDGE_LOOP('',(#265,#266,#267,#268));
#66=EDGE_LOOP('',(#269));
#67=EDGE_LOOP('',(#270));
#68=EDGE_LOOP('',(#271,#272,#273,#274));
#69=EDGE_LOOP('',(#275));
#70=CIRCLE('',#322,3.442);
#71=CIRCLE('',#326,2.872);
#72=CIRCLE('',#330,2.5);
#73=CIRCLE('',#331,2.5);
#74=CIRCLE('',#333,3.);
#75=CIRCLE('',#335,2.872);
#76=CIRCLE('',#337,3.442);
#77=CIRCLE('',#339,4.);
#78=CIRCLE('',#341,3.);
#79=CIRCLE('',#343,2.5);
#80=CIRCLE('',#345,2.5);
#81=CIRCLE('',#347,4.);
#82=B_SPLINE_CURVE_WITH_KNOTS('',3,(#426,#427,#428,#429,#430,#431,#432,
#433,#434,#435,#436,#437,#438,#439,#440,#441,#442,#443,#444),
 .UNSPECIFIED.,.F.,.F.,(4,3,3,3,3,3,4),(13.6827641230453,13.9448581311772,
14.9409194262613,15.9369807213453,16.9330420164294,17.9291033115135,18.8495559215388),
 .UNSPECIFIED.);
#83=B_SPLINE_CURVE_WITH_KNOTS('',3,(#447,#448,#449,#450,#451,#452,#453,
#454,#455,#456,#457,#458,#459,#460,#461,#462),.UNSPECIFIED.,.F.,.F.,(4,
3,3,3,3,4),(-20.9172871967658,-19.9212259016817,-18.9251646065976,-17.9291033115135,
-16.9330420164294,-16.6593010344898),.UNSPECIFIED.);
#84=B_SPLINE_CURVE_WITH_KNOTS('',3,(#467,#468,#469,#470,#471,#472,#473,
#474,#475,#476,#477,#478,#479,#480,#481,#482,#483,#484,#485,#486,#487,#488),
 .UNSPECIFIED.,.F.,.F.,(4,3,3,3,3,3,3,4),(7.39957881586575,7.96849036067267,
8.96455165575676,9.96061295084085,10.9566742459249,11.952735541009,12.9487968360931,
13.6827641230453),.UNSPECIFIED.);
#85=B_SPLINE_CURVE_WITH_KNOTS('',3,(#489,#490,#491,#492,#493,#494,#495,
#496,#497,#498,#499,#500,#501,#502,#503,#504,#505,#506,#507,#508,#509,#510),
 .UNSPECIFIED.,.F.,.F.,(4,3,3,3,3,3,3,4),(-16.6593010344898,-15.9369807213454,
-14.9409194262613,-13.9448581311772,-12.9487968360931,-11.952735541009,
-10.9566742459249,-10.3761157273102),.UNSPECIFIED.);
#86=B_SPLINE_CURVE_WITH_KNOTS('',3,(#515,#516,#517,#518,#519,#520,#521,
#522,#523,#524,#525,#526,#527,#528,#529,#530,#531,#532,#533,#534,#535,#536),
 .UNSPECIFIED.,.F.,.F.,(4,3,3,3,3,3,3,4),(1.11639350868616,1.99212259016817,
2.98818388525225,3.98424518033634,4.98030647542042,5.97636777050451,6.97242906558859,
7.39957881586575),.UNSPECIFIED.);
#87=B_SPLINE_CURVE_WITH_KNOTS('',3,(#537,#538,#539,#540,#541,#542,#543,
#544,#545,#546,#547,#548,#549,#550,#551,#552,#553,#554,#555,#556,#557,#558),
 .UNSPECIFIED.,.F.,.F.,(4,3,3,3,3,3,3,4),(-10.3761157273102,-9.96061295084084,
-8.96455165575676,-7.96849036067267,-6.97242906558859,-5.9763677705045,
-4.98030647542042,-4.09293042013064),.UNSPECIFIED.);
#88=B_SPLINE_CURVE_WITH_KNOTS('',3,(#564,#565,#566,#567,#568,#569),
 .UNSPECIFIED.,.F.,.F.,(4,1,1,4),(28.2743338823081,28.5480748642478,29.5441361593318,
30.4645887693571),.UNSPECIFIED.);
#89=B_SPLINE_CURVE_WITH_KNOTS('',3,(#572,#573,#574,#575),.UNSPECIFIED.,
 .F.,.F.,(4,4),(28.2743338823081,29.225671648849),.UNSPECIFIED.);
#90=B_SPLINE_CURVE_WITH_KNOTS('',3,(#580,#581,#582,#583,#584,#585,#586,
#587,#588,#589),.UNSPECIFIED.,.F.,.F.,(4,1,1,1,1,1,1,4),(21.9911485751285,
22.5717070937432,23.5677683888273,24.5638296839114,25.5598909789955,26.5559522740796,
27.5520135691637,28.2743338823081),.UNSPECIFIED.);
#91=B_SPLINE_CURVE_WITH_KNOTS('',3,(#590,#591,#592,#593,#594,#595,#596,
#597,#598,#599,#600),.UNSPECIFIED.,.F.,.F.,(4,1,1,1,1,1,1,1,4),(21.9911485751285,
22.2532425832604,23.2493038783445,24.2453651734286,25.2414264685126,26.2374877635967,
27.2335490586808,28.2296103537649,28.2743338823081),.UNSPECIFIED.);
#92=B_SPLINE_CURVE_WITH_KNOTS('',3,(#605,#606,#607,#608,#609,#610,#611,
#612,#613,#614),.UNSPECIFIED.,.F.,.F.,(4,1,1,1,1,1,1,4),(15.707963267949,
16.5953393232387,17.5914006183228,18.5874619134069,19.583523208491,20.5795845035751,
21.5756457986592,21.9911485751285),.UNSPECIFIED.);
#93=B_SPLINE_CURVE_WITH_KNOTS('',3,(#615,#616,#617,#618,#619,#620,#621,
#622,#623,#624),.UNSPECIFIED.,.F.,.F.,(4,1,1,1,1,1,1,4),(15.707963267949,
16.2768748127559,17.27293610784,18.2689974029241,19.2650586980081,20.2611199930922,
21.2571812881763,21.9911485751285),.UNSPECIFIED.);
#94=B_SPLINE_CURVE_WITH_KNOTS('',3,(#730,#731,#732,#733,#734,#735,#736,
#737,#738,#739,#740,#741,#742,#743,#744,#745,#746,#747,#748,#749,#750,#751,
#752,#753,#754,#755,#756,#757,#758,#759,#760,#761,#762,#763,#764,#765,#766,
#767,#768,#769,#770,#771,#772,#773,#774,#775,#776,#777,#778,#779,#780,#781,
#782,#783,#784,#785,#786,#787,#788,#789,#790,#791,#792,#793,#794,#795,#796,
#797,#798,#799,#800,#801,#802,#803,#804,#805,#806,#807,#808,#809,#810,#811,
#812,#813,#814,#815,#816,#817,#818,#819,#820,#821,#822,#823,#824,#825,#826),
 .UNSPECIFIED.,.F.,.F.,(4,3,3,3,3,3,3,3,3,3,3,3,3,3,3,3,3,3,3,3,3,3,3,3,
3,3,3,3,3,3,3,3,4),(-0.65575241591831,-0.629783896538657,-0.596659553852125,
-0.578222736743736,-0.569860760235283,-0.562632880808,-0.529731689307577,
-0.501224038158866,-0.488751940781305,-0.480400490491041,-0.475515312474011,
-0.443297359359077,-0.411301727327802,-0.380269807767535,-0.360619975855125,
-0.354940285538027,-0.350321856437147,-0.31961042808904,-0.301670480117893,
-0.270429387345579,-0.239032080428256,-0.231646083466963,-0.227147458699974,
-0.196575699229889,-0.1659625318337,-0.135739969731157,-0.118772473514762,
-0.113971526988794,-0.109466014141531,-0.0798928358803396,-0.0507430344726354,
-0.0225061600863233,0.),.UNSPECIFIED.);
#95=B_SPLINE_CURVE_WITH_KNOTS('',3,(#828,#829,#830,#831,#832,#833,#834),
 .UNSPECIFIED.,.F.,.F.,(4,3,4),(0.,0.996061295084083,1.11639350868616),
 .UNSPECIFIED.);
#96=B_SPLINE_CURVE_WITH_KNOTS('',3,(#836,#837,#838,#839,#840,#841,#842,
#843,#844,#845,#846,#847,#848,#849,#850,#851,#852,#853,#854,#855,#856,#857,
#858,#859,#860,#861,#862,#863,#864,#865,#866,#867,#868,#869,#870,#871,#872,
#873,#874,#875,#876,#877,#878,#879,#880,#881,#882,#883,#884,#885,#886,#887,
#888,#889,#890,#891,#892,#893,#894,#895,#896,#897,#898,#899,#900,#901,#902,
#903,#904,#905,#906,#907,#908,#909,#910,#911,#912,#913,#914,#915,#916,#917,
#918,#919,#920,#921,#922,#923),.UNSPECIFIED.,.F.,.F.,(4,3,3,3,3,3,3,3,3,
3,3,3,3,3,3,3,3,3,3,3,3,3,3,3,3,3,3,3,3,4),(0.,0.0219258994549138,0.0502433443763673,
0.0792776833229642,0.110078293546827,0.114434465049036,0.144285283458245,
0.174719416094397,0.205382184085768,0.220419731714281,0.230828146729182,
0.235304532060062,0.266699627085328,0.297911555607152,0.32568256511387,
0.346311930789147,0.352527347692182,0.35709750602977,0.387692356189586,
0.419054606995923,0.452146652691022,0.478936826976659,0.484231939537362,
0.516925147354238,0.549812087668158,0.565901173556217,0.572106354788924,
0.605502463091651,0.63840317522324,0.655752415918307),.UNSPECIFIED.);
#97=B_SPLINE_CURVE_WITH_KNOTS('',3,(#924,#925,#926,#927,#928,#929,#930,
#931,#932),.UNSPECIFIED.,.F.,.F.,(4,1,1,1,1,1,4),(10.3761157273102,11.2965683373355,
12.2926296324196,13.2886909275036,14.2847522225877,15.2808135176718,15.707963267949),
 .UNSPECIFIED.);
#98=B_SPLINE_CURVE_WITH_KNOTS('',3,(#936,#937,#938,#939,#940,#941,#942,
#943),.UNSPECIFIED.,.F.,.F.,(4,1,1,1,1,4),(11.6150328478183,12.6110941429024,
13.6071554379865,14.6032167330706,15.5992780281547,15.707963267949),
 .UNSPECIFIED.);
#99=B_SPLINE_CURVE_WITH_KNOTS('',3,(#1040,#1041,#1042,#1043,#1044,#1045,
#1046,#1047,#1048,#1049,#1050,#1051,#1052,#1053,#1054,#1055,#1056,#1057,
#1058,#1059,#1060,#1061,#1062,#1063,#1064,#1065,#1066,#1067,#1068,#1069,
#1070,#1071,#1072,#1073,#1074,#1075,#1076,#1077,#1078,#1079,#1080,#1081,
#1082,#1083,#1084,#1085,#1086,#1087,#1088,#1089,#1090,#1091,#1092,#1093,
#1094,#1095,#1096,#1097,#1098,#1099,#1100,#1101,#1102,#1103,#1104,#1105,
#1106,#1107,#1108,#1109,#1110,#1111,#1112,#1113,#1114,#1115,#1116,#1117,
#1118,#1119,#1120,#1121,#1122,#1123,#1124,#1125,#1126,#1127,#1128,#1129,
#1130,#1131,#1132,#1133),.UNSPECIFIED.,.F.,.F.,(4,3,3,3,3,3,3,3,3,3,3,3,
3,3,3,3,3,3,3,3,3,3,3,3,3,3,3,3,3,3,3,4),(-0.658260979006801,-0.636273968359828,
-0.60766086634932,-0.590411856897607,-0.582870975343831,-0.578044105435929,
-0.547248181646677,-0.520301748331081,-0.507671999096002,-0.50281023744156,
-0.472333374038871,-0.441360073957975,-0.410483870153996,-0.390782081395975,
-0.38456237425865,-0.38040662502863,-0.348592904394939,-0.331676715121912,
-0.300900355595192,-0.269532406165091,-0.260273062847547,-0.25550896686762,
-0.223570346009168,-0.191215863579076,-0.158617329062681,-0.138790162929846,
-0.132401851971196,-0.127529034978542,-0.0941898343547634,-0.0608305838746705,
-0.0281631156722122,0.),.UNSPECIFIED.);
#100=B_SPLINE_CURVE_WITH_KNOTS('',3,(#1135,#1136,#1137,#1138,#1139,#1140,
#1141,#1142,#1143,#1144,#1145,#1146,#1147,#1148,#1149,#1150,#1151,#1152,
#1153,#1154,#1155,#1156,#1157,#1158,#1159,#1160,#1161,#1162,#1163,#1164,
#1165,#1166,#1167,#1168,#1169,#1170,#1171,#1172,#1173,#1174,#1175,#1176,
#1177,#1178,#1179,#1180,#1181,#1182,#1183,#1184,#1185,#1186,#1187,#1188,
#1189,#1190,#1191,#1192,#1193,#1194,#1195,#1196,#1197,#1198,#1199,#1200,
#1201,#1202,#1203,#1204,#1205,#1206,#1207,#1208,#1209,#1210,#1211,#1212,
#1213,#1214,#1215,#1216,#1217,#1218,#1219,#1220,#1221,#1222,#1223,#1224,
#1225,#1226,#1227,#1228,#1229,#1230,#1231),.UNSPECIFIED.,.F.,.F.,(4,3,3,
3,3,3,3,3,3,3,3,3,3,3,3,3,3,3,3,3,3,3,3,3,3,3,3,3,3,3,3,3,4),(0.,0.0260745497902832,
0.058879165374598,0.0922311516320918,0.125174828514979,0.131210767979049,
0.135465334056515,0.168065880009325,0.200626855056388,0.23270275519108,
0.248087481629094,0.258988790307065,0.263062132936226,0.294551688016994,
0.325175088192025,0.355780566695193,0.374685592464668,0.382139839937956,
0.386792137969294,0.417232832168198,0.448285099964665,0.479114386853879,
0.491463927242568,0.500903147397131,0.507026388134438,0.537327584336982,
0.567560933004437,0.576148483201308,0.581551187864196,0.587036126816226,
0.616264731568961,0.644680845170332,0.658260979006801),.UNSPECIFIED.);
#101=B_SPLINE_CURVE_WITH_KNOTS('',3,(#1232,#1233,#1234,#1235,#1236,#1237,
#1238,#1239,#1240,#1241),.UNSPECIFIED.,.F.,.F.,(4,3,3,4),(-4.09293042013064,
-3.98424518033634,-2.98818388525225,-2.06773127522701),.UNSPECIFIED.);
#102=LINE('',#424,#112);
#103=LINE('',#466,#113);
#104=LINE('',#514,#114);
#105=LINE('',#562,#115);
#106=LINE('',#579,#116);
#107=LINE('',#604,#117);
#108=LINE('',#629,#118);
#109=LINE('',#1249,#119);
#110=LINE('',#1256,#120);
#111=LINE('',#1261,#121);
#112=VECTOR('',#354,3.5);
#113=VECTOR('',#359,3.5);
#114=VECTOR('',#362,3.5);
#115=VECTOR('',#365,2.872);
#116=VECTOR('',#370,2.872);
#117=VECTOR('',#373,2.872);
#118=VECTOR('',#378,2.5);
#119=VECTOR('',#399,3.);
#120=VECTOR('',#408,2.5);
#121=VECTOR('',#415,4.);
#122=VERTEX_POINT('',#422);
#123=VERTEX_POINT('',#423);
#124=VERTEX_POINT('',#425);
#125=VERTEX_POINT('',#445);
#126=VERTEX_POINT('',#464);
#127=VERTEX_POINT('',#465);
#128=VERTEX_POINT('',#512);
#129=VERTEX_POINT('',#513);
#130=VERTEX_POINT('',#560);
#131=VERTEX_POINT('',#561);
#132=VERTEX_POINT('',#563);
#133=VERTEX_POINT('',#570);
#134=VERTEX_POINT('',#577);
#135=VERTEX_POINT('',#578);
#136=VERTEX_POINT('',#602);
#137=VERTEX_POINT('',#603);
#138=VERTEX_POINT('',#626);
#139=VERTEX_POINT('',#628);
#140=VERTEX_POINT('',#632);
#141=VERTEX_POINT('',#827);
#142=VERTEX_POINT('',#835);
#143=VERTEX_POINT('',#934);
#144=VERTEX_POINT('',#1134);
#145=VERTEX_POINT('',#1245);
#146=VERTEX_POINT('',#1248);
#147=VERTEX_POINT('',#1252);
#148=VERTEX_POINT('',#1255);
#149=VERTEX_POINT('',#1259);
#150=EDGE_CURVE('',#122,#123,#102,.T.);
#151=EDGE_CURVE('',#122,#124,#82,.T.);
#152=EDGE_CURVE('',#124,#125,#70,.F.);
#153=EDGE_CURVE('',#125,#123,#83,.T.);
#154=EDGE_CURVE('',#126,#127,#103,.T.);
#155=EDGE_CURVE('',#126,#122,#84,.T.);
#156=EDGE_CURVE('',#123,#127,#85,.T.);
#157=EDGE_CURVE('',#128,#129,#104,.T.);
#158=EDGE_CURVE('',#128,#126,#86,.T.);
#159=EDGE_CURVE('',#127,#129,#87,.T.);
#160=EDGE_CURVE('',#130,#131,#105,.T.);
#161=EDGE_CURVE('',#130,#132,#88,.T.);
#162=EDGE_CURVE('',#133,#132,#71,.T.);
#163=EDGE_CURVE('',#131,#133,#89,.T.);
#164=EDGE_CURVE('',#134,#135,#106,.T.);
#165=EDGE_CURVE('',#134,#130,#90,.T.);
#166=EDGE_CURVE('',#135,#131,#91,.T.);
#167=EDGE_CURVE('',#136,#137,#107,.T.);
#168=EDGE_CURVE('',#136,#134,#92,.T.);
#169=EDGE_CURVE('',#137,#135,#93,.T.);
#170=EDGE_CURVE('',#138,#138,#72,.T.);
#171=EDGE_CURVE('',#138,#139,#108,.T.);
#172=EDGE_CURVE('',#139,#139,#73,.T.);
#173=EDGE_CURVE('',#140,#140,#74,.T.);
#174=EDGE_CURVE('',#124,#133,#94,.T.);
#175=EDGE_CURVE('',#141,#128,#95,.T.);
#176=EDGE_CURVE('',#142,#141,#96,.T.);
#177=EDGE_CURVE('',#142,#137,#97,.T.);
#178=EDGE_CURVE('',#143,#142,#75,.T.);
#179=EDGE_CURVE('',#143,#136,#98,.T.);
#180=EDGE_CURVE('',#132,#125,#99,.T.);
#181=EDGE_CURVE('',#144,#143,#100,.T.);
#182=EDGE_CURVE('',#129,#144,#101,.T.);
#183=EDGE_CURVE('',#141,#144,#76,.F.);
#184=EDGE_CURVE('',#145,#145,#77,.T.);
#185=EDGE_CURVE('',#140,#146,#109,.T.);
#186=EDGE_CURVE('',#146,#146,#78,.T.);
#187=EDGE_CURVE('',#147,#147,#79,.T.);
#188=EDGE_CURVE('',#147,#148,#110,.T.);
#189=EDGE_CURVE('',#148,#148,#80,.T.);
#190=EDGE_CURVE('',#149,#149,#81,.T.);
#191=EDGE_CURVE('',#149,#145,#111,.T.);
#192=ORIENTED_EDGE('',*,*,#150,.F.);
#193=ORIENTED_EDGE('',*,*,#151,.T.);
#194=ORIENTED_EDGE('',*,*,#152,.T.);
#195=ORIENTED_EDGE('',*,*,#153,.T.);
#196=ORIENTED_EDGE('',*,*,#154,.F.);
#197=ORIENTED_EDGE('',*,*,#155,.T.);
#198=ORIENTED_EDGE('',*,*,#150,.T.);
#199=ORIENTED_EDGE('',*,*,#156,.T.);
#200=ORIENTED_EDGE('',*,*,#157,.F.);
#201=ORIENTED_EDGE('',*,*,#158,.T.);
#202=ORIENTED_EDGE('',*,*,#154,.T.);
#203=ORIENTED_EDGE('',*,*,#159,.T.);
#204=ORIENTED_EDGE('',*,*,#160,.F.);
#205=ORIENTED_EDGE('',*,*,#161,.T.);
#206=ORIENTED_EDGE('',*,*,#162,.F.);
#207=ORIENTED_EDGE('',*,*,#163,.F.);
#208=ORIENTED_EDGE('',*,*,#164,.F.);
#209=ORIENTED_EDGE('',*,*,#165,.T.);
#210=ORIENTED_EDGE('',*,*,#160,.T.);
#211=ORIENTED_EDGE('',*,*,#166,.F.);
#212=ORIENTED_EDGE('',*,*,#167,.F.);
#213=ORIENTED_EDGE('',*,*,#168,.T.);
#214=ORIENTED_EDGE('',*,*,#164,.T.);
#215=ORIENTED_EDGE('',*,*,#169,.F.);
#216=ORIENTED_EDGE('',*,*,#170,.F.);
#217=ORIENTED_EDGE('',*,*,#171,.T.);
#218=ORIENTED_EDGE('',*,*,#172,.F.);
#219=ORIENTED_EDGE('',*,*,#171,.F.);
#220=ORIENTED_EDGE('',*,*,#173,.F.);
#221=ORIENTED_EDGE('',*,*,#170,.T.);
#222=ORIENTED_EDGE('',*,*,#174,.F.);
#223=ORIENTED_EDGE('',*,*,#151,.F.);
#224=ORIENTED_EDGE('',*,*,#155,.F.);
#225=ORIENTED_EDGE('',*,*,#158,.F.);
#226=ORIENTED_EDGE('',*,*,#175,.F.);
#227=ORIENTED_EDGE('',*,*,#176,.F.);
#228=ORIENTED_EDGE('',*,*,#177,.T.);
#229=ORIENTED_EDGE('',*,*,#169,.T.);
#230=ORIENTED_EDGE('',*,*,#166,.T.);
#231=ORIENTED_EDGE('',*,*,#163,.T.);
#232=ORIENTED_EDGE('',*,*,#167,.T.);
#233=ORIENTED_EDGE('',*,*,#177,.F.);
#234=ORIENTED_EDGE('',*,*,#178,.F.);
#235=ORIENTED_EDGE('',*,*,#179,.T.);
#236=ORIENTED_EDGE('',*,*,#180,.F.);
#237=ORIENTED_EDGE('',*,*,#161,.F.);
#238=ORIENTED_EDGE('',*,*,#165,.F.);
#239=ORIENTED_EDGE('',*,*,#168,.F.);
#240=ORIENTED_EDGE('',*,*,#179,.F.);
#241=ORIENTED_EDGE('',*,*,#181,.F.);
#242=ORIENTED_EDGE('',*,*,#182,.F.);
#243=ORIENTED_EDGE('',*,*,#159,.F.);
#244=ORIENTED_EDGE('',*,*,#156,.F.);
#245=ORIENTED_EDGE('',*,*,#153,.F.);
#246=ORIENTED_EDGE('',*,*,#157,.T.);
#247=ORIENTED_EDGE('',*,*,#182,.T.);
#248=ORIENTED_EDGE('',*,*,#183,.F.);
#249=ORIENTED_EDGE('',*,*,#175,.T.);
#250=ORIENTED_EDGE('',*,*,#184,.F.);
#251=ORIENTED_EDGE('',*,*,#174,.T.);
#252=ORIENTED_EDGE('',*,*,#162,.T.);
#253=ORIENTED_EDGE('',*,*,#180,.T.);
#254=ORIENTED_EDGE('',*,*,#152,.F.);
#255=ORIENTED_EDGE('',*,*,#173,.T.);
#256=ORIENTED_EDGE('',*,*,#185,.T.);
#257=ORIENTED_EDGE('',*,*,#186,.T.);
#258=ORIENTED_EDGE('',*,*,#185,.F.);
#259=ORIENTED_EDGE('',*,*,#186,.F.);
#260=ORIENTED_EDGE('',*,*,#187,.F.);
#261=ORIENTED_EDGE('',*,*,#187,.T.);
#262=ORIENTED_EDGE('',*,*,#188,.T.);
#263=ORIENTED_EDGE('',*,*,#189,.T.);
#264=ORIENTED_EDGE('',*,*,#188,.F.);
#265=ORIENTED_EDGE('',*,*,#190,.F.);
#266=ORIENTED_EDGE('',*,*,#191,.T.);
#267=ORIENTED_EDGE('',*,*,#184,.T.);
#268=ORIENTED_EDGE('',*,*,#191,.F.);
#269=ORIENTED_EDGE('',*,*,#190,.T.);
#270=ORIENTED_EDGE('',*,*,#172,.T.);
#271=ORIENTED_EDGE('',*,*,#176,.T.);
#272=ORIENTED_EDGE('',*,*,#183,.T.);
#273=ORIENTED_EDGE('',*,*,#181,.T.);
#274=ORIENTED_EDGE('',*,*,#178,.T.);
#275=ORIENTED_EDGE('',*,*,#189,.F.);
#276=CYLINDRICAL_SURFACE('',#321,3.442);
#277=CYLINDRICAL_SURFACE('',#323,3.442);
#278=CYLINDRICAL_SURFACE('',#324,3.442);
#279=CYLINDRICAL_SURFACE('',#325,2.872);
#280=CYLINDRICAL_SURFACE('',#327,2.872);
#281=CYLINDRICAL_SURFACE('',#328,2.872);
#282=CYLINDRICAL_SURFACE('',#329,2.5);
#283=CYLINDRICAL_SURFACE('',#334,2.872);
#284=CYLINDRICAL_SURFACE('',#336,3.442);
#285=CYLINDRICAL_SURFACE('',#340,3.);
#286=CYLINDRICAL_SURFACE('',#344,2.5);
#287=CYLINDRICAL_SURFACE('',#346,4.);
#288=ADVANCED_FACE('',(#27),#276,.T.);
#289=ADVANCED_FACE('',(#28),#277,.T.);
#290=ADVANCED_FACE('',(#29),#278,.T.);
#291=ADVANCED_FACE('',(#30),#279,.T.);
#292=ADVANCED_FACE('',(#31),#280,.T.);
#293=ADVANCED_FACE('',(#32),#281,.T.);
#294=ADVANCED_FACE('',(#33),#282,.F.);
#295=ADVANCED_FACE('',(#34,#17),#22,.F.);
#296=ADVANCED_FACE('',(#35),#15,.F.);
#297=ADVANCED_FACE('',(#36),#283,.T.);
#298=ADVANCED_FACE('',(#37),#16,.F.);
#299=ADVANCED_FACE('',(#38),#284,.T.);
#300=ADVANCED_FACE('',(#39,#18),#23,.F.);
#301=ADVANCED_FACE('',(#40),#285,.F.);
#302=ADVANCED_FACE('',(#41,#19),#24,.F.);
#303=ADVANCED_FACE('',(#42),#286,.F.);
#304=ADVANCED_FACE('',(#43),#287,.T.);
#305=ADVANCED_FACE('',(#44,#20),#25,.T.);
#306=ADVANCED_FACE('',(#45,#21),#26,.F.);
#307=CLOSED_SHELL('',(#288,#289,#290,#291,#292,#293,#294,#295,#296,#297,
#298,#299,#300,#301,#302,#303,#304,#305,#306));
#308=DERIVED_UNIT_ELEMENT(#310,1.);
#309=DERIVED_UNIT_ELEMENT(#1269,-3.);
#310=(
MASS_UNIT()
NAMED_UNIT(*)
SI_UNIT(.KILO.,.GRAM.)
);
#311=DERIVED_UNIT((#308,#309));
#312=MEASURE_REPRESENTATION_ITEM('density measure',
POSITIVE_RATIO_MEASURE(7850.),#311);
#313=PROPERTY_DEFINITION_REPRESENTATION(#318,#315);
#314=PROPERTY_DEFINITION_REPRESENTATION(#319,#316);
#315=REPRESENTATION('material name',(#317),#1266);
#316=REPRESENTATION('density',(#312),#1266);
#317=DESCRIPTIVE_REPRESENTATION_ITEM('Steel','Steel');
#318=PROPERTY_DEFINITION('material property','material name',#1276);
#319=PROPERTY_DEFINITION('material property','density of part',#1276);
#320=AXIS2_PLACEMENT_3D('',#420,#350,#351);
#321=AXIS2_PLACEMENT_3D('',#421,#352,#353);
#322=AXIS2_PLACEMENT_3D('',#446,#355,#356);
#323=AXIS2_PLACEMENT_3D('',#463,#357,#358);
#324=AXIS2_PLACEMENT_3D('',#511,#360,#361);
#325=AXIS2_PLACEMENT_3D('',#559,#363,#364);
#326=AXIS2_PLACEMENT_3D('',#571,#366,#367);
#327=AXIS2_PLACEMENT_3D('',#576,#368,#369);
#328=AXIS2_PLACEMENT_3D('',#601,#371,#372);
#329=AXIS2_PLACEMENT_3D('',#625,#374,#375);
#330=AXIS2_PLACEMENT_3D('',#627,#376,#377);
#331=AXIS2_PLACEMENT_3D('',#630,#379,#380);
#332=AXIS2_PLACEMENT_3D('',#631,#381,#382);
#333=AXIS2_PLACEMENT_3D('',#633,#383,#384);
#334=AXIS2_PLACEMENT_3D('',#933,#385,#386);
#335=AXIS2_PLACEMENT_3D('',#935,#387,#388);
#336=AXIS2_PLACEMENT_3D('',#1242,#389,#390);
#337=AXIS2_PLACEMENT_3D('',#1243,#391,#392);
#338=AXIS2_PLACEMENT_3D('',#1244,#393,#394);
#339=AXIS2_PLACEMENT_3D('',#1246,#395,#396);
#340=AXIS2_PLACEMENT_3D('',#1247,#397,#398);
#341=AXIS2_PLACEMENT_3D('',#1250,#400,#401);
#342=AXIS2_PLACEMENT_3D('',#1251,#402,#403);
#343=AXIS2_PLACEMENT_3D('',#1253,#404,#405);
#344=AXIS2_PLACEMENT_3D('',#1254,#406,#407);
#345=AXIS2_PLACEMENT_3D('',#1257,#409,#410);
#346=AXIS2_PLACEMENT_3D('',#1258,#411,#412);
#347=AXIS2_PLACEMENT_3D('',#1260,#413,#414);
#348=AXIS2_PLACEMENT_3D('',#1262,#416,#417);
#349=AXIS2_PLACEMENT_3D('',#1263,#418,#419);
#350=DIRECTION('axis',(0.,0.,1.));
#351=DIRECTION('refdir',(1.,0.,0.));
#352=DIRECTION('center_axis',(0.,1.,0.));
#353=DIRECTION('ref_axis',(1.,0.,0.));
#354=DIRECTION('',(0.,1.,0.));
#355=DIRECTION('center_axis',(0.,1.,0.));
#356=DIRECTION('ref_axis',(1.,0.,0.));
#357=DIRECTION('center_axis',(0.,1.,0.));
#358=DIRECTION('ref_axis',(1.,0.,0.));
#359=DIRECTION('',(0.,1.,0.));
#360=DIRECTION('center_axis',(0.,1.,0.));
#361=DIRECTION('ref_axis',(1.,0.,0.));
#362=DIRECTION('',(0.,1.,0.));
#363=DIRECTION('center_axis',(0.,1.,0.));
#364=DIRECTION('ref_axis',(-0.457801493046148,0.,0.889054437571017));
#365=DIRECTION('',(0.,1.,0.));
#366=DIRECTION('center_axis',(0.,1.,0.));
#367=DIRECTION('ref_axis',(1.,0.,-4.55135353028007E-15));
#368=DIRECTION('center_axis',(0.,1.,0.));
#369=DIRECTION('ref_axis',(1.,0.,-4.55135353028007E-15));
#370=DIRECTION('',(0.,1.,0.));
#371=DIRECTION('center_axis',(0.,1.,0.));
#372=DIRECTION('ref_axis',(1.,0.,-4.55135353028007E-15));
#373=DIRECTION('',(0.,1.,0.));
#374=DIRECTION('center_axis',(0.,-1.,0.));
#375=DIRECTION('ref_axis',(-1.,0.,0.));
#376=DIRECTION('center_axis',(0.,1.,0.));
#377=DIRECTION('ref_axis',(-1.,0.,0.));
#378=DIRECTION('',(0.,1.,0.));
#379=DIRECTION('center_axis',(0.,-1.,0.));
#380=DIRECTION('ref_axis',(-1.,0.,0.));
#381=DIRECTION('center_axis',(0.,1.,0.));
#382=DIRECTION('ref_axis',(-1.,0.,0.));
#383=DIRECTION('center_axis',(0.,1.,0.));
#384=DIRECTION('ref_axis',(0.,0.,1.));
#385=DIRECTION('center_axis',(0.,1.,0.));
#386=DIRECTION('ref_axis',(1.,0.,-4.55135353028007E-15));
#387=DIRECTION('center_axis',(0.,-1.,0.));
#388=DIRECTION('ref_axis',(1.,0.,-4.55135353028007E-15));
#389=DIRECTION('center_axis',(0.,1.,0.));
#390=DIRECTION('ref_axis',(1.,0.,0.));
#391=DIRECTION('center_axis',(0.,1.,0.));
#392=DIRECTION('ref_axis',(1.,0.,0.));
#393=DIRECTION('center_axis',(0.,1.,0.));
#394=DIRECTION('ref_axis',(1.,0.,0.));
#395=DIRECTION('center_axis',(0.,1.,0.));
#396=DIRECTION('ref_axis',(1.,0.,0.));
#397=DIRECTION('center_axis',(0.,-1.,0.));
#398=DIRECTION('ref_axis',(0.,0.,1.));
#399=DIRECTION('',(0.,-1.,0.));
#400=DIRECTION('center_axis',(0.,-1.,0.));
#401=DIRECTION('ref_axis',(0.,0.,1.));
#402=DIRECTION('center_axis',(0.,-1.,0.));
#403=DIRECTION('ref_axis',(0.,0.,1.));
#404=DIRECTION('center_axis',(0.,1.,0.));
#405=DIRECTION('ref_axis',(1.,0.,0.));
#406=DIRECTION('center_axis',(0.,1.,0.));
#407=DIRECTION('ref_axis',(1.,0.,0.));
#408=DIRECTION('',(0.,-1.,0.));
#409=DIRECTION('center_axis',(0.,-1.,0.));
#410=DIRECTION('ref_axis',(1.,0.,0.));
#411=DIRECTION('center_axis',(0.,1.,0.));
#412=DIRECTION('ref_axis',(1.,0.,0.));
#413=DIRECTION('center_axis',(0.,1.,0.));
#414=DIRECTION('ref_axis',(1.,0.,0.));
#415=DIRECTION('',(0.,-1.,0.));
#416=DIRECTION('center_axis',(0.,1.,0.));
#417=DIRECTION('ref_axis',(1.,0.,0.));
#418=DIRECTION('center_axis',(0.,1.,0.));
#419=DIRECTION('ref_axis',(1.,0.,0.));
#420=CARTESIAN_POINT('',(0.,0.,0.));
#421=CARTESIAN_POINT('Origin',(0.,0.,0.));
#422=CARTESIAN_POINT('',(-3.44097741017629,2.17767954534311,0.00312459394952171));
#423=CARTESIAN_POINT('',(-3.44051511154178,2.32232045465689,0.0032640687918839));
#424=CARTESIAN_POINT('',(-3.442,0.,4.21523428266519E-16));
#425=CARTESIAN_POINT('',(-1.51078263890181,3.,-3.09271722244257));
#426=CARTESIAN_POINT('Ctrl Pts',(-3.44097741017629,2.17767954534311,0.00312459394952171));
#427=CARTESIAN_POINT('Ctrl Pts',(-3.44363214522082,2.19158406432609,0.303977132849907));
#428=CARTESIAN_POINT('Ctrl Pts',(-3.40743738979998,2.20548858330907,0.604198075841608));
#429=CARTESIAN_POINT('Ctrl Pts',(-3.32987672039041,2.21939310229206,0.893316589746418));
#430=CARTESIAN_POINT('Ctrl Pts',(-3.03511538124214,2.27223579520377,1.99208173682274));
#431=CARTESIAN_POINT('Ctrl Pts',(-2.14290541291196,2.32507848811549,2.9304943037443));
#432=CARTESIAN_POINT('Ctrl Pts',(-1.06040427618179,2.3779211810272,3.28044569172421));
#433=CARTESIAN_POINT('Ctrl Pts',(0.0220968605483865,2.43076387393892,3.63039707970412));
#434=CARTESIAN_POINT('Ctrl Pts',(1.29488916567854,2.48360656685063,3.39188728874238));
#435=CARTESIAN_POINT('Ctrl Pts',(2.17701594496205,2.53644925976235,2.6734400297397));
#436=CARTESIAN_POINT('Ctrl Pts',(3.05914272424556,2.58929195267407,1.95499277073702));
#437=CARTESIAN_POINT('Ctrl Pts',(3.55060397768241,2.64213464558578,0.756608043693405));
#438=CARTESIAN_POINT('Ctrl Pts',(3.42723826772364,2.6949773384975,-0.374151054347764));
#439=CARTESIAN_POINT('Ctrl Pts',(3.30387255776488,2.74782003140921,-1.50491015238894));
#440=CARTESIAN_POINT('Ctrl Pts',(2.56567988441049,2.80066272432093,-2.56804362142767));
#441=CARTESIAN_POINT('Ctrl Pts',(1.54930138940109,2.85350541723264,-3.07958347644979));
#442=CARTESIAN_POINT('Ctrl Pts',(0.610073810614438,2.90233694482176,-3.55229353657445));
#443=CARTESIAN_POINT('Ctrl Pts',(-0.566709617930276,2.95116847241088,-3.55397207927932));
#444=CARTESIAN_POINT('Ctrl Pts',(-1.51442129635206,3.,-3.09710677218153));
#445=CARTESIAN_POINT('',(1.51078263890182,3.,-3.09271722244257));
#446=CARTESIAN_POINT('Origin',(0.,3.,0.));
#447=CARTESIAN_POINT('Ctrl Pts',(1.51078263890182,3.,-3.09271722244257));
#448=CARTESIAN_POINT('Ctrl Pts',(2.53762794620682,2.94715730708828,-2.59110651847753));
#449=CARTESIAN_POINT('Ctrl Pts',(3.286239229296,2.89431461417657,-1.54227205824365));
#450=CARTESIAN_POINT('Ctrl Pts',(3.42225996130422,2.84147192126485,-0.414705481544138));
#451=CARTESIAN_POINT('Ctrl Pts',(3.55828069331244,2.78862922835314,0.712861095155363));
#452=CARTESIAN_POINT('Ctrl Pts',(3.08171087423972,2.73578653544142,1.91915978832048));
#453=CARTESIAN_POINT('Ctrl Pts',(2.20823259036577,2.6829438425297,2.64841409448915));
#454=CARTESIAN_POINT('Ctrl Pts',(1.33475430649181,2.63010114961799,3.37766840065781));
#455=CARTESIAN_POINT('Ctrl Pts',(0.0643675578166232,2.57725845670628,3.62987831983002));
#456=CARTESIAN_POINT('Ctrl Pts',(-1.02224638414776,2.52441576379456,3.29228809512624));
#457=CARTESIAN_POINT('Ctrl Pts',(-2.10886032611215,2.47157307088284,2.95469787042246));
#458=CARTESIAN_POINT('Ctrl Pts',(-3.01170146136574,2.41873037797113,2.02730750184269));
#459=CARTESIAN_POINT('Ctrl Pts',(-3.31918267524384,2.36588768505941,0.93218724666893));
#460=CARTESIAN_POINT('Ctrl Pts',(-3.40368571720561,2.35136527492524,0.631222541511977));
#461=CARTESIAN_POINT('Ctrl Pts',(-3.44322246392771,2.33684286479106,0.31758954725744));
#462=CARTESIAN_POINT('Ctrl Pts',(-3.44051511154178,2.32232045465689,0.0032640687918839));
#463=CARTESIAN_POINT('Origin',(0.,0.,0.));
#464=CARTESIAN_POINT('',(-3.43686150509169,1.17767954534311,-0.00131498709970562));
#465=CARTESIAN_POINT('',(-3.43703105587512,1.32232045465689,-0.00149073129990046));
#466=CARTESIAN_POINT('',(-3.442,0.,4.21523428266519E-16));
#467=CARTESIAN_POINT('Ctrl Pts',(-3.43686150509169,1.17767954534311,-0.00131498709970562));
#468=CARTESIAN_POINT('Ctrl Pts',(-3.43464729576506,1.20786124018913,0.653706207199863));
#469=CARTESIAN_POINT('Ctrl Pts',(-3.25462401323148,1.23804293503515,1.30986486491162));
#470=CARTESIAN_POINT('Ctrl Pts',(-2.90458273555235,1.26822462988118,1.85729890366449));
#471=CARTESIAN_POINT('Ctrl Pts',(-2.29172372159739,1.32106732279289,2.81575696729608));
#472=CARTESIAN_POINT('Ctrl Pts',(-1.15769696665455,1.37391001570461,3.44093405085223));
#473=CARTESIAN_POINT('Ctrl Pts',(-0.0200746829990188,1.42675270861632,3.44755397309192));
#474=CARTESIAN_POINT('Ctrl Pts',(1.11754760065651,1.47959540152804,3.4541738953316));
#475=CARTESIAN_POINT('Ctrl Pts',(2.25876541302473,1.53243809443975,2.84223665625483));
#476=CARTESIAN_POINT('Ctrl Pts',(2.88274865454135,1.58528078735147,1.89099384353431));
#477=CARTESIAN_POINT('Ctrl Pts',(3.50673189605797,1.63812348026319,0.939751030813798));
#478=CARTESIAN_POINT('Ctrl Pts',(3.61348056672299,1.6909661731749,-0.350797355550452));
#479=CARTESIAN_POINT('Ctrl Pts',(3.15427391111254,1.74380886608662,-1.39163702710851));
#480=CARTESIAN_POINT('Ctrl Pts',(2.69506725550209,1.79665155899833,-2.43247669866657));
#481=CARTESIAN_POINT('Ctrl Pts',(1.66990527361617,1.84949425191005,-3.22360765541843));
#482=CARTESIAN_POINT('Ctrl Pts',(0.546656487472929,1.90233694482176,-3.40399736706466));
#483=CARTESIAN_POINT('Ctrl Pts',(-0.576592298670316,1.95517963773348,-3.58438707871089));
#484=CARTESIAN_POINT('Ctrl Pts',(-1.79792788907088,2.00802233064519,-3.15403554525147));
#485=CARTESIAN_POINT('Ctrl Pts',(-2.55993932928797,2.06086502355691,-2.30930091490622));
#486=CARTESIAN_POINT('Ctrl Pts',(-3.12144239357027,2.09980319748564,-1.68684164669747));
#487=CARTESIAN_POINT('Ctrl Pts',(-3.43354309799153,2.13874137141437,-0.839381968193349));
#488=CARTESIAN_POINT('Ctrl Pts',(-3.44097741017629,2.17767954534311,0.00312459394952171));
#489=CARTESIAN_POINT('Ctrl Pts',(-3.44051511154178,2.32232045465689,0.0032640687918839));
#490=CARTESIAN_POINT('Ctrl Pts',(-3.43337122095827,2.28400017187935,-0.826146552978302));
#491=CARTESIAN_POINT('Ctrl Pts',(-3.13209276228408,2.24567988910181,-1.66037876045201));
#492=CARTESIAN_POINT('Ctrl Pts',(-2.58669348737555,2.20735960632427,-2.27940618340654));
#493=CARTESIAN_POINT('Ctrl Pts',(-1.83460179312653,2.15451691341255,-3.13302921654052));
#494=CARTESIAN_POINT('Ctrl Pts',(-0.618297112125846,2.10167422050083,-3.57742514104072));
#495=CARTESIAN_POINT('Ctrl Pts',(0.506991155748512,2.04883152758912,-3.4100925200183));
#496=CARTESIAN_POINT('Ctrl Pts',(1.63227942362286,1.9959888346774,-3.24275989899589));
#497=CARTESIAN_POINT('Ctrl Pts',(2.6665512783709,1.94314614176569,-2.46369873245086));
#498=CARTESIAN_POINT('Ctrl Pts',(3.13784159096614,1.89030344885397,-1.42829860363476));
#499=CARTESIAN_POINT('Ctrl Pts',(3.60913190356137,1.83746075594226,-0.392898474818668));
#500=CARTESIAN_POINT('Ctrl Pts',(3.51744067400383,1.78461806303054,0.898840616268486));
#501=CARTESIAN_POINT('Ctrl Pts',(2.90458184847793,1.73177537011882,1.8572984703019));
#502=CARTESIAN_POINT('Ctrl Pts',(2.29172302295203,1.67893267720711,2.81575632433532));
#503=CARTESIAN_POINT('Ctrl Pts',(1.15769660145777,1.62608998429539,3.44093294131499));
#504=CARTESIAN_POINT('Ctrl Pts',(0.0200746684170816,1.57324729138368,3.44755281781386));
#505=CARTESIAN_POINT('Ctrl Pts',(-1.11754726462361,1.52040459847196,3.45417269431274));
#506=CARTESIAN_POINT('Ctrl Pts',(-2.25876470921073,1.46756190556024,2.8422358303308));
#507=CARTESIAN_POINT('Ctrl Pts',(-2.88274775691835,1.41471921264853,1.89099332506776));
#508=CARTESIAN_POINT('Ctrl Pts',(-3.24643890284049,1.38391962665132,1.33655762675843));
#509=CARTESIAN_POINT('Ctrl Pts',(-3.43441568150205,1.35312004065411,0.666853345336001));
#510=CARTESIAN_POINT('Ctrl Pts',(-3.43703105587512,1.32232045465689,-0.00149073129990046));
#511=CARTESIAN_POINT('Origin',(0.,0.,0.));
#512=CARTESIAN_POINT('',(-3.44511297801791,0.177679545343107,-0.00357226737269139));
#513=CARTESIAN_POINT('',(-3.44595140334264,0.322320454656893,-0.00229982394207087));
#514=CARTESIAN_POINT('',(-3.442,0.,4.21523428266519E-16));
#515=CARTESIAN_POINT('Ctrl Pts',(-3.44511297801791,0.177679545343107,-0.00357226737269139));
#516=CARTESIAN_POINT('Ctrl Pts',(-3.43733898990645,0.22413841605217,0.997366756791034));
#517=CARTESIAN_POINT('Ctrl Pts',(-2.97618868818847,0.270597286761232,2.00725890104063));
#518=CARTESIAN_POINT('Ctrl Pts',(-2.20823430329621,0.317056157470294,2.64841188025934));
#519=CARTESIAN_POINT('Ctrl Pts',(-1.33475681424583,0.369898850382009,3.3776644314557));
#520=CARTESIAN_POINT('Ctrl Pts',(-0.064367790466658,0.422741543293725,3.62988021575908));
#521=CARTESIAN_POINT('Ctrl Pts',(1.02224704620598,0.475584236205441,3.29229101996556));
#522=CARTESIAN_POINT('Ctrl Pts',(2.10886188287862,0.528426929117157,2.95470182417204));
#523=CARTESIAN_POINT('Ctrl Pts',(3.01170253244472,0.581269622028872,2.02730764828162));
#524=CARTESIAN_POINT('Ctrl Pts',(3.3191835956979,0.634112314940588,0.932186361876681));
#525=CARTESIAN_POINT('Ctrl Pts',(3.62666465895107,0.686955007852303,-0.162934924528257));
#526=CARTESIAN_POINT('Ctrl Pts',(3.33878613589132,0.739797700764018,-1.42578332144772));
#527=CARTESIAN_POINT('Ctrl Pts',(2.5866943076499,0.792640393675734,-2.27940618934082));
#528=CARTESIAN_POINT('Ctrl Pts',(1.83460247940848,0.84548308658745,-3.13302905723392));
#529=CARTESIAN_POINT('Ctrl Pts',(0.6182973459854,0.898325779499167,-3.57742639610066));
#530=CARTESIAN_POINT('Ctrl Pts',(-0.506991305393436,0.951168472410882,-3.41009398426965));
#531=CARTESIAN_POINT('Ctrl Pts',(-1.63227995677227,1.0040111653226,-3.24276157243864));
#532=CARTESIAN_POINT('Ctrl Pts',(-2.66655212610686,1.05685385823431,-2.46369940990988));
#533=CARTESIAN_POINT('Ctrl Pts',(-3.13784257429061,1.10969655114603,-1.428298806792));
#534=CARTESIAN_POINT('Ctrl Pts',(-3.33995021389397,1.13235754921172,-0.984278834084103));
#535=CARTESIAN_POINT('Ctrl Pts',(-3.43852397612003,1.15501854727741,-0.493117521474819));
#536=CARTESIAN_POINT('Ctrl Pts',(-3.43686150509169,1.17767954534311,-0.00131498709970562));
#537=CARTESIAN_POINT('Ctrl Pts',(-3.43703105587512,1.32232045465689,-0.00149073129990046));
#538=CARTESIAN_POINT('Ctrl Pts',(-3.4389028660005,1.30027734774239,-0.479821184777224));
#539=CARTESIAN_POINT('Ctrl Pts',(-3.34582900525081,1.27823424082789,-0.957454915242118));
#540=CARTESIAN_POINT('Ctrl Pts',(-3.15427294050111,1.25619113391338,-1.39163666317438));
#541=CARTESIAN_POINT('Ctrl Pts',(-2.69506642554812,1.20334844100167,-2.43247599960931));
#542=CARTESIAN_POINT('Ctrl Pts',(-1.66990474481403,1.15050574808995,-3.22360652593505));
#543=CARTESIAN_POINT('Ctrl Pts',(-0.546656312036042,1.09766305517824,-3.40399622509185));
#544=CARTESIAN_POINT('Ctrl Pts',(0.576592120741949,1.04482036226652,-3.58438592424865));
#545=CARTESIAN_POINT('Ctrl Pts',(1.79792730556384,0.991977669354804,-3.15403479623651));
#546=CARTESIAN_POINT('Ctrl Pts',(2.55993852547426,0.939134976443088,-2.30930034168054));
#547=CARTESIAN_POINT('Ctrl Pts',(3.32194974538469,0.886292283531373,-1.46456588712458));
#548=CARTESIAN_POINT('Ctrl Pts',(3.62463700038365,0.833449590619658,-0.205448106024786));
#549=CARTESIAN_POINT('Ctrl Pts',(3.32987571704987,0.780606897707942,0.893316550917698));
#550=CARTESIAN_POINT('Ctrl Pts',(3.03511443371609,0.727764204796227,1.99208120786018));
#551=CARTESIAN_POINT('Ctrl Pts',(2.14290461204957,0.67492151188451,2.93049274064535));
#552=CARTESIAN_POINT('Ctrl Pts',(1.06040388798343,0.622078818972794,3.28044427196098));
#553=CARTESIAN_POINT('Ctrl Pts',(-0.0220968360827219,0.569236126061079,
3.63039580327662));
#554=CARTESIAN_POINT('Ctrl Pts',(-1.2948884625485,0.516393433149363,3.39188733312272));
#555=CARTESIAN_POINT('Ctrl Pts',(-2.17701513681096,0.463550740237648,2.67343988910899));
#556=CARTESIAN_POINT('Ctrl Pts',(-2.96288854875478,0.416473978377396,2.0333858463022));
#557=CARTESIAN_POINT('Ctrl Pts',(-3.43870053967386,0.369397216517144,1.01241572847804));
#558=CARTESIAN_POINT('Ctrl Pts',(-3.44595140334264,0.322320454656893,-0.00229982394207087));
#559=CARTESIAN_POINT('Origin',(0.,-1.84858989190502,0.));
#560=CARTESIAN_POINT('',(-2.87076101114119,2.65141010809498,0.0027235344481016));
#561=CARTESIAN_POINT('',(-2.87621855329202,2.84858989190502,-0.000265687828191839));
#562=CARTESIAN_POINT('',(-2.872,-1.84858989190502,1.34232058996795E-14));
#563=CARTESIAN_POINT('',(1.67106223110445,3.,2.341478183016));
#564=CARTESIAN_POINT('Ctrl Pts',(-2.87076101114119,2.65141010809498,0.00272353444810174));
#565=CARTESIAN_POINT('Ctrl Pts',(-2.87302002219651,2.66593251822915,0.264996275340912));
#566=CARTESIAN_POINT('Ctrl Pts',(-2.71999206497232,2.73329762127504,1.47892054600039));
#567=CARTESIAN_POINT('Ctrl Pts',(-1.06348420399512,2.84949425191005,3.18047065903932));
#568=CARTESIAN_POINT('Ctrl Pts',(0.95367507027296,2.95116847241088,2.84743473687276));
#569=CARTESIAN_POINT('Ctrl Pts',(1.67106223110445,3.,2.341478183016));
#570=CARTESIAN_POINT('',(-1.66746714335671,3.,2.33836210323077));
#571=CARTESIAN_POINT('Origin',(0.,3.,0.));
#572=CARTESIAN_POINT('Ctrl Pts',(-2.87621855329202,2.84858989190502,-0.0002656878281917));
#573=CARTESIAN_POINT('Ctrl Pts',(-2.87317436339028,2.89905992793668,0.904743558610121));
#574=CARTESIAN_POINT('Ctrl Pts',(-2.40899120357382,2.94952996396834,1.80958728058369));
#575=CARTESIAN_POINT('Ctrl Pts',(-1.66746714335672,3.,2.33836210323076));
#576=CARTESIAN_POINT('Origin',(0.,-1.84858989190502,0.));
#577=CARTESIAN_POINT('',(-2.86785391995158,1.65141010809498,-0.00124386411776387));
#578=CARTESIAN_POINT('',(-2.87114675247714,1.84858989190502,0.00260715683412793));
#579=CARTESIAN_POINT('',(-2.872,-1.84858989190502,1.34232058996795E-14));
#580=CARTESIAN_POINT('Ctrl Pts',(-2.86785391995158,1.65141010809498,-0.00124386411776374));
#581=CARTESIAN_POINT('Ctrl Pts',(-2.86567165522193,1.68220969409219,0.556421501395985));
#582=CARTESIAN_POINT('Ctrl Pts',(-2.43972152959238,1.76585197300112,2.0739526817772));
#583=CARTESIAN_POINT('Ctrl Pts',(0.0197503651525866,1.90233694482176,3.39275614509654));
#584=CARTESIAN_POINT('Ctrl Pts',(2.858440559108,2.06086502355691,1.82781665297078));
#585=CARTESIAN_POINT('Ctrl Pts',(3.08796166133571,2.21939310229206,-1.40565923570064));
#586=CARTESIAN_POINT('Ctrl Pts',(0.498976681524833,2.3779211810272,-3.3558018885048));
#587=CARTESIAN_POINT('Ctrl Pts',(-2.26675849929271,2.52192684962818,-2.34529731526666));
#588=CARTESIAN_POINT('Ctrl Pts',(-2.86480015880075,2.61308982531744,-0.68933553171227));
#589=CARTESIAN_POINT('Ctrl Pts',(-2.87076101114119,2.65141010809498,0.00272353444810174));
#590=CARTESIAN_POINT('Ctrl Pts',(-2.87114675247714,1.84858989190502,0.00260715683412828));
#591=CARTESIAN_POINT('Ctrl Pts',(-2.87336185969616,1.862494410888,0.253638095742291));
#592=CARTESIAN_POINT('Ctrl Pts',(-2.728385771924,1.9292416227827,1.45615645167919));
#593=CARTESIAN_POINT('Ctrl Pts',(-1.04357853481664,2.04883152758912,3.22821049754572));
#594=CARTESIAN_POINT('Ctrl Pts',(2.14246983851326,2.20735960632426,2.63117378664323));
#595=CARTESIAN_POINT('Ctrl Pts',(3.37269359203211,2.36588768505941,-0.368617848513027));
#596=CARTESIAN_POINT('Ctrl Pts',(1.52485278040475,2.52441576379456,-3.0298491004705));
#597=CARTESIAN_POINT('Ctrl Pts',(-1.71569520111198,2.68294384252971,-2.929586698525));
#598=CARTESIAN_POINT('Ctrl Pts',(-2.85597509768407,2.79100188523319,-1.03292015527691));
#599=CARTESIAN_POINT('Ctrl Pts',(-2.87636166430764,2.84621723502496,-0.0428112571186366));
#600=CARTESIAN_POINT('Ctrl Pts',(-2.87621855329202,2.84858989190502,-0.0002656878281917));
#601=CARTESIAN_POINT('Origin',(0.,-1.84858989190502,0.));
#602=CARTESIAN_POINT('',(-2.87529704543872,0.65141010809498,-0.00191896989005952));
#603=CARTESIAN_POINT('',(-2.86771244701433,0.848589891905021,-0.0010972234021768));
#604=CARTESIAN_POINT('',(-2.872,-1.84858989190502,1.34232058996795E-14));
#605=CARTESIAN_POINT('Ctrl Pts',(-2.87529704543872,0.65141010809498,-0.00191896989005945));
#606=CARTESIAN_POINT('Ctrl Pts',(-2.86924693490508,0.698486869955232,0.844758271989824));
#607=CARTESIAN_POINT('Ctrl Pts',(-2.02658684556848,0.798406324727199,2.65289002805148));
#608=CARTESIAN_POINT('Ctrl Pts',(1.04357798895413,0.951168472410882,3.22820833041617));
#609=CARTESIAN_POINT('Ctrl Pts',(3.27695388188811,1.10969655114603,0.879180507500117));
#610=CARTESIAN_POINT('Ctrl Pts',(2.5192684115014,1.26822462988118,-2.27263785448588));
#611=CARTESIAN_POINT('Ctrl Pts',(-0.537972713549548,1.42675270861632,-3.34989099770278));
#612=CARTESIAN_POINT('Ctrl Pts',(-2.60558345528816,1.55448120135426,-1.75428905013771));
#613=CARTESIAN_POINT('Ctrl Pts',(-2.86941575570989,1.62936700118048,-0.400362127449216));
#614=CARTESIAN_POINT('Ctrl Pts',(-2.86785391995158,1.65141010809498,-0.00124386411776374));
#615=CARTESIAN_POINT('Ctrl Pts',(-2.86771244701433,0.848589891905021,-0.00109722340217704));
#616=CARTESIAN_POINT('Ctrl Pts',(-2.86586491383999,0.878771586751043,0.545451547669393));
#617=CARTESIAN_POINT('Ctrl Pts',(-2.45266111674318,0.961795974508782,2.05151923540784));
#618=CARTESIAN_POINT('Ctrl Pts',(-0.0197503916432334,1.09766305517824,3.39275746020362));
#619=CARTESIAN_POINT('Ctrl Pts',(2.83694126186186,1.25619113391338,1.86095872345595));
#620=CARTESIAN_POINT('Ctrl Pts',(3.1041540876753,1.41471921264853,-1.36953659813453));
#621=CARTESIAN_POINT('Ctrl Pts',(0.537972903500658,1.57324729138368,-3.3498922992891));
#622=CARTESIAN_POINT('Ctrl Pts',(-2.25111811987768,1.71787085113584,-2.36712424740986));
#623=CARTESIAN_POINT('Ctrl Pts',(-2.86494357275761,1.80965171797629,-0.700379143710425));
#624=CARTESIAN_POINT('Ctrl Pts',(-2.87114675247714,1.84858989190502,0.00260715683412828));
#625=CARTESIAN_POINT('Origin',(1.55926873300775E-16,13.,0.));
#626=CARTESIAN_POINT('',(2.5,11.,-3.06161699786838E-16));
#627=CARTESIAN_POINT('Origin',(1.55926873300775E-16,11.,0.));
#628=CARTESIAN_POINT('',(2.5,13.,-3.06161699786838E-16));
#629=CARTESIAN_POINT('',(2.5,13.,3.06161699786838E-16));
#630=CARTESIAN_POINT('Origin',(1.55926873300775E-16,13.,0.));
#631=CARTESIAN_POINT('Origin',(0.,11.,0.));
#632=CARTESIAN_POINT('',(3.67394039744206E-16,11.,-3.));
#633=CARTESIAN_POINT('Origin',(0.,11.,0.));
#634=CARTESIAN_POINT('Ctrl Pts',(-1.26059492705578,-0.329089653438087,-2.58055893749421));
#635=CARTESIAN_POINT('Ctrl Pts',(-2.11739321949621,-0.276246960526371,-2.162015665621));
#636=CARTESIAN_POINT('Ctrl Pts',(-3.3666679573627,-0.17056157470294,-0.411708381765378));
#637=CARTESIAN_POINT('Ctrl Pts',(-2.17373005427305,-0.0120334959677929,
2.60786999262681));
#638=CARTESIAN_POINT('Ctrl Pts',(1.00630243523346,0.146494582767354,3.23921548872149));
#639=CARTESIAN_POINT('Ctrl Pts',(3.26628937209038,0.305022661502501,0.917766267492023));
#640=CARTESIAN_POINT('Ctrl Pts',(2.54567305753988,0.463550740237648,-2.24339055640633));
#641=CARTESIAN_POINT('Ctrl Pts',(-0.498976863893388,0.622078818972795,-3.35580411587052));
#642=CARTESIAN_POINT('Ctrl Pts',(-3.08796263117601,0.780606897707942,-1.40565896992406));
#643=CARTESIAN_POINT('Ctrl Pts',(-2.85844142028575,0.939134976443089,1.82781680014558));
#644=CARTESIAN_POINT('Ctrl Pts',(-0.0197503916432334,1.09766305517824,3.39275746020362));
#645=CARTESIAN_POINT('Ctrl Pts',(2.83694126186186,1.25619113391338,1.86095872345595));
#646=CARTESIAN_POINT('Ctrl Pts',(3.1041540876753,1.41471921264853,-1.36953659813453));
#647=CARTESIAN_POINT('Ctrl Pts',(0.537972903500658,1.57324729138368,-3.3498922992891));
#648=CARTESIAN_POINT('Ctrl Pts',(-2.51926923679314,1.73177537011882,-2.27263814115828));
#649=CARTESIAN_POINT('Ctrl Pts',(-3.27695479487847,1.89030344885397,0.879180085983786));
#650=CARTESIAN_POINT('Ctrl Pts',(-1.04357853481664,2.04883152758912,3.22821049754572));
#651=CARTESIAN_POINT('Ctrl Pts',(2.14246983851326,2.20735960632426,2.63117378664323));
#652=CARTESIAN_POINT('Ctrl Pts',(3.37269359203211,2.36588768505941,-0.368617848513027));
#653=CARTESIAN_POINT('Ctrl Pts',(1.52485278040475,2.52441576379456,-3.0298491004705));
#654=CARTESIAN_POINT('Ctrl Pts',(-1.71569520111198,2.68294384252971,-2.929586698525));
#655=CARTESIAN_POINT('Ctrl Pts',(-3.38855893898211,2.84147192126485,-0.147055240617627));
#656=CARTESIAN_POINT('Ctrl Pts',(-2.44385113832991,2.94715730708828,1.78472894245675));
#657=CARTESIAN_POINT('Ctrl Pts',(-1.66746714335672,3.,2.33836210323076));
#658=CARTESIAN_POINT('Ctrl Pts',(-1.34399083100446,-0.219393102292058,-2.75127836581033));
#659=CARTESIAN_POINT('Ctrl Pts',(-2.25747146173308,-0.166550409380342,-2.30504594990651));
#660=CARTESIAN_POINT('Ctrl Pts',(-3.58939320523837,-0.0608650235569109,
-0.43894535688217));
#661=CARTESIAN_POINT('Ctrl Pts',(-2.3175353155237,0.0976630551782361,2.78039621080198));
#662=CARTESIAN_POINT('Ctrl Pts',(1.07287536792648,0.256191133913383,3.45350899250181));
#663=CARTESIAN_POINT('Ctrl Pts',(3.4823739753972,0.41471921264853,0.978482002458419));
#664=CARTESIAN_POINT('Ctrl Pts',(2.71408457597044,0.573247291383677,-2.39180427705994));
#665=CARTESIAN_POINT('Ctrl Pts',(-0.531987171741487,0.731775370118824,-3.57781065556948));
#666=CARTESIAN_POINT('Ctrl Pts',(-3.29224985259782,0.890303448853971,-1.49865172907641));
#667=CARTESIAN_POINT('Ctrl Pts',(-3.04754443903724,1.04883152758912,1.94873782801036));
#668=CARTESIAN_POINT('Ctrl Pts',(-0.0210569983327247,1.20735960632427,3.61720868493855));
#669=CARTESIAN_POINT('Ctrl Pts',(3.02462191637222,1.36588768505941,1.98407228802998));
#670=CARTESIAN_POINT('Ctrl Pts',(3.30951247091287,1.52441576379456,-1.46013964606125));
#671=CARTESIAN_POINT('Ctrl Pts',(0.573563032910521,1.68294384252971,-3.57150773691617));
#672=CARTESIAN_POINT('Ctrl Pts',(-2.68593398435257,1.84147192126485,-2.42298676470287));
#673=CARTESIAN_POINT('Ctrl Pts',(-3.49374497977642,2.,0.937343113956249));
#674=CARTESIAN_POINT('Ctrl Pts',(-1.11261750473836,2.15852807873515,3.44177595525243));
#675=CARTESIAN_POINT('Ctrl Pts',(2.28420704927841,2.31705615747029,2.8052416903557));
#676=CARTESIAN_POINT('Ctrl Pts',(3.59581747172783,2.47558423620544,-0.39300412679209));
#677=CARTESIAN_POINT('Ctrl Pts',(1.6257309239552,2.63411231494059,-3.23029176380246));
#678=CARTESIAN_POINT('Ctrl Pts',(-1.82919871372036,2.79264039367574,-3.12339640351099));
#679=CARTESIAN_POINT('Ctrl Pts',(-3.61273240639388,2.95116847241088,-0.15678382547743));
#680=CARTESIAN_POINT('Ctrl Pts',(-2.60552652700772,3.05685385823431,1.90279945048836));
#681=CARTESIAN_POINT('Ctrl Pts',(-1.7777800811136,3.10969655114603,2.49305876047792));
#682=CARTESIAN_POINT('Ctrl Pts',(-1.42738673495314,-0.109696551146029,-2.92199779412645));
#683=CARTESIAN_POINT('Ctrl Pts',(-2.39754970396995,-0.0568538582343133,
-2.44807623419203));
#684=CARTESIAN_POINT('Ctrl Pts',(-3.81211845311404,0.0488315275891182,-0.46618233199896));
#685=CARTESIAN_POINT('Ctrl Pts',(-2.46134057677436,0.207359606324265,2.95292242897715));
#686=CARTESIAN_POINT('Ctrl Pts',(1.1394483006195,0.365887685059413,3.66780249628213));
#687=CARTESIAN_POINT('Ctrl Pts',(3.69845857870401,0.524415763794558,1.03919773742482));
#688=CARTESIAN_POINT('Ctrl Pts',(2.882496094401,0.682943842529707,-2.54021799771357));
#689=CARTESIAN_POINT('Ctrl Pts',(-0.564997479589585,0.841471921264853,-3.79981719526843));
#690=CARTESIAN_POINT('Ctrl Pts',(-3.49653707401963,1.,-1.59164448822878));
#691=CARTESIAN_POINT('Ctrl Pts',(-3.23664745778874,1.15852807873515,2.06965885587515));
#692=CARTESIAN_POINT('Ctrl Pts',(-0.022363605022215,1.31705615747029,3.84165990967347));
#693=CARTESIAN_POINT('Ctrl Pts',(3.21230257088258,1.47558423620544,2.10718585260402));
#694=CARTESIAN_POINT('Ctrl Pts',(3.51487085415044,1.63411231494059,-1.55074269398798));
#695=CARTESIAN_POINT('Ctrl Pts',(0.609153162320385,1.79264039367573,-3.79312317454324));
#696=CARTESIAN_POINT('Ctrl Pts',(-2.852598731912,1.95116847241088,-2.57333538824747));
#697=CARTESIAN_POINT('Ctrl Pts',(-3.71053516467437,2.10969655114603,0.995506141928714));
#698=CARTESIAN_POINT('Ctrl Pts',(-1.18165647466007,2.26822462988118,3.65534141295915));
#699=CARTESIAN_POINT('Ctrl Pts',(2.42594426004356,2.42675270861632,2.97930959406817));
#700=CARTESIAN_POINT('Ctrl Pts',(3.81894135142354,2.58528078735147,-0.417390405071156));
#701=CARTESIAN_POINT('Ctrl Pts',(1.72660906750566,2.74380886608662,-3.43073442713442));
#702=CARTESIAN_POINT('Ctrl Pts',(-1.94270222632874,2.90233694482176,-3.31720610849697));
#703=CARTESIAN_POINT('Ctrl Pts',(-3.83690587380564,3.06086502355691,-0.166512410337228));
#704=CARTESIAN_POINT('Ctrl Pts',(-2.76720191568554,3.16655040938034,2.02086995851996));
#705=CARTESIAN_POINT('Ctrl Pts',(-1.88809301887049,3.21939310229206,2.64775541772508));
#706=CARTESIAN_POINT('Ctrl Pts',(-1.51078263890181,0.,-3.09271722244257));
#707=CARTESIAN_POINT('Ctrl Pts',(-2.53762794620681,0.0528426929117157,-2.59110651847754));
#708=CARTESIAN_POINT('Ctrl Pts',(-4.0348437009897,0.158528078735147,-0.493419307115752));
#709=CARTESIAN_POINT('Ctrl Pts',(-2.60514583802501,0.317056157470294,3.12544864715233));
#710=CARTESIAN_POINT('Ctrl Pts',(1.20602123331252,0.475584236205441,3.88209600006246));
#711=CARTESIAN_POINT('Ctrl Pts',(3.91454318201082,0.634112314940588,1.09991347239121));
#712=CARTESIAN_POINT('Ctrl Pts',(3.05090761283157,0.792640393675734,-2.68863171836719));
#713=CARTESIAN_POINT('Ctrl Pts',(-0.598007787437686,0.951168472410884,-4.02182373496739));
#714=CARTESIAN_POINT('Ctrl Pts',(-3.70082429544144,1.10969655114603,-1.68463724738113));
#715=CARTESIAN_POINT('Ctrl Pts',(-3.42575047654023,1.26822462988118,2.19057988373993));
#716=CARTESIAN_POINT('Ctrl Pts',(-0.0236702117117062,1.42675270861632,4.06611113440838));
#717=CARTESIAN_POINT('Ctrl Pts',(3.39998322539294,1.58528078735147,2.23029941717805));
#718=CARTESIAN_POINT('Ctrl Pts',(3.72022923738801,1.74380886608661,-1.6413457419147));
#719=CARTESIAN_POINT('Ctrl Pts',(0.644743291730248,1.90233694482176,-4.0147386121703));
#720=CARTESIAN_POINT('Ctrl Pts',(-3.01926347947144,2.06086502355691,-2.72368401179206));
#721=CARTESIAN_POINT('Ctrl Pts',(-3.92732534957232,2.21939310229206,1.05366916990118));
#722=CARTESIAN_POINT('Ctrl Pts',(-1.25069544458179,2.37792118102721,3.86890687066586));
#723=CARTESIAN_POINT('Ctrl Pts',(2.56768147080871,2.53644925976235,3.15337749778064));
#724=CARTESIAN_POINT('Ctrl Pts',(4.04206523111926,2.6949773384975,-0.441776683350216));
#725=CARTESIAN_POINT('Ctrl Pts',(1.82748721105611,2.85350541723264,-3.63117709046639));
#726=CARTESIAN_POINT('Ctrl Pts',(-2.05620573893713,3.01203349596779,-3.51101581348295));
#727=CARTESIAN_POINT('Ctrl Pts',(-4.06107934121741,3.17056157470294,-0.176240995197035));
#728=CARTESIAN_POINT('Ctrl Pts',(-2.92887730436335,3.27624696052637,2.13894046655157));
#729=CARTESIAN_POINT('Ctrl Pts',(-1.99840595662738,3.32908965343809,2.80245207497224));
#730=CARTESIAN_POINT('Ctrl Pts',(-1.51442129635206,3.,-3.09710677218153));
#731=CARTESIAN_POINT('Ctrl Pts',(-1.5890662645275,3.,-3.0534126190554));
#732=CARTESIAN_POINT('Ctrl Pts',(-1.66182928690009,3.,-3.00679044678557));
#733=CARTESIAN_POINT('Ctrl Pts',(-1.73251423044918,3.,-2.95723063211701));
#734=CARTESIAN_POINT('Ctrl Pts',(-1.82267694857215,3.,-2.89401423303926));
#735=CARTESIAN_POINT('Ctrl Pts',(-1.90946003304337,3.,-2.82601879221046));
#736=CARTESIAN_POINT('Ctrl Pts',(-1.99268326974651,3.,-2.75364024026599));
#737=CARTESIAN_POINT('Ctrl Pts',(-2.03900484082746,3.,-2.7133547578521));
#738=CARTESIAN_POINT('Ctrl Pts',(-2.08422287757169,3.,-2.67171075910802));
#739=CARTESIAN_POINT('Ctrl Pts',(-2.12830059566607,3.,-2.62877267066049));
#740=CARTESIAN_POINT('Ctrl Pts',(-2.14829194455696,3.,-2.60929819820653));
#741=CARTESIAN_POINT('Ctrl Pts',(-2.16804866519092,3.,-2.58955749360899));
#742=CARTESIAN_POINT('Ctrl Pts',(-2.18756702704572,3.,-2.56955643329643));
#743=CARTESIAN_POINT('Ctrl Pts',(-2.20443820169706,3.,-2.55226802639755));
#744=CARTESIAN_POINT('Ctrl Pts',(-2.22113347165294,3.,-2.53478259107062));
#745=CARTESIAN_POINT('Ctrl Pts',(-2.23763318650206,3.,-2.51712270262175));
#746=CARTESIAN_POINT('Ctrl Pts',(-2.31273962448501,3.,-2.43673517297656));
#747=CARTESIAN_POINT('Ctrl Pts',(-2.38387138857741,3.,-2.35266187288258));
#748=CARTESIAN_POINT('Ctrl Pts',(-2.45085087563735,3.,-2.26529891298972));
#749=CARTESIAN_POINT('Ctrl Pts',(-2.50888609455031,3.,-2.1896021776933));
#750=CARTESIAN_POINT('Ctrl Pts',(-2.56380345039409,3.,-2.11143478746789));
#751=CARTESIAN_POINT('Ctrl Pts',(-2.61545892836431,3.,-2.03104058781043));
#752=CARTESIAN_POINT('Ctrl Pts',(-2.63805819997628,3.,-1.9958681254603));
#753=CARTESIAN_POINT('Ctrl Pts',(-2.66003276922217,3.,-1.96026931670856));
#754=CARTESIAN_POINT('Ctrl Pts',(-2.68136884391395,3.,-1.92426416270544));
#755=CARTESIAN_POINT('Ctrl Pts',(-2.69565570856739,3.,-1.90015472507457));
#756=CARTESIAN_POINT('Ctrl Pts',(-2.70965626384397,3.,-1.87586308667953));
#757=CARTESIAN_POINT('Ctrl Pts',(-2.72336609063837,3.,-1.85139522301229));
#758=CARTESIAN_POINT('Ctrl Pts',(-2.73138564917558,3.,-1.83708275445216));
#759=CARTESIAN_POINT('Ctrl Pts',(-2.73930442610384,3.,-1.82271220363078));
#760=CARTESIAN_POINT('Ctrl Pts',(-2.74711662539795,3.,-1.8082943109034));
#761=CARTESIAN_POINT('Ctrl Pts',(-2.79863840612016,3.,-1.71320770601661));
#762=CARTESIAN_POINT('Ctrl Pts',(-2.84559414317296,3.,-1.61594727737799));
#763=CARTESIAN_POINT('Ctrl Pts',(-2.88781365363822,3.,-1.51688170565832));
#764=CARTESIAN_POINT('Ctrl Pts',(-2.9297418269324,3.,-1.41849973929308));
#765=CARTESIAN_POINT('Ctrl Pts',(-2.96699917274031,3.,-1.31833656806366));
#766=CARTESIAN_POINT('Ctrl Pts',(-2.99936966457977,3.,-1.21674012613428));
#767=CARTESIAN_POINT('Ctrl Pts',(-3.03076515312353,3.,-1.11820378184577));
#768=CARTESIAN_POINT('Ctrl Pts',(-3.05756377291182,3.,-1.01831844892028));
#769=CARTESIAN_POINT('Ctrl Pts',(-3.0795200413367,3.,-0.917401174406272));
#770=CARTESIAN_POINT('Ctrl Pts',(-3.09342304798554,3.,-0.853498988870905));
#771=CARTESIAN_POINT('Ctrl Pts',(-3.10538350082846,3.,-0.789183066999111));
#772=CARTESIAN_POINT('Ctrl Pts',(-3.11532843102437,3.,-0.724535832817582));
#773=CARTESIAN_POINT('Ctrl Pts',(-3.11820296572725,3.,-0.705849857708754));
#774=CARTESIAN_POINT('Ctrl Pts',(-3.12090905465559,3.,-0.68713621698764));
#775=CARTESIAN_POINT('Ctrl Pts',(-3.12344480095268,3.,-0.668396940639968));
#776=CARTESIAN_POINT('Ctrl Pts',(-3.12550673810719,3.,-0.65315913463618));
#777=CARTESIAN_POINT('Ctrl Pts',(-3.12745599897841,3.,-0.637904146806042));
#778=CARTESIAN_POINT('Ctrl Pts',(-3.12928997527081,3.,-0.62264780884873));
#779=CARTESIAN_POINT('Ctrl Pts',(-3.14148547080966,3.,-0.521196878284215));
#780=CARTESIAN_POINT('Ctrl Pts',(-3.14860987205646,3.,-0.419525804728357));
#781=CARTESIAN_POINT('Ctrl Pts',(-3.15047227174393,3.,-0.3179457785458));
#782=CARTESIAN_POINT('Ctrl Pts',(-3.15156018446216,3.,-0.25860824582127));
#783=CARTESIAN_POINT('Ctrl Pts',(-3.1508516262673,3.,-0.199301735638861));
#784=CARTESIAN_POINT('Ctrl Pts',(-3.14830028368396,3.,-0.140088967578788));
#785=CARTESIAN_POINT('Ctrl Pts',(-3.14385730924122,3.,-0.0369743106552886));
#786=CARTESIAN_POINT('Ctrl Pts',(-3.13382851959154,3.,0.0658572835888905));
#787=CARTESIAN_POINT('Ctrl Pts',(-3.11842173887004,3.,0.168059178902301));
#788=CARTESIAN_POINT('Ctrl Pts',(-3.10293791996375,3.,0.270772112091719));
#789=CARTESIAN_POINT('Ctrl Pts',(-3.08202166301803,3.,0.372849864399939));
#790=CARTESIAN_POINT('Ctrl Pts',(-3.0558385350904,3.,0.473914911359236));
#791=CARTESIAN_POINT('Ctrl Pts',(-3.04967913728537,3.,0.49768975713502));
#792=CARTESIAN_POINT('Ctrl Pts',(-3.04322809759614,3.,0.521408418133877));
#793=CARTESIAN_POINT('Ctrl Pts',(-3.03648725811808,3.,0.54506569729156));
#794=CARTESIAN_POINT('Ctrl Pts',(-3.03238158252883,3.,0.559474750327469));
#795=CARTESIAN_POINT('Ctrl Pts',(-3.02817092695907,3.,0.573852113726178));
#796=CARTESIAN_POINT('Ctrl Pts',(-3.02385673326038,3.,0.588194633961544));
#797=CARTESIAN_POINT('Ctrl Pts',(-2.99453833066072,3.,0.685663549806218));
#798=CARTESIAN_POINT('Ctrl Pts',(-2.96043301944238,3.,0.781557591521604));
#799=CARTESIAN_POINT('Ctrl Pts',(-2.92177014249494,3.,0.875557034870289));
#800=CARTESIAN_POINT('Ctrl Pts',(-2.88305489860561,3.,0.969683795784971));
#801=CARTESIAN_POINT('Ctrl Pts',(-2.83976915434832,3.,1.06191160387449));
#802=CARTESIAN_POINT('Ctrl Pts',(-2.79209795901521,3.,1.15189331385));
#803=CARTESIAN_POINT('Ctrl Pts',(-2.74503501897991,3.,1.24072691223703));
#804=CARTESIAN_POINT('Ctrl Pts',(-2.69369720634761,3.,1.32737201572664));
#805=CARTESIAN_POINT('Ctrl Pts',(-2.63822758174895,3.,1.41145862888749));
#806=CARTESIAN_POINT('Ctrl Pts',(-2.60708592531661,3.,1.45866638333979));
#807=CARTESIAN_POINT('Ctrl Pts',(-2.57464138187318,3.,1.50506702229037));
#808=CARTESIAN_POINT('Ctrl Pts',(-2.5409154165407,3.,1.5505888492325));
#809=CARTESIAN_POINT('Ctrl Pts',(-2.53137266762637,3.,1.56346923265067));
#810=CARTESIAN_POINT('Ctrl Pts',(-2.52172731257497,3.,1.57627922760296));
#811=CARTESIAN_POINT('Ctrl Pts',(-2.51197980385615,3.,1.58901713610341));
#812=CARTESIAN_POINT('Ctrl Pts',(-2.50283212318029,3.,1.60097119767972));
#813=CARTESIAN_POINT('Ctrl Pts',(-2.49359971521167,3.,1.61285489237859));
#814=CARTESIAN_POINT('Ctrl Pts',(-2.48428558589221,3.,1.62466414102732));
#815=CARTESIAN_POINT('Ctrl Pts',(-2.42314972499242,3.,1.70217740694372));
#816=CARTESIAN_POINT('Ctrl Pts',(-2.35846373823792,3.,1.77652842008276));
#817=CARTESIAN_POINT('Ctrl Pts',(-2.2904000646774,3.,1.84740195732481));
#818=CARTESIAN_POINT('Ctrl Pts',(-2.22331080731572,3.,1.91726085167227));
#819=CARTESIAN_POINT('Ctrl Pts',(-2.1529392883777,3.,1.98374167339672));
#820=CARTESIAN_POINT('Ctrl Pts',(-2.07942098424947,3.,2.04650257536303));
#821=CARTESIAN_POINT('Ctrl Pts',(-2.00820516052125,3.,2.10729790224735));
#822=CARTESIAN_POINT('Ctrl Pts',(-1.93403602198263,3.,2.1646029831033));
#823=CARTESIAN_POINT('Ctrl Pts',(-1.85701706686773,3.,2.21806325372911));
#824=CARTESIAN_POINT('Ctrl Pts',(-1.79562921955211,3.,2.26067368548233));
#825=CARTESIAN_POINT('Ctrl Pts',(-1.73243047300739,3.,2.30084082572732));
#826=CARTESIAN_POINT('Ctrl Pts',(-1.66746714335672,3.,2.33836210323076));
#827=CARTESIAN_POINT('',(-1.51078263890181,0.,-3.09271722244257));
#828=CARTESIAN_POINT('Ctrl Pts',(-1.51078263890181,-3.46944695195361E-16,
-3.09271722244257));
#829=CARTESIAN_POINT('Ctrl Pts',(-2.53762794620681,0.0528426929117153,-2.59110651847754));
#830=CARTESIAN_POINT('Ctrl Pts',(-3.28623582359825,0.105685385823431,-1.54226291279665));
#831=CARTESIAN_POINT('Ctrl Pts',(-3.4222567851332,0.158528078735147,-0.414696450911526));
#832=CARTESIAN_POINT('Ctrl Pts',(-3.43868921100755,0.1649119009378,-0.278477355749667));
#833=CARTESIAN_POINT('Ctrl Pts',(-3.44618118646016,0.171295723140454,-0.141109333350329));
#834=CARTESIAN_POINT('Ctrl Pts',(-3.44511297801791,0.177679545343107,-0.00357226737269139));
#835=CARTESIAN_POINT('',(-1.66746714335671,0.,2.33836210323077));
#836=CARTESIAN_POINT('Ctrl Pts',(-1.67106376874253,-3.64291929955129E-17,
2.34147610736189));
#837=CARTESIAN_POINT('Ctrl Pts',(-1.73435568700566,-2.42578737902822E-17,
2.3053964368168));
#838=CARTESIAN_POINT('Ctrl Pts',(-1.79602848071723,-3.47226105350999E-16,
2.26684718025859));
#839=CARTESIAN_POINT('Ctrl Pts',(-1.8559193264595,-2.75821032680312E-16,
2.22586832640963));
#840=CARTESIAN_POINT('Ctrl Pts',(-1.9332687519229,-2.05104355795299E-16,
2.17294386421374));
#841=CARTESIAN_POINT('Ctrl Pts',(-2.00764727653101,1.14532452721028E-16,
2.11596897499836));
#842=CARTESIAN_POINT('Ctrl Pts',(-2.07897978735131,1.59594559789866E-16,
2.05533311192176));
#843=CARTESIAN_POINT('Ctrl Pts',(-2.1521181761718,2.05797474421238E-16,
1.99316217080158));
#844=CARTESIAN_POINT('Ctrl Pts',(-2.22205488380877,-1.56280565409263E-16,
1.92714211868898));
#845=CARTESIAN_POINT('Ctrl Pts',(-2.28868633021598,-1.73472347597681E-16,
1.85764285197989));
#846=CARTESIAN_POINT('Ctrl Pts',(-2.35937122554683,-1.91709972473968E-16,
1.7839156757322));
#847=CARTESIAN_POINT('Ctrl Pts',(-2.42633738726274,7.91064589290136E-17,
1.70627275577991));
#848=CARTESIAN_POINT('Ctrl Pts',(-2.48942473086994,1.11022302462516E-16,
1.62510586766874));
#849=CARTESIAN_POINT('Ctrl Pts',(-2.49834725826061,1.15536202903419E-16,
1.61362632611606));
#850=CARTESIAN_POINT('Ctrl Pts',(-2.50719371932635,-1.65062059585922E-16,
1.6020741084735));
#851=CARTESIAN_POINT('Ctrl Pts',(-2.51595827753696,-1.45716771982052E-16,
1.59045731853892));
#852=CARTESIAN_POINT('Ctrl Pts',(-2.57601772089211,-1.31525083748151E-17,
1.51085285699294));
#853=CARTESIAN_POINT('Ctrl Pts',(-2.63211255195217,4.95042994979868E-17,
1.42838352071635));
#854=CARTESIAN_POINT('Ctrl Pts',(-2.68415557494004,6.93889390390723E-17,
1.34347012558776));
#855=CARTESIAN_POINT('Ctrl Pts',(-2.73721556956687,8.96621439113632E-17,
1.25689743955608));
#856=CARTESIAN_POINT('Ctrl Pts',(-2.78606442488596,3.49687392084578E-18,
1.16778361868897));
#857=CARTESIAN_POINT('Ctrl Pts',(-2.83057919230657,-1.2490009027033E-16,
1.07652880491899));
#858=CARTESIAN_POINT('Ctrl Pts',(-2.87542837535792,-2.54261632156817E-16,
0.984588442557522));
#859=CARTESIAN_POINT('Ctrl Pts',(-2.91587866720787,1.21143438996761E-16,
0.890474019096677));
#860=CARTESIAN_POINT('Ctrl Pts',(-2.95176513575121,1.66533453693773E-16,
0.794559487793241));
#861=CARTESIAN_POINT('Ctrl Pts',(-2.96936447577464,1.8879349584187E-16,
0.747521355647188));
#862=CARTESIAN_POINT('Ctrl Pts',(-2.98586552835575,2.04236571206554E-16,
0.700049819888223));
#863=CARTESIAN_POINT('Ctrl Pts',(-3.00124479567436,2.22044604925031E-16,
0.652186810690316));
#864=CARTESIAN_POINT('Ctrl Pts',(-3.0118897359819,2.34370644391055E-16,
0.619057867334604));
#865=CARTESIAN_POINT('Ctrl Pts',(-3.02199718592854,-1.46525626378561E-16,
0.58574134611043));
#866=CARTESIAN_POINT('Ctrl Pts',(-3.03155852741219,-1.94289029309402E-16,
0.552250873764861));
#867=CARTESIAN_POINT('Ctrl Pts',(-3.03567060871368,-2.14830811696677E-16,
0.53784750313472));
#868=CARTESIAN_POINT('Ctrl Pts',(-3.03968022696684,-3.42509500904278E-16,
0.523416874131695));
#869=CARTESIAN_POINT('Ctrl Pts',(-3.04358486097067,-3.33066907387547E-16,
0.508967980996148));
#870=CARTESIAN_POINT('Ctrl Pts',(-3.07096998234157,-2.66841348408592E-16,
0.407630777098371));
#871=CARTESIAN_POINT('Ctrl Pts',(-3.0932274792411,-2.22173475195278E-16,
0.305282240318825));
#872=CARTESIAN_POINT('Ctrl Pts',(-3.11023011045417,-1.94289029309402E-16,
0.202338635410121));
#873=CARTESIAN_POINT('Ctrl Pts',(-3.12713354424465,-1.66567267959095E-16,
0.0999956281472457));
#874=CARTESIAN_POINT('Ctrl Pts',(-3.1388437039059,1.8644021543948E-16,-0.00293641048836064));
#875=CARTESIAN_POINT('Ctrl Pts',(-3.14519250318782,3.88578058618805E-16,
-0.106075332054982));
#876=CARTESIAN_POINT('Ctrl Pts',(-3.15084138723838,5.68431474618881E-16,
-0.197843835540321));
#877=CARTESIAN_POINT('Ctrl Pts',(-3.1522455135097,-2.26696458496073E-16,
-0.289776895458334));
#878=CARTESIAN_POINT('Ctrl Pts',(-3.1492530739365,-3.33066907387547E-16,
-0.381614868427485));
#879=CARTESIAN_POINT('Ctrl Pts',(-3.14703017562227,-4.39838511811737E-16,
-0.449835619524005));
#880=CARTESIAN_POINT('Ctrl Pts',(-3.14238053139106,3.47132343582552E-16,
-0.518004112376085));
#881=CARTESIAN_POINT('Ctrl Pts',(-3.13536881015837,4.44089209850063E-16,
-0.586036769881574));
#882=CARTESIAN_POINT('Ctrl Pts',(-3.13325625025929,4.73301322086097E-16,
-0.606534313823256));
#883=CARTESIAN_POINT('Ctrl Pts',(-3.13092919875892,3.77612990980502E-17,
-0.627019524838226));
#884=CARTESIAN_POINT('Ctrl Pts',(-3.12838923845574,2.77555756156289E-17,
-0.647490104641059));
#885=CARTESIAN_POINT('Ctrl Pts',(-3.12652162105569,2.03984278473986E-17,
-0.662541997767566));
#886=CARTESIAN_POINT('Ctrl Pts',(-3.1245393408606,4.61847842394067E-16,
-0.6775819669591));
#887=CARTESIAN_POINT('Ctrl Pts',(-3.12244464490953,4.44089209850063E-16,
-0.692599658275361));
#888=CARTESIAN_POINT('Ctrl Pts',(-3.10842173716334,3.25204335061718E-16,
-0.793135346894384));
#889=CARTESIAN_POINT('Ctrl Pts',(-3.08934974003469,-3.76673799641622E-16,
-0.892796935327895));
#890=CARTESIAN_POINT('Ctrl Pts',(-3.06552673352085,-3.60822483003176E-16,
-0.991310222000253));
#891=CARTESIAN_POINT('Ctrl Pts',(-3.04110618230569,-3.44573572960186E-16,
-1.09229448530719));
#892=CARTESIAN_POINT('Ctrl Pts',(-3.01169320177551,-8.23054879028092E-17,
-1.19207276325366));
#893=CARTESIAN_POINT('Ctrl Pts',(-2.97755483948113,-2.77555756156289E-17,
-1.29035602335732));
#894=CARTESIAN_POINT('Ctrl Pts',(-2.94153356498851,2.98030543825183E-17,
-1.39406012783939));
#895=CARTESIAN_POINT('Ctrl Pts',(-2.90025140614353,-8.38981850402839E-16,
-1.49610064720275));
#896=CARTESIAN_POINT('Ctrl Pts',(-2.85396199261665,-9.43689570931383E-16,
-1.59613297736805));
#897=CARTESIAN_POINT('Ctrl Pts',(-2.81648768633197,-1.02845731565944E-15,
-1.67711568795712));
#898=CARTESIAN_POINT('Ctrl Pts',(-2.7757303890519,-2.51287333956942E-16,
-1.75678235795887));
#899=CARTESIAN_POINT('Ctrl Pts',(-2.73179787678337,-2.4980018054066E-16,
-1.83494140053448));
#900=CARTESIAN_POINT('Ctrl Pts',(-2.72311455897229,-2.49506242746516E-16,
-1.85038963628174));
#901=CARTESIAN_POINT('Ctrl Pts',(-2.714311480531,-2.51465828040808E-16,
-1.86577114741277));
#902=CARTESIAN_POINT('Ctrl Pts',(-2.70539214151328,-2.4980018054066E-16,
-1.88108060872983));
#903=CARTESIAN_POINT('Ctrl Pts',(-2.65032214994034,-2.39516100788301E-16,
-1.97560464285853));
#904=CARTESIAN_POINT('Ctrl Pts',(-2.59079708693747,-1.89982473932381E-16,
-2.06743150047776));
#905=CARTESIAN_POINT('Ctrl Pts',(-2.52708457450807,-2.22044604925031E-16,
-2.15623937992208));
#906=CARTESIAN_POINT('Ctrl Pts',(-2.4629945162534,-2.5429672879732E-16,
-2.24557351461606));
#907=CARTESIAN_POINT('Ctrl Pts',(-2.39466687623081,-6.75469009400772E-17,
-2.33185363421021));
#908=CARTESIAN_POINT('Ctrl Pts',(-2.32232443355223,0.,-2.41473541369925));
#909=CARTESIAN_POINT('Ctrl Pts',(-2.28693276249686,3.30455761564752E-17,
-2.45528318299689));
#910=CARTESIAN_POINT('Ctrl Pts',(-2.25057947056415,7.99231984819872E-17,
-2.49501725925499));
#911=CARTESIAN_POINT('Ctrl Pts',(-2.21328675584908,5.55111512312578E-17,
-2.53389492109431));
#912=CARTESIAN_POINT('Ctrl Pts',(-2.19890383471381,4.60959999600095E-17,
-2.54888911898071));
#913=CARTESIAN_POINT('Ctrl Pts',(-2.18438628771504,1.50229167346002E-16,
-2.56375048723009));
#914=CARTESIAN_POINT('Ctrl Pts',(-2.16974110135427,1.66533453693773E-16,
-2.5784714377319));
#915=CARTESIAN_POINT('Ctrl Pts',(-2.09092112632438,2.54282657504105E-16,
-2.65769917320657));
#916=CARTESIAN_POINT('Ctrl Pts',(-2.00836044229779,5.70255987634562E-16,
-2.73291091351225));
#917=CARTESIAN_POINT('Ctrl Pts',(-1.92230406535224,3.88578058618805E-16,
-2.80376382288799));
#918=CARTESIAN_POINT('Ctrl Pts',(-1.83752424432315,2.09595130757038E-16,
-2.87356570381152));
#919=CARTESIAN_POINT('Ctrl Pts',(-1.74935115475422,9.60764305292184E-17,
-2.93913785788663));
#920=CARTESIAN_POINT('Ctrl Pts',(-1.65797819066091,-5.55111512312578E-17,
-3.00012380173121));
#921=CARTESIAN_POINT('Ctrl Pts',(-1.6097952959948,-1.35446486120879E-16,
-3.0322829785461));
#922=CARTESIAN_POINT('Ctrl Pts',(-1.5607219786463,2.69661370711975E-17,
-3.06316632934141));
#923=CARTESIAN_POINT('Ctrl Pts',(-1.51078263890181,0.,-3.09271722244257));
#924=CARTESIAN_POINT('Ctrl Pts',(-1.67106376874253,-3.74049749507499E-17,
2.34147610736189));
#925=CARTESIAN_POINT('Ctrl Pts',(-0.953676881178399,0.0488315275891179,
2.8474321446871));
#926=CARTESIAN_POINT('Ctrl Pts',(1.06348587745375,0.150505748089952,3.18047689371257));
#927=CARTESIAN_POINT('Ctrl Pts',(3.26628937209038,0.305022661502501,0.917766267492023));
#928=CARTESIAN_POINT('Ctrl Pts',(2.54567305753988,0.463550740237648,-2.24339055640633));
#929=CARTESIAN_POINT('Ctrl Pts',(-0.498976863893388,0.622078818972795,-3.35580411587052));
#930=CARTESIAN_POINT('Ctrl Pts',(-2.59505324242748,0.750425202861919,-1.77694137093482));
#931=CARTESIAN_POINT('Ctrl Pts',(-2.869099610522,0.825928893839328,-0.411456572247425));
#932=CARTESIAN_POINT('Ctrl Pts',(-2.86771244701433,0.848589891905021,-0.00109722340217704));
#933=CARTESIAN_POINT('Origin',(0.,-1.84858989190502,0.));
#934=CARTESIAN_POINT('',(1.66746714335671,0.,2.33836210323077));
#935=CARTESIAN_POINT('Origin',(0.,0.,0.));
#936=CARTESIAN_POINT('Ctrl Pts',(1.66746714335671,2.77555756156289E-16,
2.33836210323077));
#937=CARTESIAN_POINT('Ctrl Pts',(2.4438511383299,0.0528426929117159,1.78472894245675));
#938=CARTESIAN_POINT('Ctrl Pts',(3.3885670528,0.158528078735147,-0.147041119969857));
#939=CARTESIAN_POINT('Ctrl Pts',(1.71568991627485,0.317056157470294,-2.9295941370369));
#940=CARTESIAN_POINT('Ctrl Pts',(-1.52485003532148,0.475584236205441,-3.02984299268017));
#941=CARTESIAN_POINT('Ctrl Pts',(-2.82395491097492,0.587035553080336,-1.15890186714194));
#942=CARTESIAN_POINT('Ctrl Pts',(-2.87603805902615,0.645644177043516,-0.105619445594296));
#943=CARTESIAN_POINT('Ctrl Pts',(-2.87529704543872,0.65141010809498,-0.00191896989005945));
#944=CARTESIAN_POINT('Ctrl Pts',(1.99840595662736,-0.329089653438087,2.80245207497225));
#945=CARTESIAN_POINT('Ctrl Pts',(2.92887730436334,-0.276246960526371,2.13894046655158));
#946=CARTESIAN_POINT('Ctrl Pts',(4.06108906536824,-0.17056157470294,-0.176224072053009));
#947=CARTESIAN_POINT('Ctrl Pts',(2.05619940522912,-0.012033495967793,-3.51102472830118));
#948=CARTESIAN_POINT('Ctrl Pts',(-1.82748392116174,0.146494582767354,-3.63116977047533));
#949=CARTESIAN_POINT('Ctrl Pts',(-4.0420652551917,0.305022661502501,-0.441780390651872));
#950=CARTESIAN_POINT('Ctrl Pts',(-2.56768008901426,0.463550740237649,3.15337886296882));
#951=CARTESIAN_POINT('Ctrl Pts',(1.25069479038305,0.622078818972793,3.86890427343052));
#952=CARTESIAN_POINT('Ctrl Pts',(3.92732425538262,0.780606897707943,1.053669675075));
#953=CARTESIAN_POINT('Ctrl Pts',(3.01926249038573,0.939134976443088,-2.72368366822437));
#954=CARTESIAN_POINT('Ctrl Pts',(-0.644743064079921,1.09766305517824,-4.01473705226078));
#955=CARTESIAN_POINT('Ctrl Pts',(-3.72022810628222,1.25619113391338,-1.64134547328358));
#956=CARTESIAN_POINT('Ctrl Pts',(-3.39998215379785,1.41471921264853,2.23029896634887));
#957=CARTESIAN_POINT('Ctrl Pts',(0.0236701799635077,1.57324729138368,4.06610955829467));
#958=CARTESIAN_POINT('Ctrl Pts',(3.42574944444628,1.73177537011882,2.19057970735565));
#959=CARTESIAN_POINT('Ctrl Pts',(3.70082313311892,1.89030344885397,-1.68463756590585));
#960=CARTESIAN_POINT('Ctrl Pts',(0.598007568874821,2.04883152758912,-4.02182106554092));
#961=CARTESIAN_POINT('Ctrl Pts',(-3.0509064741272,2.20735960632427,-2.68863329204032));
#962=CARTESIAN_POINT('Ctrl Pts',(-3.91454259661932,2.36588768505941,1.09991713326292));
#963=CARTESIAN_POINT('Ctrl Pts',(-1.20601919085856,2.52441576379456,3.88208823900223));
#964=CARTESIAN_POINT('Ctrl Pts',(2.60514105516701,2.6829438425297,3.1254584814856));
#965=CARTESIAN_POINT('Ctrl Pts',(4.03485051238516,2.84147192126485,-0.493437598009776));
#966=CARTESIAN_POINT('Ctrl Pts',(2.53762794620682,2.94715730708828,-2.59110651847754));
#967=CARTESIAN_POINT('Ctrl Pts',(1.51078263890182,3.,-3.09271722244257));
#968=CARTESIAN_POINT('Ctrl Pts',(1.88809301887048,-0.219393102292058,2.64775541772509));
#969=CARTESIAN_POINT('Ctrl Pts',(2.76720191568553,-0.166550409380342,2.02086995851997));
#970=CARTESIAN_POINT('Ctrl Pts',(3.83691506117883,-0.0608650235569109,-0.166496421358625));
#971=CARTESIAN_POINT('Ctrl Pts',(1.94269624224436,0.0976630551782362,-3.31721453121309));
#972=CARTESIAN_POINT('Ctrl Pts',(-1.72660595921499,0.256191133913383,-3.43072751121028));
#973=CARTESIAN_POINT('Ctrl Pts',(-3.81894137416717,0.41471921264853,-0.417393907728032));
#974=CARTESIAN_POINT('Ctrl Pts',(-2.42594295452481,0.573247291383676,2.97931088389733));
#975=CARTESIAN_POINT('Ctrl Pts',(1.18165585657341,0.731775370118825,3.6553389590924));
#976=CARTESIAN_POINT('Ctrl Pts',(3.71053413088445,0.89030344885397,0.995506619216709));
#977=CARTESIAN_POINT('Ctrl Pts',(2.85259779742428,1.04883152758912,-2.57333506364487));
#978=CARTESIAN_POINT('Ctrl Pts',(-0.609152947236464,1.20735960632426,-3.79312170074144));
#979=CARTESIAN_POINT('Ctrl Pts',(-3.51486978548221,1.36588768505941,-1.55074244018542));
#980=CARTESIAN_POINT('Ctrl Pts',(-3.21230155844004,1.52441576379456,2.10718542666081));
#981=CARTESIAN_POINT('Ctrl Pts',(0.0223635750265339,1.68294384252971,3.84165842056196));
#982=CARTESIAN_POINT('Ctrl Pts',(3.23664648266686,1.84147192126485,2.06965868922736));
#983=CARTESIAN_POINT('Ctrl Pts',(3.49653597585785,2.,-1.59164478917078));
#984=CARTESIAN_POINT('Ctrl Pts',(0.564997273091493,2.15852807873515,-3.79981467319554));
#985=CARTESIAN_POINT('Ctrl Pts',(-2.88249501855365,2.31705615747029,-2.54021948451921));
#986=CARTESIAN_POINT('Ctrl Pts',(-3.69845802562639,2.47558423620544,1.0392011962147));
#987=CARTESIAN_POINT('Ctrl Pts',(-1.13944637090995,2.63411231494058,3.66779516363605));
#988=CARTESIAN_POINT('Ctrl Pts',(2.46133605793234,2.79264039367574,2.95293172045065));
#989=CARTESIAN_POINT('Ctrl Pts',(3.8121248885173,2.95116847241088,-0.466199613227131));
#990=CARTESIAN_POINT('Ctrl Pts',(2.39754970396995,3.05685385823431,-2.44807623419202));
#991=CARTESIAN_POINT('Ctrl Pts',(1.42738673495314,3.10969655114603,-2.92199779412645));
#992=CARTESIAN_POINT('Ctrl Pts',(1.77778008111359,-0.109696551146029,2.49305876047793));
#993=CARTESIAN_POINT('Ctrl Pts',(2.60552652700772,-0.056853858234313,1.90279945048836));
#994=CARTESIAN_POINT('Ctrl Pts',(3.61274105698941,0.0488315275891177,-0.15676877066424));
#995=CARTESIAN_POINT('Ctrl Pts',(1.82919307925961,0.207359606324265,-3.12340433412499));
#996=CARTESIAN_POINT('Ctrl Pts',(-1.62572799726824,0.365887685059412,-3.23028525194522));
#997=CARTESIAN_POINT('Ctrl Pts',(-3.59581749314264,0.524415763794559,-0.393007424804193));
#998=CARTESIAN_POINT('Ctrl Pts',(-2.28420582003535,0.682943842529706,2.80524290482584));
#999=CARTESIAN_POINT('Ctrl Pts',(1.11261692276377,0.841471921264853,3.44177364475429));
#1000=CARTESIAN_POINT('Ctrl Pts',(3.49374400638628,1.,0.937343563358413));
#1001=CARTESIAN_POINT('Ctrl Pts',(2.68593310446284,1.15852807873515,-2.42298645906537));
#1002=CARTESIAN_POINT('Ctrl Pts',(-0.573562830393007,1.31705615747029,-3.57150634922211));
#1003=CARTESIAN_POINT('Ctrl Pts',(-3.30951146468221,1.47558423620544,-1.46013940708725));
#1004=CARTESIAN_POINT('Ctrl Pts',(-3.02462096308222,1.63411231494059,1.98407188697276));
#1005=CARTESIAN_POINT('Ctrl Pts',(0.0210569700895601,1.79264039367574,3.61720728282925));
#1006=CARTESIAN_POINT('Ctrl Pts',(3.04754352088743,1.95116847241088,1.94873767109907));
#1007=CARTESIAN_POINT('Ctrl Pts',(3.29224881859678,2.10969655114603,-1.49865201243571));
#1008=CARTESIAN_POINT('Ctrl Pts',(0.531986977308165,2.26822462988117,-3.57780828085017));
#1009=CARTESIAN_POINT('Ctrl Pts',(-2.7140835629801,2.42675270861632,-2.3918056769981));
#1010=CARTESIAN_POINT('Ctrl Pts',(-3.48237345463346,2.58528078735147,0.978485259166488));
#1011=CARTESIAN_POINT('Ctrl Pts',(-1.07287355096134,2.74380886608662,3.45350208826985));
#1012=CARTESIAN_POINT('Ctrl Pts',(2.31753106069768,2.90233694482176,2.78040495941572));
#1013=CARTESIAN_POINT('Ctrl Pts',(3.58939926464944,3.06086502355691,-0.438961628444491));
#1014=CARTESIAN_POINT('Ctrl Pts',(2.25747146173308,3.16655040938034,-2.30504594990651));
#1015=CARTESIAN_POINT('Ctrl Pts',(1.34399083100446,3.21939310229206,-2.75127836581033));
#1016=CARTESIAN_POINT('Ctrl Pts',(1.66746714335671,2.77555756156289E-16,
2.33836210323077));
#1017=CARTESIAN_POINT('Ctrl Pts',(2.4438511383299,0.0528426929117159,1.78472894245675));
#1018=CARTESIAN_POINT('Ctrl Pts',(3.3885670528,0.158528078735147,-0.147041119969857));
#1019=CARTESIAN_POINT('Ctrl Pts',(1.71568991627485,0.317056157470294,-2.9295941370369));
#1020=CARTESIAN_POINT('Ctrl Pts',(-1.52485003532148,0.475584236205441,-3.02984299268017));
#1021=CARTESIAN_POINT('Ctrl Pts',(-3.37269361211812,0.634112314940588,-0.368620941880351));
#1022=CARTESIAN_POINT('Ctrl Pts',(-2.14246868554589,0.792640393675735,2.63117492575435));
#1023=CARTESIAN_POINT('Ctrl Pts',(1.04357798895413,0.951168472410882,3.22820833041617));
#1024=CARTESIAN_POINT('Ctrl Pts',(3.27695388188811,1.10969655114603,0.879180507500117));
#1025=CARTESIAN_POINT('Ctrl Pts',(2.5192684115014,1.26822462988118,-2.27263785448588));
#1026=CARTESIAN_POINT('Ctrl Pts',(-0.537972713549548,1.42675270861632,-3.34989099770278));
#1027=CARTESIAN_POINT('Ctrl Pts',(-3.1041531438822,1.58528078735147,-1.36953637398909));
#1028=CARTESIAN_POINT('Ctrl Pts',(-2.83694036772441,1.74380886608662,1.8609583472847));
#1029=CARTESIAN_POINT('Ctrl Pts',(0.0197503651525866,1.90233694482176,3.39275614509654));
#1030=CARTESIAN_POINT('Ctrl Pts',(2.858440559108,2.06086502355691,1.82781665297078));
#1031=CARTESIAN_POINT('Ctrl Pts',(3.08796166133571,2.21939310229206,-1.40565923570064));
#1032=CARTESIAN_POINT('Ctrl Pts',(0.498976681524833,2.3779211810272,-3.3558018885048));
#1033=CARTESIAN_POINT('Ctrl Pts',(-2.54567210740654,2.53644925976235,-2.24339186947699));
#1034=CARTESIAN_POINT('Ctrl Pts',(-3.26628888364053,2.6949773384975,0.917769322118275));
#1035=CARTESIAN_POINT('Ctrl Pts',(-1.00630073101272,2.85350541723265,3.23920901290366));
#1036=CARTESIAN_POINT('Ctrl Pts',(2.17372606346301,3.01203349596779,2.60787819838077));
#1037=CARTESIAN_POINT('Ctrl Pts',(3.36667364078157,3.17056157470294,-0.411723643661848));
#1038=CARTESIAN_POINT('Ctrl Pts',(2.11739321949621,3.27624696052637,-2.162015665621));
#1039=CARTESIAN_POINT('Ctrl Pts',(1.26059492705578,3.32908965343809,-2.58055893749421));
#1040=CARTESIAN_POINT('Ctrl Pts',(1.67106223110445,3.,2.341478183016));
#1041=CARTESIAN_POINT('Ctrl Pts',(1.73431979201033,3.,2.30541807108899));
#1042=CARTESIAN_POINT('Ctrl Pts',(1.7959939505434,3.,2.26687175745005));
#1043=CARTESIAN_POINT('Ctrl Pts',(1.85591788682029,3.,2.22587018736789));
#1044=CARTESIAN_POINT('Ctrl Pts',(1.9339007344703,3.,2.17251222405997));
#1045=CARTESIAN_POINT('Ctrl Pts',(2.00892087611123,3.,2.11499813267853));
#1046=CARTESIAN_POINT('Ctrl Pts',(2.08088999612653,3.,2.05370811086813));
#1047=CARTESIAN_POINT('Ctrl Pts',(2.12427557630303,3.,2.01676027609246));
#1048=CARTESIAN_POINT('Ctrl Pts',(2.1665520111023,3.,1.97843923737543));
#1049=CARTESIAN_POINT('Ctrl Pts',(2.20769588641659,3.,1.93882031981878));
#1050=CARTESIAN_POINT('Ctrl Pts',(2.22568306946481,3.,1.9214998142315));
#1051=CARTESIAN_POINT('Ctrl Pts',(2.24345374927189,3.,1.90393118141382));
#1052=CARTESIAN_POINT('Ctrl Pts',(2.26100575521826,3.,1.88612040022898));
#1053=CARTESIAN_POINT('Ctrl Pts',(2.27224068162861,3.,1.87471983344852));
#1054=CARTESIAN_POINT('Ctrl Pts',(2.28338432154046,3.,1.86322169417614));
#1055=CARTESIAN_POINT('Ctrl Pts',(2.29443015263524,3.,1.85163410793713));
#1056=CARTESIAN_POINT('Ctrl Pts',(2.36490368498109,3.,1.77770412235088));
#1057=CARTESIAN_POINT('Ctrl Pts',(2.43147030233707,3.,1.70006498759149));
#1058=CARTESIAN_POINT('Ctrl Pts',(2.49402184348504,3.,1.6191749509629));
#1059=CARTESIAN_POINT('Ctrl Pts',(2.54875444198951,3.,1.54839616891289));
#1060=CARTESIAN_POINT('Ctrl Pts',(2.60041284535665,3.,1.47512712701092));
#1061=CARTESIAN_POINT('Ctrl Pts',(2.64890381114983,3.,1.39964320277753));
#1062=CARTESIAN_POINT('Ctrl Pts',(2.67163144752983,3.,1.36426401091262));
#1063=CARTESIAN_POINT('Ctrl Pts',(2.69366296152226,3.,1.32839788080216));
#1064=CARTESIAN_POINT('Ctrl Pts',(2.71498700367028,3.,1.29207137390434));
#1065=CARTESIAN_POINT('Ctrl Pts',(2.72319559186179,3.,1.27808765855194));
#1066=CARTESIAN_POINT('Ctrl Pts',(2.73130052598881,3.,1.26403359804776));
#1067=CARTESIAN_POINT('Ctrl Pts',(2.7392971817501,3.,1.24991762560914));
#1068=CARTESIAN_POINT('Ctrl Pts',(2.78942571593938,3.,1.16142900885126));
#1069=CARTESIAN_POINT('Ctrl Pts',(2.83520825143929,3.,1.0706792748628));
#1070=CARTESIAN_POINT('Ctrl Pts',(2.87654683373496,3.,0.978086537951384));
#1071=CARTESIAN_POINT('Ctrl Pts',(2.9185587789094,3.,0.883985560833914));
#1072=CARTESIAN_POINT('Ctrl Pts',(2.95598139767139,3.,0.787980344281566));
#1073=CARTESIAN_POINT('Ctrl Pts',(2.98867671349172,3.,0.690469227549718));
#1074=CARTESIAN_POINT('Ctrl Pts',(3.02126953479481,3.,0.593263792368364));
#1075=CARTESIAN_POINT('Ctrl Pts',(3.04916513165891,3.,0.494561034223493));
#1076=CARTESIAN_POINT('Ctrl Pts',(3.07218430565345,3.,0.394727504853478));
#1077=CARTESIAN_POINT('Ctrl Pts',(3.0868726043285,3.,0.33102475437603));
#1078=CARTESIAN_POINT('Ctrl Pts',(3.09957455116541,3.,0.266861073370662));
#1079=CARTESIAN_POINT('Ctrl Pts',(3.11023308751426,3.,0.202328122148646));
#1080=CARTESIAN_POINT('Ctrl Pts',(3.11359790760327,3.,0.181955552823193));
#1081=CARTESIAN_POINT('Ctrl Pts',(3.11675901213406,3.,0.161546167773027));
#1082=CARTESIAN_POINT('Ctrl Pts',(3.1197144195792,3.,0.141102820400045));
#1083=CARTESIAN_POINT('Ctrl Pts',(3.12168909972786,3.,0.127443427243979));
#1084=CARTESIAN_POINT('Ctrl Pts',(3.12357144104561,3.,0.113772115581048));
#1085=CARTESIAN_POINT('Ctrl Pts',(3.12536000702047,3.,0.100097905401127));
#1086=CARTESIAN_POINT('Ctrl Pts',(3.13905210803757,3.,-0.00458297847122506));
#1087=CARTESIAN_POINT('Ctrl Pts',(3.14727258135179,3.,-0.109571129746605));
#1088=CARTESIAN_POINT('Ctrl Pts',(3.14988182172355,3.,-0.214456638118165));
#1089=CARTESIAN_POINT('Ctrl Pts',(3.15126922323172,3.,-0.270227012543721));
#1090=CARTESIAN_POINT('Ctrl Pts',(3.15106941522145,3.,-0.325968863863335));
#1091=CARTESIAN_POINT('Ctrl Pts',(3.14925599673481,3.,-0.381623178659378));
#1092=CARTESIAN_POINT('Ctrl Pts',(3.14595676554175,3.,-0.482877496267862));
#1093=CARTESIAN_POINT('Ctrl Pts',(3.13731978197132,3.,-0.583841887001646));
#1094=CARTESIAN_POINT('Ctrl Pts',(3.12360266536416,3.,-0.684240820859553));
#1095=CARTESIAN_POINT('Ctrl Pts',(3.1096218753462,3.,-0.786569644947945));
#1096=CARTESIAN_POINT('Ctrl Pts',(3.09036363753852,3.,-0.888311775285023));
#1097=CARTESIAN_POINT('Ctrl Pts',(3.06604665981592,3.,-0.98917601998428));
#1098=CARTESIAN_POINT('Ctrl Pts',(3.05886865649504,3.,-1.01894961650886));
#1099=CARTESIAN_POINT('Ctrl Pts',(3.05124951972458,3.,-1.04864668293624));
#1100=CARTESIAN_POINT('Ctrl Pts',(3.0431940272013,3.,-1.07825959359569));
#1101=CARTESIAN_POINT('Ctrl Pts',(3.03904933375702,3.,-1.09349596012714));
#1102=CARTESIAN_POINT('Ctrl Pts',(3.03479134620325,3.,-1.10870177671487));
#1103=CARTESIAN_POINT('Ctrl Pts',(3.03042231300443,3.,-1.12387191925459));
#1104=CARTESIAN_POINT('Ctrl Pts',(3.00113220309841,3.,-1.22557294143936));
#1105=CARTESIAN_POINT('Ctrl Pts',(2.96683970499719,3.,-1.32572956616676));
#1106=CARTESIAN_POINT('Ctrl Pts',(2.92785274539021,3.,-1.42404309899652));
#1107=CARTESIAN_POINT('Ctrl Pts',(2.88835815026673,3.,-1.52363673782888));
#1108=CARTESIAN_POINT('Ctrl Pts',(2.84404579973036,3.,-1.62133973719878));
#1109=CARTESIAN_POINT('Ctrl Pts',(2.79518017027646,3.,-1.71684181083813));
#1110=CARTESIAN_POINT('Ctrl Pts',(2.74594594401863,3.,-1.81306426318756));
#1111=CARTESIAN_POINT('Ctrl Pts',(2.69208917197023,3.,-1.90705328811132));
#1112=CARTESIAN_POINT('Ctrl Pts',(2.63382860120155,3.,-1.99847971819112));
#1113=CARTESIAN_POINT('Ctrl Pts',(2.59839320409671,3.,-2.0540873412029));
#1114=CARTESIAN_POINT('Ctrl Pts',(2.561327704292,3.,-2.10874669025973));
#1115=CARTESIAN_POINT('Ctrl Pts',(2.52267284049328,3.,-2.16237957014711));
#1116=CARTESIAN_POINT('Ctrl Pts',(2.51021824721676,3.,-2.17966007871969));
#1117=CARTESIAN_POINT('Ctrl Pts',(2.4975986106555,3.,-2.19683399642898));
#1118=CARTESIAN_POINT('Ctrl Pts',(2.48481516217395,3.,-2.21389861531287));
#1119=CARTESIAN_POINT('Ctrl Pts',(2.47506432108484,3.,-2.22691500812919));
#1120=CARTESIAN_POINT('Ctrl Pts',(2.46522311259455,3.,-2.2398611696841));
#1121=CARTESIAN_POINT('Ctrl Pts',(2.45529551082726,3.,-2.25273209319652));
#1122=CARTESIAN_POINT('Ctrl Pts',(2.38737210891588,3.,-2.3407933320735));
#1123=CARTESIAN_POINT('Ctrl Pts',(2.31536387272944,3.,-2.42539356055097));
#1124=CARTESIAN_POINT('Ctrl Pts',(2.23955033729241,3.,-2.50621052634795));
#1125=CARTESIAN_POINT('Ctrl Pts',(2.16369120836592,3.,-2.58707609464654));
#1126=CARTESIAN_POINT('Ctrl Pts',(2.08402177799639,3.,-2.66415468897196));
#1127=CARTESIAN_POINT('Ctrl Pts',(2.0007733999932,3.,-2.73710474092916));
#1128=CARTESIAN_POINT('Ctrl Pts',(1.91925137230411,3.,-2.80854200250977));
#1129=CARTESIAN_POINT('Ctrl Pts',(1.83429675838005,3.,-2.87602087162074));
#1130=CARTESIAN_POINT('Ctrl Pts',(1.74608747835152,3.,-2.9391914274827));
#1131=CARTESIAN_POINT('Ctrl Pts',(1.67004093132774,3.,-2.99365171380769));
#1132=CARTESIAN_POINT('Ctrl Pts',(1.59157461663295,3.,-3.04490972018925));
#1133=CARTESIAN_POINT('Ctrl Pts',(1.51078263890184,3.,-3.09271722244256));
#1134=CARTESIAN_POINT('',(1.51078263890182,0.,-3.09271722244257));
#1135=CARTESIAN_POINT('Ctrl Pts',(1.51441906985567,2.37657116208823E-16,
-3.09710892319078));
#1136=CARTESIAN_POINT('Ctrl Pts',(1.58911477173474,2.33314831378736E-16,
-3.05338504560962));
#1137=CARTESIAN_POINT('Ctrl Pts',(1.66187458466425,-3.39709513964122E-16,
-3.00675921204668));
#1138=CARTESIAN_POINT('Ctrl Pts',(1.73251218941925,-1.92554305833426E-16,
-2.95723252328512));
#1139=CARTESIAN_POINT('Ctrl Pts',(1.82138196812768,-4.25459513705502E-17,
-2.89492256974596));
#1140=CARTESIAN_POINT('Ctrl Pts',(1.90689409568805,3.29252266432364E-16,
-2.82802198683874));
#1141=CARTESIAN_POINT('Ctrl Pts',(1.9888972853496,3.36536354339501E-16,
-2.7569275688613));
#1142=CARTESIAN_POINT('Ctrl Pts',(2.0722687623795,3.43941982951511E-16,
-2.68464688490469));
#1143=CARTESIAN_POINT('Ctrl Pts',(2.15201370861931,3.29742553497719E-16,
-2.60803042382436));
#1144=CARTESIAN_POINT('Ctrl Pts',(2.22793131946314,2.08166817117217E-16,
-2.52746196951564));
#1145=CARTESIAN_POINT('Ctrl Pts',(2.30291951423065,8.80794632427987E-17,
-2.44787986891125));
#1146=CARTESIAN_POINT('Ctrl Pts',(2.37417378199922,5.55812038299144E-16,
-2.36444103466138));
#1147=CARTESIAN_POINT('Ctrl Pts',(2.44145481935876,5.759281940243E-16,-2.2774963821224));
#1148=CARTESIAN_POINT('Ctrl Pts',(2.45378204895204,5.7961387545684E-16,
-2.26156638556144));
#1149=CARTESIAN_POINT('Ctrl Pts',(2.46597576738868,2.95282923704521E-17,
-2.24551866967818));
#1150=CARTESIAN_POINT('Ctrl Pts',(2.4780343223316,2.08166817117217E-17,
-2.22935535964375));
#1151=CARTESIAN_POINT('Ctrl Pts',(2.48653406277942,1.46761093270333E-17,
-2.21796229134321));
#1152=CARTESIAN_POINT('Ctrl Pts',(2.49496477373914,-2.05153118913082E-16,
-2.20651424434049));
#1153=CARTESIAN_POINT('Ctrl Pts',(2.50332119263883,-1.94289029309402E-16,
-2.19501874947874));
#1154=CARTESIAN_POINT('Ctrl Pts',(2.56735212161725,-1.11043112825432E-16,
-2.10693470009101));
#1155=CARTESIAN_POINT('Ctrl Pts',(2.62711044735762,3.16169494791566E-16,
-2.01595271294507));
#1156=CARTESIAN_POINT('Ctrl Pts',(2.68243758291865,3.05311331771918E-16,
-1.92245823832488));
#1157=CARTESIAN_POINT('Ctrl Pts',(2.73769756178637,2.9446634851147E-16,
-1.82907724833921));
#1158=CARTESIAN_POINT('Ctrl Pts',(2.78853742911551,1.56311278700591E-16,
-1.73318895491398));
#1159=CARTESIAN_POINT('Ctrl Pts',(2.83475189612635,1.80411241501588E-16,
-1.63515644482844));
#1160=CARTESIAN_POINT('Ctrl Pts',(2.88027788625642,2.04152176744996E-16,
-1.53858436739796));
#1161=CARTESIAN_POINT('Ctrl Pts',(2.92131545918723,2.4474481919868E-17,
-1.43993063096071));
#1162=CARTESIAN_POINT('Ctrl Pts',(2.95761874617065,-2.77555756156289E-17,
-1.33953510016316));
#1163=CARTESIAN_POINT('Ctrl Pts',(2.97503107557358,-5.28069426435581E-17,
-1.29138188324847));
#1164=CARTESIAN_POINT('Ctrl Pts',(2.99135352682717,5.18886566064534E-16,
-1.24282793815046));
#1165=CARTESIAN_POINT('Ctrl Pts',(3.00655462251376,5.68989300120393E-16,
-1.19391102161886));
#1166=CARTESIAN_POINT('Ctrl Pts',(3.01732581412321,6.04491092872694E-16,
-1.15924947538767));
#1167=CARTESIAN_POINT('Ctrl Pts',(3.02753392999992,1.54672813201431E-16,
-1.12440569142341));
#1168=CARTESIAN_POINT('Ctrl Pts',(3.03716686893474,1.52655665885959E-16,
-1.08939326804523));
#1169=CARTESIAN_POINT('Ctrl Pts',(3.0407662772229,1.51901946090279E-16,
-1.07631065558928));
#1170=CARTESIAN_POINT('Ctrl Pts',(3.04428484395462,4.33904649041081E-16,
-1.06320627787966));
#1171=CARTESIAN_POINT('Ctrl Pts',(3.04771978120897,4.30211422042248E-16,
-1.0500896980837));
#1172=CARTESIAN_POINT('Ctrl Pts',(3.07427405265562,4.01660404955454E-16,
-0.948690110678742));
#1173=CARTESIAN_POINT('Ctrl Pts',(3.09587576042773,4.41332979271536E-16,
-0.846413420569681));
#1174=CARTESIAN_POINT('Ctrl Pts',(3.11233957306909,4.9960036108132E-16,
-0.743592516941223));
#1175=CARTESIAN_POINT('Ctrl Pts',(3.12835053040496,5.56265034359037E-16,
-0.643599815548763));
#1176=CARTESIAN_POINT('Ctrl Pts',(3.13950237853292,1.51810752932019E-16,
-0.543091685813491));
#1177=CARTESIAN_POINT('Ctrl Pts',(3.14557652749326,1.38777878078145E-16,
-0.442373769513591));
#1178=CARTESIAN_POINT('Ctrl Pts',(3.15164712169142,1.25752630427821E-16,
-0.341714796160472));
#1179=CARTESIAN_POINT('Ctrl Pts',(3.15264619763559,2.43016669096459E-16,
-0.240845592765957));
#1180=CARTESIAN_POINT('Ctrl Pts',(3.14830450423449,3.05311331771918E-16,
-0.140081301307333));
#1181=CARTESIAN_POINT('Ctrl Pts',(3.14562263714254,3.14635960462669E-16,
-0.0778391270354594));
#1182=CARTESIAN_POINT('Ctrl Pts',(3.14090175348509,2.87591185125006E-16,
-0.0156372193630621));
#1183=CARTESIAN_POINT('Ctrl Pts',(3.13417796365283,3.33066907387547E-16,
0.0464456544604803));
#1184=CARTESIAN_POINT('Ctrl Pts',(3.13152677481135,3.50997974602426E-16,
0.0709249178572432));
#1185=CARTESIAN_POINT('Ctrl Pts',(3.1285641286177,4.73224098328375E-16,
0.0953856372115338));
#1186=CARTESIAN_POINT('Ctrl Pts',(3.12529200951149,4.71844785465692E-16,
0.119822824415046));
#1187=CARTESIAN_POINT('Ctrl Pts',(3.12324983512291,4.7098393740039E-16,
0.135074407935145));
#1188=CARTESIAN_POINT('Ctrl Pts',(3.12108696986922,2.92688342202537E-18,
0.150317286092532));
#1189=CARTESIAN_POINT('Ctrl Pts',(3.11880637924184,0.,0.165534974340241));
#1190=CARTESIAN_POINT('Ctrl Pts',(3.10388412761189,-1.91510437649449E-17,
0.265106625004587));
#1191=CARTESIAN_POINT('Ctrl Pts',(3.08390557904492,5.81021747994563E-16,
0.363759975757016));
#1192=CARTESIAN_POINT('Ctrl Pts',(3.05911180806984,5.55111512312578E-16,
0.46118891865002));
#1193=CARTESIAN_POINT('Ctrl Pts',(3.03381991390436,5.28680722928822E-16,
0.560575273181618));
#1194=CARTESIAN_POINT('Ctrl Pts',(3.00351695050452,-2.23720634109019E-16,
0.658688372345246));
#1195=CARTESIAN_POINT('Ctrl Pts',(2.96840857732435,-3.05311331771918E-16,
0.755184407675299));
#1196=CARTESIAN_POINT('Ctrl Pts',(2.9335523112352,-3.86316140896575E-16,
0.850987521842706));
#1197=CARTESIAN_POINT('Ctrl Pts',(2.8939587878684,2.16340040902168E-16,
0.945197446322815));
#1198=CARTESIAN_POINT('Ctrl Pts',(2.84978835846742,2.22044604925031E-16,
1.03744756494915));
#1199=CARTESIAN_POINT('Ctrl Pts',(2.83209464716513,2.24329728938875E-16,
1.07440095183517));
#1200=CARTESIAN_POINT('Ctrl Pts',(2.81366610099934,1.19248748912352E-16,
1.11103946180619));
#1201=CARTESIAN_POINT('Ctrl Pts',(2.79451149856381,1.11022302462516E-16,
1.14733775544653));
#1202=CARTESIAN_POINT('Ctrl Pts',(2.77987091246332,1.04734518732454E-16,
1.17508191224283));
#1203=CARTESIAN_POINT('Ctrl Pts',(2.76480613782359,3.27477766294159E-16,
1.20262728982071));
#1204=CARTESIAN_POINT('Ctrl Pts',(2.74932079581704,3.33066907387547E-16,
1.22996211001149));
#1205=CARTESIAN_POINT('Ctrl Pts',(2.73927542390569,3.36692594241883E-16,
1.24769426179929));
#1206=CARTESIAN_POINT('Ctrl Pts',(2.72905159207806,4.17466661376414E-16,
1.26534008391091));
#1207=CARTESIAN_POINT('Ctrl Pts',(2.71866283336376,4.16333634234434E-16,
1.28287561127435));
#1208=CARTESIAN_POINT('Ctrl Pts',(2.6672534850125,4.10726786618142E-16,
1.36965114043449));
#1209=CARTESIAN_POINT('Ctrl Pts',(2.6117486277002,3.47644711189905E-16,
1.45383705831344));
#1210=CARTESIAN_POINT('Ctrl Pts',(2.55232717371218,3.33066907387547E-16,
1.53509018457529));
#1211=CARTESIAN_POINT('Ctrl Pts',(2.49303877055019,3.18521744806625E-16,
1.61616137662247));
#1212=CARTESIAN_POINT('Ctrl Pts',(2.42985071778424,5.78862839289559E-16,
1.69431360436856));
#1213=CARTESIAN_POINT('Ctrl Pts',(2.36290782732223,6.66133814775094E-16,
1.76916483534236));
#1214=CARTESIAN_POINT('Ctrl Pts',(2.34389321407216,6.90922464254688E-16,
1.79042575190028));
#1215=CARTESIAN_POINT('Ctrl Pts',(2.32457548585593,5.09770063431923E-16,
1.81142005280097));
#1216=CARTESIAN_POINT('Ctrl Pts',(2.30495757357387,4.9960036108132E-16,
1.83213825388042));
#1217=CARTESIAN_POINT('Ctrl Pts',(2.29261531254104,4.93202273495199E-16,
1.84517274206534));
#1218=CARTESIAN_POINT('Ctrl Pts',(2.28015423330463,3.90177580515335E-16,
1.85809794110884));
#1219=CARTESIAN_POINT('Ctrl Pts',(2.26757503594854,3.88578058618805E-16,
1.87091141726057));
#1220=CARTESIAN_POINT('Ctrl Pts',(2.25480437127801,3.8695419048195E-16,
1.88391992667221));
#1221=CARTESIAN_POINT('Ctrl Pts',(2.24191826623595,7.61023768325086E-16,
1.89680684062973));
#1222=CARTESIAN_POINT('Ctrl Pts',(2.22892000125049,7.21644966006352E-16,
1.90956780843814));
#1223=CARTESIAN_POINT('Ctrl Pts',(2.15965375178922,5.11799886840145E-16,
1.97756952871187));
#1224=CARTESIAN_POINT('Ctrl Pts',(2.08718410554097,-2.81235673109349E-17,
2.04201923034558));
#1225=CARTESIAN_POINT('Ctrl Pts',(2.01165296706433,0.,2.10257788671553));
#1226=CARTESIAN_POINT('Ctrl Pts',(1.93822142869464,2.73417937785252E-17,
2.16145314516569));
#1227=CARTESIAN_POINT('Ctrl Pts',(1.86189568236045,1.60827328871047E-16,
2.21665102902979));
#1228=CARTESIAN_POINT('Ctrl Pts',(1.78278559637803,2.77555756156289E-16,
2.26781559922287));
#1229=CARTESIAN_POINT('Ctrl Pts',(1.7449786826485,3.33340572028423E-16,
2.29226727902168));
#1230=CARTESIAN_POINT('Ctrl Pts',(1.70653559582202,2.59463383441002E-16,
2.31579709225513));
#1231=CARTESIAN_POINT('Ctrl Pts',(1.66746714335671,2.77555756156289E-16,
2.33836210323077));
#1232=CARTESIAN_POINT('Ctrl Pts',(-3.44595140334264,0.322320454656893,-0.00229982394207087));
#1233=CARTESIAN_POINT('Ctrl Pts',(-3.44683948438997,0.316554523605429,-0.126581522192061));
#1234=CARTESIAN_POINT('Ctrl Pts',(-3.44069859073405,0.310788592553965,-0.250769394515297));
#1235=CARTESIAN_POINT('Ctrl Pts',(-3.42723750515714,0.305022661502501,-0.374152078352332));
#1236=CARTESIAN_POINT('Ctrl Pts',(-3.30387147718172,0.252179968590785,-1.50491018392636));
#1237=CARTESIAN_POINT('Ctrl Pts',(-2.56567769917173,0.19933727567907,-2.56803997720085));
#1238=CARTESIAN_POINT('Ctrl Pts',(-1.54930025576826,0.146494582767354,-3.0795807001424));
#1239=CARTESIAN_POINT('Ctrl Pts',(-0.610073648762577,0.0976630551782362,
-3.55229156230476));
#1240=CARTESIAN_POINT('Ctrl Pts',(0.566706966668858,0.0488315275891181,
-3.55397478711075));
#1241=CARTESIAN_POINT('Ctrl Pts',(1.51441906985568,-3.90312782094782E-17,
-3.09710892319077));
#1242=CARTESIAN_POINT('Origin',(0.,0.,0.));
#1243=CARTESIAN_POINT('Origin',(0.,0.,0.));
#1244=CARTESIAN_POINT('Origin',(0.,3.,0.));
#1245=CARTESIAN_POINT('',(-4.,3.,4.89858719658941E-16));
#1246=CARTESIAN_POINT('Origin',(0.,3.,0.));
#1247=CARTESIAN_POINT('Origin',(0.,9.25,0.));
#1248=CARTESIAN_POINT('',(3.67394039744206E-16,5.5,-3.));
#1249=CARTESIAN_POINT('',(3.67394039744206E-16,9.25,-3.));
#1250=CARTESIAN_POINT('Origin',(0.,5.5,0.));
#1251=CARTESIAN_POINT('Origin',(0.,5.5,0.));
#1252=CARTESIAN_POINT('',(-2.5,5.5,3.06161699786838E-16));
#1253=CARTESIAN_POINT('Origin',(0.,5.5,0.));
#1254=CARTESIAN_POINT('Origin',(0.,0.,0.));
#1255=CARTESIAN_POINT('',(-2.5,0.,3.06161699786838E-16));
#1256=CARTESIAN_POINT('',(-2.5,0.,3.06161699786838E-16));
#1257=CARTESIAN_POINT('Origin',(0.,0.,0.));
#1258=CARTESIAN_POINT('Origin',(0.,0.,0.));
#1259=CARTESIAN_POINT('',(-4.,13.,4.89858719658941E-16));
#1260=CARTESIAN_POINT('Origin',(0.,13.,0.));
#1261=CARTESIAN_POINT('',(-4.,0.,4.89858719658941E-16));
#1262=CARTESIAN_POINT('Origin',(0.,13.,0.));
#1263=CARTESIAN_POINT('Origin',(0.,0.,0.));
#1264=UNCERTAINTY_MEASURE_WITH_UNIT(LENGTH_MEASURE(0.01),#1268,
'DISTANCE_ACCURACY_VALUE',
'Maximum model space distance between geometric entities at asserted c
onnectivities');
#1265=UNCERTAINTY_MEASURE_WITH_UNIT(LENGTH_MEASURE(0.01),#1268,
'DISTANCE_ACCURACY_VALUE',
'Maximum model space distance between geometric entities at asserted c
onnectivities');
#1266=(
GEOMETRIC_REPRESENTATION_CONTEXT(3)
GLOBAL_UNCERTAINTY_ASSIGNED_CONTEXT((#1264))
GLOBAL_UNIT_ASSIGNED_CONTEXT((#1268,#1270,#1271))
REPRESENTATION_CONTEXT('','3D')
);
#1267=(
GEOMETRIC_REPRESENTATION_CONTEXT(3)
GLOBAL_UNCERTAINTY_ASSIGNED_CONTEXT((#1265))
GLOBAL_UNIT_ASSIGNED_CONTEXT((#1268,#1270,#1271))
REPRESENTATION_CONTEXT('','3D')
);
#1268=(
LENGTH_UNIT()
NAMED_UNIT(*)
SI_UNIT(.MILLI.,.METRE.)
);
#1269=(
LENGTH_UNIT()
NAMED_UNIT(*)
SI_UNIT($,.METRE.)
);
#1270=(
NAMED_UNIT(*)
PLANE_ANGLE_UNIT()
SI_UNIT($,.RADIAN.)
);
#1271=(
NAMED_UNIT(*)
SI_UNIT($,.STERADIAN.)
SOLID_ANGLE_UNIT()
);
#1272=SHAPE_DEFINITION_REPRESENTATION(#1273,#1274);
#1273=PRODUCT_DEFINITION_SHAPE('',$,#1276);
#1274=SHAPE_REPRESENTATION('',(#320),#1266);
#1275=PRODUCT_DEFINITION_CONTEXT('part definition',#1280,'design');
#1276=PRODUCT_DEFINITION('2026-08-04-10-36-41-300','cartridgeUndercut',
#1277,#1275);
#1277=PRODUCT_DEFINITION_FORMATION('',$,#1282);
#1278=PRODUCT_RELATED_PRODUCT_CATEGORY('cartridgeUndercut',
'cartridgeUndercut',(#1282));
#1279=APPLICATION_PROTOCOL_DEFINITION('international standard',
'automotive_design',2009,#1280);
#1280=APPLICATION_CONTEXT(
'Core Data for Automotive Mechanical Design Process');
#1281=PRODUCT_CONTEXT('part definition',#1280,'mechanical');
#1282=PRODUCT('2026-08-04-10-36-41-300','cartridgeUndercut',$,(#1281));
#1283=PRESENTATION_STYLE_ASSIGNMENT((#1284));
#1284=SURFACE_STYLE_USAGE(.BOTH.,#1285);
#1285=SURFACE_SIDE_STYLE('',(#1286));
#1286=SURFACE_STYLE_FILL_AREA(#1287);
#1287=FILL_AREA_STYLE('Steel - Satin',(#1288));
#1288=FILL_AREA_STYLE_COLOUR('Steel - Satin',#1289);
#1289=COLOUR_RGB('Steel - Satin',0.627450980392157,0.627450980392157,0.627450980392157);
ENDSEC;
END-ISO-10303-21;
