ISO-10303-21;
HEADER;
/* Generated by software containing ST-Developer
 * from STEP Tools, Inc. (www.steptools.com) 
 */

FILE_DESCRIPTION(
/* description */ (''),
/* implementation_level */ '2;1');

FILE_NAME(
/* name */ 'moldCartrdigeHolder.step',
/* time_stamp */ '2026-08-04T10:37:02+02:00',
/* author */ (''),
/* organization */ (''),
/* preprocessor_version */ 'ST-DEVELOPER v20.1',
/* originating_system */ 'Autodesk Translation Framework v15.8.0.0',
/* authorisation */ '');

FILE_SCHEMA (('AUTOMOTIVE_DESIGN { 1 0 10303 214 3 1 1 }'));
ENDSEC;

DATA;
#10=MECHANICAL_DESIGN_GEOMETRIC_PRESENTATION_REPRESENTATION('',(#13),#661);
#11=SHAPE_REPRESENTATION_RELATIONSHIP('SRR','None',#668,#12);
#12=ADVANCED_BREP_SHAPE_REPRESENTATION('',(#14),#660);
#13=STYLED_ITEM('',(#677),#14);
#14=MANIFOLD_SOLID_BREP('Body1',#389);
#15=LINE('',#562,#47);
#16=LINE('',#571,#48);
#17=LINE('',#580,#49);
#18=LINE('',#589,#50);
#19=LINE('',#594,#51);
#20=LINE('',#596,#52);
#21=LINE('',#598,#53);
#22=LINE('',#599,#54);
#23=LINE('',#602,#55);
#24=LINE('',#604,#56);
#25=LINE('',#605,#57);
#26=LINE('',#608,#58);
#27=LINE('',#610,#59);
#28=LINE('',#611,#60);
#29=LINE('',#613,#61);
#30=LINE('',#614,#62);
#31=LINE('',#618,#63);
#32=LINE('',#620,#64);
#33=LINE('',#622,#65);
#34=LINE('',#623,#66);
#35=LINE('',#626,#67);
#36=LINE('',#628,#68);
#37=LINE('',#629,#69);
#38=LINE('',#632,#70);
#39=LINE('',#633,#71);
#40=LINE('',#637,#72);
#41=LINE('',#641,#73);
#42=LINE('',#645,#74);
#43=LINE('',#649,#75);
#44=LINE('',#652,#76);
#45=LINE('',#653,#77);
#46=LINE('',#655,#78);
#47=VECTOR('',#452,3.75);
#48=VECTOR('',#463,3.75);
#49=VECTOR('',#474,3.75);
#50=VECTOR('',#485,3.75);
#51=VECTOR('',#490,10.);
#52=VECTOR('',#491,10.);
#53=VECTOR('',#492,10.);
#54=VECTOR('',#493,10.);
#55=VECTOR('',#496,10.);
#56=VECTOR('',#497,10.);
#57=VECTOR('',#498,10.);
#58=VECTOR('',#501,10.);
#59=VECTOR('',#502,10.);
#60=VECTOR('',#503,10.);
#61=VECTOR('',#506,10.);
#62=VECTOR('',#507,10.);
#63=VECTOR('',#510,10.);
#64=VECTOR('',#511,10.);
#65=VECTOR('',#512,10.);
#66=VECTOR('',#513,10.);
#67=VECTOR('',#516,10.);
#68=VECTOR('',#517,10.);
#69=VECTOR('',#518,10.);
#70=VECTOR('',#521,10.);
#71=VECTOR('',#522,10.);
#72=VECTOR('',#527,4.05);
#73=VECTOR('',#532,4.05);
#74=VECTOR('',#537,4.05);
#75=VECTOR('',#542,4.05);
#76=VECTOR('',#545,10.);
#77=VECTOR('',#546,10.);
#78=VECTOR('',#549,10.);
#79=CYLINDRICAL_SURFACE('',#406,3.75);
#80=CYLINDRICAL_SURFACE('',#411,3.75);
#81=CYLINDRICAL_SURFACE('',#416,3.75);
#82=CYLINDRICAL_SURFACE('',#421,3.75);
#83=CYLINDRICAL_SURFACE('',#430,4.05);
#84=CYLINDRICAL_SURFACE('',#432,4.05);
#85=CYLINDRICAL_SURFACE('',#434,4.05);
#86=CYLINDRICAL_SURFACE('',#436,4.05);
#87=FACE_BOUND('',#124,.T.);
#88=FACE_BOUND('',#127,.T.);
#89=FACE_BOUND('',#130,.T.);
#90=FACE_BOUND('',#133,.T.);
#91=FACE_BOUND('',#140,.T.);
#92=FACE_BOUND('',#150,.T.);
#93=FACE_BOUND('',#151,.T.);
#94=FACE_BOUND('',#152,.T.);
#95=FACE_BOUND('',#153,.T.);
#96=FACE_BOUND('',#155,.T.);
#97=FACE_BOUND('',#156,.T.);
#98=FACE_BOUND('',#157,.T.);
#99=FACE_BOUND('',#158,.T.);
#100=FACE_OUTER_BOUND('',#123,.T.);
#101=FACE_OUTER_BOUND('',#125,.T.);
#102=FACE_OUTER_BOUND('',#126,.T.);
#103=FACE_OUTER_BOUND('',#128,.T.);
#104=FACE_OUTER_BOUND('',#129,.T.);
#105=FACE_OUTER_BOUND('',#131,.T.);
#106=FACE_OUTER_BOUND('',#132,.T.);
#107=FACE_OUTER_BOUND('',#134,.T.);
#108=FACE_OUTER_BOUND('',#135,.T.);
#109=FACE_OUTER_BOUND('',#136,.T.);
#110=FACE_OUTER_BOUND('',#137,.T.);
#111=FACE_OUTER_BOUND('',#138,.T.);
#112=FACE_OUTER_BOUND('',#139,.T.);
#113=FACE_OUTER_BOUND('',#141,.T.);
#114=FACE_OUTER_BOUND('',#142,.T.);
#115=FACE_OUTER_BOUND('',#143,.T.);
#116=FACE_OUTER_BOUND('',#144,.T.);
#117=FACE_OUTER_BOUND('',#145,.T.);
#118=FACE_OUTER_BOUND('',#146,.T.);
#119=FACE_OUTER_BOUND('',#147,.T.);
#120=FACE_OUTER_BOUND('',#148,.T.);
#121=FACE_OUTER_BOUND('',#149,.T.);
#122=FACE_OUTER_BOUND('',#154,.T.);
#123=EDGE_LOOP('',(#255));
#124=EDGE_LOOP('',(#256));
#125=EDGE_LOOP('',(#257,#258,#259,#260));
#126=EDGE_LOOP('',(#261));
#127=EDGE_LOOP('',(#262));
#128=EDGE_LOOP('',(#263,#264,#265,#266));
#129=EDGE_LOOP('',(#267));
#130=EDGE_LOOP('',(#268));
#131=EDGE_LOOP('',(#269,#270,#271,#272));
#132=EDGE_LOOP('',(#273));
#133=EDGE_LOOP('',(#274));
#134=EDGE_LOOP('',(#275,#276,#277,#278));
#135=EDGE_LOOP('',(#279,#280,#281,#282));
#136=EDGE_LOOP('',(#283,#284,#285,#286));
#137=EDGE_LOOP('',(#287,#288,#289,#290));
#138=EDGE_LOOP('',(#291,#292,#293,#294));
#139=EDGE_LOOP('',(#295,#296,#297,#298));
#140=EDGE_LOOP('',(#299,#300,#301,#302));
#141=EDGE_LOOP('',(#303,#304,#305,#306));
#142=EDGE_LOOP('',(#307,#308,#309,#310));
#143=EDGE_LOOP('',(#311,#312,#313,#314));
#144=EDGE_LOOP('',(#315,#316,#317,#318));
#145=EDGE_LOOP('',(#319,#320,#321,#322));
#146=EDGE_LOOP('',(#323,#324,#325,#326));
#147=EDGE_LOOP('',(#327,#328,#329,#330));
#148=EDGE_LOOP('',(#331,#332,#333,#334));
#149=EDGE_LOOP('',(#335,#336,#337,#338));
#150=EDGE_LOOP('',(#339));
#151=EDGE_LOOP('',(#340));
#152=EDGE_LOOP('',(#341));
#153=EDGE_LOOP('',(#342));
#154=EDGE_LOOP('',(#343,#344,#345,#346));
#155=EDGE_LOOP('',(#347));
#156=EDGE_LOOP('',(#348));
#157=EDGE_LOOP('',(#349));
#158=EDGE_LOOP('',(#350));
#159=CIRCLE('',#404,4.05);
#160=CIRCLE('',#405,3.75);
#161=CIRCLE('',#407,3.75);
#162=CIRCLE('',#409,4.05);
#163=CIRCLE('',#410,3.75);
#164=CIRCLE('',#412,3.75);
#165=CIRCLE('',#414,4.05);
#166=CIRCLE('',#415,3.75);
#167=CIRCLE('',#417,3.75);
#168=CIRCLE('',#419,4.05);
#169=CIRCLE('',#420,3.75);
#170=CIRCLE('',#422,3.75);
#171=CIRCLE('',#431,4.05);
#172=CIRCLE('',#433,4.05);
#173=CIRCLE('',#435,4.05);
#174=CIRCLE('',#437,4.05);
#175=VERTEX_POINT('',#556);
#176=VERTEX_POINT('',#558);
#177=VERTEX_POINT('',#561);
#178=VERTEX_POINT('',#565);
#179=VERTEX_POINT('',#567);
#180=VERTEX_POINT('',#570);
#181=VERTEX_POINT('',#574);
#182=VERTEX_POINT('',#576);
#183=VERTEX_POINT('',#579);
#184=VERTEX_POINT('',#583);
#185=VERTEX_POINT('',#585);
#186=VERTEX_POINT('',#588);
#187=VERTEX_POINT('',#592);
#188=VERTEX_POINT('',#593);
#189=VERTEX_POINT('',#595);
#190=VERTEX_POINT('',#597);
#191=VERTEX_POINT('',#601);
#192=VERTEX_POINT('',#603);
#193=VERTEX_POINT('',#607);
#194=VERTEX_POINT('',#609);
#195=VERTEX_POINT('',#616);
#196=VERTEX_POINT('',#617);
#197=VERTEX_POINT('',#619);
#198=VERTEX_POINT('',#621);
#199=VERTEX_POINT('',#625);
#200=VERTEX_POINT('',#627);
#201=VERTEX_POINT('',#631);
#202=VERTEX_POINT('',#635);
#203=VERTEX_POINT('',#639);
#204=VERTEX_POINT('',#643);
#205=VERTEX_POINT('',#647);
#206=VERTEX_POINT('',#651);
#207=EDGE_CURVE('',#175,#175,#159,.T.);
#208=EDGE_CURVE('',#176,#176,#160,.T.);
#209=EDGE_CURVE('',#176,#177,#15,.T.);
#210=EDGE_CURVE('',#177,#177,#161,.T.);
#211=EDGE_CURVE('',#178,#178,#162,.T.);
#212=EDGE_CURVE('',#179,#179,#163,.T.);
#213=EDGE_CURVE('',#179,#180,#16,.T.);
#214=EDGE_CURVE('',#180,#180,#164,.T.);
#215=EDGE_CURVE('',#181,#181,#165,.T.);
#216=EDGE_CURVE('',#182,#182,#166,.T.);
#217=EDGE_CURVE('',#182,#183,#17,.T.);
#218=EDGE_CURVE('',#183,#183,#167,.T.);
#219=EDGE_CURVE('',#184,#184,#168,.T.);
#220=EDGE_CURVE('',#185,#185,#169,.T.);
#221=EDGE_CURVE('',#185,#186,#18,.T.);
#222=EDGE_CURVE('',#186,#186,#170,.T.);
#223=EDGE_CURVE('',#187,#188,#19,.T.);
#224=EDGE_CURVE('',#187,#189,#20,.T.);
#225=EDGE_CURVE('',#190,#189,#21,.T.);
#226=EDGE_CURVE('',#188,#190,#22,.T.);
#227=EDGE_CURVE('',#188,#191,#23,.T.);
#228=EDGE_CURVE('',#192,#190,#24,.T.);
#229=EDGE_CURVE('',#191,#192,#25,.T.);
#230=EDGE_CURVE('',#191,#193,#26,.T.);
#231=EDGE_CURVE('',#194,#192,#27,.T.);
#232=EDGE_CURVE('',#193,#194,#28,.T.);
#233=EDGE_CURVE('',#193,#187,#29,.T.);
#234=EDGE_CURVE('',#189,#194,#30,.T.);
#235=EDGE_CURVE('',#195,#196,#31,.T.);
#236=EDGE_CURVE('',#197,#195,#32,.T.);
#237=EDGE_CURVE('',#198,#197,#33,.T.);
#238=EDGE_CURVE('',#196,#198,#34,.T.);
#239=EDGE_CURVE('',#197,#199,#35,.T.);
#240=EDGE_CURVE('',#200,#199,#36,.T.);
#241=EDGE_CURVE('',#198,#200,#37,.T.);
#242=EDGE_CURVE('',#195,#201,#38,.T.);
#243=EDGE_CURVE('',#199,#201,#39,.T.);
#244=EDGE_CURVE('',#202,#202,#171,.T.);
#245=EDGE_CURVE('',#202,#178,#40,.T.);
#246=EDGE_CURVE('',#203,#203,#172,.T.);
#247=EDGE_CURVE('',#203,#181,#41,.T.);
#248=EDGE_CURVE('',#204,#204,#173,.T.);
#249=EDGE_CURVE('',#204,#184,#42,.T.);
#250=EDGE_CURVE('',#205,#205,#174,.T.);
#251=EDGE_CURVE('',#205,#175,#43,.T.);
#252=EDGE_CURVE('',#206,#200,#44,.T.);
#253=EDGE_CURVE('',#196,#206,#45,.T.);
#254=EDGE_CURVE('',#201,#206,#46,.T.);
#255=ORIENTED_EDGE('',*,*,#207,.F.);
#256=ORIENTED_EDGE('',*,*,#208,.T.);
#257=ORIENTED_EDGE('',*,*,#208,.F.);
#258=ORIENTED_EDGE('',*,*,#209,.T.);
#259=ORIENTED_EDGE('',*,*,#210,.T.);
#260=ORIENTED_EDGE('',*,*,#209,.F.);
#261=ORIENTED_EDGE('',*,*,#211,.F.);
#262=ORIENTED_EDGE('',*,*,#212,.T.);
#263=ORIENTED_EDGE('',*,*,#212,.F.);
#264=ORIENTED_EDGE('',*,*,#213,.T.);
#265=ORIENTED_EDGE('',*,*,#214,.T.);
#266=ORIENTED_EDGE('',*,*,#213,.F.);
#267=ORIENTED_EDGE('',*,*,#215,.F.);
#268=ORIENTED_EDGE('',*,*,#216,.T.);
#269=ORIENTED_EDGE('',*,*,#216,.F.);
#270=ORIENTED_EDGE('',*,*,#217,.T.);
#271=ORIENTED_EDGE('',*,*,#218,.T.);
#272=ORIENTED_EDGE('',*,*,#217,.F.);
#273=ORIENTED_EDGE('',*,*,#219,.F.);
#274=ORIENTED_EDGE('',*,*,#220,.T.);
#275=ORIENTED_EDGE('',*,*,#220,.F.);
#276=ORIENTED_EDGE('',*,*,#221,.T.);
#277=ORIENTED_EDGE('',*,*,#222,.T.);
#278=ORIENTED_EDGE('',*,*,#221,.F.);
#279=ORIENTED_EDGE('',*,*,#223,.F.);
#280=ORIENTED_EDGE('',*,*,#224,.T.);
#281=ORIENTED_EDGE('',*,*,#225,.F.);
#282=ORIENTED_EDGE('',*,*,#226,.F.);
#283=ORIENTED_EDGE('',*,*,#227,.F.);
#284=ORIENTED_EDGE('',*,*,#226,.T.);
#285=ORIENTED_EDGE('',*,*,#228,.F.);
#286=ORIENTED_EDGE('',*,*,#229,.F.);
#287=ORIENTED_EDGE('',*,*,#230,.F.);
#288=ORIENTED_EDGE('',*,*,#229,.T.);
#289=ORIENTED_EDGE('',*,*,#231,.F.);
#290=ORIENTED_EDGE('',*,*,#232,.F.);
#291=ORIENTED_EDGE('',*,*,#233,.F.);
#292=ORIENTED_EDGE('',*,*,#232,.T.);
#293=ORIENTED_EDGE('',*,*,#234,.F.);
#294=ORIENTED_EDGE('',*,*,#224,.F.);
#295=ORIENTED_EDGE('',*,*,#234,.T.);
#296=ORIENTED_EDGE('',*,*,#231,.T.);
#297=ORIENTED_EDGE('',*,*,#228,.T.);
#298=ORIENTED_EDGE('',*,*,#225,.T.);
#299=ORIENTED_EDGE('',*,*,#235,.F.);
#300=ORIENTED_EDGE('',*,*,#236,.F.);
#301=ORIENTED_EDGE('',*,*,#237,.F.);
#302=ORIENTED_EDGE('',*,*,#238,.F.);
#303=ORIENTED_EDGE('',*,*,#237,.T.);
#304=ORIENTED_EDGE('',*,*,#239,.T.);
#305=ORIENTED_EDGE('',*,*,#240,.F.);
#306=ORIENTED_EDGE('',*,*,#241,.F.);
#307=ORIENTED_EDGE('',*,*,#236,.T.);
#308=ORIENTED_EDGE('',*,*,#242,.T.);
#309=ORIENTED_EDGE('',*,*,#243,.F.);
#310=ORIENTED_EDGE('',*,*,#239,.F.);
#311=ORIENTED_EDGE('',*,*,#244,.F.);
#312=ORIENTED_EDGE('',*,*,#245,.T.);
#313=ORIENTED_EDGE('',*,*,#211,.T.);
#314=ORIENTED_EDGE('',*,*,#245,.F.);
#315=ORIENTED_EDGE('',*,*,#246,.F.);
#316=ORIENTED_EDGE('',*,*,#247,.T.);
#317=ORIENTED_EDGE('',*,*,#215,.T.);
#318=ORIENTED_EDGE('',*,*,#247,.F.);
#319=ORIENTED_EDGE('',*,*,#248,.F.);
#320=ORIENTED_EDGE('',*,*,#249,.T.);
#321=ORIENTED_EDGE('',*,*,#219,.T.);
#322=ORIENTED_EDGE('',*,*,#249,.F.);
#323=ORIENTED_EDGE('',*,*,#250,.F.);
#324=ORIENTED_EDGE('',*,*,#251,.T.);
#325=ORIENTED_EDGE('',*,*,#207,.T.);
#326=ORIENTED_EDGE('',*,*,#251,.F.);
#327=ORIENTED_EDGE('',*,*,#238,.T.);
#328=ORIENTED_EDGE('',*,*,#241,.T.);
#329=ORIENTED_EDGE('',*,*,#252,.F.);
#330=ORIENTED_EDGE('',*,*,#253,.F.);
#331=ORIENTED_EDGE('',*,*,#235,.T.);
#332=ORIENTED_EDGE('',*,*,#253,.T.);
#333=ORIENTED_EDGE('',*,*,#254,.F.);
#334=ORIENTED_EDGE('',*,*,#242,.F.);
#335=ORIENTED_EDGE('',*,*,#254,.T.);
#336=ORIENTED_EDGE('',*,*,#252,.T.);
#337=ORIENTED_EDGE('',*,*,#240,.T.);
#338=ORIENTED_EDGE('',*,*,#243,.T.);
#339=ORIENTED_EDGE('',*,*,#250,.T.);
#340=ORIENTED_EDGE('',*,*,#248,.T.);
#341=ORIENTED_EDGE('',*,*,#246,.T.);
#342=ORIENTED_EDGE('',*,*,#244,.T.);
#343=ORIENTED_EDGE('',*,*,#233,.T.);
#344=ORIENTED_EDGE('',*,*,#223,.T.);
#345=ORIENTED_EDGE('',*,*,#227,.T.);
#346=ORIENTED_EDGE('',*,*,#230,.T.);
#347=ORIENTED_EDGE('',*,*,#210,.F.);
#348=ORIENTED_EDGE('',*,*,#214,.F.);
#349=ORIENTED_EDGE('',*,*,#218,.F.);
#350=ORIENTED_EDGE('',*,*,#222,.F.);
#351=PLANE('',#403);
#352=PLANE('',#408);
#353=PLANE('',#413);
#354=PLANE('',#418);
#355=PLANE('',#423);
#356=PLANE('',#424);
#357=PLANE('',#425);
#358=PLANE('',#426);
#359=PLANE('',#427);
#360=PLANE('',#428);
#361=PLANE('',#429);
#362=PLANE('',#438);
#363=PLANE('',#439);
#364=PLANE('',#440);
#365=PLANE('',#441);
#366=ADVANCED_FACE('',(#100,#87),#351,.T.);
#367=ADVANCED_FACE('',(#101),#79,.F.);
#368=ADVANCED_FACE('',(#102,#88),#352,.T.);
#369=ADVANCED_FACE('',(#103),#80,.F.);
#370=ADVANCED_FACE('',(#104,#89),#353,.T.);
#371=ADVANCED_FACE('',(#105),#81,.F.);
#372=ADVANCED_FACE('',(#106,#90),#354,.T.);
#373=ADVANCED_FACE('',(#107),#82,.F.);
#374=ADVANCED_FACE('',(#108),#355,.T.);
#375=ADVANCED_FACE('',(#109),#356,.T.);
#376=ADVANCED_FACE('',(#110),#357,.T.);
#377=ADVANCED_FACE('',(#111),#358,.T.);
#378=ADVANCED_FACE('',(#112,#91),#359,.T.);
#379=ADVANCED_FACE('',(#113),#360,.T.);
#380=ADVANCED_FACE('',(#114),#361,.T.);
#381=ADVANCED_FACE('',(#115),#83,.F.);
#382=ADVANCED_FACE('',(#116),#84,.F.);
#383=ADVANCED_FACE('',(#117),#85,.F.);
#384=ADVANCED_FACE('',(#118),#86,.F.);
#385=ADVANCED_FACE('',(#119),#362,.T.);
#386=ADVANCED_FACE('',(#120),#363,.T.);
#387=ADVANCED_FACE('',(#121,#92,#93,#94,#95),#364,.T.);
#388=ADVANCED_FACE('',(#122,#96,#97,#98,#99),#365,.F.);
#389=CLOSED_SHELL('',(#366,#367,#368,#369,#370,#371,#372,#373,#374,#375,
#376,#377,#378,#379,#380,#381,#382,#383,#384,#385,#386,#387,#388));
#390=DERIVED_UNIT_ELEMENT(#392,1.);
#391=DERIVED_UNIT_ELEMENT(#663,-3.);
#392=(
MASS_UNIT()
NAMED_UNIT(*)
SI_UNIT(.KILO.,.GRAM.)
);
#393=DERIVED_UNIT((#390,#391));
#394=MEASURE_REPRESENTATION_ITEM('density measure',
POSITIVE_RATIO_MEASURE(7850.),#393);
#395=PROPERTY_DEFINITION_REPRESENTATION(#400,#397);
#396=PROPERTY_DEFINITION_REPRESENTATION(#401,#398);
#397=REPRESENTATION('material name',(#399),#660);
#398=REPRESENTATION('density',(#394),#660);
#399=DESCRIPTIVE_REPRESENTATION_ITEM('Steel','Steel');
#400=PROPERTY_DEFINITION('material property','material name',#670);
#401=PROPERTY_DEFINITION('material property','density of part',#670);
#402=AXIS2_PLACEMENT_3D('',#554,#442,#443);
#403=AXIS2_PLACEMENT_3D('',#555,#444,#445);
#404=AXIS2_PLACEMENT_3D('',#557,#446,#447);
#405=AXIS2_PLACEMENT_3D('',#559,#448,#449);
#406=AXIS2_PLACEMENT_3D('',#560,#450,#451);
#407=AXIS2_PLACEMENT_3D('',#563,#453,#454);
#408=AXIS2_PLACEMENT_3D('',#564,#455,#456);
#409=AXIS2_PLACEMENT_3D('',#566,#457,#458);
#410=AXIS2_PLACEMENT_3D('',#568,#459,#460);
#411=AXIS2_PLACEMENT_3D('',#569,#461,#462);
#412=AXIS2_PLACEMENT_3D('',#572,#464,#465);
#413=AXIS2_PLACEMENT_3D('',#573,#466,#467);
#414=AXIS2_PLACEMENT_3D('',#575,#468,#469);
#415=AXIS2_PLACEMENT_3D('',#577,#470,#471);
#416=AXIS2_PLACEMENT_3D('',#578,#472,#473);
#417=AXIS2_PLACEMENT_3D('',#581,#475,#476);
#418=AXIS2_PLACEMENT_3D('',#582,#477,#478);
#419=AXIS2_PLACEMENT_3D('',#584,#479,#480);
#420=AXIS2_PLACEMENT_3D('',#586,#481,#482);
#421=AXIS2_PLACEMENT_3D('',#587,#483,#484);
#422=AXIS2_PLACEMENT_3D('',#590,#486,#487);
#423=AXIS2_PLACEMENT_3D('',#591,#488,#489);
#424=AXIS2_PLACEMENT_3D('',#600,#494,#495);
#425=AXIS2_PLACEMENT_3D('',#606,#499,#500);
#426=AXIS2_PLACEMENT_3D('',#612,#504,#505);
#427=AXIS2_PLACEMENT_3D('',#615,#508,#509);
#428=AXIS2_PLACEMENT_3D('',#624,#514,#515);
#429=AXIS2_PLACEMENT_3D('',#630,#519,#520);
#430=AXIS2_PLACEMENT_3D('',#634,#523,#524);
#431=AXIS2_PLACEMENT_3D('',#636,#525,#526);
#432=AXIS2_PLACEMENT_3D('',#638,#528,#529);
#433=AXIS2_PLACEMENT_3D('',#640,#530,#531);
#434=AXIS2_PLACEMENT_3D('',#642,#533,#534);
#435=AXIS2_PLACEMENT_3D('',#644,#535,#536);
#436=AXIS2_PLACEMENT_3D('',#646,#538,#539);
#437=AXIS2_PLACEMENT_3D('',#648,#540,#541);
#438=AXIS2_PLACEMENT_3D('',#650,#543,#544);
#439=AXIS2_PLACEMENT_3D('',#654,#547,#548);
#440=AXIS2_PLACEMENT_3D('',#656,#550,#551);
#441=AXIS2_PLACEMENT_3D('',#657,#552,#553);
#442=DIRECTION('axis',(0.,0.,1.));
#443=DIRECTION('refdir',(1.,0.,0.));
#444=DIRECTION('center_axis',(0.,0.,1.));
#445=DIRECTION('ref_axis',(1.,0.,0.));
#446=DIRECTION('center_axis',(0.,0.,-1.));
#447=DIRECTION('ref_axis',(1.,0.,0.));
#448=DIRECTION('center_axis',(0.,0.,-1.));
#449=DIRECTION('ref_axis',(1.,0.,0.));
#450=DIRECTION('center_axis',(0.,0.,1.));
#451=DIRECTION('ref_axis',(1.,0.,0.));
#452=DIRECTION('',(0.,0.,-1.));
#453=DIRECTION('center_axis',(0.,0.,-1.));
#454=DIRECTION('ref_axis',(1.,0.,0.));
#455=DIRECTION('center_axis',(0.,0.,1.));
#456=DIRECTION('ref_axis',(1.,0.,0.));
#457=DIRECTION('center_axis',(0.,0.,-1.));
#458=DIRECTION('ref_axis',(1.,0.,0.));
#459=DIRECTION('center_axis',(0.,0.,-1.));
#460=DIRECTION('ref_axis',(1.,0.,0.));
#461=DIRECTION('center_axis',(0.,0.,1.));
#462=DIRECTION('ref_axis',(1.,0.,0.));
#463=DIRECTION('',(0.,0.,-1.));
#464=DIRECTION('center_axis',(0.,0.,-1.));
#465=DIRECTION('ref_axis',(1.,0.,0.));
#466=DIRECTION('center_axis',(0.,0.,1.));
#467=DIRECTION('ref_axis',(1.,0.,0.));
#468=DIRECTION('center_axis',(0.,0.,-1.));
#469=DIRECTION('ref_axis',(1.,0.,0.));
#470=DIRECTION('center_axis',(0.,0.,-1.));
#471=DIRECTION('ref_axis',(1.,0.,0.));
#472=DIRECTION('center_axis',(0.,0.,1.));
#473=DIRECTION('ref_axis',(1.,0.,0.));
#474=DIRECTION('',(0.,0.,-1.));
#475=DIRECTION('center_axis',(0.,0.,-1.));
#476=DIRECTION('ref_axis',(1.,0.,0.));
#477=DIRECTION('center_axis',(0.,0.,1.));
#478=DIRECTION('ref_axis',(1.,0.,0.));
#479=DIRECTION('center_axis',(0.,0.,-1.));
#480=DIRECTION('ref_axis',(1.,0.,0.));
#481=DIRECTION('center_axis',(0.,0.,-1.));
#482=DIRECTION('ref_axis',(1.,0.,0.));
#483=DIRECTION('center_axis',(0.,0.,1.));
#484=DIRECTION('ref_axis',(1.,0.,0.));
#485=DIRECTION('',(0.,0.,-1.));
#486=DIRECTION('center_axis',(0.,0.,-1.));
#487=DIRECTION('ref_axis',(1.,0.,0.));
#488=DIRECTION('center_axis',(1.,-1.79429983777803E-16,0.));
#489=DIRECTION('ref_axis',(1.79429983777803E-16,1.,0.));
#490=DIRECTION('',(-1.79429983777803E-16,-1.,0.));
#491=DIRECTION('',(0.,0.,1.));
#492=DIRECTION('',(1.79429983777803E-16,1.,0.));
#493=DIRECTION('',(0.,0.,1.));
#494=DIRECTION('center_axis',(-1.79429983777803E-16,-1.,0.));
#495=DIRECTION('ref_axis',(1.,-1.79429983777803E-16,0.));
#496=DIRECTION('',(-1.,1.79429983777803E-16,0.));
#497=DIRECTION('',(1.,-1.79429983777803E-16,0.));
#498=DIRECTION('',(0.,0.,1.));
#499=DIRECTION('center_axis',(-1.,2.69144975666705E-16,0.));
#500=DIRECTION('ref_axis',(-2.69144975666705E-16,-1.,0.));
#501=DIRECTION('',(2.69144975666705E-16,1.,0.));
#502=DIRECTION('',(-2.69144975666705E-16,-1.,0.));
#503=DIRECTION('',(0.,0.,1.));
#504=DIRECTION('center_axis',(0.,1.,0.));
#505=DIRECTION('ref_axis',(-1.,0.,0.));
#506=DIRECTION('',(1.,0.,0.));
#507=DIRECTION('',(-1.,0.,0.));
#508=DIRECTION('center_axis',(0.,0.,1.));
#509=DIRECTION('ref_axis',(1.,0.,0.));
#510=DIRECTION('',(0.,-1.,0.));
#511=DIRECTION('',(-1.,0.,0.));
#512=DIRECTION('',(0.,1.,0.));
#513=DIRECTION('',(1.,0.,0.));
#514=DIRECTION('center_axis',(1.,0.,0.));
#515=DIRECTION('ref_axis',(0.,1.,0.));
#516=DIRECTION('',(0.,0.,1.));
#517=DIRECTION('',(0.,1.,0.));
#518=DIRECTION('',(0.,0.,1.));
#519=DIRECTION('center_axis',(0.,1.,0.));
#520=DIRECTION('ref_axis',(-1.,0.,0.));
#521=DIRECTION('',(0.,0.,1.));
#522=DIRECTION('',(-1.,0.,0.));
#523=DIRECTION('center_axis',(0.,0.,1.));
#524=DIRECTION('ref_axis',(1.,0.,0.));
#525=DIRECTION('center_axis',(0.,0.,-1.));
#526=DIRECTION('ref_axis',(1.,0.,0.));
#527=DIRECTION('',(0.,0.,-1.));
#528=DIRECTION('center_axis',(0.,0.,1.));
#529=DIRECTION('ref_axis',(1.,0.,0.));
#530=DIRECTION('center_axis',(0.,0.,-1.));
#531=DIRECTION('ref_axis',(1.,0.,0.));
#532=DIRECTION('',(0.,0.,-1.));
#533=DIRECTION('center_axis',(0.,0.,1.));
#534=DIRECTION('ref_axis',(1.,0.,0.));
#535=DIRECTION('center_axis',(0.,0.,-1.));
#536=DIRECTION('ref_axis',(1.,0.,0.));
#537=DIRECTION('',(0.,0.,-1.));
#538=DIRECTION('center_axis',(0.,0.,1.));
#539=DIRECTION('ref_axis',(1.,0.,0.));
#540=DIRECTION('center_axis',(0.,0.,-1.));
#541=DIRECTION('ref_axis',(1.,0.,0.));
#542=DIRECTION('',(0.,0.,-1.));
#543=DIRECTION('center_axis',(0.,-1.,0.));
#544=DIRECTION('ref_axis',(1.,0.,0.));
#545=DIRECTION('',(1.,0.,0.));
#546=DIRECTION('',(0.,0.,1.));
#547=DIRECTION('center_axis',(-1.,0.,0.));
#548=DIRECTION('ref_axis',(0.,-1.,0.));
#549=DIRECTION('',(0.,-1.,0.));
#550=DIRECTION('center_axis',(0.,0.,1.));
#551=DIRECTION('ref_axis',(1.,0.,0.));
#552=DIRECTION('center_axis',(0.,0.,1.));
#553=DIRECTION('ref_axis',(1.,0.,0.));
#554=CARTESIAN_POINT('',(0.,0.,0.));
#555=CARTESIAN_POINT('Origin',(-23.5,-8.,1.));
#556=CARTESIAN_POINT('',(-27.55,-8.,1.));
#557=CARTESIAN_POINT('Origin',(-23.5,-8.,1.));
#558=CARTESIAN_POINT('',(-27.25,-8.,1.));
#559=CARTESIAN_POINT('Origin',(-23.5,-8.,1.));
#560=CARTESIAN_POINT('Origin',(-23.5,-8.,0.));
#561=CARTESIAN_POINT('',(-27.25,-8.,0.));
#562=CARTESIAN_POINT('',(-27.25,-8.,0.));
#563=CARTESIAN_POINT('Origin',(-23.5,-8.,0.));
#564=CARTESIAN_POINT('Origin',(-6.,-21.5,1.));
#565=CARTESIAN_POINT('',(-10.05,-21.5,1.));
#566=CARTESIAN_POINT('Origin',(-6.,-21.5,1.));
#567=CARTESIAN_POINT('',(-9.75,-21.5,1.));
#568=CARTESIAN_POINT('Origin',(-6.,-21.5,1.));
#569=CARTESIAN_POINT('Origin',(-6.,-21.5,0.));
#570=CARTESIAN_POINT('',(-9.75,-21.5,0.));
#571=CARTESIAN_POINT('',(-9.75,-21.5,0.));
#572=CARTESIAN_POINT('Origin',(-6.,-21.5,0.));
#573=CARTESIAN_POINT('Origin',(-6.,-8.,1.));
#574=CARTESIAN_POINT('',(-10.05,-8.,1.));
#575=CARTESIAN_POINT('Origin',(-6.,-8.,1.));
#576=CARTESIAN_POINT('',(-9.75,-8.,1.));
#577=CARTESIAN_POINT('Origin',(-6.,-8.,1.));
#578=CARTESIAN_POINT('Origin',(-6.,-8.,0.));
#579=CARTESIAN_POINT('',(-9.75,-8.,0.));
#580=CARTESIAN_POINT('',(-9.75,-8.,0.));
#581=CARTESIAN_POINT('Origin',(-6.,-8.,0.));
#582=CARTESIAN_POINT('Origin',(-23.5,-21.5,1.));
#583=CARTESIAN_POINT('',(-27.55,-21.5,1.));
#584=CARTESIAN_POINT('Origin',(-23.5,-21.5,1.));
#585=CARTESIAN_POINT('',(-27.25,-21.5,1.));
#586=CARTESIAN_POINT('Origin',(-23.5,-21.5,1.));
#587=CARTESIAN_POINT('Origin',(-23.5,-21.5,0.));
#588=CARTESIAN_POINT('',(-27.25,-21.5,0.));
#589=CARTESIAN_POINT('',(-27.25,-21.5,0.));
#590=CARTESIAN_POINT('Origin',(-23.5,-21.5,0.));
#591=CARTESIAN_POINT('Origin',(9.99999999999999,-39.5,0.));
#592=CARTESIAN_POINT('',(10.,10.,0.));
#593=CARTESIAN_POINT('',(9.99999999999999,-39.5,0.));
#594=CARTESIAN_POINT('',(10.,10.,0.));
#595=CARTESIAN_POINT('',(10.,10.,2.4));
#596=CARTESIAN_POINT('',(10.,10.,0.));
#597=CARTESIAN_POINT('',(9.99999999999999,-39.5,2.4));
#598=CARTESIAN_POINT('',(10.,10.,2.4));
#599=CARTESIAN_POINT('',(9.99999999999999,-39.5,0.));
#600=CARTESIAN_POINT('Origin',(-39.5,-39.5,0.));
#601=CARTESIAN_POINT('',(-39.5,-39.5,0.));
#602=CARTESIAN_POINT('',(9.99999999999999,-39.5,0.));
#603=CARTESIAN_POINT('',(-39.5,-39.5,2.4));
#604=CARTESIAN_POINT('',(9.99999999999999,-39.5,2.4));
#605=CARTESIAN_POINT('',(-39.5,-39.5,0.));
#606=CARTESIAN_POINT('Origin',(-39.5,10.,0.));
#607=CARTESIAN_POINT('',(-39.5,10.,0.));
#608=CARTESIAN_POINT('',(-39.5,-39.5,0.));
#609=CARTESIAN_POINT('',(-39.5,10.,2.4));
#610=CARTESIAN_POINT('',(-39.5,-39.5,2.4));
#611=CARTESIAN_POINT('',(-39.5,10.,0.));
#612=CARTESIAN_POINT('Origin',(10.,10.,0.));
#613=CARTESIAN_POINT('',(-39.5,10.,0.));
#614=CARTESIAN_POINT('',(-39.5,10.,2.4));
#615=CARTESIAN_POINT('Origin',(-14.75,-14.75,2.4));
#616=CARTESIAN_POINT('',(-35.5,6.,2.4));
#617=CARTESIAN_POINT('',(-35.5,-35.5,2.4));
#618=CARTESIAN_POINT('',(-35.5,-4.375,2.4));
#619=CARTESIAN_POINT('',(6.,6.,2.4));
#620=CARTESIAN_POINT('',(-4.375,6.,2.4));
#621=CARTESIAN_POINT('',(6.,-35.5,2.4));
#622=CARTESIAN_POINT('',(6.,-25.125,2.4));
#623=CARTESIAN_POINT('',(-25.125,-35.5,2.4));
#624=CARTESIAN_POINT('Origin',(6.,-35.5,0.));
#625=CARTESIAN_POINT('',(6.,6.,5.));
#626=CARTESIAN_POINT('',(6.,6.,0.));
#627=CARTESIAN_POINT('',(6.,-35.5,5.));
#628=CARTESIAN_POINT('',(6.,6.,5.));
#629=CARTESIAN_POINT('',(6.,-35.5,0.));
#630=CARTESIAN_POINT('Origin',(6.,6.,0.));
#631=CARTESIAN_POINT('',(-35.5,6.,5.));
#632=CARTESIAN_POINT('',(-35.5,6.,0.));
#633=CARTESIAN_POINT('',(-35.5,6.,5.));
#634=CARTESIAN_POINT('Origin',(-6.,-21.5,0.));
#635=CARTESIAN_POINT('',(-10.05,-21.5,5.));
#636=CARTESIAN_POINT('Origin',(-6.,-21.5,5.));
#637=CARTESIAN_POINT('',(-10.05,-21.5,0.));
#638=CARTESIAN_POINT('Origin',(-6.,-8.,0.));
#639=CARTESIAN_POINT('',(-10.05,-8.,5.));
#640=CARTESIAN_POINT('Origin',(-6.,-8.,5.));
#641=CARTESIAN_POINT('',(-10.05,-8.,0.));
#642=CARTESIAN_POINT('Origin',(-23.5,-21.5,0.));
#643=CARTESIAN_POINT('',(-27.55,-21.5,5.));
#644=CARTESIAN_POINT('Origin',(-23.5,-21.5,5.));
#645=CARTESIAN_POINT('',(-27.55,-21.5,0.));
#646=CARTESIAN_POINT('Origin',(-23.5,-8.,0.));
#647=CARTESIAN_POINT('',(-27.55,-8.,5.));
#648=CARTESIAN_POINT('Origin',(-23.5,-8.,5.));
#649=CARTESIAN_POINT('',(-27.55,-8.,0.));
#650=CARTESIAN_POINT('Origin',(-35.5,-35.5,0.));
#651=CARTESIAN_POINT('',(-35.5,-35.5,5.));
#652=CARTESIAN_POINT('',(6.,-35.5,5.));
#653=CARTESIAN_POINT('',(-35.5,-35.5,0.));
#654=CARTESIAN_POINT('Origin',(-35.5,6.,0.));
#655=CARTESIAN_POINT('',(-35.5,-35.5,5.));
#656=CARTESIAN_POINT('Origin',(-14.75,-14.75,5.));
#657=CARTESIAN_POINT('Origin',(-14.75,-14.75,0.));
#658=UNCERTAINTY_MEASURE_WITH_UNIT(LENGTH_MEASURE(0.01),#662,
'DISTANCE_ACCURACY_VALUE',
'Maximum model space distance between geometric entities at asserted c
onnectivities');
#659=UNCERTAINTY_MEASURE_WITH_UNIT(LENGTH_MEASURE(0.01),#662,
'DISTANCE_ACCURACY_VALUE',
'Maximum model space distance between geometric entities at asserted c
onnectivities');
#660=(
GEOMETRIC_REPRESENTATION_CONTEXT(3)
GLOBAL_UNCERTAINTY_ASSIGNED_CONTEXT((#658))
GLOBAL_UNIT_ASSIGNED_CONTEXT((#662,#664,#665))
REPRESENTATION_CONTEXT('','3D')
);
#661=(
GEOMETRIC_REPRESENTATION_CONTEXT(3)
GLOBAL_UNCERTAINTY_ASSIGNED_CONTEXT((#659))
GLOBAL_UNIT_ASSIGNED_CONTEXT((#662,#664,#665))
REPRESENTATION_CONTEXT('','3D')
);
#662=(
LENGTH_UNIT()
NAMED_UNIT(*)
SI_UNIT(.MILLI.,.METRE.)
);
#663=(
LENGTH_UNIT()
NAMED_UNIT(*)
SI_UNIT($,.METRE.)
);
#664=(
NAMED_UNIT(*)
PLANE_ANGLE_UNIT()
SI_UNIT($,.RADIAN.)
);
#665=(
NAMED_UNIT(*)
SI_UNIT($,.STERADIAN.)
SOLID_ANGLE_UNIT()
);
#666=SHAPE_DEFINITION_REPRESENTATION(#667,#668);
#667=PRODUCT_DEFINITION_SHAPE('',$,#670);
#668=SHAPE_REPRESENTATION('',(#402),#660);
#669=PRODUCT_DEFINITION_CONTEXT('part definition',#674,'design');
#670=PRODUCT_DEFINITION('2026-08-04-10-37-02-617','moldCartrdigeHolder',
#671,#669);
#671=PRODUCT_DEFINITION_FORMATION('',$,#676);
#672=PRODUCT_RELATED_PRODUCT_CATEGORY('moldCartrdigeHolder',
'moldCartrdigeHolder',(#676));
#673=APPLICATION_PROTOCOL_DEFINITION('international standard',
'automotive_design',2009,#674);
#674=APPLICATION_CONTEXT(
'Core Data for Automotive Mechanical Design Process');
#675=PRODUCT_CONTEXT('part definition',#674,'mechanical');
#676=PRODUCT('2026-08-04-10-37-02-617','moldCartrdigeHolder',$,(#675));
#677=PRESENTATION_STYLE_ASSIGNMENT((#678));
#678=SURFACE_STYLE_USAGE(.BOTH.,#679);
#679=SURFACE_SIDE_STYLE('',(#680));
#680=SURFACE_STYLE_FILL_AREA(#681);
#681=FILL_AREA_STYLE('Steel - Satin',(#682));
#682=FILL_AREA_STYLE_COLOUR('Steel - Satin',#683);
#683=COLOUR_RGB('Steel - Satin',0.627450980392157,0.627450980392157,0.627450980392157);
ENDSEC;
END-ISO-10303-21;
