ISO-10303-21;
HEADER;
/* Generated by software containing ST-Developer
 * from STEP Tools, Inc. (www.steptools.com) 
 */

FILE_DESCRIPTION(
/* description */ (''),
/* implementation_level */ '2;1');

FILE_NAME(
/* name */ 'moldSensorTip.step',
/* time_stamp */ '2026-08-04T10:36:30+02:00',
/* author */ (''),
/* organization */ (''),
/* preprocessor_version */ 'ST-DEVELOPER v20.1',
/* originating_system */ 'Autodesk Translation Framework v15.8.0.0',
/* authorisation */ '');

FILE_SCHEMA (('AUTOMOTIVE_DESIGN { 1 0 10303 214 3 1 1 }'));
ENDSEC;

DATA;
#10=MECHANICAL_DESIGN_GEOMETRIC_PRESENTATION_REPRESENTATION('',(#13),#675);
#11=SHAPE_REPRESENTATION_RELATIONSHIP('SRR','None',#682,#12);
#12=ADVANCED_BREP_SHAPE_REPRESENTATION('',(#14),#674);
#13=STYLED_ITEM('',(#691),#14);
#14=MANIFOLD_SOLID_BREP('Body1',#327);
#15=ELLIPSE('',#369,4.00000014901161,2.5);
#16=ELLIPSE('',#370,4.00000014901161,2.5);
#17=ELLIPSE('',#371,4.00000014901161,2.5);
#18=ELLIPSE('',#372,4.00000014901161,2.5);
#19=(
BOUNDED_SURFACE()
B_SPLINE_SURFACE(2,2,((#538,#539,#540,#541,#542,#543,#544,#545,#546),(#547,
#548,#549,#550,#551,#552,#553,#554,#555),(#556,#557,#558,#559,#560,#561,
#562,#563,#564)),.UNSPECIFIED.,.F.,.T.,.F.)
B_SPLINE_SURFACE_WITH_KNOTS((3,3),(3,2,2,2,3),(-1.5707963267949,0.),(0.,
1.5707963267949,3.14159265358979,4.71238898038469,6.28318530717959),
 .UNSPECIFIED.)
GEOMETRIC_REPRESENTATION_ITEM()
RATIONAL_B_SPLINE_SURFACE(((1.,0.707106781186548,1.,0.707106781186548,1.,
0.707106781186548,1.,0.707106781186548,1.),(0.707106781186547,0.5,0.707106781186547,
0.5,0.707106781186547,0.5,0.707106781186547,0.5,0.707106781186547),(1.,
0.707106781186548,1.,0.707106781186548,1.,0.707106781186548,1.,0.707106781186548,
1.)))
REPRESENTATION_ITEM('')
SURFACE()
);
#20=(
BOUNDED_SURFACE()
B_SPLINE_SURFACE(2,2,((#567,#568,#569,#570,#571,#572,#573,#574,#575),(#576,
#577,#578,#579,#580,#581,#582,#583,#584),(#585,#586,#587,#588,#589,#590,
#591,#592,#593)),.UNSPECIFIED.,.F.,.T.,.F.)
B_SPLINE_SURFACE_WITH_KNOTS((3,3),(3,2,2,2,3),(-1.5707963267949,0.),(0.,
1.5707963267949,3.14159265358979,4.71238898038469,6.28318530717959),
 .UNSPECIFIED.)
GEOMETRIC_REPRESENTATION_ITEM()
RATIONAL_B_SPLINE_SURFACE(((1.,0.707106781186548,1.,0.707106781186548,1.,
0.707106781186548,1.,0.707106781186548,1.),(0.707106781186547,0.5,0.707106781186547,
0.5,0.707106781186547,0.5,0.707106781186547,0.5,0.707106781186547),(1.,
0.707106781186548,1.,0.707106781186548,1.,0.707106781186548,1.,0.707106781186548,
1.)))
REPRESENTATION_ITEM('')
SURFACE()
);
#21=(
BOUNDED_SURFACE()
B_SPLINE_SURFACE(2,2,((#596,#597,#598,#599,#600,#601,#602,#603,#604),(#605,
#606,#607,#608,#609,#610,#611,#612,#613),(#614,#615,#616,#617,#618,#619,
#620,#621,#622)),.UNSPECIFIED.,.F.,.T.,.F.)
B_SPLINE_SURFACE_WITH_KNOTS((3,3),(3,2,2,2,3),(-1.5707963267949,0.),(0.,
1.5707963267949,3.14159265358979,4.71238898038469,6.28318530717959),
 .UNSPECIFIED.)
GEOMETRIC_REPRESENTATION_ITEM()
RATIONAL_B_SPLINE_SURFACE(((1.,0.707106781186548,1.,0.707106781186548,1.,
0.707106781186548,1.,0.707106781186548,1.),(0.707106781186547,0.5,0.707106781186547,
0.5,0.707106781186547,0.5,0.707106781186547,0.5,0.707106781186547),(1.,
0.707106781186548,1.,0.707106781186548,1.,0.707106781186548,1.,0.707106781186548,
1.)))
REPRESENTATION_ITEM('')
SURFACE()
);
#22=(
BOUNDED_SURFACE()
B_SPLINE_SURFACE(2,2,((#625,#626,#627,#628,#629,#630,#631,#632,#633),(#634,
#635,#636,#637,#638,#639,#640,#641,#642),(#643,#644,#645,#646,#647,#648,
#649,#650,#651)),.UNSPECIFIED.,.F.,.T.,.F.)
B_SPLINE_SURFACE_WITH_KNOTS((3,3),(3,2,2,2,3),(-1.5707963267949,0.),(0.,
1.5707963267949,3.14159265358979,4.71238898038469,6.28318530717959),
 .UNSPECIFIED.)
GEOMETRIC_REPRESENTATION_ITEM()
RATIONAL_B_SPLINE_SURFACE(((1.,0.707106781186548,1.,0.707106781186548,1.,
0.707106781186548,1.,0.707106781186548,1.),(0.707106781186547,0.5,0.707106781186547,
0.5,0.707106781186547,0.5,0.707106781186547,0.5,0.707106781186547),(1.,
0.707106781186548,1.,0.707106781186548,1.,0.707106781186548,1.,0.707106781186548,
1.)))
REPRESENTATION_ITEM('')
SURFACE()
);
#23=FACE_BOUND('',#72,.T.);
#24=FACE_BOUND('',#73,.T.);
#25=FACE_BOUND('',#74,.T.);
#26=FACE_BOUND('',#75,.T.);
#27=FACE_BOUND('',#76,.T.);
#28=FACE_BOUND('',#77,.T.);
#29=FACE_BOUND('',#78,.T.);
#30=FACE_BOUND('',#79,.T.);
#31=PLANE('',#365);
#32=PLANE('',#366);
#33=PLANE('',#367);
#34=PLANE('',#368);
#35=PLANE('',#373);
#36=PLANE('',#374);
#37=PLANE('',#375);
#38=PLANE('',#376);
#39=PLANE('',#377);
#40=PLANE('',#378);
#41=FACE_OUTER_BOUND('',#63,.T.);
#42=FACE_OUTER_BOUND('',#64,.T.);
#43=FACE_OUTER_BOUND('',#65,.T.);
#44=FACE_OUTER_BOUND('',#66,.T.);
#45=FACE_OUTER_BOUND('',#67,.T.);
#46=FACE_OUTER_BOUND('',#68,.T.);
#47=FACE_OUTER_BOUND('',#69,.T.);
#48=FACE_OUTER_BOUND('',#70,.T.);
#49=FACE_OUTER_BOUND('',#71,.T.);
#50=FACE_OUTER_BOUND('',#80,.T.);
#51=FACE_OUTER_BOUND('',#81,.T.);
#52=FACE_OUTER_BOUND('',#82,.T.);
#53=FACE_OUTER_BOUND('',#83,.T.);
#54=FACE_OUTER_BOUND('',#84,.T.);
#55=FACE_OUTER_BOUND('',#85,.T.);
#56=FACE_OUTER_BOUND('',#86,.T.);
#57=FACE_OUTER_BOUND('',#87,.T.);
#58=FACE_OUTER_BOUND('',#88,.T.);
#59=FACE_OUTER_BOUND('',#89,.T.);
#60=FACE_OUTER_BOUND('',#90,.T.);
#61=FACE_OUTER_BOUND('',#91,.T.);
#62=FACE_OUTER_BOUND('',#92,.T.);
#63=EDGE_LOOP('',(#217,#218,#219,#220));
#64=EDGE_LOOP('',(#221,#222,#223,#224));
#65=EDGE_LOOP('',(#225,#226,#227,#228));
#66=EDGE_LOOP('',(#229,#230,#231,#232));
#67=EDGE_LOOP('',(#233,#234,#235,#236));
#68=EDGE_LOOP('',(#237,#238,#239,#240));
#69=EDGE_LOOP('',(#241,#242,#243,#244));
#70=EDGE_LOOP('',(#245,#246,#247,#248));
#71=EDGE_LOOP('',(#249,#250,#251,#252));
#72=EDGE_LOOP('',(#253));
#73=EDGE_LOOP('',(#254));
#74=EDGE_LOOP('',(#255));
#75=EDGE_LOOP('',(#256));
#76=EDGE_LOOP('',(#257));
#77=EDGE_LOOP('',(#258));
#78=EDGE_LOOP('',(#259));
#79=EDGE_LOOP('',(#260));
#80=EDGE_LOOP('',(#261));
#81=EDGE_LOOP('',(#262));
#82=EDGE_LOOP('',(#263));
#83=EDGE_LOOP('',(#264,#265,#266));
#84=EDGE_LOOP('',(#267,#268,#269));
#85=EDGE_LOOP('',(#270,#271,#272));
#86=EDGE_LOOP('',(#273,#274,#275));
#87=EDGE_LOOP('',(#276,#277,#278,#279));
#88=EDGE_LOOP('',(#280,#281,#282,#283));
#89=EDGE_LOOP('',(#284,#285,#286,#287));
#90=EDGE_LOOP('',(#288,#289,#290,#291));
#91=EDGE_LOOP('',(#292));
#92=EDGE_LOOP('',(#293,#294,#295,#296));
#93=LINE('',#482,#113);
#94=LINE('',#488,#114);
#95=LINE('',#494,#115);
#96=LINE('',#500,#116);
#97=LINE('',#506,#117);
#98=LINE('',#512,#118);
#99=LINE('',#518,#119);
#100=LINE('',#524,#120);
#101=LINE('',#529,#121);
#102=LINE('',#531,#122);
#103=LINE('',#533,#123);
#104=LINE('',#534,#124);
#105=LINE('',#656,#125);
#106=LINE('',#658,#126);
#107=LINE('',#659,#127);
#108=LINE('',#662,#128);
#109=LINE('',#663,#129);
#110=LINE('',#666,#130);
#111=LINE('',#667,#131);
#112=LINE('',#669,#132);
#113=VECTOR('',#385,2.5);
#114=VECTOR('',#392,4.);
#115=VECTOR('',#399,2.5);
#116=VECTOR('',#406,2.5);
#117=VECTOR('',#413,4.);
#118=VECTOR('',#420,4.);
#119=VECTOR('',#427,4.);
#120=VECTOR('',#434,2.5);
#121=VECTOR('',#439,10.);
#122=VECTOR('',#440,10.);
#123=VECTOR('',#441,10.);
#124=VECTOR('',#442,10.);
#125=VECTOR('',#459,10.);
#126=VECTOR('',#460,10.);
#127=VECTOR('',#461,10.);
#128=VECTOR('',#464,10.);
#129=VECTOR('',#465,10.);
#130=VECTOR('',#468,10.);
#131=VECTOR('',#469,10.);
#132=VECTOR('',#472,10.);
#133=CIRCLE('',#342,2.5);
#134=CIRCLE('',#343,2.5);
#135=CIRCLE('',#345,4.);
#136=CIRCLE('',#346,4.00000014901161);
#137=CIRCLE('',#348,2.5);
#138=CIRCLE('',#349,2.5);
#139=CIRCLE('',#351,2.5);
#140=CIRCLE('',#352,2.5);
#141=CIRCLE('',#354,4.);
#142=CIRCLE('',#355,4.00000014901161);
#143=CIRCLE('',#357,4.);
#144=CIRCLE('',#358,4.00000014901161);
#145=CIRCLE('',#360,4.);
#146=CIRCLE('',#361,4.00000014901161);
#147=CIRCLE('',#363,2.5);
#148=CIRCLE('',#364,2.5);
#149=VERTEX_POINT('',#479);
#150=VERTEX_POINT('',#481);
#151=VERTEX_POINT('',#485);
#152=VERTEX_POINT('',#487);
#153=VERTEX_POINT('',#491);
#154=VERTEX_POINT('',#493);
#155=VERTEX_POINT('',#497);
#156=VERTEX_POINT('',#499);
#157=VERTEX_POINT('',#503);
#158=VERTEX_POINT('',#505);
#159=VERTEX_POINT('',#509);
#160=VERTEX_POINT('',#511);
#161=VERTEX_POINT('',#515);
#162=VERTEX_POINT('',#517);
#163=VERTEX_POINT('',#521);
#164=VERTEX_POINT('',#523);
#165=VERTEX_POINT('',#527);
#166=VERTEX_POINT('',#528);
#167=VERTEX_POINT('',#530);
#168=VERTEX_POINT('',#532);
#169=VERTEX_POINT('',#565);
#170=VERTEX_POINT('',#594);
#171=VERTEX_POINT('',#623);
#172=VERTEX_POINT('',#652);
#173=VERTEX_POINT('',#655);
#174=VERTEX_POINT('',#657);
#175=VERTEX_POINT('',#661);
#176=VERTEX_POINT('',#665);
#177=EDGE_CURVE('',#149,#149,#133,.T.);
#178=EDGE_CURVE('',#149,#150,#93,.T.);
#179=EDGE_CURVE('',#150,#150,#134,.T.);
#180=EDGE_CURVE('',#151,#151,#135,.T.);
#181=EDGE_CURVE('',#151,#152,#94,.T.);
#182=EDGE_CURVE('',#152,#152,#136,.T.);
#183=EDGE_CURVE('',#153,#153,#137,.T.);
#184=EDGE_CURVE('',#153,#154,#95,.T.);
#185=EDGE_CURVE('',#154,#154,#138,.T.);
#186=EDGE_CURVE('',#155,#155,#139,.T.);
#187=EDGE_CURVE('',#155,#156,#96,.T.);
#188=EDGE_CURVE('',#156,#156,#140,.T.);
#189=EDGE_CURVE('',#157,#157,#141,.T.);
#190=EDGE_CURVE('',#157,#158,#97,.T.);
#191=EDGE_CURVE('',#158,#158,#142,.T.);
#192=EDGE_CURVE('',#159,#159,#143,.T.);
#193=EDGE_CURVE('',#159,#160,#98,.T.);
#194=EDGE_CURVE('',#160,#160,#144,.T.);
#195=EDGE_CURVE('',#161,#161,#145,.T.);
#196=EDGE_CURVE('',#161,#162,#99,.T.);
#197=EDGE_CURVE('',#162,#162,#146,.T.);
#198=EDGE_CURVE('',#163,#163,#147,.T.);
#199=EDGE_CURVE('',#163,#164,#100,.T.);
#200=EDGE_CURVE('',#164,#164,#148,.T.);
#201=EDGE_CURVE('',#165,#166,#101,.T.);
#202=EDGE_CURVE('',#166,#167,#102,.T.);
#203=EDGE_CURVE('',#167,#168,#103,.T.);
#204=EDGE_CURVE('',#168,#165,#104,.T.);
#205=EDGE_CURVE('',#169,#162,#15,.T.);
#206=EDGE_CURVE('',#170,#160,#16,.T.);
#207=EDGE_CURVE('',#171,#152,#17,.T.);
#208=EDGE_CURVE('',#172,#158,#18,.T.);
#209=EDGE_CURVE('',#173,#166,#105,.T.);
#210=EDGE_CURVE('',#174,#173,#106,.T.);
#211=EDGE_CURVE('',#174,#167,#107,.T.);
#212=EDGE_CURVE('',#175,#174,#108,.T.);
#213=EDGE_CURVE('',#175,#168,#109,.T.);
#214=EDGE_CURVE('',#176,#175,#110,.T.);
#215=EDGE_CURVE('',#165,#176,#111,.T.);
#216=EDGE_CURVE('',#173,#176,#112,.T.);
#217=ORIENTED_EDGE('',*,*,#177,.F.);
#218=ORIENTED_EDGE('',*,*,#178,.T.);
#219=ORIENTED_EDGE('',*,*,#179,.F.);
#220=ORIENTED_EDGE('',*,*,#178,.F.);
#221=ORIENTED_EDGE('',*,*,#180,.F.);
#222=ORIENTED_EDGE('',*,*,#181,.T.);
#223=ORIENTED_EDGE('',*,*,#182,.T.);
#224=ORIENTED_EDGE('',*,*,#181,.F.);
#225=ORIENTED_EDGE('',*,*,#183,.F.);
#226=ORIENTED_EDGE('',*,*,#184,.T.);
#227=ORIENTED_EDGE('',*,*,#185,.F.);
#228=ORIENTED_EDGE('',*,*,#184,.F.);
#229=ORIENTED_EDGE('',*,*,#186,.F.);
#230=ORIENTED_EDGE('',*,*,#187,.T.);
#231=ORIENTED_EDGE('',*,*,#188,.F.);
#232=ORIENTED_EDGE('',*,*,#187,.F.);
#233=ORIENTED_EDGE('',*,*,#189,.F.);
#234=ORIENTED_EDGE('',*,*,#190,.T.);
#235=ORIENTED_EDGE('',*,*,#191,.T.);
#236=ORIENTED_EDGE('',*,*,#190,.F.);
#237=ORIENTED_EDGE('',*,*,#192,.F.);
#238=ORIENTED_EDGE('',*,*,#193,.T.);
#239=ORIENTED_EDGE('',*,*,#194,.T.);
#240=ORIENTED_EDGE('',*,*,#193,.F.);
#241=ORIENTED_EDGE('',*,*,#195,.F.);
#242=ORIENTED_EDGE('',*,*,#196,.T.);
#243=ORIENTED_EDGE('',*,*,#197,.T.);
#244=ORIENTED_EDGE('',*,*,#196,.F.);
#245=ORIENTED_EDGE('',*,*,#198,.F.);
#246=ORIENTED_EDGE('',*,*,#199,.T.);
#247=ORIENTED_EDGE('',*,*,#200,.F.);
#248=ORIENTED_EDGE('',*,*,#199,.F.);
#249=ORIENTED_EDGE('',*,*,#201,.T.);
#250=ORIENTED_EDGE('',*,*,#202,.T.);
#251=ORIENTED_EDGE('',*,*,#203,.T.);
#252=ORIENTED_EDGE('',*,*,#204,.T.);
#253=ORIENTED_EDGE('',*,*,#198,.T.);
#254=ORIENTED_EDGE('',*,*,#195,.T.);
#255=ORIENTED_EDGE('',*,*,#192,.T.);
#256=ORIENTED_EDGE('',*,*,#189,.T.);
#257=ORIENTED_EDGE('',*,*,#186,.T.);
#258=ORIENTED_EDGE('',*,*,#183,.T.);
#259=ORIENTED_EDGE('',*,*,#180,.T.);
#260=ORIENTED_EDGE('',*,*,#177,.T.);
#261=ORIENTED_EDGE('',*,*,#200,.T.);
#262=ORIENTED_EDGE('',*,*,#188,.T.);
#263=ORIENTED_EDGE('',*,*,#185,.T.);
#264=ORIENTED_EDGE('',*,*,#205,.F.);
#265=ORIENTED_EDGE('',*,*,#205,.T.);
#266=ORIENTED_EDGE('',*,*,#197,.F.);
#267=ORIENTED_EDGE('',*,*,#206,.F.);
#268=ORIENTED_EDGE('',*,*,#206,.T.);
#269=ORIENTED_EDGE('',*,*,#194,.F.);
#270=ORIENTED_EDGE('',*,*,#207,.F.);
#271=ORIENTED_EDGE('',*,*,#207,.T.);
#272=ORIENTED_EDGE('',*,*,#182,.F.);
#273=ORIENTED_EDGE('',*,*,#208,.F.);
#274=ORIENTED_EDGE('',*,*,#208,.T.);
#275=ORIENTED_EDGE('',*,*,#191,.F.);
#276=ORIENTED_EDGE('',*,*,#209,.F.);
#277=ORIENTED_EDGE('',*,*,#210,.F.);
#278=ORIENTED_EDGE('',*,*,#211,.T.);
#279=ORIENTED_EDGE('',*,*,#202,.F.);
#280=ORIENTED_EDGE('',*,*,#211,.F.);
#281=ORIENTED_EDGE('',*,*,#212,.F.);
#282=ORIENTED_EDGE('',*,*,#213,.T.);
#283=ORIENTED_EDGE('',*,*,#203,.F.);
#284=ORIENTED_EDGE('',*,*,#213,.F.);
#285=ORIENTED_EDGE('',*,*,#214,.F.);
#286=ORIENTED_EDGE('',*,*,#215,.F.);
#287=ORIENTED_EDGE('',*,*,#204,.F.);
#288=ORIENTED_EDGE('',*,*,#215,.T.);
#289=ORIENTED_EDGE('',*,*,#216,.F.);
#290=ORIENTED_EDGE('',*,*,#209,.T.);
#291=ORIENTED_EDGE('',*,*,#201,.F.);
#292=ORIENTED_EDGE('',*,*,#179,.T.);
#293=ORIENTED_EDGE('',*,*,#216,.T.);
#294=ORIENTED_EDGE('',*,*,#214,.T.);
#295=ORIENTED_EDGE('',*,*,#212,.T.);
#296=ORIENTED_EDGE('',*,*,#210,.T.);
#297=CYLINDRICAL_SURFACE('',#341,2.5);
#298=CYLINDRICAL_SURFACE('',#344,4.);
#299=CYLINDRICAL_SURFACE('',#347,2.5);
#300=CYLINDRICAL_SURFACE('',#350,2.5);
#301=CYLINDRICAL_SURFACE('',#353,4.);
#302=CYLINDRICAL_SURFACE('',#356,4.);
#303=CYLINDRICAL_SURFACE('',#359,4.);
#304=CYLINDRICAL_SURFACE('',#362,2.5);
#305=ADVANCED_FACE('',(#41),#297,.F.);
#306=ADVANCED_FACE('',(#42),#298,.F.);
#307=ADVANCED_FACE('',(#43),#299,.F.);
#308=ADVANCED_FACE('',(#44),#300,.F.);
#309=ADVANCED_FACE('',(#45),#301,.F.);
#310=ADVANCED_FACE('',(#46),#302,.F.);
#311=ADVANCED_FACE('',(#47),#303,.F.);
#312=ADVANCED_FACE('',(#48),#304,.F.);
#313=ADVANCED_FACE('',(#49,#23,#24,#25,#26,#27,#28,#29,#30),#31,.T.);
#314=ADVANCED_FACE('',(#50),#32,.T.);
#315=ADVANCED_FACE('',(#51),#33,.T.);
#316=ADVANCED_FACE('',(#52),#34,.T.);
#317=ADVANCED_FACE('',(#53),#19,.F.);
#318=ADVANCED_FACE('',(#54),#20,.F.);
#319=ADVANCED_FACE('',(#55),#21,.F.);
#320=ADVANCED_FACE('',(#56),#22,.F.);
#321=ADVANCED_FACE('',(#57),#35,.T.);
#322=ADVANCED_FACE('',(#58),#36,.T.);
#323=ADVANCED_FACE('',(#59),#37,.T.);
#324=ADVANCED_FACE('',(#60),#38,.T.);
#325=ADVANCED_FACE('',(#61),#39,.T.);
#326=ADVANCED_FACE('',(#62),#40,.T.);
#327=CLOSED_SHELL('',(#305,#306,#307,#308,#309,#310,#311,#312,#313,#314,
#315,#316,#317,#318,#319,#320,#321,#322,#323,#324,#325,#326));
#328=DERIVED_UNIT_ELEMENT(#330,1.);
#329=DERIVED_UNIT_ELEMENT(#677,-3.);
#330=(
MASS_UNIT()
NAMED_UNIT(*)
SI_UNIT(.KILO.,.GRAM.)
);
#331=DERIVED_UNIT((#328,#329));
#332=MEASURE_REPRESENTATION_ITEM('density measure',
POSITIVE_RATIO_MEASURE(7850.),#331);
#333=PROPERTY_DEFINITION_REPRESENTATION(#338,#335);
#334=PROPERTY_DEFINITION_REPRESENTATION(#339,#336);
#335=REPRESENTATION('material name',(#337),#674);
#336=REPRESENTATION('density',(#332),#674);
#337=DESCRIPTIVE_REPRESENTATION_ITEM('Steel','Steel');
#338=PROPERTY_DEFINITION('material property','material name',#684);
#339=PROPERTY_DEFINITION('material property','density of part',#684);
#340=AXIS2_PLACEMENT_3D('',#477,#379,#380);
#341=AXIS2_PLACEMENT_3D('',#478,#381,#382);
#342=AXIS2_PLACEMENT_3D('',#480,#383,#384);
#343=AXIS2_PLACEMENT_3D('',#483,#386,#387);
#344=AXIS2_PLACEMENT_3D('',#484,#388,#389);
#345=AXIS2_PLACEMENT_3D('',#486,#390,#391);
#346=AXIS2_PLACEMENT_3D('',#489,#393,#394);
#347=AXIS2_PLACEMENT_3D('',#490,#395,#396);
#348=AXIS2_PLACEMENT_3D('',#492,#397,#398);
#349=AXIS2_PLACEMENT_3D('',#495,#400,#401);
#350=AXIS2_PLACEMENT_3D('',#496,#402,#403);
#351=AXIS2_PLACEMENT_3D('',#498,#404,#405);
#352=AXIS2_PLACEMENT_3D('',#501,#407,#408);
#353=AXIS2_PLACEMENT_3D('',#502,#409,#410);
#354=AXIS2_PLACEMENT_3D('',#504,#411,#412);
#355=AXIS2_PLACEMENT_3D('',#507,#414,#415);
#356=AXIS2_PLACEMENT_3D('',#508,#416,#417);
#357=AXIS2_PLACEMENT_3D('',#510,#418,#419);
#358=AXIS2_PLACEMENT_3D('',#513,#421,#422);
#359=AXIS2_PLACEMENT_3D('',#514,#423,#424);
#360=AXIS2_PLACEMENT_3D('',#516,#425,#426);
#361=AXIS2_PLACEMENT_3D('',#519,#428,#429);
#362=AXIS2_PLACEMENT_3D('',#520,#430,#431);
#363=AXIS2_PLACEMENT_3D('',#522,#432,#433);
#364=AXIS2_PLACEMENT_3D('',#525,#435,#436);
#365=AXIS2_PLACEMENT_3D('',#526,#437,#438);
#366=AXIS2_PLACEMENT_3D('',#535,#443,#444);
#367=AXIS2_PLACEMENT_3D('',#536,#445,#446);
#368=AXIS2_PLACEMENT_3D('',#537,#447,#448);
#369=AXIS2_PLACEMENT_3D('',#566,#449,#450);
#370=AXIS2_PLACEMENT_3D('',#595,#451,#452);
#371=AXIS2_PLACEMENT_3D('',#624,#453,#454);
#372=AXIS2_PLACEMENT_3D('',#653,#455,#456);
#373=AXIS2_PLACEMENT_3D('',#654,#457,#458);
#374=AXIS2_PLACEMENT_3D('',#660,#462,#463);
#375=AXIS2_PLACEMENT_3D('',#664,#466,#467);
#376=AXIS2_PLACEMENT_3D('',#668,#470,#471);
#377=AXIS2_PLACEMENT_3D('',#670,#473,#474);
#378=AXIS2_PLACEMENT_3D('',#671,#475,#476);
#379=DIRECTION('axis',(0.,0.,1.));
#380=DIRECTION('refdir',(1.,0.,0.));
#381=DIRECTION('center_axis',(0.,0.,1.));
#382=DIRECTION('ref_axis',(1.,0.,0.));
#383=DIRECTION('center_axis',(0.,0.,-1.));
#384=DIRECTION('ref_axis',(1.,0.,0.));
#385=DIRECTION('',(0.,0.,-1.));
#386=DIRECTION('center_axis',(0.,0.,1.));
#387=DIRECTION('ref_axis',(1.,0.,0.));
#388=DIRECTION('center_axis',(0.,0.,1.));
#389=DIRECTION('ref_axis',(1.,0.,0.));
#390=DIRECTION('center_axis',(0.,0.,-1.));
#391=DIRECTION('ref_axis',(1.,0.,0.));
#392=DIRECTION('',(0.,0.,-1.));
#393=DIRECTION('center_axis',(0.,0.,-1.));
#394=DIRECTION('ref_axis',(-1.,0.,0.));
#395=DIRECTION('center_axis',(0.,0.,1.));
#396=DIRECTION('ref_axis',(1.,0.,0.));
#397=DIRECTION('center_axis',(0.,0.,-1.));
#398=DIRECTION('ref_axis',(1.,0.,0.));
#399=DIRECTION('',(0.,0.,-1.));
#400=DIRECTION('center_axis',(0.,0.,1.));
#401=DIRECTION('ref_axis',(1.,0.,0.));
#402=DIRECTION('center_axis',(0.,0.,1.));
#403=DIRECTION('ref_axis',(1.,0.,0.));
#404=DIRECTION('center_axis',(0.,0.,-1.));
#405=DIRECTION('ref_axis',(1.,0.,0.));
#406=DIRECTION('',(0.,0.,-1.));
#407=DIRECTION('center_axis',(0.,0.,1.));
#408=DIRECTION('ref_axis',(1.,0.,0.));
#409=DIRECTION('center_axis',(0.,0.,1.));
#410=DIRECTION('ref_axis',(1.,0.,0.));
#411=DIRECTION('center_axis',(0.,0.,-1.));
#412=DIRECTION('ref_axis',(1.,0.,0.));
#413=DIRECTION('',(0.,0.,-1.));
#414=DIRECTION('center_axis',(0.,0.,-1.));
#415=DIRECTION('ref_axis',(-1.,0.,0.));
#416=DIRECTION('center_axis',(0.,0.,1.));
#417=DIRECTION('ref_axis',(1.,0.,0.));
#418=DIRECTION('center_axis',(0.,0.,-1.));
#419=DIRECTION('ref_axis',(1.,0.,0.));
#420=DIRECTION('',(0.,0.,-1.));
#421=DIRECTION('center_axis',(0.,0.,-1.));
#422=DIRECTION('ref_axis',(-1.,0.,0.));
#423=DIRECTION('center_axis',(0.,0.,1.));
#424=DIRECTION('ref_axis',(1.,0.,0.));
#425=DIRECTION('center_axis',(0.,0.,-1.));
#426=DIRECTION('ref_axis',(1.,0.,0.));
#427=DIRECTION('',(0.,0.,-1.));
#428=DIRECTION('center_axis',(0.,0.,-1.));
#429=DIRECTION('ref_axis',(-1.,0.,0.));
#430=DIRECTION('center_axis',(0.,0.,1.));
#431=DIRECTION('ref_axis',(1.,0.,0.));
#432=DIRECTION('center_axis',(0.,0.,-1.));
#433=DIRECTION('ref_axis',(1.,0.,0.));
#434=DIRECTION('',(0.,0.,-1.));
#435=DIRECTION('center_axis',(0.,0.,1.));
#436=DIRECTION('ref_axis',(1.,0.,0.));
#437=DIRECTION('center_axis',(0.,0.,1.));
#438=DIRECTION('ref_axis',(1.,0.,0.));
#439=DIRECTION('',(1.,0.,0.));
#440=DIRECTION('',(0.,1.,0.));
#441=DIRECTION('',(-1.,0.,0.));
#442=DIRECTION('',(0.,-1.,0.));
#443=DIRECTION('center_axis',(0.,0.,1.));
#444=DIRECTION('ref_axis',(1.,0.,0.));
#445=DIRECTION('center_axis',(0.,0.,1.));
#446=DIRECTION('ref_axis',(1.,0.,0.));
#447=DIRECTION('center_axis',(0.,0.,1.));
#448=DIRECTION('ref_axis',(1.,0.,0.));
#449=DIRECTION('center_axis',(0.,1.,0.));
#450=DIRECTION('ref_axis',(-1.,0.,0.));
#451=DIRECTION('center_axis',(0.,1.,0.));
#452=DIRECTION('ref_axis',(-1.,0.,0.));
#453=DIRECTION('center_axis',(0.,1.,0.));
#454=DIRECTION('ref_axis',(-1.,0.,0.));
#455=DIRECTION('center_axis',(0.,1.,0.));
#456=DIRECTION('ref_axis',(-1.,0.,0.));
#457=DIRECTION('center_axis',(1.,0.,0.));
#458=DIRECTION('ref_axis',(0.,-1.,0.));
#459=DIRECTION('',(0.,0.,1.));
#460=DIRECTION('',(0.,-1.,0.));
#461=DIRECTION('',(0.,0.,1.));
#462=DIRECTION('center_axis',(0.,1.,0.));
#463=DIRECTION('ref_axis',(1.,0.,0.));
#464=DIRECTION('',(1.,0.,0.));
#465=DIRECTION('',(0.,0.,1.));
#466=DIRECTION('center_axis',(-1.,0.,0.));
#467=DIRECTION('ref_axis',(0.,1.,0.));
#468=DIRECTION('',(0.,1.,0.));
#469=DIRECTION('',(0.,0.,-1.));
#470=DIRECTION('center_axis',(0.,-1.,0.));
#471=DIRECTION('ref_axis',(-1.,0.,0.));
#472=DIRECTION('',(-1.,0.,0.));
#473=DIRECTION('center_axis',(0.,0.,1.));
#474=DIRECTION('ref_axis',(1.,0.,0.));
#475=DIRECTION('center_axis',(0.,0.,-1.));
#476=DIRECTION('ref_axis',(-1.,0.,0.));
#477=CARTESIAN_POINT('',(0.,0.,0.));
#478=CARTESIAN_POINT('Origin',(-29.5,-2.77555756156289E-15,0.));
#479=CARTESIAN_POINT('',(-32.,-4.44089209850063E-15,2.6));
#480=CARTESIAN_POINT('Origin',(-29.5,-2.77555756156289E-15,2.6));
#481=CARTESIAN_POINT('',(-32.,-3.08171926134973E-15,0.));
#482=CARTESIAN_POINT('',(-32.,-3.08171926134973E-15,0.));
#483=CARTESIAN_POINT('Origin',(-29.5,-2.77555756156289E-15,0.));
#484=CARTESIAN_POINT('Origin',(-23.5,-8.,0.));
#485=CARTESIAN_POINT('',(-27.5,-8.,2.6));
#486=CARTESIAN_POINT('Origin',(-23.5,-8.,2.6));
#487=CARTESIAN_POINT('',(-27.5000001490116,-8.,0.));
#488=CARTESIAN_POINT('',(-27.5,-8.,0.));
#489=CARTESIAN_POINT('Origin',(-23.5,-8.,0.));
#490=CARTESIAN_POINT('Origin',(-29.5,-29.5,0.));
#491=CARTESIAN_POINT('',(-32.,-29.5,2.6));
#492=CARTESIAN_POINT('Origin',(-29.5,-29.5,2.6));
#493=CARTESIAN_POINT('',(-32.,-29.5,0.));
#494=CARTESIAN_POINT('',(-32.,-29.5,0.));
#495=CARTESIAN_POINT('Origin',(-29.5,-29.5,0.));
#496=CARTESIAN_POINT('Origin',(0.,0.,0.));
#497=CARTESIAN_POINT('',(-2.5,0.,2.6));
#498=CARTESIAN_POINT('Origin',(0.,0.,2.6));
#499=CARTESIAN_POINT('',(-2.5,-3.06161699786838E-16,0.));
#500=CARTESIAN_POINT('',(-2.5,-3.06161699786838E-16,0.));
#501=CARTESIAN_POINT('Origin',(0.,0.,0.));
#502=CARTESIAN_POINT('Origin',(-6.,-8.,0.));
#503=CARTESIAN_POINT('',(-10.,-8.,2.6));
#504=CARTESIAN_POINT('Origin',(-6.,-8.,2.6));
#505=CARTESIAN_POINT('',(-10.0000001490116,-8.,0.));
#506=CARTESIAN_POINT('',(-10.,-8.,0.));
#507=CARTESIAN_POINT('Origin',(-6.,-8.,0.));
#508=CARTESIAN_POINT('Origin',(-6.,-21.5,0.));
#509=CARTESIAN_POINT('',(-10.,-21.5,2.6));
#510=CARTESIAN_POINT('Origin',(-6.,-21.5,2.6));
#511=CARTESIAN_POINT('',(-10.0000001490116,-21.5,0.));
#512=CARTESIAN_POINT('',(-10.,-21.5,0.));
#513=CARTESIAN_POINT('Origin',(-6.,-21.5,0.));
#514=CARTESIAN_POINT('Origin',(-23.5,-21.5,0.));
#515=CARTESIAN_POINT('',(-27.5,-21.5,2.6));
#516=CARTESIAN_POINT('Origin',(-23.5,-21.5,2.6));
#517=CARTESIAN_POINT('',(-27.5000001490116,-21.5,0.));
#518=CARTESIAN_POINT('',(-27.5,-21.5,0.));
#519=CARTESIAN_POINT('Origin',(-23.5,-21.5,0.));
#520=CARTESIAN_POINT('Origin',(1.11022302462516E-15,-29.5,0.));
#521=CARTESIAN_POINT('',(-2.5,-29.5,2.6));
#522=CARTESIAN_POINT('Origin',(1.11022302462516E-15,-29.5,2.6));
#523=CARTESIAN_POINT('',(-2.5,-29.5,0.));
#524=CARTESIAN_POINT('',(-2.5,-29.5,0.));
#525=CARTESIAN_POINT('Origin',(1.11022302462516E-15,-29.5,0.));
#526=CARTESIAN_POINT('Origin',(-14.75,-14.75,2.6));
#527=CARTESIAN_POINT('',(-35.5,-35.5,2.6));
#528=CARTESIAN_POINT('',(6.,-35.5,2.6));
#529=CARTESIAN_POINT('',(6.,-35.5,2.6));
#530=CARTESIAN_POINT('',(6.,6.,2.6));
#531=CARTESIAN_POINT('',(6.,6.,2.6));
#532=CARTESIAN_POINT('',(-35.5,6.,2.6));
#533=CARTESIAN_POINT('',(-35.5,6.,2.6));
#534=CARTESIAN_POINT('',(-35.5,-35.5,2.6));
#535=CARTESIAN_POINT('Origin',(-14.75,-14.75,0.));
#536=CARTESIAN_POINT('Origin',(-14.75,-14.75,0.));
#537=CARTESIAN_POINT('Origin',(-14.75,-14.75,0.));
#538=CARTESIAN_POINT('Ctrl Pts',(-23.5,-21.5,-2.5));
#539=CARTESIAN_POINT('Ctrl Pts',(-23.5,-21.5,-2.5));
#540=CARTESIAN_POINT('Ctrl Pts',(-23.5,-21.5,-2.5));
#541=CARTESIAN_POINT('Ctrl Pts',(-23.5,-21.5,-2.5));
#542=CARTESIAN_POINT('Ctrl Pts',(-23.5,-21.5,-2.5));
#543=CARTESIAN_POINT('Ctrl Pts',(-23.5,-21.5,-2.5));
#544=CARTESIAN_POINT('Ctrl Pts',(-23.5,-21.5,-2.5));
#545=CARTESIAN_POINT('Ctrl Pts',(-23.5,-21.5,-2.5));
#546=CARTESIAN_POINT('Ctrl Pts',(-23.5,-21.5,-2.5));
#547=CARTESIAN_POINT('Ctrl Pts',(-27.5000001490116,-21.5,-2.5));
#548=CARTESIAN_POINT('Ctrl Pts',(-27.5000001490116,-17.4999998509884,-2.5));
#549=CARTESIAN_POINT('Ctrl Pts',(-23.5,-17.4999998509884,-2.5));
#550=CARTESIAN_POINT('Ctrl Pts',(-19.4999998509884,-17.4999998509884,-2.5));
#551=CARTESIAN_POINT('Ctrl Pts',(-19.4999998509884,-21.5,-2.5));
#552=CARTESIAN_POINT('Ctrl Pts',(-19.4999998509884,-25.5000001490116,-2.5));
#553=CARTESIAN_POINT('Ctrl Pts',(-23.5,-25.5000001490116,-2.5));
#554=CARTESIAN_POINT('Ctrl Pts',(-27.5000001490116,-25.5000001490116,-2.5));
#555=CARTESIAN_POINT('Ctrl Pts',(-27.5000001490116,-21.5,-2.5));
#556=CARTESIAN_POINT('Ctrl Pts',(-27.5000001490116,-21.5,0.));
#557=CARTESIAN_POINT('Ctrl Pts',(-27.5000001490116,-17.4999998509884,0.));
#558=CARTESIAN_POINT('Ctrl Pts',(-23.5,-17.4999998509884,0.));
#559=CARTESIAN_POINT('Ctrl Pts',(-19.4999998509884,-17.4999998509884,0.));
#560=CARTESIAN_POINT('Ctrl Pts',(-19.4999998509884,-21.5,0.));
#561=CARTESIAN_POINT('Ctrl Pts',(-19.4999998509884,-25.5000001490116,0.));
#562=CARTESIAN_POINT('Ctrl Pts',(-23.5,-25.5000001490116,0.));
#563=CARTESIAN_POINT('Ctrl Pts',(-27.5000001490116,-25.5000001490116,0.));
#564=CARTESIAN_POINT('Ctrl Pts',(-27.5000001490116,-21.5,0.));
#565=CARTESIAN_POINT('',(-23.5,-21.5,-2.5));
#566=CARTESIAN_POINT('Origin',(-23.5,-21.5,0.));
#567=CARTESIAN_POINT('Ctrl Pts',(-6.,-21.5,-2.5));
#568=CARTESIAN_POINT('Ctrl Pts',(-6.,-21.5,-2.5));
#569=CARTESIAN_POINT('Ctrl Pts',(-6.,-21.5,-2.5));
#570=CARTESIAN_POINT('Ctrl Pts',(-6.,-21.5,-2.5));
#571=CARTESIAN_POINT('Ctrl Pts',(-6.,-21.5,-2.5));
#572=CARTESIAN_POINT('Ctrl Pts',(-6.,-21.5,-2.5));
#573=CARTESIAN_POINT('Ctrl Pts',(-6.,-21.5,-2.5));
#574=CARTESIAN_POINT('Ctrl Pts',(-6.,-21.5,-2.5));
#575=CARTESIAN_POINT('Ctrl Pts',(-6.,-21.5,-2.5));
#576=CARTESIAN_POINT('Ctrl Pts',(-10.0000001490116,-21.5,-2.5));
#577=CARTESIAN_POINT('Ctrl Pts',(-10.0000001490116,-17.4999998509884,-2.5));
#578=CARTESIAN_POINT('Ctrl Pts',(-6.,-17.4999998509884,-2.5));
#579=CARTESIAN_POINT('Ctrl Pts',(-1.99999985098839,-17.4999998509884,-2.5));
#580=CARTESIAN_POINT('Ctrl Pts',(-1.99999985098839,-21.5,-2.5));
#581=CARTESIAN_POINT('Ctrl Pts',(-1.99999985098839,-25.5000001490116,-2.5));
#582=CARTESIAN_POINT('Ctrl Pts',(-6.,-25.5000001490116,-2.5));
#583=CARTESIAN_POINT('Ctrl Pts',(-10.0000001490116,-25.5000001490116,-2.5));
#584=CARTESIAN_POINT('Ctrl Pts',(-10.0000001490116,-21.5,-2.5));
#585=CARTESIAN_POINT('Ctrl Pts',(-10.0000001490116,-21.5,0.));
#586=CARTESIAN_POINT('Ctrl Pts',(-10.0000001490116,-17.4999998509884,0.));
#587=CARTESIAN_POINT('Ctrl Pts',(-6.,-17.4999998509884,0.));
#588=CARTESIAN_POINT('Ctrl Pts',(-1.99999985098839,-17.4999998509884,0.));
#589=CARTESIAN_POINT('Ctrl Pts',(-1.99999985098839,-21.5,0.));
#590=CARTESIAN_POINT('Ctrl Pts',(-1.99999985098839,-25.5000001490116,0.));
#591=CARTESIAN_POINT('Ctrl Pts',(-6.,-25.5000001490116,0.));
#592=CARTESIAN_POINT('Ctrl Pts',(-10.0000001490116,-25.5000001490116,0.));
#593=CARTESIAN_POINT('Ctrl Pts',(-10.0000001490116,-21.5,0.));
#594=CARTESIAN_POINT('',(-6.,-21.5,-2.5));
#595=CARTESIAN_POINT('Origin',(-6.,-21.5,0.));
#596=CARTESIAN_POINT('Ctrl Pts',(-23.5,-8.,-2.5));
#597=CARTESIAN_POINT('Ctrl Pts',(-23.5,-8.,-2.5));
#598=CARTESIAN_POINT('Ctrl Pts',(-23.5,-8.,-2.5));
#599=CARTESIAN_POINT('Ctrl Pts',(-23.5,-8.,-2.5));
#600=CARTESIAN_POINT('Ctrl Pts',(-23.5,-8.,-2.5));
#601=CARTESIAN_POINT('Ctrl Pts',(-23.5,-8.,-2.5));
#602=CARTESIAN_POINT('Ctrl Pts',(-23.5,-8.,-2.5));
#603=CARTESIAN_POINT('Ctrl Pts',(-23.5,-8.,-2.5));
#604=CARTESIAN_POINT('Ctrl Pts',(-23.5,-8.,-2.5));
#605=CARTESIAN_POINT('Ctrl Pts',(-27.5000001490116,-8.,-2.5));
#606=CARTESIAN_POINT('Ctrl Pts',(-27.5000001490116,-3.99999985098839,-2.5));
#607=CARTESIAN_POINT('Ctrl Pts',(-23.5,-3.99999985098839,-2.5));
#608=CARTESIAN_POINT('Ctrl Pts',(-19.4999998509884,-3.99999985098839,-2.5));
#609=CARTESIAN_POINT('Ctrl Pts',(-19.4999998509884,-8.,-2.5));
#610=CARTESIAN_POINT('Ctrl Pts',(-19.4999998509884,-12.0000001490116,-2.5));
#611=CARTESIAN_POINT('Ctrl Pts',(-23.5,-12.0000001490116,-2.5));
#612=CARTESIAN_POINT('Ctrl Pts',(-27.5000001490116,-12.0000001490116,-2.5));
#613=CARTESIAN_POINT('Ctrl Pts',(-27.5000001490116,-8.,-2.5));
#614=CARTESIAN_POINT('Ctrl Pts',(-27.5000001490116,-8.,0.));
#615=CARTESIAN_POINT('Ctrl Pts',(-27.5000001490116,-3.99999985098839,0.));
#616=CARTESIAN_POINT('Ctrl Pts',(-23.5,-3.99999985098839,0.));
#617=CARTESIAN_POINT('Ctrl Pts',(-19.4999998509884,-3.99999985098839,0.));
#618=CARTESIAN_POINT('Ctrl Pts',(-19.4999998509884,-8.,0.));
#619=CARTESIAN_POINT('Ctrl Pts',(-19.4999998509884,-12.0000001490116,0.));
#620=CARTESIAN_POINT('Ctrl Pts',(-23.5,-12.0000001490116,0.));
#621=CARTESIAN_POINT('Ctrl Pts',(-27.5000001490116,-12.0000001490116,0.));
#622=CARTESIAN_POINT('Ctrl Pts',(-27.5000001490116,-8.,0.));
#623=CARTESIAN_POINT('',(-23.5,-8.,-2.5));
#624=CARTESIAN_POINT('Origin',(-23.5,-8.,0.));
#625=CARTESIAN_POINT('Ctrl Pts',(-6.,-8.,-2.5));
#626=CARTESIAN_POINT('Ctrl Pts',(-6.,-8.,-2.5));
#627=CARTESIAN_POINT('Ctrl Pts',(-6.,-8.,-2.5));
#628=CARTESIAN_POINT('Ctrl Pts',(-6.,-8.,-2.5));
#629=CARTESIAN_POINT('Ctrl Pts',(-6.,-8.,-2.5));
#630=CARTESIAN_POINT('Ctrl Pts',(-6.,-8.,-2.5));
#631=CARTESIAN_POINT('Ctrl Pts',(-6.,-8.,-2.5));
#632=CARTESIAN_POINT('Ctrl Pts',(-6.,-8.,-2.5));
#633=CARTESIAN_POINT('Ctrl Pts',(-6.,-8.,-2.5));
#634=CARTESIAN_POINT('Ctrl Pts',(-10.0000001490116,-8.,-2.5));
#635=CARTESIAN_POINT('Ctrl Pts',(-10.0000001490116,-3.99999985098839,-2.5));
#636=CARTESIAN_POINT('Ctrl Pts',(-6.,-3.99999985098839,-2.5));
#637=CARTESIAN_POINT('Ctrl Pts',(-1.99999985098839,-3.99999985098839,-2.5));
#638=CARTESIAN_POINT('Ctrl Pts',(-1.99999985098839,-8.,-2.5));
#639=CARTESIAN_POINT('Ctrl Pts',(-1.99999985098839,-12.0000001490116,-2.5));
#640=CARTESIAN_POINT('Ctrl Pts',(-6.,-12.0000001490116,-2.5));
#641=CARTESIAN_POINT('Ctrl Pts',(-10.0000001490116,-12.0000001490116,-2.5));
#642=CARTESIAN_POINT('Ctrl Pts',(-10.0000001490116,-8.,-2.5));
#643=CARTESIAN_POINT('Ctrl Pts',(-10.0000001490116,-8.,0.));
#644=CARTESIAN_POINT('Ctrl Pts',(-10.0000001490116,-3.99999985098839,0.));
#645=CARTESIAN_POINT('Ctrl Pts',(-6.,-3.99999985098839,0.));
#646=CARTESIAN_POINT('Ctrl Pts',(-1.99999985098839,-3.99999985098839,0.));
#647=CARTESIAN_POINT('Ctrl Pts',(-1.99999985098839,-8.,0.));
#648=CARTESIAN_POINT('Ctrl Pts',(-1.99999985098839,-12.0000001490116,0.));
#649=CARTESIAN_POINT('Ctrl Pts',(-6.,-12.0000001490116,0.));
#650=CARTESIAN_POINT('Ctrl Pts',(-10.0000001490116,-12.0000001490116,0.));
#651=CARTESIAN_POINT('Ctrl Pts',(-10.0000001490116,-8.,0.));
#652=CARTESIAN_POINT('',(-6.,-8.,-2.5));
#653=CARTESIAN_POINT('Origin',(-6.,-8.,0.));
#654=CARTESIAN_POINT('Origin',(6.,6.,0.));
#655=CARTESIAN_POINT('',(6.,-35.5,-7.4));
#656=CARTESIAN_POINT('',(6.,-35.5,0.));
#657=CARTESIAN_POINT('',(6.,6.,-7.4));
#658=CARTESIAN_POINT('',(6.,6.,-7.4));
#659=CARTESIAN_POINT('',(6.,6.,0.));
#660=CARTESIAN_POINT('Origin',(-35.5,6.,0.));
#661=CARTESIAN_POINT('',(-35.5,6.,-7.4));
#662=CARTESIAN_POINT('',(-35.5,6.,-7.4));
#663=CARTESIAN_POINT('',(-35.5,6.,0.));
#664=CARTESIAN_POINT('Origin',(-35.5,-35.5,0.));
#665=CARTESIAN_POINT('',(-35.5,-35.5,-7.4));
#666=CARTESIAN_POINT('',(-35.5,-35.5,-7.4));
#667=CARTESIAN_POINT('',(-35.5,-35.5,0.));
#668=CARTESIAN_POINT('Origin',(6.,-35.5,0.));
#669=CARTESIAN_POINT('',(6.,-35.5,-7.4));
#670=CARTESIAN_POINT('Origin',(-14.75,-14.75,0.));
#671=CARTESIAN_POINT('Origin',(-14.75,-14.75,-7.4));
#672=UNCERTAINTY_MEASURE_WITH_UNIT(LENGTH_MEASURE(0.01),#676,
'DISTANCE_ACCURACY_VALUE',
'Maximum model space distance between geometric entities at asserted c
onnectivities');
#673=UNCERTAINTY_MEASURE_WITH_UNIT(LENGTH_MEASURE(0.01),#676,
'DISTANCE_ACCURACY_VALUE',
'Maximum model space distance between geometric entities at asserted c
onnectivities');
#674=(
GEOMETRIC_REPRESENTATION_CONTEXT(3)
GLOBAL_UNCERTAINTY_ASSIGNED_CONTEXT((#672))
GLOBAL_UNIT_ASSIGNED_CONTEXT((#676,#678,#679))
REPRESENTATION_CONTEXT('','3D')
);
#675=(
GEOMETRIC_REPRESENTATION_CONTEXT(3)
GLOBAL_UNCERTAINTY_ASSIGNED_CONTEXT((#673))
GLOBAL_UNIT_ASSIGNED_CONTEXT((#676,#678,#679))
REPRESENTATION_CONTEXT('','3D')
);
#676=(
LENGTH_UNIT()
NAMED_UNIT(*)
SI_UNIT(.MILLI.,.METRE.)
);
#677=(
LENGTH_UNIT()
NAMED_UNIT(*)
SI_UNIT($,.METRE.)
);
#678=(
NAMED_UNIT(*)
PLANE_ANGLE_UNIT()
SI_UNIT($,.RADIAN.)
);
#679=(
NAMED_UNIT(*)
SI_UNIT($,.STERADIAN.)
SOLID_ANGLE_UNIT()
);
#680=SHAPE_DEFINITION_REPRESENTATION(#681,#682);
#681=PRODUCT_DEFINITION_SHAPE('',$,#684);
#682=SHAPE_REPRESENTATION('',(#340),#674);
#683=PRODUCT_DEFINITION_CONTEXT('part definition',#688,'design');
#684=PRODUCT_DEFINITION('2026-08-04-10-36-30-769','moldSensorTip',#685,
#683);
#685=PRODUCT_DEFINITION_FORMATION('',$,#690);
#686=PRODUCT_RELATED_PRODUCT_CATEGORY('moldSensorTip','moldSensorTip',(#690));
#687=APPLICATION_PROTOCOL_DEFINITION('international standard',
'automotive_design',2009,#688);
#688=APPLICATION_CONTEXT(
'Core Data for Automotive Mechanical Design Process');
#689=PRODUCT_CONTEXT('part definition',#688,'mechanical');
#690=PRODUCT('2026-08-04-10-36-30-769','moldSensorTip',$,(#689));
#691=PRESENTATION_STYLE_ASSIGNMENT((#692));
#692=SURFACE_STYLE_USAGE(.BOTH.,#693);
#693=SURFACE_SIDE_STYLE('',(#694));
#694=SURFACE_STYLE_FILL_AREA(#695);
#695=FILL_AREA_STYLE('Steel - Satin',(#696));
#696=FILL_AREA_STYLE_COLOUR('Steel - Satin',#697);
#697=COLOUR_RGB('Steel - Satin',0.627450980392157,0.627450980392157,0.627450980392157);
ENDSEC;
END-ISO-10303-21;
