ISO-10303-21;
HEADER;
/* Generated by software containing ST-Developer
 * from STEP Tools, Inc. (www.steptools.com) 
 */

FILE_DESCRIPTION(
/* description */ (''),
/* implementation_level */ '2;1');

FILE_NAME(
/* name */ 'SqueezeRing.step',
/* time_stamp */ '2026-08-04T10:38:38+02:00',
/* author */ (''),
/* organization */ (''),
/* preprocessor_version */ 'ST-DEVELOPER v20.1',
/* originating_system */ 'Autodesk Translation Framework v15.8.0.0',
/* authorisation */ '');

FILE_SCHEMA (('AUTOMOTIVE_DESIGN { 1 0 10303 214 3 1 1 }'));
ENDSEC;

DATA;
#10=MECHANICAL_DESIGN_GEOMETRIC_PRESENTATION_REPRESENTATION('',(#13),#1759);
#11=SHAPE_REPRESENTATION_RELATIONSHIP('SRR','None',#1766,#12);
#12=ADVANCED_BREP_SHAPE_REPRESENTATION('',(#14),#1758);
#13=STYLED_ITEM('',(#1775),#14);
#14=MANIFOLD_SOLID_BREP('Body14',#945);
#15=CONICAL_SURFACE('',#1040,3.,0.0174532925199433);
#16=CONICAL_SURFACE('',#1042,2.5,0.0174532925199433);
#17=CONICAL_SURFACE('',#1044,2.5,0.0174532925199433);
#18=CONICAL_SURFACE('',#1047,3.,0.0174532925199433);
#19=CONICAL_SURFACE('',#1054,3.,0.0174532925199433);
#20=CONICAL_SURFACE('',#1056,2.5,0.0174532925199433);
#21=CONICAL_SURFACE('',#1058,2.5,0.0174532925199433);
#22=CONICAL_SURFACE('',#1061,3.,0.0174532925199433);
#23=CONICAL_SURFACE('',#1065,2.5,0.0174532925199433);
#24=CONICAL_SURFACE('',#1068,3.,0.0174532925199433);
#25=CONICAL_SURFACE('',#1072,2.5,0.0174532925199433);
#26=CONICAL_SURFACE('',#1075,3.,0.0174532925199433);
#27=CONICAL_SURFACE('',#1082,3.,0.0174532925199433);
#28=CONICAL_SURFACE('',#1084,2.5,0.0174532925199433);
#29=CONICAL_SURFACE('',#1086,2.5,0.0174532925199433);
#30=CONICAL_SURFACE('',#1089,3.,0.0174532925199433);
#31=(
BOUNDED_CURVE()
B_SPLINE_CURVE(2,(#1558,#1559,#1560),.UNSPECIFIED.,.F.,.F.)
B_SPLINE_CURVE_WITH_KNOTS((3,3),(0.0201333653540267,0.220192487278563),
 .UNSPECIFIED.)
CURVE()
GEOMETRIC_REPRESENTATION_ITEM()
RATIONAL_B_SPLINE_CURVE((1.,1.,1.))
REPRESENTATION_ITEM('')
);
#32=(
BOUNDED_CURVE()
B_SPLINE_CURVE(2,(#1563,#1564,#1565),.UNSPECIFIED.,.F.,.F.)
B_SPLINE_CURVE_WITH_KNOTS((3,3),(0.0198513937971641,0.219910547320742),
 .UNSPECIFIED.)
CURVE()
GEOMETRIC_REPRESENTATION_ITEM()
RATIONAL_B_SPLINE_CURVE((1.,1.,1.))
REPRESENTATION_ITEM('')
);
#33=(
BOUNDED_CURVE()
B_SPLINE_CURVE(2,(#1573,#1574,#1575),.UNSPECIFIED.,.F.,.F.)
B_SPLINE_CURVE_WITH_KNOTS((3,3),(0.020133365281482,0.220192487207668),
 .UNSPECIFIED.)
CURVE()
GEOMETRIC_REPRESENTATION_ITEM()
RATIONAL_B_SPLINE_CURVE((1.,1.,1.))
REPRESENTATION_ITEM('')
);
#34=(
BOUNDED_CURVE()
B_SPLINE_CURVE(2,(#1577,#1578,#1579),.UNSPECIFIED.,.F.,.F.)
B_SPLINE_CURVE_WITH_KNOTS((3,3),(0.0198513937526298,0.219910547274928),
 .UNSPECIFIED.)
CURVE()
GEOMETRIC_REPRESENTATION_ITEM()
RATIONAL_B_SPLINE_CURVE((1.,1.,1.))
REPRESENTATION_ITEM('')
);
#35=(
BOUNDED_CURVE()
B_SPLINE_CURVE(2,(#1583,#1584,#1585),.UNSPECIFIED.,.F.,.F.)
B_SPLINE_CURVE_WITH_KNOTS((3,3),(0.0201333653535105,0.220192487278058),
 .UNSPECIFIED.)
CURVE()
GEOMETRIC_REPRESENTATION_ITEM()
RATIONAL_B_SPLINE_CURVE((1.,1.,1.))
REPRESENTATION_ITEM('')
);
#36=(
BOUNDED_CURVE()
B_SPLINE_CURVE(2,(#1588,#1589,#1590),.UNSPECIFIED.,.F.,.F.)
B_SPLINE_CURVE_WITH_KNOTS((3,3),(0.0198513937976438,0.219910547321235),
 .UNSPECIFIED.)
CURVE()
GEOMETRIC_REPRESENTATION_ITEM()
RATIONAL_B_SPLINE_CURVE((1.,1.,1.))
REPRESENTATION_ITEM('')
);
#37=(
BOUNDED_CURVE()
B_SPLINE_CURVE(2,(#1594,#1595,#1596),.UNSPECIFIED.,.F.,.F.)
B_SPLINE_CURVE_WITH_KNOTS((3,3),(0.0198513937527183,0.219910547275019),
 .UNSPECIFIED.)
CURVE()
GEOMETRIC_REPRESENTATION_ITEM()
RATIONAL_B_SPLINE_CURVE((1.,1.,1.))
REPRESENTATION_ITEM('')
);
#38=(
BOUNDED_CURVE()
B_SPLINE_CURVE(2,(#1600,#1601,#1602),.UNSPECIFIED.,.F.,.F.)
B_SPLINE_CURVE_WITH_KNOTS((3,3),(0.020133365353412,0.220192487277962),
 .UNSPECIFIED.)
CURVE()
GEOMETRIC_REPRESENTATION_ITEM()
RATIONAL_B_SPLINE_CURVE((1.,1.,1.))
REPRESENTATION_ITEM('')
);
#39=(
BOUNDED_CURVE()
B_SPLINE_CURVE(2,(#1608,#1609,#1610),.UNSPECIFIED.,.F.,.F.)
B_SPLINE_CURVE_WITH_KNOTS((3,3),(0.0201333653534715,0.22019248727802),
 .UNSPECIFIED.)
CURVE()
GEOMETRIC_REPRESENTATION_ITEM()
RATIONAL_B_SPLINE_CURVE((1.,1.,1.))
REPRESENTATION_ITEM('')
);
#40=(
BOUNDED_CURVE()
B_SPLINE_CURVE(2,(#1613,#1614,#1615),.UNSPECIFIED.,.F.,.F.)
B_SPLINE_CURVE_WITH_KNOTS((3,3),(0.0198513937976439,0.219910547321235),
 .UNSPECIFIED.)
CURVE()
GEOMETRIC_REPRESENTATION_ITEM()
RATIONAL_B_SPLINE_CURVE((1.,1.,1.))
REPRESENTATION_ITEM('')
);
#41=(
BOUNDED_CURVE()
B_SPLINE_CURVE(2,(#1623,#1624,#1625),.UNSPECIFIED.,.F.,.F.)
B_SPLINE_CURVE_WITH_KNOTS((3,3),(0.0201333653533949,0.220192487277945),
 .UNSPECIFIED.)
CURVE()
GEOMETRIC_REPRESENTATION_ITEM()
RATIONAL_B_SPLINE_CURVE((1.,1.,1.))
REPRESENTATION_ITEM('')
);
#42=(
BOUNDED_CURVE()
B_SPLINE_CURVE(2,(#1627,#1628,#1629),.UNSPECIFIED.,.F.,.F.)
B_SPLINE_CURVE_WITH_KNOTS((3,3),(0.0198513937526481,0.219910547274947),
 .UNSPECIFIED.)
CURVE()
GEOMETRIC_REPRESENTATION_ITEM()
RATIONAL_B_SPLINE_CURVE((1.,1.,1.))
REPRESENTATION_ITEM('')
);
#43=(
BOUNDED_CURVE()
B_SPLINE_CURVE(2,(#1633,#1634,#1635),.UNSPECIFIED.,.F.,.F.)
B_SPLINE_CURVE_WITH_KNOTS((3,3),(0.0201333653539844,0.220192487278522),
 .UNSPECIFIED.)
CURVE()
GEOMETRIC_REPRESENTATION_ITEM()
RATIONAL_B_SPLINE_CURVE((1.,1.,1.))
REPRESENTATION_ITEM('')
);
#44=(
BOUNDED_CURVE()
B_SPLINE_CURVE(2,(#1638,#1639,#1640),.UNSPECIFIED.,.F.,.F.)
B_SPLINE_CURVE_WITH_KNOTS((3,3),(0.0198513937526137,0.219910547274911),
 .UNSPECIFIED.)
CURVE()
GEOMETRIC_REPRESENTATION_ITEM()
RATIONAL_B_SPLINE_CURVE((1.,1.,1.))
REPRESENTATION_ITEM('')
);
#45=(
BOUNDED_CURVE()
B_SPLINE_CURVE(2,(#1644,#1645,#1646),.UNSPECIFIED.,.F.,.F.)
B_SPLINE_CURVE_WITH_KNOTS((3,3),(0.0198513937526382,0.219910547274937),
 .UNSPECIFIED.)
CURVE()
GEOMETRIC_REPRESENTATION_ITEM()
RATIONAL_B_SPLINE_CURVE((1.,1.,1.))
REPRESENTATION_ITEM('')
);
#46=(
BOUNDED_CURVE()
B_SPLINE_CURVE(2,(#1650,#1651,#1652),.UNSPECIFIED.,.F.,.F.)
B_SPLINE_CURVE_WITH_KNOTS((3,3),(0.0201333652809957,0.220192487207193),
 .UNSPECIFIED.)
CURVE()
GEOMETRIC_REPRESENTATION_ITEM()
RATIONAL_B_SPLINE_CURVE((1.,1.,1.))
REPRESENTATION_ITEM('')
);
#47=(
BOUNDED_CURVE()
B_SPLINE_CURVE(2,(#1658,#1659,#1660),.UNSPECIFIED.,.F.,.F.)
B_SPLINE_CURVE_WITH_KNOTS((3,3),(0.0201333653535491,0.220192487278096),
 .UNSPECIFIED.)
CURVE()
GEOMETRIC_REPRESENTATION_ITEM()
RATIONAL_B_SPLINE_CURVE((1.,1.,1.))
REPRESENTATION_ITEM('')
);
#48=(
BOUNDED_CURVE()
B_SPLINE_CURVE(2,(#1663,#1664,#1665),.UNSPECIFIED.,.F.,.F.)
B_SPLINE_CURVE_WITH_KNOTS((3,3),(0.0198513937976193,0.21991054732121),
 .UNSPECIFIED.)
CURVE()
GEOMETRIC_REPRESENTATION_ITEM()
RATIONAL_B_SPLINE_CURVE((1.,1.,1.))
REPRESENTATION_ITEM('')
);
#49=(
BOUNDED_CURVE()
B_SPLINE_CURVE(2,(#1669,#1670,#1671),.UNSPECIFIED.,.F.,.F.)
B_SPLINE_CURVE_WITH_KNOTS((3,3),(0.0198513937527062,0.219910547275006),
 .UNSPECIFIED.)
CURVE()
GEOMETRIC_REPRESENTATION_ITEM()
RATIONAL_B_SPLINE_CURVE((1.,1.,1.))
REPRESENTATION_ITEM('')
);
#50=(
BOUNDED_CURVE()
B_SPLINE_CURVE(2,(#1675,#1676,#1677),.UNSPECIFIED.,.F.,.F.)
B_SPLINE_CURVE_WITH_KNOTS((3,3),(0.0201333653533333,0.220192487277885),
 .UNSPECIFIED.)
CURVE()
GEOMETRIC_REPRESENTATION_ITEM()
RATIONAL_B_SPLINE_CURVE((1.,1.,1.))
REPRESENTATION_ITEM('')
);
#51=(
BOUNDED_CURVE()
B_SPLINE_CURVE(2,(#1683,#1684,#1685),.UNSPECIFIED.,.F.,.F.)
B_SPLINE_CURVE_WITH_KNOTS((3,3),(0.020133365353827,0.220192487278368),
 .UNSPECIFIED.)
CURVE()
GEOMETRIC_REPRESENTATION_ITEM()
RATIONAL_B_SPLINE_CURVE((1.,1.,1.))
REPRESENTATION_ITEM('')
);
#52=(
BOUNDED_CURVE()
B_SPLINE_CURVE(2,(#1688,#1689,#1690),.UNSPECIFIED.,.F.,.F.)
B_SPLINE_CURVE_WITH_KNOTS((3,3),(0.019851393752704,0.219910547275004),
 .UNSPECIFIED.)
CURVE()
GEOMETRIC_REPRESENTATION_ITEM()
RATIONAL_B_SPLINE_CURVE((1.,1.,1.))
REPRESENTATION_ITEM('')
);
#53=(
BOUNDED_CURVE()
B_SPLINE_CURVE(2,(#1694,#1695,#1696),.UNSPECIFIED.,.F.,.F.)
B_SPLINE_CURVE_WITH_KNOTS((3,3),(0.0198513937525838,0.219910547274881),
 .UNSPECIFIED.)
CURVE()
GEOMETRIC_REPRESENTATION_ITEM()
RATIONAL_B_SPLINE_CURVE((1.,1.,1.))
REPRESENTATION_ITEM('')
);
#54=(
BOUNDED_CURVE()
B_SPLINE_CURVE(2,(#1700,#1701,#1702),.UNSPECIFIED.,.F.,.F.)
B_SPLINE_CURVE_WITH_KNOTS((3,3),(0.0201333652811502,0.220192487207344),
 .UNSPECIFIED.)
CURVE()
GEOMETRIC_REPRESENTATION_ITEM()
RATIONAL_B_SPLINE_CURVE((1.,1.,1.))
REPRESENTATION_ITEM('')
);
#55=(
BOUNDED_CURVE()
B_SPLINE_CURVE(2,(#1708,#1709,#1710),.UNSPECIFIED.,.F.,.F.)
B_SPLINE_CURVE_WITH_KNOTS((3,3),(0.0201333653534717,0.22019248727802),
 .UNSPECIFIED.)
CURVE()
GEOMETRIC_REPRESENTATION_ITEM()
RATIONAL_B_SPLINE_CURVE((1.,1.,1.))
REPRESENTATION_ITEM('')
);
#56=(
BOUNDED_CURVE()
B_SPLINE_CURVE(2,(#1713,#1714,#1715),.UNSPECIFIED.,.F.,.F.)
B_SPLINE_CURVE_WITH_KNOTS((3,3),(0.0198513937976685,0.219910547321261),
 .UNSPECIFIED.)
CURVE()
GEOMETRIC_REPRESENTATION_ITEM()
RATIONAL_B_SPLINE_CURVE((1.,1.,1.))
REPRESENTATION_ITEM('')
);
#57=(
BOUNDED_CURVE()
B_SPLINE_CURVE(2,(#1723,#1724,#1725),.UNSPECIFIED.,.F.,.F.)
B_SPLINE_CURVE_WITH_KNOTS((3,3),(0.0201333653534021,0.220192487277952),
 .UNSPECIFIED.)
CURVE()
GEOMETRIC_REPRESENTATION_ITEM()
RATIONAL_B_SPLINE_CURVE((1.,1.,1.))
REPRESENTATION_ITEM('')
);
#58=(
BOUNDED_CURVE()
B_SPLINE_CURVE(2,(#1727,#1728,#1729),.UNSPECIFIED.,.F.,.F.)
B_SPLINE_CURVE_WITH_KNOTS((3,3),(0.019851393752695,0.219910547274995),
 .UNSPECIFIED.)
CURVE()
GEOMETRIC_REPRESENTATION_ITEM()
RATIONAL_B_SPLINE_CURVE((1.,1.,1.))
REPRESENTATION_ITEM('')
);
#59=(
BOUNDED_CURVE()
B_SPLINE_CURVE(2,(#1733,#1734,#1735),.UNSPECIFIED.,.F.,.F.)
B_SPLINE_CURVE_WITH_KNOTS((3,3),(0.0201333653539373,0.220192487278476),
 .UNSPECIFIED.)
CURVE()
GEOMETRIC_REPRESENTATION_ITEM()
RATIONAL_B_SPLINE_CURVE((1.,1.,1.))
REPRESENTATION_ITEM('')
);
#60=(
BOUNDED_CURVE()
B_SPLINE_CURVE(2,(#1738,#1739,#1740),.UNSPECIFIED.,.F.,.F.)
B_SPLINE_CURVE_WITH_KNOTS((3,3),(0.0198513937526686,0.219910547274968),
 .UNSPECIFIED.)
CURVE()
GEOMETRIC_REPRESENTATION_ITEM()
RATIONAL_B_SPLINE_CURVE((1.,1.,1.))
REPRESENTATION_ITEM('')
);
#61=(
BOUNDED_CURVE()
B_SPLINE_CURVE(2,(#1744,#1745,#1746),.UNSPECIFIED.,.F.,.F.)
B_SPLINE_CURVE_WITH_KNOTS((3,3),(0.0198513937525881,0.219910547274885),
 .UNSPECIFIED.)
CURVE()
GEOMETRIC_REPRESENTATION_ITEM()
RATIONAL_B_SPLINE_CURVE((1.,1.,1.))
REPRESENTATION_ITEM('')
);
#62=(
BOUNDED_CURVE()
B_SPLINE_CURVE(2,(#1750,#1751,#1752),.UNSPECIFIED.,.F.,.F.)
B_SPLINE_CURVE_WITH_KNOTS((3,3),(0.0201333652811342,0.220192487207328),
 .UNSPECIFIED.)
CURVE()
GEOMETRIC_REPRESENTATION_ITEM()
RATIONAL_B_SPLINE_CURVE((1.,1.,1.))
REPRESENTATION_ITEM('')
);
#63=FACE_BOUND('',#159,.T.);
#64=PLANE('',#993);
#65=PLANE('',#995);
#66=PLANE('',#997);
#67=PLANE('',#999);
#68=PLANE('',#1001);
#69=PLANE('',#1003);
#70=PLANE('',#1005);
#71=PLANE('',#1007);
#72=PLANE('',#1035);
#73=PLANE('',#1036);
#74=PLANE('',#1037);
#75=PLANE('',#1041);
#76=PLANE('',#1043);
#77=PLANE('',#1046);
#78=PLANE('',#1049);
#79=PLANE('',#1050);
#80=PLANE('',#1051);
#81=PLANE('',#1055);
#82=PLANE('',#1057);
#83=PLANE('',#1060);
#84=PLANE('',#1063);
#85=PLANE('',#1064);
#86=PLANE('',#1067);
#87=PLANE('',#1070);
#88=PLANE('',#1071);
#89=PLANE('',#1074);
#90=PLANE('',#1077);
#91=PLANE('',#1078);
#92=PLANE('',#1079);
#93=PLANE('',#1083);
#94=PLANE('',#1085);
#95=PLANE('',#1088);
#96=PLANE('',#1091);
#97=FACE_OUTER_BOUND('',#148,.T.);
#98=FACE_OUTER_BOUND('',#149,.T.);
#99=FACE_OUTER_BOUND('',#150,.T.);
#100=FACE_OUTER_BOUND('',#151,.T.);
#101=FACE_OUTER_BOUND('',#152,.T.);
#102=FACE_OUTER_BOUND('',#153,.T.);
#103=FACE_OUTER_BOUND('',#154,.T.);
#104=FACE_OUTER_BOUND('',#155,.T.);
#105=FACE_OUTER_BOUND('',#156,.T.);
#106=FACE_OUTER_BOUND('',#157,.T.);
#107=FACE_OUTER_BOUND('',#158,.T.);
#108=FACE_OUTER_BOUND('',#160,.T.);
#109=FACE_OUTER_BOUND('',#161,.T.);
#110=FACE_OUTER_BOUND('',#162,.T.);
#111=FACE_OUTER_BOUND('',#163,.T.);
#112=FACE_OUTER_BOUND('',#164,.T.);
#113=FACE_OUTER_BOUND('',#165,.T.);
#114=FACE_OUTER_BOUND('',#166,.T.);
#115=FACE_OUTER_BOUND('',#167,.T.);
#116=FACE_OUTER_BOUND('',#168,.T.);
#117=FACE_OUTER_BOUND('',#169,.T.);
#118=FACE_OUTER_BOUND('',#170,.T.);
#119=FACE_OUTER_BOUND('',#171,.T.);
#120=FACE_OUTER_BOUND('',#172,.T.);
#121=FACE_OUTER_BOUND('',#173,.T.);
#122=FACE_OUTER_BOUND('',#174,.T.);
#123=FACE_OUTER_BOUND('',#175,.T.);
#124=FACE_OUTER_BOUND('',#176,.T.);
#125=FACE_OUTER_BOUND('',#177,.T.);
#126=FACE_OUTER_BOUND('',#178,.T.);
#127=FACE_OUTER_BOUND('',#179,.T.);
#128=FACE_OUTER_BOUND('',#180,.T.);
#129=FACE_OUTER_BOUND('',#181,.T.);
#130=FACE_OUTER_BOUND('',#182,.T.);
#131=FACE_OUTER_BOUND('',#183,.T.);
#132=FACE_OUTER_BOUND('',#184,.T.);
#133=FACE_OUTER_BOUND('',#185,.T.);
#134=FACE_OUTER_BOUND('',#186,.T.);
#135=FACE_OUTER_BOUND('',#187,.T.);
#136=FACE_OUTER_BOUND('',#188,.T.);
#137=FACE_OUTER_BOUND('',#189,.T.);
#138=FACE_OUTER_BOUND('',#190,.T.);
#139=FACE_OUTER_BOUND('',#191,.T.);
#140=FACE_OUTER_BOUND('',#192,.T.);
#141=FACE_OUTER_BOUND('',#193,.T.);
#142=FACE_OUTER_BOUND('',#194,.T.);
#143=FACE_OUTER_BOUND('',#195,.T.);
#144=FACE_OUTER_BOUND('',#196,.T.);
#145=FACE_OUTER_BOUND('',#197,.T.);
#146=FACE_OUTER_BOUND('',#198,.T.);
#147=FACE_OUTER_BOUND('',#199,.T.);
#148=EDGE_LOOP('',(#596,#597,#598,#599,#600,#601,#602,#603,#604,#605,#606,
#607,#608,#609,#610,#611,#612,#613,#614,#615,#616,#617,#618,#619,#620,#621,
#622,#623,#624,#625,#626,#627,#628,#629,#630));
#149=EDGE_LOOP('',(#631,#632,#633,#634));
#150=EDGE_LOOP('',(#635,#636,#637,#638));
#151=EDGE_LOOP('',(#639,#640,#641,#642));
#152=EDGE_LOOP('',(#643,#644,#645,#646));
#153=EDGE_LOOP('',(#647,#648,#649,#650));
#154=EDGE_LOOP('',(#651,#652,#653,#654));
#155=EDGE_LOOP('',(#655,#656,#657,#658));
#156=EDGE_LOOP('',(#659,#660,#661,#662));
#157=EDGE_LOOP('',(#663,#664,#665,#666,#667,#668,#669,#670,#671,#672,#673,
#674,#675,#676,#677,#678,#679,#680,#681,#682,#683,#684,#685,#686,#687,#688,
#689,#690,#691,#692,#693,#694,#695,#696,#697));
#158=EDGE_LOOP('',(#698));
#159=EDGE_LOOP('',(#699));
#160=EDGE_LOOP('',(#700,#701,#702,#703,#704,#705));
#161=EDGE_LOOP('',(#706,#707,#708,#709));
#162=EDGE_LOOP('',(#710,#711,#712,#713));
#163=EDGE_LOOP('',(#714,#715,#716,#717,#718,#719));
#164=EDGE_LOOP('',(#720,#721,#722,#723));
#165=EDGE_LOOP('',(#724,#725,#726,#727,#728,#729));
#166=EDGE_LOOP('',(#730,#731,#732,#733));
#167=EDGE_LOOP('',(#734,#735,#736,#737,#738,#739));
#168=EDGE_LOOP('',(#740,#741,#742,#743));
#169=EDGE_LOOP('',(#744,#745,#746,#747));
#170=EDGE_LOOP('',(#748,#749,#750,#751,#752,#753));
#171=EDGE_LOOP('',(#754,#755,#756,#757));
#172=EDGE_LOOP('',(#758,#759,#760,#761));
#173=EDGE_LOOP('',(#762,#763,#764,#765,#766,#767));
#174=EDGE_LOOP('',(#768,#769,#770,#771));
#175=EDGE_LOOP('',(#772,#773,#774,#775,#776,#777));
#176=EDGE_LOOP('',(#778,#779,#780,#781));
#177=EDGE_LOOP('',(#782,#783,#784,#785,#786,#787));
#178=EDGE_LOOP('',(#788,#789,#790,#791));
#179=EDGE_LOOP('',(#792,#793,#794,#795));
#180=EDGE_LOOP('',(#796,#797,#798,#799,#800,#801));
#181=EDGE_LOOP('',(#802,#803,#804,#805));
#182=EDGE_LOOP('',(#806,#807,#808,#809,#810,#811));
#183=EDGE_LOOP('',(#812,#813,#814,#815));
#184=EDGE_LOOP('',(#816,#817,#818,#819));
#185=EDGE_LOOP('',(#820,#821,#822,#823,#824,#825));
#186=EDGE_LOOP('',(#826,#827,#828,#829));
#187=EDGE_LOOP('',(#830,#831,#832,#833,#834,#835));
#188=EDGE_LOOP('',(#836,#837,#838,#839));
#189=EDGE_LOOP('',(#840,#841,#842,#843));
#190=EDGE_LOOP('',(#844,#845,#846,#847,#848,#849));
#191=EDGE_LOOP('',(#850,#851,#852,#853));
#192=EDGE_LOOP('',(#854,#855,#856,#857));
#193=EDGE_LOOP('',(#858,#859,#860,#861,#862,#863));
#194=EDGE_LOOP('',(#864,#865,#866,#867));
#195=EDGE_LOOP('',(#868,#869,#870,#871,#872,#873));
#196=EDGE_LOOP('',(#874,#875,#876,#877));
#197=EDGE_LOOP('',(#878,#879,#880,#881,#882,#883));
#198=EDGE_LOOP('',(#884,#885,#886,#887));
#199=EDGE_LOOP('',(#888,#889,#890,#891));
#200=ELLIPSE('',#962,143.246721246373,2.5);
#201=ELLIPSE('',#964,143.246721246373,2.5);
#202=ELLIPSE('',#966,143.246721246376,2.5);
#203=ELLIPSE('',#968,143.246721246375,2.5);
#204=ELLIPSE('',#970,143.246721246375,2.5);
#205=ELLIPSE('',#972,143.246721246375,2.5);
#206=ELLIPSE('',#974,143.246721246376,2.5);
#207=ELLIPSE('',#976,143.246721246375,2.5);
#208=ELLIPSE('',#978,143.246721246374,2.5);
#209=ELLIPSE('',#980,143.246721246375,2.5);
#210=ELLIPSE('',#982,143.246721246376,2.5);
#211=ELLIPSE('',#984,143.246721246377,2.5);
#212=ELLIPSE('',#986,143.246721246375,2.5);
#213=ELLIPSE('',#988,143.246721246378,2.5);
#214=ELLIPSE('',#990,143.246721246374,2.5);
#215=ELLIPSE('',#992,143.246721246377,2.5);
#216=ELLIPSE('',#1011,171.896065495652,3.);
#217=ELLIPSE('',#1012,171.896065495649,3.);
#218=ELLIPSE('',#1014,171.896065495654,3.);
#219=ELLIPSE('',#1015,171.896065495649,3.);
#220=ELLIPSE('',#1017,171.896065495652,3.);
#221=ELLIPSE('',#1018,171.896065495652,3.);
#222=ELLIPSE('',#1020,171.89606549565,3.);
#223=ELLIPSE('',#1021,171.896065495649,3.);
#224=ELLIPSE('',#1023,171.896065495651,3.);
#225=ELLIPSE('',#1024,171.896065495651,3.);
#226=ELLIPSE('',#1026,171.89606549565,3.);
#227=ELLIPSE('',#1027,171.896065495651,3.);
#228=ELLIPSE('',#1029,171.89606549565,3.);
#229=ELLIPSE('',#1030,171.896065495652,3.);
#230=ELLIPSE('',#1032,171.896065495648,3.);
#231=ELLIPSE('',#1033,171.896065495648,3.);
#232=LINE('',#1399,#266);
#233=LINE('',#1465,#267);
#234=LINE('',#1468,#268);
#235=LINE('',#1471,#269);
#236=LINE('',#1474,#270);
#237=LINE('',#1477,#271);
#238=LINE('',#1480,#272);
#239=LINE('',#1483,#273);
#240=LINE('',#1485,#274);
#241=LINE('',#1489,#275);
#242=LINE('',#1491,#276);
#243=LINE('',#1495,#277);
#244=LINE('',#1497,#278);
#245=LINE('',#1501,#279);
#246=LINE('',#1504,#280);
#247=LINE('',#1507,#281);
#248=LINE('',#1509,#282);
#249=LINE('',#1515,#283);
#250=LINE('',#1562,#284);
#251=LINE('',#1570,#285);
#252=LINE('',#1587,#286);
#253=LINE('',#1599,#287);
#254=LINE('',#1612,#288);
#255=LINE('',#1620,#289);
#256=LINE('',#1637,#290);
#257=LINE('',#1649,#291);
#258=LINE('',#1662,#292);
#259=LINE('',#1674,#293);
#260=LINE('',#1687,#294);
#261=LINE('',#1699,#295);
#262=LINE('',#1712,#296);
#263=LINE('',#1720,#297);
#264=LINE('',#1737,#298);
#265=LINE('',#1749,#299);
#266=VECTOR('',#1098,2.5);
#267=VECTOR('',#1165,10.);
#268=VECTOR('',#1168,10.);
#269=VECTOR('',#1171,10.);
#270=VECTOR('',#1174,10.);
#271=VECTOR('',#1177,10.);
#272=VECTOR('',#1180,10.);
#273=VECTOR('',#1183,10.);
#274=VECTOR('',#1184,10.);
#275=VECTOR('',#1189,10.);
#276=VECTOR('',#1190,10.);
#277=VECTOR('',#1195,10.);
#278=VECTOR('',#1196,10.);
#279=VECTOR('',#1201,10.);
#280=VECTOR('',#1204,10.);
#281=VECTOR('',#1207,10.);
#282=VECTOR('',#1208,10.);
#283=VECTOR('',#1215,3.);
#284=VECTOR('',#1268,10.);
#285=VECTOR('',#1273,10.);
#286=VECTOR('',#1284,10.);
#287=VECTOR('',#1291,10.);
#288=VECTOR('',#1300,10.);
#289=VECTOR('',#1305,10.);
#290=VECTOR('',#1316,10.);
#291=VECTOR('',#1323,10.);
#292=VECTOR('',#1332,10.);
#293=VECTOR('',#1339,10.);
#294=VECTOR('',#1348,10.);
#295=VECTOR('',#1355,10.);
#296=VECTOR('',#1364,10.);
#297=VECTOR('',#1369,10.);
#298=VECTOR('',#1380,10.);
#299=VECTOR('',#1387,10.);
#300=CIRCLE('',#960,2.5);
#301=CIRCLE('',#961,2.5);
#302=CIRCLE('',#963,2.5);
#303=CIRCLE('',#965,2.5);
#304=CIRCLE('',#967,2.5);
#305=CIRCLE('',#969,2.5);
#306=CIRCLE('',#971,2.5);
#307=CIRCLE('',#973,2.5);
#308=CIRCLE('',#975,2.5);
#309=CIRCLE('',#977,2.5);
#310=CIRCLE('',#979,2.5);
#311=CIRCLE('',#981,2.5);
#312=CIRCLE('',#983,2.5);
#313=CIRCLE('',#985,2.5);
#314=CIRCLE('',#987,2.5);
#315=CIRCLE('',#989,2.5);
#316=CIRCLE('',#991,2.5);
#317=CIRCLE('',#994,3.);
#318=CIRCLE('',#996,3.);
#319=CIRCLE('',#998,3.);
#320=CIRCLE('',#1000,3.);
#321=CIRCLE('',#1002,3.);
#322=CIRCLE('',#1004,3.);
#323=CIRCLE('',#1006,3.);
#324=CIRCLE('',#1008,3.);
#325=CIRCLE('',#1010,3.);
#326=CIRCLE('',#1013,3.);
#327=CIRCLE('',#1016,3.);
#328=CIRCLE('',#1019,3.);
#329=CIRCLE('',#1022,3.);
#330=CIRCLE('',#1025,3.);
#331=CIRCLE('',#1028,3.);
#332=CIRCLE('',#1031,3.);
#333=CIRCLE('',#1034,3.);
#334=CIRCLE('',#1038,3.03491012985644);
#335=CIRCLE('',#1039,2.46508987014356);
#336=CIRCLE('',#1045,2.46508987014356);
#337=CIRCLE('',#1048,3.03491012985644);
#338=CIRCLE('',#1052,3.03491012985644);
#339=CIRCLE('',#1053,2.46508987014356);
#340=CIRCLE('',#1059,2.46508987014356);
#341=CIRCLE('',#1062,3.03491012985644);
#342=CIRCLE('',#1066,2.46508987014356);
#343=CIRCLE('',#1069,3.03491012985644);
#344=CIRCLE('',#1073,2.46508987014356);
#345=CIRCLE('',#1076,3.03491012985644);
#346=CIRCLE('',#1080,3.03491012985644);
#347=CIRCLE('',#1081,2.46508987014356);
#348=CIRCLE('',#1087,2.46508987014356);
#349=CIRCLE('',#1090,3.03491012985644);
#350=VERTEX_POINT('',#1396);
#351=VERTEX_POINT('',#1398);
#352=VERTEX_POINT('',#1400);
#353=VERTEX_POINT('',#1402);
#354=VERTEX_POINT('',#1404);
#355=VERTEX_POINT('',#1406);
#356=VERTEX_POINT('',#1408);
#357=VERTEX_POINT('',#1410);
#358=VERTEX_POINT('',#1412);
#359=VERTEX_POINT('',#1414);
#360=VERTEX_POINT('',#1416);
#361=VERTEX_POINT('',#1418);
#362=VERTEX_POINT('',#1420);
#363=VERTEX_POINT('',#1422);
#364=VERTEX_POINT('',#1424);
#365=VERTEX_POINT('',#1426);
#366=VERTEX_POINT('',#1428);
#367=VERTEX_POINT('',#1430);
#368=VERTEX_POINT('',#1432);
#369=VERTEX_POINT('',#1434);
#370=VERTEX_POINT('',#1436);
#371=VERTEX_POINT('',#1438);
#372=VERTEX_POINT('',#1440);
#373=VERTEX_POINT('',#1442);
#374=VERTEX_POINT('',#1444);
#375=VERTEX_POINT('',#1446);
#376=VERTEX_POINT('',#1448);
#377=VERTEX_POINT('',#1450);
#378=VERTEX_POINT('',#1452);
#379=VERTEX_POINT('',#1454);
#380=VERTEX_POINT('',#1456);
#381=VERTEX_POINT('',#1458);
#382=VERTEX_POINT('',#1460);
#383=VERTEX_POINT('',#1464);
#384=VERTEX_POINT('',#1466);
#385=VERTEX_POINT('',#1470);
#386=VERTEX_POINT('',#1472);
#387=VERTEX_POINT('',#1476);
#388=VERTEX_POINT('',#1478);
#389=VERTEX_POINT('',#1482);
#390=VERTEX_POINT('',#1484);
#391=VERTEX_POINT('',#1488);
#392=VERTEX_POINT('',#1490);
#393=VERTEX_POINT('',#1494);
#394=VERTEX_POINT('',#1496);
#395=VERTEX_POINT('',#1500);
#396=VERTEX_POINT('',#1502);
#397=VERTEX_POINT('',#1506);
#398=VERTEX_POINT('',#1508);
#399=VERTEX_POINT('',#1512);
#400=VERTEX_POINT('',#1514);
#401=VERTEX_POINT('',#1517);
#402=VERTEX_POINT('',#1519);
#403=VERTEX_POINT('',#1522);
#404=VERTEX_POINT('',#1524);
#405=VERTEX_POINT('',#1527);
#406=VERTEX_POINT('',#1529);
#407=VERTEX_POINT('',#1532);
#408=VERTEX_POINT('',#1534);
#409=VERTEX_POINT('',#1537);
#410=VERTEX_POINT('',#1539);
#411=VERTEX_POINT('',#1542);
#412=VERTEX_POINT('',#1544);
#413=VERTEX_POINT('',#1547);
#414=VERTEX_POINT('',#1549);
#415=VERTEX_POINT('',#1552);
#416=VERTEX_POINT('',#1557);
#417=VERTEX_POINT('',#1561);
#418=VERTEX_POINT('',#1567);
#419=VERTEX_POINT('',#1569);
#420=VERTEX_POINT('',#1582);
#421=VERTEX_POINT('',#1586);
#422=VERTEX_POINT('',#1592);
#423=VERTEX_POINT('',#1598);
#424=VERTEX_POINT('',#1607);
#425=VERTEX_POINT('',#1611);
#426=VERTEX_POINT('',#1617);
#427=VERTEX_POINT('',#1619);
#428=VERTEX_POINT('',#1632);
#429=VERTEX_POINT('',#1636);
#430=VERTEX_POINT('',#1642);
#431=VERTEX_POINT('',#1648);
#432=VERTEX_POINT('',#1657);
#433=VERTEX_POINT('',#1661);
#434=VERTEX_POINT('',#1667);
#435=VERTEX_POINT('',#1673);
#436=VERTEX_POINT('',#1682);
#437=VERTEX_POINT('',#1686);
#438=VERTEX_POINT('',#1692);
#439=VERTEX_POINT('',#1698);
#440=VERTEX_POINT('',#1707);
#441=VERTEX_POINT('',#1711);
#442=VERTEX_POINT('',#1717);
#443=VERTEX_POINT('',#1719);
#444=VERTEX_POINT('',#1732);
#445=VERTEX_POINT('',#1736);
#446=VERTEX_POINT('',#1742);
#447=VERTEX_POINT('',#1748);
#448=EDGE_CURVE('',#350,#350,#300,.T.);
#449=EDGE_CURVE('',#350,#351,#232,.T.);
#450=EDGE_CURVE('',#351,#352,#301,.T.);
#451=EDGE_CURVE('',#353,#352,#200,.T.);
#452=EDGE_CURVE('',#354,#353,#302,.T.);
#453=EDGE_CURVE('',#355,#354,#201,.T.);
#454=EDGE_CURVE('',#355,#356,#303,.T.);
#455=EDGE_CURVE('',#357,#356,#202,.T.);
#456=EDGE_CURVE('',#358,#357,#304,.T.);
#457=EDGE_CURVE('',#359,#358,#203,.T.);
#458=EDGE_CURVE('',#359,#360,#305,.T.);
#459=EDGE_CURVE('',#361,#360,#204,.T.);
#460=EDGE_CURVE('',#362,#361,#306,.T.);
#461=EDGE_CURVE('',#363,#362,#205,.T.);
#462=EDGE_CURVE('',#363,#364,#307,.T.);
#463=EDGE_CURVE('',#365,#364,#206,.T.);
#464=EDGE_CURVE('',#366,#365,#308,.T.);
#465=EDGE_CURVE('',#367,#366,#207,.T.);
#466=EDGE_CURVE('',#367,#368,#309,.T.);
#467=EDGE_CURVE('',#369,#368,#208,.T.);
#468=EDGE_CURVE('',#370,#369,#310,.T.);
#469=EDGE_CURVE('',#371,#370,#209,.T.);
#470=EDGE_CURVE('',#371,#372,#311,.T.);
#471=EDGE_CURVE('',#373,#372,#210,.T.);
#472=EDGE_CURVE('',#374,#373,#312,.T.);
#473=EDGE_CURVE('',#375,#374,#211,.T.);
#474=EDGE_CURVE('',#375,#376,#313,.T.);
#475=EDGE_CURVE('',#377,#376,#212,.T.);
#476=EDGE_CURVE('',#378,#377,#314,.T.);
#477=EDGE_CURVE('',#379,#378,#213,.T.);
#478=EDGE_CURVE('',#379,#380,#315,.T.);
#479=EDGE_CURVE('',#381,#380,#214,.T.);
#480=EDGE_CURVE('',#382,#381,#316,.T.);
#481=EDGE_CURVE('',#351,#382,#215,.T.);
#482=EDGE_CURVE('',#383,#377,#233,.T.);
#483=EDGE_CURVE('',#383,#384,#317,.T.);
#484=EDGE_CURVE('',#378,#384,#234,.T.);
#485=EDGE_CURVE('',#385,#373,#235,.T.);
#486=EDGE_CURVE('',#385,#386,#318,.T.);
#487=EDGE_CURVE('',#374,#386,#236,.T.);
#488=EDGE_CURVE('',#387,#365,#237,.T.);
#489=EDGE_CURVE('',#387,#388,#319,.T.);
#490=EDGE_CURVE('',#366,#388,#238,.T.);
#491=EDGE_CURVE('',#382,#389,#239,.T.);
#492=EDGE_CURVE('',#390,#381,#240,.T.);
#493=EDGE_CURVE('',#390,#389,#320,.T.);
#494=EDGE_CURVE('',#354,#391,#241,.T.);
#495=EDGE_CURVE('',#392,#353,#242,.T.);
#496=EDGE_CURVE('',#392,#391,#321,.T.);
#497=EDGE_CURVE('',#358,#393,#243,.T.);
#498=EDGE_CURVE('',#394,#357,#244,.T.);
#499=EDGE_CURVE('',#394,#393,#322,.T.);
#500=EDGE_CURVE('',#395,#361,#245,.T.);
#501=EDGE_CURVE('',#395,#396,#323,.T.);
#502=EDGE_CURVE('',#362,#396,#246,.T.);
#503=EDGE_CURVE('',#370,#397,#247,.T.);
#504=EDGE_CURVE('',#398,#369,#248,.T.);
#505=EDGE_CURVE('',#398,#397,#324,.T.);
#506=EDGE_CURVE('',#399,#399,#325,.T.);
#507=EDGE_CURVE('',#399,#400,#249,.T.);
#508=EDGE_CURVE('',#389,#400,#216,.T.);
#509=EDGE_CURVE('',#401,#390,#217,.T.);
#510=EDGE_CURVE('',#401,#402,#326,.T.);
#511=EDGE_CURVE('',#384,#402,#218,.T.);
#512=EDGE_CURVE('',#403,#383,#219,.T.);
#513=EDGE_CURVE('',#403,#404,#327,.T.);
#514=EDGE_CURVE('',#386,#404,#220,.T.);
#515=EDGE_CURVE('',#405,#385,#221,.T.);
#516=EDGE_CURVE('',#405,#406,#328,.T.);
#517=EDGE_CURVE('',#397,#406,#222,.T.);
#518=EDGE_CURVE('',#407,#398,#223,.T.);
#519=EDGE_CURVE('',#407,#408,#329,.T.);
#520=EDGE_CURVE('',#388,#408,#224,.T.);
#521=EDGE_CURVE('',#409,#387,#225,.T.);
#522=EDGE_CURVE('',#409,#410,#330,.T.);
#523=EDGE_CURVE('',#396,#410,#226,.T.);
#524=EDGE_CURVE('',#411,#395,#227,.T.);
#525=EDGE_CURVE('',#411,#412,#331,.T.);
#526=EDGE_CURVE('',#393,#412,#228,.T.);
#527=EDGE_CURVE('',#413,#394,#229,.T.);
#528=EDGE_CURVE('',#413,#414,#332,.T.);
#529=EDGE_CURVE('',#391,#414,#230,.T.);
#530=EDGE_CURVE('',#415,#392,#231,.T.);
#531=EDGE_CURVE('',#415,#400,#333,.T.);
#532=EDGE_CURVE('',#402,#416,#31,.T.);
#533=EDGE_CURVE('',#416,#417,#250,.T.);
#534=EDGE_CURVE('',#379,#417,#32,.T.);
#535=EDGE_CURVE('',#418,#416,#334,.T.);
#536=EDGE_CURVE('',#419,#418,#251,.T.);
#537=EDGE_CURVE('',#417,#419,#335,.T.);
#538=EDGE_CURVE('',#401,#418,#33,.T.);
#539=EDGE_CURVE('',#380,#419,#34,.T.);
#540=EDGE_CURVE('',#404,#420,#35,.T.);
#541=EDGE_CURVE('',#420,#421,#252,.T.);
#542=EDGE_CURVE('',#375,#421,#36,.T.);
#543=EDGE_CURVE('',#421,#422,#336,.T.);
#544=EDGE_CURVE('',#376,#422,#37,.T.);
#545=EDGE_CURVE('',#422,#423,#253,.T.);
#546=EDGE_CURVE('',#403,#423,#38,.T.);
#547=EDGE_CURVE('',#423,#420,#337,.T.);
#548=EDGE_CURVE('',#408,#424,#39,.T.);
#549=EDGE_CURVE('',#424,#425,#254,.T.);
#550=EDGE_CURVE('',#367,#425,#40,.T.);
#551=EDGE_CURVE('',#426,#424,#338,.T.);
#552=EDGE_CURVE('',#427,#426,#255,.T.);
#553=EDGE_CURVE('',#425,#427,#339,.T.);
#554=EDGE_CURVE('',#407,#426,#41,.T.);
#555=EDGE_CURVE('',#368,#427,#42,.T.);
#556=EDGE_CURVE('',#410,#428,#43,.T.);
#557=EDGE_CURVE('',#428,#429,#256,.T.);
#558=EDGE_CURVE('',#363,#429,#44,.T.);
#559=EDGE_CURVE('',#429,#430,#340,.T.);
#560=EDGE_CURVE('',#364,#430,#45,.T.);
#561=EDGE_CURVE('',#430,#431,#257,.T.);
#562=EDGE_CURVE('',#409,#431,#46,.T.);
#563=EDGE_CURVE('',#431,#428,#341,.T.);
#564=EDGE_CURVE('',#400,#432,#47,.T.);
#565=EDGE_CURVE('',#432,#433,#258,.T.);
#566=EDGE_CURVE('',#351,#433,#48,.T.);
#567=EDGE_CURVE('',#433,#434,#342,.T.);
#568=EDGE_CURVE('',#352,#434,#49,.T.);
#569=EDGE_CURVE('',#434,#435,#259,.T.);
#570=EDGE_CURVE('',#415,#435,#50,.T.);
#571=EDGE_CURVE('',#435,#432,#343,.T.);
#572=EDGE_CURVE('',#414,#436,#51,.T.);
#573=EDGE_CURVE('',#436,#437,#260,.T.);
#574=EDGE_CURVE('',#355,#437,#52,.T.);
#575=EDGE_CURVE('',#437,#438,#344,.T.);
#576=EDGE_CURVE('',#356,#438,#53,.T.);
#577=EDGE_CURVE('',#438,#439,#261,.T.);
#578=EDGE_CURVE('',#413,#439,#54,.T.);
#579=EDGE_CURVE('',#439,#436,#345,.T.);
#580=EDGE_CURVE('',#412,#440,#55,.T.);
#581=EDGE_CURVE('',#440,#441,#262,.T.);
#582=EDGE_CURVE('',#359,#441,#56,.T.);
#583=EDGE_CURVE('',#442,#440,#346,.T.);
#584=EDGE_CURVE('',#443,#442,#263,.T.);
#585=EDGE_CURVE('',#441,#443,#347,.T.);
#586=EDGE_CURVE('',#411,#442,#57,.T.);
#587=EDGE_CURVE('',#360,#443,#58,.T.);
#588=EDGE_CURVE('',#406,#444,#59,.T.);
#589=EDGE_CURVE('',#444,#445,#264,.T.);
#590=EDGE_CURVE('',#371,#445,#60,.T.);
#591=EDGE_CURVE('',#445,#446,#348,.T.);
#592=EDGE_CURVE('',#372,#446,#61,.T.);
#593=EDGE_CURVE('',#446,#447,#265,.T.);
#594=EDGE_CURVE('',#405,#447,#62,.T.);
#595=EDGE_CURVE('',#447,#444,#349,.T.);
#596=ORIENTED_EDGE('',*,*,#448,.F.);
#597=ORIENTED_EDGE('',*,*,#449,.T.);
#598=ORIENTED_EDGE('',*,*,#450,.T.);
#599=ORIENTED_EDGE('',*,*,#451,.F.);
#600=ORIENTED_EDGE('',*,*,#452,.F.);
#601=ORIENTED_EDGE('',*,*,#453,.F.);
#602=ORIENTED_EDGE('',*,*,#454,.T.);
#603=ORIENTED_EDGE('',*,*,#455,.F.);
#604=ORIENTED_EDGE('',*,*,#456,.F.);
#605=ORIENTED_EDGE('',*,*,#457,.F.);
#606=ORIENTED_EDGE('',*,*,#458,.T.);
#607=ORIENTED_EDGE('',*,*,#459,.F.);
#608=ORIENTED_EDGE('',*,*,#460,.F.);
#609=ORIENTED_EDGE('',*,*,#461,.F.);
#610=ORIENTED_EDGE('',*,*,#462,.T.);
#611=ORIENTED_EDGE('',*,*,#463,.F.);
#612=ORIENTED_EDGE('',*,*,#464,.F.);
#613=ORIENTED_EDGE('',*,*,#465,.F.);
#614=ORIENTED_EDGE('',*,*,#466,.T.);
#615=ORIENTED_EDGE('',*,*,#467,.F.);
#616=ORIENTED_EDGE('',*,*,#468,.F.);
#617=ORIENTED_EDGE('',*,*,#469,.F.);
#618=ORIENTED_EDGE('',*,*,#470,.T.);
#619=ORIENTED_EDGE('',*,*,#471,.F.);
#620=ORIENTED_EDGE('',*,*,#472,.F.);
#621=ORIENTED_EDGE('',*,*,#473,.F.);
#622=ORIENTED_EDGE('',*,*,#474,.T.);
#623=ORIENTED_EDGE('',*,*,#475,.F.);
#624=ORIENTED_EDGE('',*,*,#476,.F.);
#625=ORIENTED_EDGE('',*,*,#477,.F.);
#626=ORIENTED_EDGE('',*,*,#478,.T.);
#627=ORIENTED_EDGE('',*,*,#479,.F.);
#628=ORIENTED_EDGE('',*,*,#480,.F.);
#629=ORIENTED_EDGE('',*,*,#481,.F.);
#630=ORIENTED_EDGE('',*,*,#449,.F.);
#631=ORIENTED_EDGE('',*,*,#482,.F.);
#632=ORIENTED_EDGE('',*,*,#483,.T.);
#633=ORIENTED_EDGE('',*,*,#484,.F.);
#634=ORIENTED_EDGE('',*,*,#476,.T.);
#635=ORIENTED_EDGE('',*,*,#485,.F.);
#636=ORIENTED_EDGE('',*,*,#486,.T.);
#637=ORIENTED_EDGE('',*,*,#487,.F.);
#638=ORIENTED_EDGE('',*,*,#472,.T.);
#639=ORIENTED_EDGE('',*,*,#488,.F.);
#640=ORIENTED_EDGE('',*,*,#489,.T.);
#641=ORIENTED_EDGE('',*,*,#490,.F.);
#642=ORIENTED_EDGE('',*,*,#464,.T.);
#643=ORIENTED_EDGE('',*,*,#491,.F.);
#644=ORIENTED_EDGE('',*,*,#480,.T.);
#645=ORIENTED_EDGE('',*,*,#492,.F.);
#646=ORIENTED_EDGE('',*,*,#493,.T.);
#647=ORIENTED_EDGE('',*,*,#494,.F.);
#648=ORIENTED_EDGE('',*,*,#452,.T.);
#649=ORIENTED_EDGE('',*,*,#495,.F.);
#650=ORIENTED_EDGE('',*,*,#496,.T.);
#651=ORIENTED_EDGE('',*,*,#497,.F.);
#652=ORIENTED_EDGE('',*,*,#456,.T.);
#653=ORIENTED_EDGE('',*,*,#498,.F.);
#654=ORIENTED_EDGE('',*,*,#499,.T.);
#655=ORIENTED_EDGE('',*,*,#500,.F.);
#656=ORIENTED_EDGE('',*,*,#501,.T.);
#657=ORIENTED_EDGE('',*,*,#502,.F.);
#658=ORIENTED_EDGE('',*,*,#460,.T.);
#659=ORIENTED_EDGE('',*,*,#503,.F.);
#660=ORIENTED_EDGE('',*,*,#468,.T.);
#661=ORIENTED_EDGE('',*,*,#504,.F.);
#662=ORIENTED_EDGE('',*,*,#505,.T.);
#663=ORIENTED_EDGE('',*,*,#506,.F.);
#664=ORIENTED_EDGE('',*,*,#507,.T.);
#665=ORIENTED_EDGE('',*,*,#508,.F.);
#666=ORIENTED_EDGE('',*,*,#493,.F.);
#667=ORIENTED_EDGE('',*,*,#509,.F.);
#668=ORIENTED_EDGE('',*,*,#510,.T.);
#669=ORIENTED_EDGE('',*,*,#511,.F.);
#670=ORIENTED_EDGE('',*,*,#483,.F.);
#671=ORIENTED_EDGE('',*,*,#512,.F.);
#672=ORIENTED_EDGE('',*,*,#513,.T.);
#673=ORIENTED_EDGE('',*,*,#514,.F.);
#674=ORIENTED_EDGE('',*,*,#486,.F.);
#675=ORIENTED_EDGE('',*,*,#515,.F.);
#676=ORIENTED_EDGE('',*,*,#516,.T.);
#677=ORIENTED_EDGE('',*,*,#517,.F.);
#678=ORIENTED_EDGE('',*,*,#505,.F.);
#679=ORIENTED_EDGE('',*,*,#518,.F.);
#680=ORIENTED_EDGE('',*,*,#519,.T.);
#681=ORIENTED_EDGE('',*,*,#520,.F.);
#682=ORIENTED_EDGE('',*,*,#489,.F.);
#683=ORIENTED_EDGE('',*,*,#521,.F.);
#684=ORIENTED_EDGE('',*,*,#522,.T.);
#685=ORIENTED_EDGE('',*,*,#523,.F.);
#686=ORIENTED_EDGE('',*,*,#501,.F.);
#687=ORIENTED_EDGE('',*,*,#524,.F.);
#688=ORIENTED_EDGE('',*,*,#525,.T.);
#689=ORIENTED_EDGE('',*,*,#526,.F.);
#690=ORIENTED_EDGE('',*,*,#499,.F.);
#691=ORIENTED_EDGE('',*,*,#527,.F.);
#692=ORIENTED_EDGE('',*,*,#528,.T.);
#693=ORIENTED_EDGE('',*,*,#529,.F.);
#694=ORIENTED_EDGE('',*,*,#496,.F.);
#695=ORIENTED_EDGE('',*,*,#530,.F.);
#696=ORIENTED_EDGE('',*,*,#531,.T.);
#697=ORIENTED_EDGE('',*,*,#507,.F.);
#698=ORIENTED_EDGE('',*,*,#506,.T.);
#699=ORIENTED_EDGE('',*,*,#448,.T.);
#700=ORIENTED_EDGE('',*,*,#477,.T.);
#701=ORIENTED_EDGE('',*,*,#484,.T.);
#702=ORIENTED_EDGE('',*,*,#511,.T.);
#703=ORIENTED_EDGE('',*,*,#532,.T.);
#704=ORIENTED_EDGE('',*,*,#533,.T.);
#705=ORIENTED_EDGE('',*,*,#534,.F.);
#706=ORIENTED_EDGE('',*,*,#533,.F.);
#707=ORIENTED_EDGE('',*,*,#535,.F.);
#708=ORIENTED_EDGE('',*,*,#536,.F.);
#709=ORIENTED_EDGE('',*,*,#537,.F.);
#710=ORIENTED_EDGE('',*,*,#535,.T.);
#711=ORIENTED_EDGE('',*,*,#532,.F.);
#712=ORIENTED_EDGE('',*,*,#510,.F.);
#713=ORIENTED_EDGE('',*,*,#538,.T.);
#714=ORIENTED_EDGE('',*,*,#479,.T.);
#715=ORIENTED_EDGE('',*,*,#539,.T.);
#716=ORIENTED_EDGE('',*,*,#536,.T.);
#717=ORIENTED_EDGE('',*,*,#538,.F.);
#718=ORIENTED_EDGE('',*,*,#509,.T.);
#719=ORIENTED_EDGE('',*,*,#492,.T.);
#720=ORIENTED_EDGE('',*,*,#537,.T.);
#721=ORIENTED_EDGE('',*,*,#539,.F.);
#722=ORIENTED_EDGE('',*,*,#478,.F.);
#723=ORIENTED_EDGE('',*,*,#534,.T.);
#724=ORIENTED_EDGE('',*,*,#473,.T.);
#725=ORIENTED_EDGE('',*,*,#487,.T.);
#726=ORIENTED_EDGE('',*,*,#514,.T.);
#727=ORIENTED_EDGE('',*,*,#540,.T.);
#728=ORIENTED_EDGE('',*,*,#541,.T.);
#729=ORIENTED_EDGE('',*,*,#542,.F.);
#730=ORIENTED_EDGE('',*,*,#543,.T.);
#731=ORIENTED_EDGE('',*,*,#544,.F.);
#732=ORIENTED_EDGE('',*,*,#474,.F.);
#733=ORIENTED_EDGE('',*,*,#542,.T.);
#734=ORIENTED_EDGE('',*,*,#475,.T.);
#735=ORIENTED_EDGE('',*,*,#544,.T.);
#736=ORIENTED_EDGE('',*,*,#545,.T.);
#737=ORIENTED_EDGE('',*,*,#546,.F.);
#738=ORIENTED_EDGE('',*,*,#512,.T.);
#739=ORIENTED_EDGE('',*,*,#482,.T.);
#740=ORIENTED_EDGE('',*,*,#547,.T.);
#741=ORIENTED_EDGE('',*,*,#540,.F.);
#742=ORIENTED_EDGE('',*,*,#513,.F.);
#743=ORIENTED_EDGE('',*,*,#546,.T.);
#744=ORIENTED_EDGE('',*,*,#541,.F.);
#745=ORIENTED_EDGE('',*,*,#547,.F.);
#746=ORIENTED_EDGE('',*,*,#545,.F.);
#747=ORIENTED_EDGE('',*,*,#543,.F.);
#748=ORIENTED_EDGE('',*,*,#465,.T.);
#749=ORIENTED_EDGE('',*,*,#490,.T.);
#750=ORIENTED_EDGE('',*,*,#520,.T.);
#751=ORIENTED_EDGE('',*,*,#548,.T.);
#752=ORIENTED_EDGE('',*,*,#549,.T.);
#753=ORIENTED_EDGE('',*,*,#550,.F.);
#754=ORIENTED_EDGE('',*,*,#549,.F.);
#755=ORIENTED_EDGE('',*,*,#551,.F.);
#756=ORIENTED_EDGE('',*,*,#552,.F.);
#757=ORIENTED_EDGE('',*,*,#553,.F.);
#758=ORIENTED_EDGE('',*,*,#551,.T.);
#759=ORIENTED_EDGE('',*,*,#548,.F.);
#760=ORIENTED_EDGE('',*,*,#519,.F.);
#761=ORIENTED_EDGE('',*,*,#554,.T.);
#762=ORIENTED_EDGE('',*,*,#467,.T.);
#763=ORIENTED_EDGE('',*,*,#555,.T.);
#764=ORIENTED_EDGE('',*,*,#552,.T.);
#765=ORIENTED_EDGE('',*,*,#554,.F.);
#766=ORIENTED_EDGE('',*,*,#518,.T.);
#767=ORIENTED_EDGE('',*,*,#504,.T.);
#768=ORIENTED_EDGE('',*,*,#553,.T.);
#769=ORIENTED_EDGE('',*,*,#555,.F.);
#770=ORIENTED_EDGE('',*,*,#466,.F.);
#771=ORIENTED_EDGE('',*,*,#550,.T.);
#772=ORIENTED_EDGE('',*,*,#461,.T.);
#773=ORIENTED_EDGE('',*,*,#502,.T.);
#774=ORIENTED_EDGE('',*,*,#523,.T.);
#775=ORIENTED_EDGE('',*,*,#556,.T.);
#776=ORIENTED_EDGE('',*,*,#557,.T.);
#777=ORIENTED_EDGE('',*,*,#558,.F.);
#778=ORIENTED_EDGE('',*,*,#559,.T.);
#779=ORIENTED_EDGE('',*,*,#560,.F.);
#780=ORIENTED_EDGE('',*,*,#462,.F.);
#781=ORIENTED_EDGE('',*,*,#558,.T.);
#782=ORIENTED_EDGE('',*,*,#463,.T.);
#783=ORIENTED_EDGE('',*,*,#560,.T.);
#784=ORIENTED_EDGE('',*,*,#561,.T.);
#785=ORIENTED_EDGE('',*,*,#562,.F.);
#786=ORIENTED_EDGE('',*,*,#521,.T.);
#787=ORIENTED_EDGE('',*,*,#488,.T.);
#788=ORIENTED_EDGE('',*,*,#563,.T.);
#789=ORIENTED_EDGE('',*,*,#556,.F.);
#790=ORIENTED_EDGE('',*,*,#522,.F.);
#791=ORIENTED_EDGE('',*,*,#562,.T.);
#792=ORIENTED_EDGE('',*,*,#557,.F.);
#793=ORIENTED_EDGE('',*,*,#563,.F.);
#794=ORIENTED_EDGE('',*,*,#561,.F.);
#795=ORIENTED_EDGE('',*,*,#559,.F.);
#796=ORIENTED_EDGE('',*,*,#481,.T.);
#797=ORIENTED_EDGE('',*,*,#491,.T.);
#798=ORIENTED_EDGE('',*,*,#508,.T.);
#799=ORIENTED_EDGE('',*,*,#564,.T.);
#800=ORIENTED_EDGE('',*,*,#565,.T.);
#801=ORIENTED_EDGE('',*,*,#566,.F.);
#802=ORIENTED_EDGE('',*,*,#567,.T.);
#803=ORIENTED_EDGE('',*,*,#568,.F.);
#804=ORIENTED_EDGE('',*,*,#450,.F.);
#805=ORIENTED_EDGE('',*,*,#566,.T.);
#806=ORIENTED_EDGE('',*,*,#451,.T.);
#807=ORIENTED_EDGE('',*,*,#568,.T.);
#808=ORIENTED_EDGE('',*,*,#569,.T.);
#809=ORIENTED_EDGE('',*,*,#570,.F.);
#810=ORIENTED_EDGE('',*,*,#530,.T.);
#811=ORIENTED_EDGE('',*,*,#495,.T.);
#812=ORIENTED_EDGE('',*,*,#571,.T.);
#813=ORIENTED_EDGE('',*,*,#564,.F.);
#814=ORIENTED_EDGE('',*,*,#531,.F.);
#815=ORIENTED_EDGE('',*,*,#570,.T.);
#816=ORIENTED_EDGE('',*,*,#565,.F.);
#817=ORIENTED_EDGE('',*,*,#571,.F.);
#818=ORIENTED_EDGE('',*,*,#569,.F.);
#819=ORIENTED_EDGE('',*,*,#567,.F.);
#820=ORIENTED_EDGE('',*,*,#453,.T.);
#821=ORIENTED_EDGE('',*,*,#494,.T.);
#822=ORIENTED_EDGE('',*,*,#529,.T.);
#823=ORIENTED_EDGE('',*,*,#572,.T.);
#824=ORIENTED_EDGE('',*,*,#573,.T.);
#825=ORIENTED_EDGE('',*,*,#574,.F.);
#826=ORIENTED_EDGE('',*,*,#575,.T.);
#827=ORIENTED_EDGE('',*,*,#576,.F.);
#828=ORIENTED_EDGE('',*,*,#454,.F.);
#829=ORIENTED_EDGE('',*,*,#574,.T.);
#830=ORIENTED_EDGE('',*,*,#455,.T.);
#831=ORIENTED_EDGE('',*,*,#576,.T.);
#832=ORIENTED_EDGE('',*,*,#577,.T.);
#833=ORIENTED_EDGE('',*,*,#578,.F.);
#834=ORIENTED_EDGE('',*,*,#527,.T.);
#835=ORIENTED_EDGE('',*,*,#498,.T.);
#836=ORIENTED_EDGE('',*,*,#579,.T.);
#837=ORIENTED_EDGE('',*,*,#572,.F.);
#838=ORIENTED_EDGE('',*,*,#528,.F.);
#839=ORIENTED_EDGE('',*,*,#578,.T.);
#840=ORIENTED_EDGE('',*,*,#573,.F.);
#841=ORIENTED_EDGE('',*,*,#579,.F.);
#842=ORIENTED_EDGE('',*,*,#577,.F.);
#843=ORIENTED_EDGE('',*,*,#575,.F.);
#844=ORIENTED_EDGE('',*,*,#457,.T.);
#845=ORIENTED_EDGE('',*,*,#497,.T.);
#846=ORIENTED_EDGE('',*,*,#526,.T.);
#847=ORIENTED_EDGE('',*,*,#580,.T.);
#848=ORIENTED_EDGE('',*,*,#581,.T.);
#849=ORIENTED_EDGE('',*,*,#582,.F.);
#850=ORIENTED_EDGE('',*,*,#581,.F.);
#851=ORIENTED_EDGE('',*,*,#583,.F.);
#852=ORIENTED_EDGE('',*,*,#584,.F.);
#853=ORIENTED_EDGE('',*,*,#585,.F.);
#854=ORIENTED_EDGE('',*,*,#583,.T.);
#855=ORIENTED_EDGE('',*,*,#580,.F.);
#856=ORIENTED_EDGE('',*,*,#525,.F.);
#857=ORIENTED_EDGE('',*,*,#586,.T.);
#858=ORIENTED_EDGE('',*,*,#459,.T.);
#859=ORIENTED_EDGE('',*,*,#587,.T.);
#860=ORIENTED_EDGE('',*,*,#584,.T.);
#861=ORIENTED_EDGE('',*,*,#586,.F.);
#862=ORIENTED_EDGE('',*,*,#524,.T.);
#863=ORIENTED_EDGE('',*,*,#500,.T.);
#864=ORIENTED_EDGE('',*,*,#585,.T.);
#865=ORIENTED_EDGE('',*,*,#587,.F.);
#866=ORIENTED_EDGE('',*,*,#458,.F.);
#867=ORIENTED_EDGE('',*,*,#582,.T.);
#868=ORIENTED_EDGE('',*,*,#469,.T.);
#869=ORIENTED_EDGE('',*,*,#503,.T.);
#870=ORIENTED_EDGE('',*,*,#517,.T.);
#871=ORIENTED_EDGE('',*,*,#588,.T.);
#872=ORIENTED_EDGE('',*,*,#589,.T.);
#873=ORIENTED_EDGE('',*,*,#590,.F.);
#874=ORIENTED_EDGE('',*,*,#591,.T.);
#875=ORIENTED_EDGE('',*,*,#592,.F.);
#876=ORIENTED_EDGE('',*,*,#470,.F.);
#877=ORIENTED_EDGE('',*,*,#590,.T.);
#878=ORIENTED_EDGE('',*,*,#471,.T.);
#879=ORIENTED_EDGE('',*,*,#592,.T.);
#880=ORIENTED_EDGE('',*,*,#593,.T.);
#881=ORIENTED_EDGE('',*,*,#594,.F.);
#882=ORIENTED_EDGE('',*,*,#515,.T.);
#883=ORIENTED_EDGE('',*,*,#485,.T.);
#884=ORIENTED_EDGE('',*,*,#595,.T.);
#885=ORIENTED_EDGE('',*,*,#588,.F.);
#886=ORIENTED_EDGE('',*,*,#516,.F.);
#887=ORIENTED_EDGE('',*,*,#594,.T.);
#888=ORIENTED_EDGE('',*,*,#589,.F.);
#889=ORIENTED_EDGE('',*,*,#595,.F.);
#890=ORIENTED_EDGE('',*,*,#593,.F.);
#891=ORIENTED_EDGE('',*,*,#591,.F.);
#892=CYLINDRICAL_SURFACE('',#959,2.5);
#893=CYLINDRICAL_SURFACE('',#1009,3.);
#894=ADVANCED_FACE('',(#97),#892,.F.);
#895=ADVANCED_FACE('',(#98),#64,.F.);
#896=ADVANCED_FACE('',(#99),#65,.F.);
#897=ADVANCED_FACE('',(#100),#66,.F.);
#898=ADVANCED_FACE('',(#101),#67,.F.);
#899=ADVANCED_FACE('',(#102),#68,.F.);
#900=ADVANCED_FACE('',(#103),#69,.F.);
#901=ADVANCED_FACE('',(#104),#70,.F.);
#902=ADVANCED_FACE('',(#105),#71,.F.);
#903=ADVANCED_FACE('',(#106),#893,.T.);
#904=ADVANCED_FACE('',(#107,#63),#72,.T.);
#905=ADVANCED_FACE('',(#108),#73,.T.);
#906=ADVANCED_FACE('',(#109),#74,.F.);
#907=ADVANCED_FACE('',(#110),#15,.T.);
#908=ADVANCED_FACE('',(#111),#75,.T.);
#909=ADVANCED_FACE('',(#112),#16,.F.);
#910=ADVANCED_FACE('',(#113),#76,.T.);
#911=ADVANCED_FACE('',(#114),#17,.F.);
#912=ADVANCED_FACE('',(#115),#77,.T.);
#913=ADVANCED_FACE('',(#116),#18,.T.);
#914=ADVANCED_FACE('',(#117),#78,.F.);
#915=ADVANCED_FACE('',(#118),#79,.T.);
#916=ADVANCED_FACE('',(#119),#80,.F.);
#917=ADVANCED_FACE('',(#120),#19,.T.);
#918=ADVANCED_FACE('',(#121),#81,.T.);
#919=ADVANCED_FACE('',(#122),#20,.F.);
#920=ADVANCED_FACE('',(#123),#82,.T.);
#921=ADVANCED_FACE('',(#124),#21,.F.);
#922=ADVANCED_FACE('',(#125),#83,.T.);
#923=ADVANCED_FACE('',(#126),#22,.T.);
#924=ADVANCED_FACE('',(#127),#84,.F.);
#925=ADVANCED_FACE('',(#128),#85,.T.);
#926=ADVANCED_FACE('',(#129),#23,.F.);
#927=ADVANCED_FACE('',(#130),#86,.T.);
#928=ADVANCED_FACE('',(#131),#24,.T.);
#929=ADVANCED_FACE('',(#132),#87,.F.);
#930=ADVANCED_FACE('',(#133),#88,.T.);
#931=ADVANCED_FACE('',(#134),#25,.F.);
#932=ADVANCED_FACE('',(#135),#89,.T.);
#933=ADVANCED_FACE('',(#136),#26,.T.);
#934=ADVANCED_FACE('',(#137),#90,.F.);
#935=ADVANCED_FACE('',(#138),#91,.T.);
#936=ADVANCED_FACE('',(#139),#92,.F.);
#937=ADVANCED_FACE('',(#140),#27,.T.);
#938=ADVANCED_FACE('',(#141),#93,.T.);
#939=ADVANCED_FACE('',(#142),#28,.F.);
#940=ADVANCED_FACE('',(#143),#94,.T.);
#941=ADVANCED_FACE('',(#144),#29,.F.);
#942=ADVANCED_FACE('',(#145),#95,.T.);
#943=ADVANCED_FACE('',(#146),#30,.T.);
#944=ADVANCED_FACE('',(#147),#96,.F.);
#945=CLOSED_SHELL('',(#894,#895,#896,#897,#898,#899,#900,#901,#902,#903,
#904,#905,#906,#907,#908,#909,#910,#911,#912,#913,#914,#915,#916,#917,#918,
#919,#920,#921,#922,#923,#924,#925,#926,#927,#928,#929,#930,#931,#932,#933,
#934,#935,#936,#937,#938,#939,#940,#941,#942,#943,#944));
#946=DERIVED_UNIT_ELEMENT(#948,1.);
#947=DERIVED_UNIT_ELEMENT(#1761,-3.);
#948=(
MASS_UNIT()
NAMED_UNIT(*)
SI_UNIT(.KILO.,.GRAM.)
);
#949=DERIVED_UNIT((#946,#947));
#950=MEASURE_REPRESENTATION_ITEM('density measure',
POSITIVE_RATIO_MEASURE(7850.),#949);
#951=PROPERTY_DEFINITION_REPRESENTATION(#956,#953);
#952=PROPERTY_DEFINITION_REPRESENTATION(#957,#954);
#953=REPRESENTATION('material name',(#955),#1758);
#954=REPRESENTATION('density',(#950),#1758);
#955=DESCRIPTIVE_REPRESENTATION_ITEM('Steel','Steel');
#956=PROPERTY_DEFINITION('material property','material name',#1768);
#957=PROPERTY_DEFINITION('material property','density of part',#1768);
#958=AXIS2_PLACEMENT_3D('',#1394,#1092,#1093);
#959=AXIS2_PLACEMENT_3D('',#1395,#1094,#1095);
#960=AXIS2_PLACEMENT_3D('',#1397,#1096,#1097);
#961=AXIS2_PLACEMENT_3D('',#1401,#1099,#1100);
#962=AXIS2_PLACEMENT_3D('',#1403,#1101,#1102);
#963=AXIS2_PLACEMENT_3D('',#1405,#1103,#1104);
#964=AXIS2_PLACEMENT_3D('',#1407,#1105,#1106);
#965=AXIS2_PLACEMENT_3D('',#1409,#1107,#1108);
#966=AXIS2_PLACEMENT_3D('',#1411,#1109,#1110);
#967=AXIS2_PLACEMENT_3D('',#1413,#1111,#1112);
#968=AXIS2_PLACEMENT_3D('',#1415,#1113,#1114);
#969=AXIS2_PLACEMENT_3D('',#1417,#1115,#1116);
#970=AXIS2_PLACEMENT_3D('',#1419,#1117,#1118);
#971=AXIS2_PLACEMENT_3D('',#1421,#1119,#1120);
#972=AXIS2_PLACEMENT_3D('',#1423,#1121,#1122);
#973=AXIS2_PLACEMENT_3D('',#1425,#1123,#1124);
#974=AXIS2_PLACEMENT_3D('',#1427,#1125,#1126);
#975=AXIS2_PLACEMENT_3D('',#1429,#1127,#1128);
#976=AXIS2_PLACEMENT_3D('',#1431,#1129,#1130);
#977=AXIS2_PLACEMENT_3D('',#1433,#1131,#1132);
#978=AXIS2_PLACEMENT_3D('',#1435,#1133,#1134);
#979=AXIS2_PLACEMENT_3D('',#1437,#1135,#1136);
#980=AXIS2_PLACEMENT_3D('',#1439,#1137,#1138);
#981=AXIS2_PLACEMENT_3D('',#1441,#1139,#1140);
#982=AXIS2_PLACEMENT_3D('',#1443,#1141,#1142);
#983=AXIS2_PLACEMENT_3D('',#1445,#1143,#1144);
#984=AXIS2_PLACEMENT_3D('',#1447,#1145,#1146);
#985=AXIS2_PLACEMENT_3D('',#1449,#1147,#1148);
#986=AXIS2_PLACEMENT_3D('',#1451,#1149,#1150);
#987=AXIS2_PLACEMENT_3D('',#1453,#1151,#1152);
#988=AXIS2_PLACEMENT_3D('',#1455,#1153,#1154);
#989=AXIS2_PLACEMENT_3D('',#1457,#1155,#1156);
#990=AXIS2_PLACEMENT_3D('',#1459,#1157,#1158);
#991=AXIS2_PLACEMENT_3D('',#1461,#1159,#1160);
#992=AXIS2_PLACEMENT_3D('',#1462,#1161,#1162);
#993=AXIS2_PLACEMENT_3D('',#1463,#1163,#1164);
#994=AXIS2_PLACEMENT_3D('',#1467,#1166,#1167);
#995=AXIS2_PLACEMENT_3D('',#1469,#1169,#1170);
#996=AXIS2_PLACEMENT_3D('',#1473,#1172,#1173);
#997=AXIS2_PLACEMENT_3D('',#1475,#1175,#1176);
#998=AXIS2_PLACEMENT_3D('',#1479,#1178,#1179);
#999=AXIS2_PLACEMENT_3D('',#1481,#1181,#1182);
#1000=AXIS2_PLACEMENT_3D('',#1486,#1185,#1186);
#1001=AXIS2_PLACEMENT_3D('',#1487,#1187,#1188);
#1002=AXIS2_PLACEMENT_3D('',#1492,#1191,#1192);
#1003=AXIS2_PLACEMENT_3D('',#1493,#1193,#1194);
#1004=AXIS2_PLACEMENT_3D('',#1498,#1197,#1198);
#1005=AXIS2_PLACEMENT_3D('',#1499,#1199,#1200);
#1006=AXIS2_PLACEMENT_3D('',#1503,#1202,#1203);
#1007=AXIS2_PLACEMENT_3D('',#1505,#1205,#1206);
#1008=AXIS2_PLACEMENT_3D('',#1510,#1209,#1210);
#1009=AXIS2_PLACEMENT_3D('',#1511,#1211,#1212);
#1010=AXIS2_PLACEMENT_3D('',#1513,#1213,#1214);
#1011=AXIS2_PLACEMENT_3D('',#1516,#1216,#1217);
#1012=AXIS2_PLACEMENT_3D('',#1518,#1218,#1219);
#1013=AXIS2_PLACEMENT_3D('',#1520,#1220,#1221);
#1014=AXIS2_PLACEMENT_3D('',#1521,#1222,#1223);
#1015=AXIS2_PLACEMENT_3D('',#1523,#1224,#1225);
#1016=AXIS2_PLACEMENT_3D('',#1525,#1226,#1227);
#1017=AXIS2_PLACEMENT_3D('',#1526,#1228,#1229);
#1018=AXIS2_PLACEMENT_3D('',#1528,#1230,#1231);
#1019=AXIS2_PLACEMENT_3D('',#1530,#1232,#1233);
#1020=AXIS2_PLACEMENT_3D('',#1531,#1234,#1235);
#1021=AXIS2_PLACEMENT_3D('',#1533,#1236,#1237);
#1022=AXIS2_PLACEMENT_3D('',#1535,#1238,#1239);
#1023=AXIS2_PLACEMENT_3D('',#1536,#1240,#1241);
#1024=AXIS2_PLACEMENT_3D('',#1538,#1242,#1243);
#1025=AXIS2_PLACEMENT_3D('',#1540,#1244,#1245);
#1026=AXIS2_PLACEMENT_3D('',#1541,#1246,#1247);
#1027=AXIS2_PLACEMENT_3D('',#1543,#1248,#1249);
#1028=AXIS2_PLACEMENT_3D('',#1545,#1250,#1251);
#1029=AXIS2_PLACEMENT_3D('',#1546,#1252,#1253);
#1030=AXIS2_PLACEMENT_3D('',#1548,#1254,#1255);
#1031=AXIS2_PLACEMENT_3D('',#1550,#1256,#1257);
#1032=AXIS2_PLACEMENT_3D('',#1551,#1258,#1259);
#1033=AXIS2_PLACEMENT_3D('',#1553,#1260,#1261);
#1034=AXIS2_PLACEMENT_3D('',#1554,#1262,#1263);
#1035=AXIS2_PLACEMENT_3D('',#1555,#1264,#1265);
#1036=AXIS2_PLACEMENT_3D('',#1556,#1266,#1267);
#1037=AXIS2_PLACEMENT_3D('',#1566,#1269,#1270);
#1038=AXIS2_PLACEMENT_3D('',#1568,#1271,#1272);
#1039=AXIS2_PLACEMENT_3D('',#1571,#1274,#1275);
#1040=AXIS2_PLACEMENT_3D('',#1572,#1276,#1277);
#1041=AXIS2_PLACEMENT_3D('',#1576,#1278,#1279);
#1042=AXIS2_PLACEMENT_3D('',#1580,#1280,#1281);
#1043=AXIS2_PLACEMENT_3D('',#1581,#1282,#1283);
#1044=AXIS2_PLACEMENT_3D('',#1591,#1285,#1286);
#1045=AXIS2_PLACEMENT_3D('',#1593,#1287,#1288);
#1046=AXIS2_PLACEMENT_3D('',#1597,#1289,#1290);
#1047=AXIS2_PLACEMENT_3D('',#1603,#1292,#1293);
#1048=AXIS2_PLACEMENT_3D('',#1604,#1294,#1295);
#1049=AXIS2_PLACEMENT_3D('',#1605,#1296,#1297);
#1050=AXIS2_PLACEMENT_3D('',#1606,#1298,#1299);
#1051=AXIS2_PLACEMENT_3D('',#1616,#1301,#1302);
#1052=AXIS2_PLACEMENT_3D('',#1618,#1303,#1304);
#1053=AXIS2_PLACEMENT_3D('',#1621,#1306,#1307);
#1054=AXIS2_PLACEMENT_3D('',#1622,#1308,#1309);
#1055=AXIS2_PLACEMENT_3D('',#1626,#1310,#1311);
#1056=AXIS2_PLACEMENT_3D('',#1630,#1312,#1313);
#1057=AXIS2_PLACEMENT_3D('',#1631,#1314,#1315);
#1058=AXIS2_PLACEMENT_3D('',#1641,#1317,#1318);
#1059=AXIS2_PLACEMENT_3D('',#1643,#1319,#1320);
#1060=AXIS2_PLACEMENT_3D('',#1647,#1321,#1322);
#1061=AXIS2_PLACEMENT_3D('',#1653,#1324,#1325);
#1062=AXIS2_PLACEMENT_3D('',#1654,#1326,#1327);
#1063=AXIS2_PLACEMENT_3D('',#1655,#1328,#1329);
#1064=AXIS2_PLACEMENT_3D('',#1656,#1330,#1331);
#1065=AXIS2_PLACEMENT_3D('',#1666,#1333,#1334);
#1066=AXIS2_PLACEMENT_3D('',#1668,#1335,#1336);
#1067=AXIS2_PLACEMENT_3D('',#1672,#1337,#1338);
#1068=AXIS2_PLACEMENT_3D('',#1678,#1340,#1341);
#1069=AXIS2_PLACEMENT_3D('',#1679,#1342,#1343);
#1070=AXIS2_PLACEMENT_3D('',#1680,#1344,#1345);
#1071=AXIS2_PLACEMENT_3D('',#1681,#1346,#1347);
#1072=AXIS2_PLACEMENT_3D('',#1691,#1349,#1350);
#1073=AXIS2_PLACEMENT_3D('',#1693,#1351,#1352);
#1074=AXIS2_PLACEMENT_3D('',#1697,#1353,#1354);
#1075=AXIS2_PLACEMENT_3D('',#1703,#1356,#1357);
#1076=AXIS2_PLACEMENT_3D('',#1704,#1358,#1359);
#1077=AXIS2_PLACEMENT_3D('',#1705,#1360,#1361);
#1078=AXIS2_PLACEMENT_3D('',#1706,#1362,#1363);
#1079=AXIS2_PLACEMENT_3D('',#1716,#1365,#1366);
#1080=AXIS2_PLACEMENT_3D('',#1718,#1367,#1368);
#1081=AXIS2_PLACEMENT_3D('',#1721,#1370,#1371);
#1082=AXIS2_PLACEMENT_3D('',#1722,#1372,#1373);
#1083=AXIS2_PLACEMENT_3D('',#1726,#1374,#1375);
#1084=AXIS2_PLACEMENT_3D('',#1730,#1376,#1377);
#1085=AXIS2_PLACEMENT_3D('',#1731,#1378,#1379);
#1086=AXIS2_PLACEMENT_3D('',#1741,#1381,#1382);
#1087=AXIS2_PLACEMENT_3D('',#1743,#1383,#1384);
#1088=AXIS2_PLACEMENT_3D('',#1747,#1385,#1386);
#1089=AXIS2_PLACEMENT_3D('',#1753,#1388,#1389);
#1090=AXIS2_PLACEMENT_3D('',#1754,#1390,#1391);
#1091=AXIS2_PLACEMENT_3D('',#1755,#1392,#1393);
#1092=DIRECTION('axis',(0.,0.,1.));
#1093=DIRECTION('refdir',(1.,0.,0.));
#1094=DIRECTION('center_axis',(0.,1.,0.));
#1095=DIRECTION('ref_axis',(1.,0.,0.));
#1096=DIRECTION('center_axis',(0.,-1.,0.));
#1097=DIRECTION('ref_axis',(1.,0.,0.));
#1098=DIRECTION('',(0.,-1.,0.));
#1099=DIRECTION('center_axis',(0.,-1.,0.));
#1100=DIRECTION('ref_axis',(1.,0.,0.));
#1101=DIRECTION('center_axis',(0.57348907788161,0.0174524064372838,-0.819027283464995));
#1102=DIRECTION('ref_axis',(0.0100102890900473,-0.999847695156391,-0.0142961744108634));
#1103=DIRECTION('center_axis',(0.,1.,0.));
#1104=DIRECTION('ref_axis',(1.,0.,0.));
#1105=DIRECTION('center_axis',(-0.706999085398824,0.0174524064372838,0.706999085398824));
#1106=DIRECTION('ref_axis',(0.0123407149398271,0.999847695156391,-0.0123407149398271));
#1107=DIRECTION('center_axis',(0.,-1.,0.));
#1108=DIRECTION('ref_axis',(1.,0.,0.));
#1109=DIRECTION('center_axis',(0.984657762021401,0.0174524064372834,-0.173621730208388));
#1110=DIRECTION('ref_axis',(0.0171872651681569,-0.999847695156391,-0.00303057857373687));
#1111=DIRECTION('center_axis',(0.,1.,0.));
#1112=DIRECTION('ref_axis',(1.,0.,0.));
#1113=DIRECTION('center_axis',(-0.999847695156391,0.0174524064372835,0.));
#1114=DIRECTION('ref_axis',(0.0174524064372835,0.999847695156391,0.));
#1115=DIRECTION('center_axis',(0.,-1.,0.));
#1116=DIRECTION('ref_axis',(1.,0.,0.));
#1117=DIRECTION('center_axis',(0.819027283464995,0.0174524064372835,0.57348907788161));
#1118=DIRECTION('ref_axis',(0.0142961744108632,-0.999847695156391,0.0100102890900471));
#1119=DIRECTION('center_axis',(0.,1.,0.));
#1120=DIRECTION('ref_axis',(1.,0.,0.));
#1121=DIRECTION('center_axis',(-0.706999085399032,0.0174524064372836,-0.706999085398617));
#1122=DIRECTION('ref_axis',(0.0123407149398306,0.999847695156391,0.0123407149398234));
#1123=DIRECTION('center_axis',(0.,-1.,0.));
#1124=DIRECTION('ref_axis',(1.,0.,0.));
#1125=DIRECTION('center_axis',(0.173621730208388,0.0174524064372835,0.984657762021401));
#1126=DIRECTION('ref_axis',(0.00303057857373689,-0.999847695156391,0.017187265168157));
#1127=DIRECTION('center_axis',(0.,1.,0.));
#1128=DIRECTION('ref_axis',(1.,0.,0.));
#1129=DIRECTION('center_axis',(0.,0.0174524064372835,-0.999847695156391));
#1130=DIRECTION('ref_axis',(0.,-0.999847695156391,-0.0174524064372835));
#1131=DIRECTION('center_axis',(0.,-1.,0.));
#1132=DIRECTION('ref_axis',(1.,0.,0.));
#1133=DIRECTION('center_axis',(-0.57348907788161,0.0174524064372837,0.819027283464995));
#1134=DIRECTION('ref_axis',(0.0100102890900472,0.999847695156391,-0.0142961744108633));
#1135=DIRECTION('center_axis',(0.,1.,0.));
#1136=DIRECTION('ref_axis',(1.,0.,0.));
#1137=DIRECTION('center_axis',(0.706999085398824,0.0174524064372836,-0.706999085398824));
#1138=DIRECTION('ref_axis',(0.012340714939827,-0.999847695156391,-0.012340714939827));
#1139=DIRECTION('center_axis',(0.,-1.,0.));
#1140=DIRECTION('ref_axis',(1.,0.,0.));
#1141=DIRECTION('center_axis',(-0.984657762021401,0.0174524064372834,0.173621730208388));
#1142=DIRECTION('ref_axis',(0.0171872651681569,0.999847695156391,-0.00303057857373687));
#1143=DIRECTION('center_axis',(0.,1.,0.));
#1144=DIRECTION('ref_axis',(1.,0.,0.));
#1145=DIRECTION('center_axis',(0.999847695156391,0.0174524064372834,0.));
#1146=DIRECTION('ref_axis',(0.0174524064372834,-0.999847695156391,0.));
#1147=DIRECTION('center_axis',(0.,-1.,0.));
#1148=DIRECTION('ref_axis',(1.,0.,0.));
#1149=DIRECTION('center_axis',(-0.819027283464995,0.0174524064372836,-0.57348907788161));
#1150=DIRECTION('ref_axis',(0.0142961744108632,0.999847695156391,0.0100102890900472));
#1151=DIRECTION('center_axis',(0.,1.,0.));
#1152=DIRECTION('ref_axis',(1.,0.,0.));
#1153=DIRECTION('center_axis',(0.706999085399032,0.0174524064372832,0.706999085398617));
#1154=DIRECTION('ref_axis',(0.0123407149398303,-0.999847695156391,0.0123407149398231));
#1155=DIRECTION('center_axis',(0.,-1.,0.));
#1156=DIRECTION('ref_axis',(1.,0.,0.));
#1157=DIRECTION('center_axis',(-0.173621730208388,0.0174524064372837,-0.984657762021401));
#1158=DIRECTION('ref_axis',(0.00303057857373692,0.999847695156391,0.0171872651681571));
#1159=DIRECTION('center_axis',(0.,1.,0.));
#1160=DIRECTION('ref_axis',(1.,0.,0.));
#1161=DIRECTION('center_axis',(0.,0.0174524064372833,0.999847695156391));
#1162=DIRECTION('ref_axis',(0.,0.999847695156391,-0.0174524064372833));
#1163=DIRECTION('center_axis',(0.,1.,0.));
#1164=DIRECTION('ref_axis',(1.,0.,0.));
#1165=DIRECTION('',(0.573576436351046,0.,-0.819152044288992));
#1166=DIRECTION('center_axis',(0.,-1.,0.));
#1167=DIRECTION('ref_axis',(1.,0.,0.));
#1168=DIRECTION('',(-0.70710678118634,0.,0.707106781186755));
#1169=DIRECTION('center_axis',(0.,1.,0.));
#1170=DIRECTION('ref_axis',(1.,0.,0.));
#1171=DIRECTION('',(-0.17364817766693,0.,-0.984807753012208));
#1172=DIRECTION('center_axis',(0.,-1.,0.));
#1173=DIRECTION('ref_axis',(1.,0.,0.));
#1174=DIRECTION('',(0.,0.,1.));
#1175=DIRECTION('center_axis',(0.,1.,0.));
#1176=DIRECTION('ref_axis',(1.,0.,0.));
#1177=DIRECTION('',(-0.984807753012208,0.,0.17364817766693));
#1178=DIRECTION('center_axis',(0.,-1.,0.));
#1179=DIRECTION('ref_axis',(1.,0.,0.));
#1180=DIRECTION('',(1.,0.,0.));
#1181=DIRECTION('center_axis',(0.,1.,0.));
#1182=DIRECTION('ref_axis',(1.,0.,0.));
#1183=DIRECTION('',(-1.,0.,0.));
#1184=DIRECTION('',(0.984807753012208,0.,-0.17364817766693));
#1185=DIRECTION('center_axis',(0.,-1.,0.));
#1186=DIRECTION('ref_axis',(1.,0.,0.));
#1187=DIRECTION('center_axis',(0.,1.,0.));
#1188=DIRECTION('ref_axis',(1.,0.,0.));
#1189=DIRECTION('',(-0.707106781186547,0.,-0.707106781186547));
#1190=DIRECTION('',(0.819152044288992,0.,0.573576436351046));
#1191=DIRECTION('center_axis',(0.,-1.,0.));
#1192=DIRECTION('ref_axis',(1.,0.,0.));
#1193=DIRECTION('center_axis',(0.,1.,0.));
#1194=DIRECTION('ref_axis',(1.,0.,0.));
#1195=DIRECTION('',(0.,0.,-1.));
#1196=DIRECTION('',(0.173648177666931,0.,0.984807753012208));
#1197=DIRECTION('center_axis',(0.,-1.,0.));
#1198=DIRECTION('ref_axis',(1.,0.,0.));
#1199=DIRECTION('center_axis',(0.,1.,0.));
#1200=DIRECTION('ref_axis',(1.,0.,0.));
#1201=DIRECTION('',(-0.573576436351046,0.,0.819152044288992));
#1202=DIRECTION('center_axis',(0.,-1.,0.));
#1203=DIRECTION('ref_axis',(1.,0.,0.));
#1204=DIRECTION('',(0.70710678118634,0.,-0.707106781186755));
#1205=DIRECTION('center_axis',(0.,1.,0.));
#1206=DIRECTION('ref_axis',(1.,0.,0.));
#1207=DIRECTION('',(0.707106781186547,0.,0.707106781186547));
#1208=DIRECTION('',(-0.819152044288992,0.,-0.573576436351046));
#1209=DIRECTION('center_axis',(0.,-1.,0.));
#1210=DIRECTION('ref_axis',(1.,0.,0.));
#1211=DIRECTION('center_axis',(0.,1.,0.));
#1212=DIRECTION('ref_axis',(1.,0.,0.));
#1213=DIRECTION('center_axis',(0.,1.,0.));
#1214=DIRECTION('ref_axis',(1.,0.,0.));
#1215=DIRECTION('',(0.,-1.,0.));
#1216=DIRECTION('center_axis',(0.,-0.0174524064372833,-0.999847695156391));
#1217=DIRECTION('ref_axis',(0.,0.999847695156391,-0.0174524064372833));
#1218=DIRECTION('center_axis',(0.173621730208388,-0.0174524064372837,0.984657762021401));
#1219=DIRECTION('ref_axis',(0.00303057857373692,0.999847695156391,0.0171872651681571));
#1220=DIRECTION('center_axis',(0.,1.,0.));
#1221=DIRECTION('ref_axis',(1.,0.,0.));
#1222=DIRECTION('center_axis',(-0.706999085399032,-0.0174524064372832,-0.706999085398617));
#1223=DIRECTION('ref_axis',(0.0123407149398303,-0.999847695156391,0.0123407149398231));
#1224=DIRECTION('center_axis',(0.819027283464995,-0.0174524064372836,0.57348907788161));
#1225=DIRECTION('ref_axis',(0.0142961744108632,0.999847695156391,0.0100102890900472));
#1226=DIRECTION('center_axis',(0.,1.,0.));
#1227=DIRECTION('ref_axis',(1.,0.,0.));
#1228=DIRECTION('center_axis',(-0.999847695156391,-0.0174524064372834,0.));
#1229=DIRECTION('ref_axis',(0.0174524064372834,-0.999847695156391,0.));
#1230=DIRECTION('center_axis',(0.984657762021401,-0.0174524064372834,-0.173621730208388));
#1231=DIRECTION('ref_axis',(0.0171872651681569,0.999847695156391,-0.00303057857373687));
#1232=DIRECTION('center_axis',(0.,1.,0.));
#1233=DIRECTION('ref_axis',(1.,0.,0.));
#1234=DIRECTION('center_axis',(-0.706999085398824,-0.0174524064372836,0.706999085398824));
#1235=DIRECTION('ref_axis',(0.012340714939827,-0.999847695156391,-0.012340714939827));
#1236=DIRECTION('center_axis',(0.57348907788161,-0.0174524064372837,-0.819027283464995));
#1237=DIRECTION('ref_axis',(0.0100102890900472,0.999847695156391,-0.0142961744108633));
#1238=DIRECTION('center_axis',(0.,1.,0.));
#1239=DIRECTION('ref_axis',(1.,0.,0.));
#1240=DIRECTION('center_axis',(0.,-0.0174524064372835,0.999847695156391));
#1241=DIRECTION('ref_axis',(0.,-0.999847695156391,-0.0174524064372835));
#1242=DIRECTION('center_axis',(-0.173621730208388,-0.0174524064372835,-0.984657762021401));
#1243=DIRECTION('ref_axis',(0.00303057857373689,-0.999847695156391,0.017187265168157));
#1244=DIRECTION('center_axis',(0.,1.,0.));
#1245=DIRECTION('ref_axis',(1.,0.,0.));
#1246=DIRECTION('center_axis',(0.706999085399032,-0.0174524064372836,0.706999085398617));
#1247=DIRECTION('ref_axis',(0.0123407149398306,0.999847695156391,0.0123407149398234));
#1248=DIRECTION('center_axis',(-0.819027283464995,-0.0174524064372835,-0.57348907788161));
#1249=DIRECTION('ref_axis',(0.0142961744108632,-0.999847695156391,0.0100102890900471));
#1250=DIRECTION('center_axis',(0.,1.,0.));
#1251=DIRECTION('ref_axis',(1.,0.,0.));
#1252=DIRECTION('center_axis',(0.999847695156391,-0.0174524064372835,0.));
#1253=DIRECTION('ref_axis',(0.0174524064372835,0.999847695156391,0.));
#1254=DIRECTION('center_axis',(-0.984657762021401,-0.0174524064372834,0.173621730208388));
#1255=DIRECTION('ref_axis',(0.0171872651681569,-0.999847695156391,-0.00303057857373687));
#1256=DIRECTION('center_axis',(0.,1.,0.));
#1257=DIRECTION('ref_axis',(1.,0.,0.));
#1258=DIRECTION('center_axis',(0.706999085398824,-0.0174524064372838,-0.706999085398824));
#1259=DIRECTION('ref_axis',(0.0123407149398271,0.999847695156391,-0.0123407149398271));
#1260=DIRECTION('center_axis',(-0.57348907788161,-0.0174524064372838,0.819027283464995));
#1261=DIRECTION('ref_axis',(0.0100102890900473,-0.999847695156391,-0.0142961744108634));
#1262=DIRECTION('center_axis',(0.,1.,0.));
#1263=DIRECTION('ref_axis',(1.,0.,0.));
#1264=DIRECTION('center_axis',(0.,1.,0.));
#1265=DIRECTION('ref_axis',(1.,0.,0.));
#1266=DIRECTION('center_axis',(0.706999085399032,0.0174524064372832,0.706999085398617));
#1267=DIRECTION('ref_axis',(-0.70710678118634,0.,0.707106781186755));
#1268=DIRECTION('',(0.70710678118634,0.,-0.707106781186755));
#1269=DIRECTION('center_axis',(0.,1.,0.));
#1270=DIRECTION('ref_axis',(1.,0.,0.));
#1271=DIRECTION('center_axis',(0.,1.,0.));
#1272=DIRECTION('ref_axis',(1.,0.,0.));
#1273=DIRECTION('',(-0.984807753012208,0.,0.17364817766693));
#1274=DIRECTION('center_axis',(0.,-1.,0.));
#1275=DIRECTION('ref_axis',(1.,0.,0.));
#1276=DIRECTION('center_axis',(0.,-1.,0.));
#1277=DIRECTION('ref_axis',(1.,0.,0.));
#1278=DIRECTION('center_axis',(-0.173621730208388,0.0174524064372837,-0.984657762021401));
#1279=DIRECTION('ref_axis',(0.984807753012208,0.,-0.17364817766693));
#1280=DIRECTION('center_axis',(0.,1.,0.));
#1281=DIRECTION('ref_axis',(1.,0.,0.));
#1282=DIRECTION('center_axis',(0.999847695156391,0.0174524064372834,0.));
#1283=DIRECTION('ref_axis',(0.,0.,1.));
#1284=DIRECTION('',(0.,0.,-1.));
#1285=DIRECTION('center_axis',(0.,1.,0.));
#1286=DIRECTION('ref_axis',(1.,0.,0.));
#1287=DIRECTION('center_axis',(0.,-1.,0.));
#1288=DIRECTION('ref_axis',(1.,0.,0.));
#1289=DIRECTION('center_axis',(-0.819027283464995,0.0174524064372836,-0.57348907788161));
#1290=DIRECTION('ref_axis',(0.573576436351046,0.,-0.819152044288992));
#1291=DIRECTION('',(-0.573576436351046,0.,0.819152044288992));
#1292=DIRECTION('center_axis',(0.,-1.,0.));
#1293=DIRECTION('ref_axis',(1.,0.,0.));
#1294=DIRECTION('center_axis',(0.,1.,0.));
#1295=DIRECTION('ref_axis',(1.,0.,0.));
#1296=DIRECTION('center_axis',(0.,1.,0.));
#1297=DIRECTION('ref_axis',(1.,0.,0.));
#1298=DIRECTION('center_axis',(0.,0.0174524064372835,-0.999847695156391));
#1299=DIRECTION('ref_axis',(1.,0.,0.));
#1300=DIRECTION('',(-1.,0.,0.));
#1301=DIRECTION('center_axis',(0.,1.,0.));
#1302=DIRECTION('ref_axis',(1.,0.,0.));
#1303=DIRECTION('center_axis',(0.,1.,0.));
#1304=DIRECTION('ref_axis',(1.,0.,0.));
#1305=DIRECTION('',(0.819152044288992,0.,0.573576436351046));
#1306=DIRECTION('center_axis',(0.,-1.,0.));
#1307=DIRECTION('ref_axis',(1.,0.,0.));
#1308=DIRECTION('center_axis',(0.,-1.,0.));
#1309=DIRECTION('ref_axis',(1.,0.,0.));
#1310=DIRECTION('center_axis',(-0.57348907788161,0.0174524064372837,0.819027283464995));
#1311=DIRECTION('ref_axis',(-0.819152044288992,0.,-0.573576436351046));
#1312=DIRECTION('center_axis',(0.,1.,0.));
#1313=DIRECTION('ref_axis',(1.,0.,0.));
#1314=DIRECTION('center_axis',(-0.706999085399032,0.0174524064372836,-0.706999085398617));
#1315=DIRECTION('ref_axis',(0.70710678118634,0.,-0.707106781186755));
#1316=DIRECTION('',(-0.70710678118634,0.,0.707106781186755));
#1317=DIRECTION('center_axis',(0.,1.,0.));
#1318=DIRECTION('ref_axis',(1.,0.,0.));
#1319=DIRECTION('center_axis',(0.,-1.,0.));
#1320=DIRECTION('ref_axis',(1.,0.,0.));
#1321=DIRECTION('center_axis',(0.173621730208388,0.0174524064372835,0.984657762021401));
#1322=DIRECTION('ref_axis',(-0.984807753012208,0.,0.17364817766693));
#1323=DIRECTION('',(0.984807753012208,0.,-0.17364817766693));
#1324=DIRECTION('center_axis',(0.,-1.,0.));
#1325=DIRECTION('ref_axis',(1.,0.,0.));
#1326=DIRECTION('center_axis',(0.,1.,0.));
#1327=DIRECTION('ref_axis',(1.,0.,0.));
#1328=DIRECTION('center_axis',(0.,1.,0.));
#1329=DIRECTION('ref_axis',(1.,0.,0.));
#1330=DIRECTION('center_axis',(0.,0.0174524064372833,0.999847695156391));
#1331=DIRECTION('ref_axis',(-1.,0.,0.));
#1332=DIRECTION('',(1.,0.,0.));
#1333=DIRECTION('center_axis',(0.,1.,0.));
#1334=DIRECTION('ref_axis',(-0.953716950748227,0.,-0.300705799504273));
#1335=DIRECTION('center_axis',(0.,-1.,0.));
#1336=DIRECTION('ref_axis',(1.,0.,0.));
#1337=DIRECTION('center_axis',(0.57348907788161,0.0174524064372838,-0.819027283464995));
#1338=DIRECTION('ref_axis',(0.819152044288992,0.,0.573576436351046));
#1339=DIRECTION('',(-0.819152044288992,0.,-0.573576436351046));
#1340=DIRECTION('center_axis',(0.,-1.,0.));
#1341=DIRECTION('ref_axis',(-0.953716950748227,0.,-0.300705799504274));
#1342=DIRECTION('center_axis',(0.,1.,0.));
#1343=DIRECTION('ref_axis',(1.,0.,0.));
#1344=DIRECTION('center_axis',(0.,1.,0.));
#1345=DIRECTION('ref_axis',(1.,0.,0.));
#1346=DIRECTION('center_axis',(-0.706999085398824,0.0174524064372838,0.706999085398824));
#1347=DIRECTION('ref_axis',(-0.707106781186548,0.,-0.707106781186548));
#1348=DIRECTION('',(0.707106781186547,0.,0.707106781186547));
#1349=DIRECTION('center_axis',(0.,1.,0.));
#1350=DIRECTION('ref_axis',(1.,0.,0.));
#1351=DIRECTION('center_axis',(0.,-1.,0.));
#1352=DIRECTION('ref_axis',(1.,0.,0.));
#1353=DIRECTION('center_axis',(0.984657762021401,0.0174524064372834,-0.173621730208388));
#1354=DIRECTION('ref_axis',(0.17364817766693,0.,0.984807753012208));
#1355=DIRECTION('',(-0.17364817766693,0.,-0.984807753012208));
#1356=DIRECTION('center_axis',(0.,-1.,0.));
#1357=DIRECTION('ref_axis',(1.,0.,0.));
#1358=DIRECTION('center_axis',(0.,1.,0.));
#1359=DIRECTION('ref_axis',(1.,0.,0.));
#1360=DIRECTION('center_axis',(0.,1.,0.));
#1361=DIRECTION('ref_axis',(1.,0.,0.));
#1362=DIRECTION('center_axis',(-0.999847695156391,0.0174524064372835,0.));
#1363=DIRECTION('ref_axis',(0.,0.,-1.));
#1364=DIRECTION('',(0.,0.,1.));
#1365=DIRECTION('center_axis',(0.,1.,0.));
#1366=DIRECTION('ref_axis',(1.,0.,0.));
#1367=DIRECTION('center_axis',(0.,1.,0.));
#1368=DIRECTION('ref_axis',(1.,0.,0.));
#1369=DIRECTION('',(0.573576436351046,0.,-0.819152044288992));
#1370=DIRECTION('center_axis',(0.,-1.,0.));
#1371=DIRECTION('ref_axis',(1.,0.,0.));
#1372=DIRECTION('center_axis',(0.,-1.,0.));
#1373=DIRECTION('ref_axis',(1.,0.,0.));
#1374=DIRECTION('center_axis',(0.819027283464995,0.0174524064372835,0.57348907788161));
#1375=DIRECTION('ref_axis',(-0.573576436351046,0.,0.819152044288992));
#1376=DIRECTION('center_axis',(0.,1.,0.));
#1377=DIRECTION('ref_axis',(1.,0.,0.));
#1378=DIRECTION('center_axis',(0.706999085398824,0.0174524064372836,-0.706999085398824));
#1379=DIRECTION('ref_axis',(0.707106781186548,0.,0.707106781186548));
#1380=DIRECTION('',(-0.707106781186547,0.,-0.707106781186547));
#1381=DIRECTION('center_axis',(0.,1.,0.));
#1382=DIRECTION('ref_axis',(1.,0.,0.));
#1383=DIRECTION('center_axis',(0.,-1.,0.));
#1384=DIRECTION('ref_axis',(1.,0.,0.));
#1385=DIRECTION('center_axis',(-0.984657762021401,0.0174524064372834,0.173621730208388));
#1386=DIRECTION('ref_axis',(-0.17364817766693,0.,-0.984807753012208));
#1387=DIRECTION('',(0.17364817766693,0.,0.984807753012208));
#1388=DIRECTION('center_axis',(0.,-1.,0.));
#1389=DIRECTION('ref_axis',(1.,0.,0.));
#1390=DIRECTION('center_axis',(0.,1.,0.));
#1391=DIRECTION('ref_axis',(1.,0.,0.));
#1392=DIRECTION('center_axis',(0.,1.,0.));
#1393=DIRECTION('ref_axis',(1.,0.,0.));
#1394=CARTESIAN_POINT('',(0.,0.,0.));
#1395=CARTESIAN_POINT('Origin',(0.,0.,0.));
#1396=CARTESIAN_POINT('',(-2.5,1.,3.06161699786838E-16));
#1397=CARTESIAN_POINT('Origin',(0.,1.,0.));
#1398=CARTESIAN_POINT('',(-2.5,0.,2.77555756156289E-16));
#1399=CARTESIAN_POINT('',(-2.5,0.,3.06161699786838E-16));
#1400=CARTESIAN_POINT('',(-2.04788011072248,0.,-1.43394109087762));
#1401=CARTESIAN_POINT('Origin',(0.,0.,0.));
#1402=CARTESIAN_POINT('',(-2.03781838044341,-1.,-1.44820449119833));
#1403=CARTESIAN_POINT('Origin',(0.,2.38553712194678E-14,0.));
#1404=CARTESIAN_POINT('',(-1.78006645905939,-1.,-1.7553812695058));
#1405=CARTESIAN_POINT('Origin',(0.,-1.,0.));
#1406=CARTESIAN_POINT('',(-1.76776695296637,0.,-1.76776695296637));
#1407=CARTESIAN_POINT('Origin',(0.,0.,0.));
#1408=CARTESIAN_POINT('',(-0.434120444167326,0.,-2.46201938253052));
#1409=CARTESIAN_POINT('Origin',(0.,0.,0.));
#1410=CARTESIAN_POINT('',(-0.416919979366972,-1.,-2.46499041190927));
#1411=CARTESIAN_POINT('Origin',(0.,7.95179040648943E-15,0.));
#1412=CARTESIAN_POINT('',(-0.0174550649282176,-1.,-2.49993906339902));
#1413=CARTESIAN_POINT('Origin',(0.,-1.,0.));
#1414=CARTESIAN_POINT('',(0.,0.,-2.5));
#1415=CARTESIAN_POINT('Origin',(0.,0.,0.));
#1416=CARTESIAN_POINT('',(1.43394109087762,0.,-2.04788011072248));
#1417=CARTESIAN_POINT('Origin',(0.,0.,0.));
#1418=CARTESIAN_POINT('',(1.44820449119833,-1.,-2.03781838044341));
#1419=CARTESIAN_POINT('Origin',(0.,3.97589520324469E-14,0.));
#1420=CARTESIAN_POINT('',(1.75538126950527,-1.,-1.7800664590599));
#1421=CARTESIAN_POINT('Origin',(0.,-1.,0.));
#1422=CARTESIAN_POINT('',(1.76776695296585,0.,-1.76776695296689));
#1423=CARTESIAN_POINT('Origin',(0.,0.,0.));
#1424=CARTESIAN_POINT('',(2.46201938253052,0.,-0.434120444167326));
#1425=CARTESIAN_POINT('Origin',(0.,0.,0.));
#1426=CARTESIAN_POINT('',(2.46499041190927,-1.,-0.416919979366971));
#1427=CARTESIAN_POINT('Origin',(0.,3.97589520324469E-14,0.));
#1428=CARTESIAN_POINT('',(2.49993906339902,-1.,-0.0174550649282179));
#1429=CARTESIAN_POINT('Origin',(0.,-1.,0.));
#1430=CARTESIAN_POINT('',(2.5,0.,-2.77555756156289E-16));
#1431=CARTESIAN_POINT('Origin',(0.,1.59011586205902E-14,0.));
#1432=CARTESIAN_POINT('',(2.04788011072248,0.,1.43394109087762));
#1433=CARTESIAN_POINT('Origin',(0.,0.,0.));
#1434=CARTESIAN_POINT('',(2.03781838044341,-1.,1.44820449119833));
#1435=CARTESIAN_POINT('Origin',(0.,2.38553712194679E-14,0.));
#1436=CARTESIAN_POINT('',(1.78006645905939,-1.,1.7553812695058));
#1437=CARTESIAN_POINT('Origin',(0.,-1.,0.));
#1438=CARTESIAN_POINT('',(1.76776695296637,0.,1.76776695296637));
#1439=CARTESIAN_POINT('Origin',(0.,0.,0.));
#1440=CARTESIAN_POINT('',(0.434120444167326,0.,2.46201938253052));
#1441=CARTESIAN_POINT('Origin',(0.,0.,0.));
#1442=CARTESIAN_POINT('',(0.416919979366972,-1.,2.46499041190927));
#1443=CARTESIAN_POINT('Origin',(0.,0.,0.));
#1444=CARTESIAN_POINT('',(0.0174550649282175,-1.,2.49993906339902));
#1445=CARTESIAN_POINT('Origin',(0.,-1.,0.));
#1446=CARTESIAN_POINT('',(0.,0.,2.5));
#1447=CARTESIAN_POINT('Origin',(0.,0.,0.));
#1448=CARTESIAN_POINT('',(-1.43394109087762,0.,2.04788011072248));
#1449=CARTESIAN_POINT('Origin',(0.,0.,0.));
#1450=CARTESIAN_POINT('',(-1.44820449119833,-1.,2.03781838044341));
#1451=CARTESIAN_POINT('Origin',(0.,3.97589520324467E-14,0.));
#1452=CARTESIAN_POINT('',(-1.75538126950528,-1.,1.7800664590599));
#1453=CARTESIAN_POINT('Origin',(0.,-1.,0.));
#1454=CARTESIAN_POINT('',(-1.76776695296585,0.,1.76776695296689));
#1455=CARTESIAN_POINT('Origin',(0.,0.,0.));
#1456=CARTESIAN_POINT('',(-2.46201938253052,0.,0.434120444167326));
#1457=CARTESIAN_POINT('Origin',(0.,0.,0.));
#1458=CARTESIAN_POINT('',(-2.46499041190927,-1.,0.416919979366972));
#1459=CARTESIAN_POINT('Origin',(0.,-1.1927685609734E-14,0.));
#1460=CARTESIAN_POINT('',(-2.49993906339902,-1.,0.0174550649282177));
#1461=CARTESIAN_POINT('Origin',(0.,-1.,0.));
#1462=CARTESIAN_POINT('Origin',(0.,1.59011586205904E-14,0.));
#1463=CARTESIAN_POINT('Origin',(0.,-1.,0.));
#1464=CARTESIAN_POINT('',(-1.73499853478205,-1.,2.44740272213302));
#1465=CARTESIAN_POINT('',(-0.731268897557955,-1.,1.01392824142344));
#1466=CARTESIAN_POINT('',(-2.10894184167946,-1.,2.13362703123429));
#1467=CARTESIAN_POINT('Origin',(0.,-1.,0.));
#1468=CARTESIAN_POINT('',(-1.04831757700271,-1.,1.07300276655692));
#1469=CARTESIAN_POINT('Origin',(0.,-1.,0.));
#1470=CARTESIAN_POINT('',(0.50374583182156,-1.,2.95740429040779));
#1471=CARTESIAN_POINT('',(0.199870338813023,-1.,1.2340407314811));
#1472=CARTESIAN_POINT('',(0.0174550649282175,-1.,2.99994921968829));
#1473=CARTESIAN_POINT('Origin',(0.,-1.,0.));
#1474=CARTESIAN_POINT('',(0.0174550649282175,-1.,1.5));
#1475=CARTESIAN_POINT('Origin',(0.,-1.,0.));
#1476=CARTESIAN_POINT('',(2.95740429040779,-1.,-0.50374583182156));
#1477=CARTESIAN_POINT('',(1.2340407314811,-1.,-0.199870338813022));
#1478=CARTESIAN_POINT('',(2.99994921968829,-1.,-0.0174550649282179));
#1479=CARTESIAN_POINT('Origin',(0.,-1.,0.));
#1480=CARTESIAN_POINT('',(1.5,-1.,-0.0174550649282179));
#1481=CARTESIAN_POINT('Origin',(0.,-1.,0.));
#1482=CARTESIAN_POINT('',(-2.99994921968829,-1.,0.0174550649282177));
#1483=CARTESIAN_POINT('',(-1.5,-1.,0.0174550649282177));
#1484=CARTESIAN_POINT('',(-2.95740429040779,-1.,0.50374583182156));
#1485=CARTESIAN_POINT('',(-1.2340407314811,-1.,0.199870338813023));
#1486=CARTESIAN_POINT('Origin',(0.,-1.,0.));
#1487=CARTESIAN_POINT('Origin',(0.,-1.,0.));
#1488=CARTESIAN_POINT('',(-2.13362703123367,-1.,-2.10894184168008));
#1489=CARTESIAN_POINT('',(-1.07300276655662,-1.,-1.04831757700303));
#1490=CARTESIAN_POINT('',(-2.44740272213302,-1.,-1.73499853478206));
#1491=CARTESIAN_POINT('',(-1.01392824142344,-1.,-0.731268897557955));
#1492=CARTESIAN_POINT('Origin',(0.,-1.,0.));
#1493=CARTESIAN_POINT('Origin',(0.,-1.,0.));
#1494=CARTESIAN_POINT('',(-0.0174550649282176,-1.,-2.99994921968829));
#1495=CARTESIAN_POINT('',(-0.0174550649282176,-1.,-1.5));
#1496=CARTESIAN_POINT('',(-0.503745831821561,-1.,-2.95740429040779));
#1497=CARTESIAN_POINT('',(-0.199870338813023,-1.,-1.2340407314811));
#1498=CARTESIAN_POINT('Origin',(0.,-1.,0.));
#1499=CARTESIAN_POINT('Origin',(0.,-1.,0.));
#1500=CARTESIAN_POINT('',(1.73499853478205,-1.,-2.44740272213302));
#1501=CARTESIAN_POINT('',(0.731268897557955,-1.,-1.01392824142344));
#1502=CARTESIAN_POINT('',(2.10894184167946,-1.,-2.13362703123429));
#1503=CARTESIAN_POINT('Origin',(0.,-1.,0.));
#1504=CARTESIAN_POINT('',(1.04831757700271,-1.,-1.07300276655692));
#1505=CARTESIAN_POINT('Origin',(0.,-1.,0.));
#1506=CARTESIAN_POINT('',(2.13362703123367,-1.,2.10894184168008));
#1507=CARTESIAN_POINT('',(1.07300276655662,-1.,1.04831757700303));
#1508=CARTESIAN_POINT('',(2.44740272213302,-1.,1.73499853478206));
#1509=CARTESIAN_POINT('',(1.01392824142344,-1.,0.731268897557955));
#1510=CARTESIAN_POINT('Origin',(0.,-1.,0.));
#1511=CARTESIAN_POINT('Origin',(0.,0.,0.));
#1512=CARTESIAN_POINT('',(-3.,1.,3.67394039744206E-16));
#1513=CARTESIAN_POINT('Origin',(0.,1.,0.));
#1514=CARTESIAN_POINT('',(-3.,0.,2.77555756156289E-16));
#1515=CARTESIAN_POINT('',(-3.,0.,3.67394039744206E-16));
#1516=CARTESIAN_POINT('Origin',(0.,1.59011586205904E-14,0.));
#1517=CARTESIAN_POINT('',(-2.95442325903662,0.,0.520944533000791));
#1518=CARTESIAN_POINT('Origin',(0.,-1.1927685609734E-14,0.));
#1519=CARTESIAN_POINT('',(-2.12132034355902,0.,2.12132034356026));
#1520=CARTESIAN_POINT('Origin',(0.,0.,0.));
#1521=CARTESIAN_POINT('Origin',(0.,0.,0.));
#1522=CARTESIAN_POINT('',(-1.72072930905314,0.,2.45745613286698));
#1523=CARTESIAN_POINT('Origin',(0.,3.97589520324467E-14,0.));
#1524=CARTESIAN_POINT('',(0.,0.,3.));
#1525=CARTESIAN_POINT('Origin',(0.,0.,0.));
#1526=CARTESIAN_POINT('Origin',(0.,0.,0.));
#1527=CARTESIAN_POINT('',(0.520944533000791,0.,2.95442325903662));
#1528=CARTESIAN_POINT('Origin',(0.,0.,0.));
#1529=CARTESIAN_POINT('',(2.12132034355964,0.,2.12132034355964));
#1530=CARTESIAN_POINT('Origin',(0.,0.,0.));
#1531=CARTESIAN_POINT('Origin',(0.,0.,0.));
#1532=CARTESIAN_POINT('',(2.45745613286698,0.,1.72072930905314));
#1533=CARTESIAN_POINT('Origin',(0.,2.38553712194679E-14,0.));
#1534=CARTESIAN_POINT('',(3.,0.,-2.77555756156289E-16));
#1535=CARTESIAN_POINT('Origin',(0.,0.,0.));
#1536=CARTESIAN_POINT('Origin',(0.,1.59011586205902E-14,0.));
#1537=CARTESIAN_POINT('',(2.95442325903662,0.,-0.520944533000791));
#1538=CARTESIAN_POINT('Origin',(0.,3.97589520324469E-14,0.));
#1539=CARTESIAN_POINT('',(2.12132034355902,0.,-2.12132034356026));
#1540=CARTESIAN_POINT('Origin',(0.,0.,0.));
#1541=CARTESIAN_POINT('Origin',(0.,0.,0.));
#1542=CARTESIAN_POINT('',(1.72072930905314,0.,-2.45745613286698));
#1543=CARTESIAN_POINT('Origin',(0.,3.97589520324469E-14,0.));
#1544=CARTESIAN_POINT('',(0.,0.,-3.));
#1545=CARTESIAN_POINT('Origin',(0.,0.,0.));
#1546=CARTESIAN_POINT('Origin',(0.,0.,0.));
#1547=CARTESIAN_POINT('',(-0.520944533000791,0.,-2.95442325903662));
#1548=CARTESIAN_POINT('Origin',(0.,7.95179040648943E-15,0.));
#1549=CARTESIAN_POINT('',(-2.12132034355964,0.,-2.12132034355964));
#1550=CARTESIAN_POINT('Origin',(0.,0.,0.));
#1551=CARTESIAN_POINT('Origin',(0.,0.,0.));
#1552=CARTESIAN_POINT('',(-2.45745613286698,0.,-1.72072930905314));
#1553=CARTESIAN_POINT('Origin',(0.,2.38553712194678E-14,0.));
#1554=CARTESIAN_POINT('Origin',(0.,0.,0.));
#1555=CARTESIAN_POINT('Origin',(0.,1.,0.));
#1556=CARTESIAN_POINT('Origin',(-2.12132034355902,0.,2.12132034356026));
#1557=CARTESIAN_POINT('',(-2.12117836378956,-2.,2.170548742898));
#1558=CARTESIAN_POINT('Ctrl Pts',(-2.12132034355904,4.33680868994202E-16,
2.12132034356028));
#1559=CARTESIAN_POINT('Ctrl Pts',(-2.12132034355911,-0.994248381136374,
2.14586355331206));
#1560=CARTESIAN_POINT('Ctrl Pts',(-2.12117836378956,-2.00000000000064,2.17054874289801));
#1561=CARTESIAN_POINT('',(-1.71822177163426,-2.,1.76759215074245));
#1562=CARTESIAN_POINT('',(-2.09663515400543,-2.,2.14600553311385));
#1563=CARTESIAN_POINT('Ctrl Pts',(-1.76776695296591,1.80544815209238E-12,
1.7677669529669));
#1564=CARTESIAN_POINT('Ctrl Pts',(-1.74290696121034,-1.00708125824294,1.76776695296696));
#1565=CARTESIAN_POINT('Ctrl Pts',(-1.71822177163375,-2.00000000002028,1.76759215074245));
#1566=CARTESIAN_POINT('Origin',(-2.36109510600124,-2.,1.2777203938638));
#1567=CARTESIAN_POINT('',(-2.99466736674108,-2.,0.492591980123013));
#1568=CARTESIAN_POINT('Origin',(0.,-2.,0.));
#1569=CARTESIAN_POINT('',(-2.43345824438455,-2.,0.393635670031839));
#1570=CARTESIAN_POINT('',(-2.96048533946831,-2.,0.486564766459511));
#1571=CARTESIAN_POINT('Origin',(0.,-2.,0.));
#1572=CARTESIAN_POINT('Origin',(0.,0.,0.));
#1573=CARTESIAN_POINT('Ctrl Pts',(-2.95442325903658,-7.80625564189563E-16,
0.520944533000784));
#1574=CARTESIAN_POINT('Ctrl Pts',(-2.97452787954384,-0.994248384394952,
0.506867126168624));
#1575=CARTESIAN_POINT('Ctrl Pts',(-2.99466736674109,-2.00000000000064,0.492591980123003));
#1576=CARTESIAN_POINT('Origin',(-2.46201938253052,0.,0.434120444167326));
#1577=CARTESIAN_POINT('Ctrl Pts',(-2.46201938253051,1.80638490276941E-12,
0.434120444167357));
#1578=CARTESIAN_POINT('Ctrl Pts',(-2.44776027702243,-1.00708126029526,0.4137563310582));
#1579=CARTESIAN_POINT('Ctrl Pts',(-2.43345824438426,-2.00000000002028,0.393635670031428));
#1580=CARTESIAN_POINT('Origin',(0.,0.,0.));
#1581=CARTESIAN_POINT('Origin',(0.,0.,3.));
#1582=CARTESIAN_POINT('',(0.0349101298564349,-2.,3.0347093401409));
#1583=CARTESIAN_POINT('Ctrl Pts',(-1.00288700954909E-17,5.20417042793042E-16,
3.00000000000003));
#1584=CARTESIAN_POINT('Ctrl Pts',(0.0173546700479152,-0.994248381159561,
3.01735467004804));
#1585=CARTESIAN_POINT('Ctrl Pts',(0.0349101298564461,-2.00000000000064,
3.03470934014092));
#1586=CARTESIAN_POINT('',(0.0349101298564349,-2.,2.46484266246706));
#1587=CARTESIAN_POINT('',(0.0349101298564352,-2.,3.));
#1588=CARTESIAN_POINT('Ctrl Pts',(-3.1514233497093E-14,1.80543080485762E-12,
2.50000000000006));
#1589=CARTESIAN_POINT('Ctrl Pts',(0.0175786687502357,-1.00708125822084,
2.48242133124988));
#1590=CARTESIAN_POINT('Ctrl Pts',(0.0349101298567888,-2.00000000002028,
2.4648426624667));
#1591=CARTESIAN_POINT('Origin',(0.,0.,0.));
#1592=CARTESIAN_POINT('',(-1.44237237474221,-2.,1.99905727793505));
#1593=CARTESIAN_POINT('Origin',(0.,-2.,0.));
#1594=CARTESIAN_POINT('Ctrl Pts',(-1.43394109087759,1.80638490276941E-12,
2.0478801107225));
#1595=CARTESIAN_POINT('Ctrl Pts',(-1.43825798315149,-1.00708126029119,2.02339779805184));
#1596=CARTESIAN_POINT('Ctrl Pts',(-1.44237237474229,-2.00000000002028,1.99905727793456));
#1597=CARTESIAN_POINT('Origin',(-1.43394109087762,0.,2.04788011072248));
#1598=CARTESIAN_POINT('',(-1.76923447291755,-2.,2.46586473192371));
#1599=CARTESIAN_POINT('',(-1.74932601329143,-2.,2.43743250499137));
#1600=CARTESIAN_POINT('Ctrl Pts',(-1.72072930905315,5.03069808033274E-16,
2.457456132867));
#1601=CARTESIAN_POINT('Ctrl Pts',(-1.74489965230116,-0.994248381163982,
2.46171801651468));
#1602=CARTESIAN_POINT('Ctrl Pts',(-1.76923447291756,-2.00000000000064,2.46586473192372));
#1603=CARTESIAN_POINT('Origin',(0.,0.,0.));
#1604=CARTESIAN_POINT('Origin',(0.,-2.,0.));
#1605=CARTESIAN_POINT('Origin',(-0.860364654526569,-2.,2.52394005536124));
#1606=CARTESIAN_POINT('Origin',(3.,0.,-2.77555756156289E-16));
#1607=CARTESIAN_POINT('',(3.0347093401409,-2.,-0.0349101298564354));
#1608=CARTESIAN_POINT('Ctrl Pts',(3.00000000000003,4.33680868994202E-16,
-2.68340037690162E-16));
#1609=CARTESIAN_POINT('Ctrl Pts',(3.01735467004807,-0.994248381161313,-0.0173546700479462));
#1610=CARTESIAN_POINT('Ctrl Pts',(3.03470934014091,-2.00000000000064,-0.0349101298564466));
#1611=CARTESIAN_POINT('',(2.46484266246706,-2.,-0.0349101298564355));
#1612=CARTESIAN_POINT('',(3.,-2.,-0.0349101298564354));
#1613=CARTESIAN_POINT('Ctrl Pts',(2.50000000000006,1.80537876315334E-12,
3.1237219842023E-14));
#1614=CARTESIAN_POINT('Ctrl Pts',(2.48242133124988,-1.00708125822083,-0.017578668750236));
#1615=CARTESIAN_POINT('Ctrl Pts',(2.4648426624667,-2.00000000002028,-0.0349101298567894));
#1616=CARTESIAN_POINT('Origin',(2.52394005536124,-2.,0.860364654526569));
#1617=CARTESIAN_POINT('',(2.46586473192371,-2.,1.76923447291755));
#1618=CARTESIAN_POINT('Origin',(0.,-2.,0.));
#1619=CARTESIAN_POINT('',(1.99905727793505,-2.,1.44237237474221));
#1620=CARTESIAN_POINT('',(2.43743250499137,-2.,1.74932601329143));
#1621=CARTESIAN_POINT('Origin',(0.,-2.,0.));
#1622=CARTESIAN_POINT('Origin',(0.,0.,0.));
#1623=CARTESIAN_POINT('Ctrl Pts',(2.457456132867,4.68375338513738E-16,1.72072930905315));
#1624=CARTESIAN_POINT('Ctrl Pts',(2.46171801651468,-0.994248381164751,1.74489965230118));
#1625=CARTESIAN_POINT('Ctrl Pts',(2.46586473192371,-2.00000000000064,1.76923447291756));
#1626=CARTESIAN_POINT('Origin',(2.04788011072248,0.,1.43394109087762));
#1627=CARTESIAN_POINT('Ctrl Pts',(2.0478801107225,1.80636755553465E-12,
1.43394109087759));
#1628=CARTESIAN_POINT('Ctrl Pts',(2.02339779805176,-1.00708126029442,1.4382579831515));
#1629=CARTESIAN_POINT('Ctrl Pts',(1.99905727793456,-2.00000000002028,1.44237237474229));
#1630=CARTESIAN_POINT('Origin',(0.,0.,0.));
#1631=CARTESIAN_POINT('Origin',(2.12132034355902,0.,-2.12132034356026));
#1632=CARTESIAN_POINT('',(2.12117836378956,-2.,-2.170548742898));
#1633=CARTESIAN_POINT('Ctrl Pts',(2.12132034355904,5.20417042793042E-16,
-2.12132034356028));
#1634=CARTESIAN_POINT('Ctrl Pts',(2.12132034355911,-0.994248381138272,-2.1458635533121));
#1635=CARTESIAN_POINT('Ctrl Pts',(2.12117836378956,-2.00000000000064,-2.17054874289801));
#1636=CARTESIAN_POINT('',(1.7182217716343,-2.,-1.76759215074249));
#1637=CARTESIAN_POINT('',(2.09663515400543,-2.,-2.14600553311385));
#1638=CARTESIAN_POINT('Ctrl Pts',(1.76776695296587,1.80635020829989E-12,
-1.76776695296687));
#1639=CARTESIAN_POINT('Ctrl Pts',(1.74290696115948,-1.00708126029601,-1.76776695296678));
#1640=CARTESIAN_POINT('Ctrl Pts',(1.71822177163379,-2.00000000002028,-1.76759215074249));
#1641=CARTESIAN_POINT('Origin',(0.,0.,0.));
#1642=CARTESIAN_POINT('',(2.43345824438455,-2.,-0.393635670031839));
#1643=CARTESIAN_POINT('Origin',(0.,-2.,0.));
#1644=CARTESIAN_POINT('Ctrl Pts',(2.46201938253052,1.80641959723893E-12,
-0.434120444167357));
#1645=CARTESIAN_POINT('Ctrl Pts',(2.44776027702244,-1.00708126029488,-0.413756331058207));
#1646=CARTESIAN_POINT('Ctrl Pts',(2.43345824438426,-2.00000000002028,-0.393635670031428));
#1647=CARTESIAN_POINT('Origin',(2.46201938253052,0.,-0.434120444167326));
#1648=CARTESIAN_POINT('',(2.99466736674108,-2.,-0.492591980123013));
#1649=CARTESIAN_POINT('',(2.96048533946831,-2.,-0.486564766459511));
#1650=CARTESIAN_POINT('Ctrl Pts',(2.95442325903658,-7.45931094670027E-16,
-0.520944533000783));
#1651=CARTESIAN_POINT('Ctrl Pts',(2.97452787954428,-0.994248384416791,-0.506867126168314));
#1652=CARTESIAN_POINT('Ctrl Pts',(2.99466736674109,-2.00000000000064,-0.492591980123003));
#1653=CARTESIAN_POINT('Origin',(0.,0.,0.));
#1654=CARTESIAN_POINT('Origin',(0.,-2.,0.));
#1655=CARTESIAN_POINT('Origin',(2.36109510600124,-2.,-1.2777203938638));
#1656=CARTESIAN_POINT('Origin',(-3.,0.,2.77555756156289E-16));
#1657=CARTESIAN_POINT('',(-3.0347093401409,-2.,0.0349101298564351));
#1658=CARTESIAN_POINT('Ctrl Pts',(-3.00000000000003,4.68375338513738E-16,
2.6779793660392E-16));
#1659=CARTESIAN_POINT('Ctrl Pts',(-3.01735467004801,-0.994248381157827,
0.0173546700478852));
#1660=CARTESIAN_POINT('Ctrl Pts',(-3.03470934014092,-2.00000000000064,0.0349101298564463));
#1661=CARTESIAN_POINT('',(-2.46484266246706,-2.,0.0349101298564351));
#1662=CARTESIAN_POINT('',(-3.,-2.,0.0349101298564354));
#1663=CARTESIAN_POINT('Ctrl Pts',(-2.50000000000006,1.80546549932714E-12,
-3.12380329936524E-14));
#1664=CARTESIAN_POINT('Ctrl Pts',(-2.48242133124986,-1.00708125822197,0.0175786687502556));
#1665=CARTESIAN_POINT('Ctrl Pts',(-2.4648426624667,-2.00000000002028,0.034910129856789));
#1666=CARTESIAN_POINT('Origin',(0.,0.,0.));
#1667=CARTESIAN_POINT('',(-1.99905727793505,-2.,-1.44237237474221));
#1668=CARTESIAN_POINT('Origin',(0.,-2.,0.));
#1669=CARTESIAN_POINT('Ctrl Pts',(-2.0478801107225,1.80641959723893E-12,
-1.43394109087759));
#1670=CARTESIAN_POINT('Ctrl Pts',(-2.02339779805183,-1.00708126029175,-1.43825798315149));
#1671=CARTESIAN_POINT('Ctrl Pts',(-1.99905727793456,-2.00000000002028,-1.44237237474229));
#1672=CARTESIAN_POINT('Origin',(-2.04788011072248,0.,-1.43394109087762));
#1673=CARTESIAN_POINT('',(-2.46586473192371,-2.,-1.76923447291755));
#1674=CARTESIAN_POINT('',(-2.43743250499137,-2.,-1.74932601329143));
#1675=CARTESIAN_POINT('Ctrl Pts',(-2.457456132867,4.68375338513738E-16,
-1.72072930905316));
#1676=CARTESIAN_POINT('Ctrl Pts',(-2.46171801651469,-0.99424838116752,-1.74489965230125));
#1677=CARTESIAN_POINT('Ctrl Pts',(-2.46586473192372,-2.00000000000064,-1.76923447291756));
#1678=CARTESIAN_POINT('Origin',(0.,0.,0.));
#1679=CARTESIAN_POINT('Origin',(0.,-2.,0.));
#1680=CARTESIAN_POINT('Origin',(-2.52394005536124,-2.,-0.860364654526569));
#1681=CARTESIAN_POINT('Origin',(-2.12132034355964,0.,-2.12132034355964));
#1682=CARTESIAN_POINT('',(-2.17054874289737,-2.,-2.1211783637902));
#1683=CARTESIAN_POINT('Ctrl Pts',(-2.12132034355966,4.68375338513738E-16,
-2.12132034355966));
#1684=CARTESIAN_POINT('Ctrl Pts',(-2.14586355331166,-0.994248381145344,
-2.12132034355973));
#1685=CARTESIAN_POINT('Ctrl Pts',(-2.17054874289739,-2.00000000000064,-2.1211783637902));
#1686=CARTESIAN_POINT('',(-1.76759215074199,-2.,-1.71822177163481));
#1687=CARTESIAN_POINT('',(-1.79245214251996,-2.,-1.74308176341278));
#1688=CARTESIAN_POINT('Ctrl Pts',(-1.76776695296635,1.80635020829989E-12,
-1.76776695296639));
#1689=CARTESIAN_POINT('Ctrl Pts',(-1.76776695296627,-1.00708126029185,-1.7429069611601));
#1690=CARTESIAN_POINT('Ctrl Pts',(-1.76759215074199,-2.00000000002028,-1.71822177163431));
#1691=CARTESIAN_POINT('Origin',(0.,0.,0.));
#1692=CARTESIAN_POINT('',(-0.39363567003184,-2.,-2.43345824438455));
#1693=CARTESIAN_POINT('Origin',(0.,-2.,0.));
#1694=CARTESIAN_POINT('Ctrl Pts',(-0.434120444167357,1.80643694447369E-12,
-2.46201938253051));
#1695=CARTESIAN_POINT('Ctrl Pts',(-0.413756331058157,-1.00708126029739,
-2.4477602770224));
#1696=CARTESIAN_POINT('Ctrl Pts',(-0.393635670031429,-2.00000000002028,
-2.43345824438426));
#1697=CARTESIAN_POINT('Origin',(-0.434120444167326,0.,-2.46201938253052));
#1698=CARTESIAN_POINT('',(-0.492591980123013,-2.,-2.99466736674108));
#1699=CARTESIAN_POINT('',(-0.486564766459511,-2.,-2.96048533946831));
#1700=CARTESIAN_POINT('Ctrl Pts',(-0.520944533000784,-7.63278329429795E-16,
-2.95442325903658));
#1701=CARTESIAN_POINT('Ctrl Pts',(-0.506867126168413,-0.994248384409854,
-2.97452787954414));
#1702=CARTESIAN_POINT('Ctrl Pts',(-0.492591980123004,-2.00000000000064,
-2.99466736674109));
#1703=CARTESIAN_POINT('Origin',(0.,0.,0.));
#1704=CARTESIAN_POINT('Origin',(0.,-2.,0.));
#1705=CARTESIAN_POINT('Origin',(-1.27772039386348,-2.,-2.3610951060015));
#1706=CARTESIAN_POINT('Origin',(0.,0.,-3.));
#1707=CARTESIAN_POINT('',(-0.0349101298564352,-2.,-3.0347093401409));
#1708=CARTESIAN_POINT('Ctrl Pts',(1.05709711817337E-17,4.85722573273506E-16,
-3.00000000000003));
#1709=CARTESIAN_POINT('Ctrl Pts',(-0.0173546700479458,-0.994248381161304,
-3.01735467004807));
#1710=CARTESIAN_POINT('Ctrl Pts',(-0.0349101298564464,-2.00000000000064,
-3.03470934014092));
#1711=CARTESIAN_POINT('',(-0.0349101298564352,-2.,-2.46484266246706));
#1712=CARTESIAN_POINT('',(-0.0349101298564352,-2.,-3.));
#1713=CARTESIAN_POINT('Ctrl Pts',(3.15139624465499E-14,1.80534406868382E-12,
-2.50000000000006));
#1714=CARTESIAN_POINT('Ctrl Pts',(-0.0175786687502159,-1.0070812582197,
-2.4824213312499));
#1715=CARTESIAN_POINT('Ctrl Pts',(-0.0349101298567891,-2.00000000002028,
-2.4648426624667));
#1716=CARTESIAN_POINT('Origin',(0.860364654526569,-2.,-2.52394005536124));
#1717=CARTESIAN_POINT('',(1.76923447291755,-2.,-2.46586473192371));
#1718=CARTESIAN_POINT('Origin',(0.,-2.,0.));
#1719=CARTESIAN_POINT('',(1.44237237474221,-2.,-1.99905727793505));
#1720=CARTESIAN_POINT('',(1.74932601329143,-2.,-2.43743250499137));
#1721=CARTESIAN_POINT('Origin',(0.,-2.,0.));
#1722=CARTESIAN_POINT('Origin',(0.,0.,0.));
#1723=CARTESIAN_POINT('Ctrl Pts',(1.72072930905315,5.20417042793042E-16,
-2.457456132867));
#1724=CARTESIAN_POINT('Ctrl Pts',(1.74489965230117,-0.994248381164428,-2.46171801651468));
#1725=CARTESIAN_POINT('Ctrl Pts',(1.76923447291756,-2.00000000000064,-2.46586473192372));
#1726=CARTESIAN_POINT('Origin',(1.43394109087762,0.,-2.04788011072248));
#1727=CARTESIAN_POINT('Ctrl Pts',(1.43394109087759,1.80640225000417E-12,
-2.0478801107225));
#1728=CARTESIAN_POINT('Ctrl Pts',(1.43825798315149,-1.00708126029226,-2.02339779805182));
#1729=CARTESIAN_POINT('Ctrl Pts',(1.44237237474229,-2.00000000002028,-1.99905727793456));
#1730=CARTESIAN_POINT('Origin',(0.,0.,0.));
#1731=CARTESIAN_POINT('Origin',(2.12132034355964,0.,2.12132034355964));
#1732=CARTESIAN_POINT('',(2.17054874289737,-2.,2.1211783637902));
#1733=CARTESIAN_POINT('Ctrl Pts',(2.12132034355966,4.33680868994202E-16,
2.12132034355966));
#1734=CARTESIAN_POINT('Ctrl Pts',(2.14586355331153,-0.994248381140387,2.12132034355973));
#1735=CARTESIAN_POINT('Ctrl Pts',(2.17054874289739,-2.00000000000064,2.1211783637902));
#1736=CARTESIAN_POINT('',(1.76759215074199,-2.,1.71822177163481));
#1737=CARTESIAN_POINT('',(2.14600553311323,-2.,2.09663515400605));
#1738=CARTESIAN_POINT('Ctrl Pts',(1.76776695296635,1.80640225000417E-12,
1.76776695296639));
#1739=CARTESIAN_POINT('Ctrl Pts',(1.76776695296627,-1.00708126029348,1.74290696116006));
#1740=CARTESIAN_POINT('Ctrl Pts',(1.76759215074199,-2.00000000002028,1.71822177163431));
#1741=CARTESIAN_POINT('Origin',(0.,0.,0.));
#1742=CARTESIAN_POINT('',(0.393635670031839,-2.,2.43345824438455));
#1743=CARTESIAN_POINT('Origin',(0.,-2.,0.));
#1744=CARTESIAN_POINT('Ctrl Pts',(0.434120444167357,1.80640225000417E-12,
2.46201938253052));
#1745=CARTESIAN_POINT('Ctrl Pts',(0.413756331058161,-1.00708126029719,2.4477602770224));
#1746=CARTESIAN_POINT('Ctrl Pts',(0.393635670031428,-2.00000000002028,2.43345824438426));
#1747=CARTESIAN_POINT('Origin',(0.434120444167326,0.,2.46201938253052));
#1748=CARTESIAN_POINT('',(0.492591980123013,-2.,2.99466736674108));
#1749=CARTESIAN_POINT('',(0.486564766459511,-2.,2.96048533946831));
#1750=CARTESIAN_POINT('Ctrl Pts',(0.520944533000784,-7.11236625150491E-16,
2.95442325903658));
#1751=CARTESIAN_POINT('Ctrl Pts',(0.506867126168403,-0.994248384410571,
2.97452787954416));
#1752=CARTESIAN_POINT('Ctrl Pts',(0.492591980123004,-2.00000000000064,2.99466736674109));
#1753=CARTESIAN_POINT('Origin',(0.,0.,0.));
#1754=CARTESIAN_POINT('Origin',(0.,-2.,0.));
#1755=CARTESIAN_POINT('Origin',(1.27772039386348,-2.,2.3610951060015));
#1756=UNCERTAINTY_MEASURE_WITH_UNIT(LENGTH_MEASURE(0.01),#1760,
'DISTANCE_ACCURACY_VALUE',
'Maximum model space distance between geometric entities at asserted c
onnectivities');
#1757=UNCERTAINTY_MEASURE_WITH_UNIT(LENGTH_MEASURE(0.01),#1760,
'DISTANCE_ACCURACY_VALUE',
'Maximum model space distance between geometric entities at asserted c
onnectivities');
#1758=(
GEOMETRIC_REPRESENTATION_CONTEXT(3)
GLOBAL_UNCERTAINTY_ASSIGNED_CONTEXT((#1756))
GLOBAL_UNIT_ASSIGNED_CONTEXT((#1760,#1762,#1763))
REPRESENTATION_CONTEXT('','3D')
);
#1759=(
GEOMETRIC_REPRESENTATION_CONTEXT(3)
GLOBAL_UNCERTAINTY_ASSIGNED_CONTEXT((#1757))
GLOBAL_UNIT_ASSIGNED_CONTEXT((#1760,#1762,#1763))
REPRESENTATION_CONTEXT('','3D')
);
#1760=(
LENGTH_UNIT()
NAMED_UNIT(*)
SI_UNIT(.MILLI.,.METRE.)
);
#1761=(
LENGTH_UNIT()
NAMED_UNIT(*)
SI_UNIT($,.METRE.)
);
#1762=(
NAMED_UNIT(*)
PLANE_ANGLE_UNIT()
SI_UNIT($,.RADIAN.)
);
#1763=(
NAMED_UNIT(*)
SI_UNIT($,.STERADIAN.)
SOLID_ANGLE_UNIT()
);
#1764=SHAPE_DEFINITION_REPRESENTATION(#1765,#1766);
#1765=PRODUCT_DEFINITION_SHAPE('',$,#1768);
#1766=SHAPE_REPRESENTATION('',(#958),#1758);
#1767=PRODUCT_DEFINITION_CONTEXT('part definition',#1772,'design');
#1768=PRODUCT_DEFINITION('squeeze_cartridge_undercut','SqueezeRing',#1769,
#1767);
#1769=PRODUCT_DEFINITION_FORMATION('',$,#1774);
#1770=PRODUCT_RELATED_PRODUCT_CATEGORY('SqueezeRing','SqueezeRing',(#1774));
#1771=APPLICATION_PROTOCOL_DEFINITION('international standard',
'automotive_design',2009,#1772);
#1772=APPLICATION_CONTEXT(
'Core Data for Automotive Mechanical Design Process');
#1773=PRODUCT_CONTEXT('part definition',#1772,'mechanical');
#1774=PRODUCT('squeeze_cartridge_undercut','SqueezeRing',$,(#1773));
#1775=PRESENTATION_STYLE_ASSIGNMENT((#1776));
#1776=SURFACE_STYLE_USAGE(.BOTH.,#1777);
#1777=SURFACE_SIDE_STYLE('',(#1778));
#1778=SURFACE_STYLE_FILL_AREA(#1779);
#1779=FILL_AREA_STYLE('Steel - Satin',(#1780));
#1780=FILL_AREA_STYLE_COLOUR('Steel - Satin',#1781);
#1781=COLOUR_RGB('Steel - Satin',0.627450980392157,0.627450980392157,0.627450980392157);
ENDSEC;
END-ISO-10303-21;
