ISO-10303-21;
HEADER;
/* Generated by software containing ST-Developer
 * from STEP Tools, Inc. (www.steptools.com) 
 */

FILE_DESCRIPTION(
/* description */ (''),
/* implementation_level */ '2;1');

FILE_NAME(
/* name */ 'centerDisk.step',
/* time_stamp */ '2026-08-03T19:29:43+02:00',
/* author */ (''),
/* organization */ (''),
/* preprocessor_version */ 'ST-DEVELOPER v20.1',
/* originating_system */ 'Autodesk Translation Framework v15.8.0.0',
/* authorisation */ '');

FILE_SCHEMA (('AUTOMOTIVE_DESIGN { 1 0 10303 214 3 1 1 }'));
ENDSEC;

DATA;
#10=MECHANICAL_DESIGN_GEOMETRIC_PRESENTATION_REPRESENTATION('',(#13),#719);
#11=SHAPE_REPRESENTATION_RELATIONSHIP('SRR','None',#726,#12);
#12=ADVANCED_BREP_SHAPE_REPRESENTATION('',(#14),#718);
#13=STYLED_ITEM('',(#735),#14);
#14=MANIFOLD_SOLID_BREP('Body2',#428);
#15=FACE_BOUND('',#63,.T.);
#16=FACE_BOUND('',#83,.T.);
#17=PLANE('',#447);
#18=PLANE('',#453);
#19=PLANE('',#454);
#20=PLANE('',#455);
#21=PLANE('',#456);
#22=PLANE('',#457);
#23=PLANE('',#460);
#24=PLANE('',#461);
#25=PLANE('',#462);
#26=PLANE('',#465);
#27=PLANE('',#466);
#28=PLANE('',#467);
#29=PLANE('',#470);
#30=PLANE('',#473);
#31=PLANE('',#476);
#32=CYLINDRICAL_SURFACE('',#445,10.0000001490116);
#33=CYLINDRICAL_SURFACE('',#458,0.999999999999996);
#34=CYLINDRICAL_SURFACE('',#463,1.15);
#35=CYLINDRICAL_SURFACE('',#468,1.00000000000005);
#36=CYLINDRICAL_SURFACE('',#471,2.);
#37=CYLINDRICAL_SURFACE('',#474,2.00000000000012);
#38=FACE_OUTER_BOUND('',#60,.T.);
#39=FACE_OUTER_BOUND('',#61,.T.);
#40=FACE_OUTER_BOUND('',#62,.T.);
#41=FACE_OUTER_BOUND('',#64,.T.);
#42=FACE_OUTER_BOUND('',#65,.T.);
#43=FACE_OUTER_BOUND('',#66,.T.);
#44=FACE_OUTER_BOUND('',#67,.T.);
#45=FACE_OUTER_BOUND('',#68,.T.);
#46=FACE_OUTER_BOUND('',#69,.T.);
#47=FACE_OUTER_BOUND('',#70,.T.);
#48=FACE_OUTER_BOUND('',#71,.T.);
#49=FACE_OUTER_BOUND('',#72,.T.);
#50=FACE_OUTER_BOUND('',#73,.T.);
#51=FACE_OUTER_BOUND('',#74,.T.);
#52=FACE_OUTER_BOUND('',#75,.T.);
#53=FACE_OUTER_BOUND('',#76,.T.);
#54=FACE_OUTER_BOUND('',#77,.T.);
#55=FACE_OUTER_BOUND('',#78,.T.);
#56=FACE_OUTER_BOUND('',#79,.T.);
#57=FACE_OUTER_BOUND('',#80,.T.);
#58=FACE_OUTER_BOUND('',#81,.T.);
#59=FACE_OUTER_BOUND('',#82,.T.);
#60=EDGE_LOOP('',(#287,#288,#289,#290));
#61=EDGE_LOOP('',(#291,#292,#293,#294));
#62=EDGE_LOOP('',(#295));
#63=EDGE_LOOP('',(#296,#297,#298,#299,#300,#301,#302,#303,#304,#305,#306,
#307,#308,#309,#310,#311,#312,#313));
#64=EDGE_LOOP('',(#314,#315,#316,#317));
#65=EDGE_LOOP('',(#318,#319,#320,#321));
#66=EDGE_LOOP('',(#322,#323,#324,#325));
#67=EDGE_LOOP('',(#326,#327,#328,#329));
#68=EDGE_LOOP('',(#330,#331,#332,#333));
#69=EDGE_LOOP('',(#334,#335,#336,#337));
#70=EDGE_LOOP('',(#338,#339,#340,#341));
#71=EDGE_LOOP('',(#342,#343,#344,#345));
#72=EDGE_LOOP('',(#346,#347,#348,#349));
#73=EDGE_LOOP('',(#350,#351,#352,#353));
#74=EDGE_LOOP('',(#354,#355,#356,#357));
#75=EDGE_LOOP('',(#358,#359,#360,#361));
#76=EDGE_LOOP('',(#362,#363,#364,#365));
#77=EDGE_LOOP('',(#366,#367,#368,#369));
#78=EDGE_LOOP('',(#370,#371,#372,#373));
#79=EDGE_LOOP('',(#374,#375,#376,#377));
#80=EDGE_LOOP('',(#378,#379,#380,#381));
#81=EDGE_LOOP('',(#382,#383,#384,#385));
#82=EDGE_LOOP('',(#386));
#83=EDGE_LOOP('',(#387,#388,#389,#390,#391,#392,#393,#394,#395,#396,#397,
#398,#399,#400,#401,#402,#403,#404));
#84=LINE('',#600,#130);
#85=LINE('',#604,#131);
#86=LINE('',#611,#132);
#87=LINE('',#615,#133);
#88=LINE('',#619,#134);
#89=LINE('',#621,#135);
#90=LINE('',#623,#136);
#91=LINE('',#625,#137);
#92=LINE('',#627,#138);
#93=LINE('',#631,#139);
#94=LINE('',#633,#140);
#95=LINE('',#635,#141);
#96=LINE('',#637,#142);
#97=LINE('',#639,#143);
#98=LINE('',#642,#144);
#99=LINE('',#646,#145);
#100=LINE('',#647,#146);
#101=LINE('',#648,#147);
#102=LINE('',#651,#148);
#103=LINE('',#652,#149);
#104=LINE('',#656,#150);
#105=LINE('',#657,#151);
#106=LINE('',#658,#152);
#107=LINE('',#661,#153);
#108=LINE('',#662,#154);
#109=LINE('',#666,#155);
#110=LINE('',#667,#156);
#111=LINE('',#668,#157);
#112=LINE('',#673,#158);
#113=LINE('',#674,#159);
#114=LINE('',#677,#160);
#115=LINE('',#678,#161);
#116=LINE('',#681,#162);
#117=LINE('',#682,#163);
#118=LINE('',#686,#164);
#119=LINE('',#689,#165);
#120=LINE('',#690,#166);
#121=LINE('',#692,#167);
#122=LINE('',#695,#168);
#123=LINE('',#696,#169);
#124=LINE('',#700,#170);
#125=LINE('',#703,#171);
#126=LINE('',#704,#172);
#127=LINE('',#708,#173);
#128=LINE('',#711,#174);
#129=LINE('',#712,#175);
#130=VECTOR('',#483,9.50000014901161);
#131=VECTOR('',#488,10.0000001490116);
#132=VECTOR('',#495,10.);
#133=VECTOR('',#498,10.);
#134=VECTOR('',#501,10.);
#135=VECTOR('',#502,10.);
#136=VECTOR('',#503,10.);
#137=VECTOR('',#504,10.);
#138=VECTOR('',#505,10.);
#139=VECTOR('',#508,10.);
#140=VECTOR('',#509,10.);
#141=VECTOR('',#510,10.);
#142=VECTOR('',#511,10.);
#143=VECTOR('',#512,10.);
#144=VECTOR('',#515,10.);
#145=VECTOR('',#518,10.);
#146=VECTOR('',#519,10.);
#147=VECTOR('',#520,10.);
#148=VECTOR('',#523,10.);
#149=VECTOR('',#524,10.);
#150=VECTOR('',#527,10.);
#151=VECTOR('',#528,10.);
#152=VECTOR('',#529,10.);
#153=VECTOR('',#532,10.);
#154=VECTOR('',#533,10.);
#155=VECTOR('',#536,10.);
#156=VECTOR('',#537,10.);
#157=VECTOR('',#538,10.);
#158=VECTOR('',#545,10.);
#159=VECTOR('',#546,10.);
#160=VECTOR('',#549,10.);
#161=VECTOR('',#550,10.);
#162=VECTOR('',#553,10.);
#163=VECTOR('',#554,10.);
#164=VECTOR('',#559,10.);
#165=VECTOR('',#562,10.);
#166=VECTOR('',#563,10.);
#167=VECTOR('',#566,10.);
#168=VECTOR('',#569,10.);
#169=VECTOR('',#570,10.);
#170=VECTOR('',#575,10.);
#171=VECTOR('',#578,10.);
#172=VECTOR('',#579,10.);
#173=VECTOR('',#584,10.);
#174=VECTOR('',#587,10.);
#175=VECTOR('',#588,10.);
#176=CIRCLE('',#443,9.00000014901161);
#177=CIRCLE('',#444,10.0000001490116);
#178=CIRCLE('',#446,10.0000001490116);
#179=CIRCLE('',#448,2.00000000000012);
#180=CIRCLE('',#449,2.);
#181=CIRCLE('',#450,1.00000000000005);
#182=CIRCLE('',#451,1.15);
#183=CIRCLE('',#452,0.999999999999996);
#184=CIRCLE('',#459,0.999999999999996);
#185=CIRCLE('',#464,1.15);
#186=CIRCLE('',#469,1.00000000000005);
#187=CIRCLE('',#472,2.);
#188=CIRCLE('',#475,2.00000000000012);
#189=VERTEX_POINT('',#597);
#190=VERTEX_POINT('',#599);
#191=VERTEX_POINT('',#603);
#192=VERTEX_POINT('',#607);
#193=VERTEX_POINT('',#608);
#194=VERTEX_POINT('',#610);
#195=VERTEX_POINT('',#612);
#196=VERTEX_POINT('',#614);
#197=VERTEX_POINT('',#616);
#198=VERTEX_POINT('',#618);
#199=VERTEX_POINT('',#620);
#200=VERTEX_POINT('',#622);
#201=VERTEX_POINT('',#624);
#202=VERTEX_POINT('',#626);
#203=VERTEX_POINT('',#628);
#204=VERTEX_POINT('',#630);
#205=VERTEX_POINT('',#632);
#206=VERTEX_POINT('',#634);
#207=VERTEX_POINT('',#636);
#208=VERTEX_POINT('',#638);
#209=VERTEX_POINT('',#640);
#210=VERTEX_POINT('',#644);
#211=VERTEX_POINT('',#645);
#212=VERTEX_POINT('',#650);
#213=VERTEX_POINT('',#654);
#214=VERTEX_POINT('',#655);
#215=VERTEX_POINT('',#660);
#216=VERTEX_POINT('',#664);
#217=VERTEX_POINT('',#665);
#218=VERTEX_POINT('',#672);
#219=VERTEX_POINT('',#676);
#220=VERTEX_POINT('',#680);
#221=VERTEX_POINT('',#684);
#222=VERTEX_POINT('',#688);
#223=VERTEX_POINT('',#694);
#224=VERTEX_POINT('',#698);
#225=VERTEX_POINT('',#702);
#226=VERTEX_POINT('',#706);
#227=VERTEX_POINT('',#710);
#228=EDGE_CURVE('',#189,#189,#176,.T.);
#229=EDGE_CURVE('',#189,#190,#84,.T.);
#230=EDGE_CURVE('',#190,#190,#177,.T.);
#231=EDGE_CURVE('',#190,#191,#85,.T.);
#232=EDGE_CURVE('',#191,#191,#178,.T.);
#233=EDGE_CURVE('',#192,#193,#179,.T.);
#234=EDGE_CURVE('',#193,#194,#86,.T.);
#235=EDGE_CURVE('',#194,#195,#180,.T.);
#236=EDGE_CURVE('',#195,#196,#87,.T.);
#237=EDGE_CURVE('',#196,#197,#181,.T.);
#238=EDGE_CURVE('',#197,#198,#88,.T.);
#239=EDGE_CURVE('',#199,#198,#89,.T.);
#240=EDGE_CURVE('',#199,#200,#90,.T.);
#241=EDGE_CURVE('',#200,#201,#91,.T.);
#242=EDGE_CURVE('',#201,#202,#92,.T.);
#243=EDGE_CURVE('',#202,#203,#182,.T.);
#244=EDGE_CURVE('',#203,#204,#93,.T.);
#245=EDGE_CURVE('',#204,#205,#94,.T.);
#246=EDGE_CURVE('',#205,#206,#95,.T.);
#247=EDGE_CURVE('',#207,#206,#96,.T.);
#248=EDGE_CURVE('',#207,#208,#97,.T.);
#249=EDGE_CURVE('',#208,#209,#183,.T.);
#250=EDGE_CURVE('',#209,#192,#98,.T.);
#251=EDGE_CURVE('',#210,#211,#99,.T.);
#252=EDGE_CURVE('',#211,#199,#100,.T.);
#253=EDGE_CURVE('',#198,#210,#101,.T.);
#254=EDGE_CURVE('',#211,#212,#102,.T.);
#255=EDGE_CURVE('',#212,#200,#103,.T.);
#256=EDGE_CURVE('',#213,#214,#104,.T.);
#257=EDGE_CURVE('',#214,#207,#105,.T.);
#258=EDGE_CURVE('',#206,#213,#106,.T.);
#259=EDGE_CURVE('',#214,#215,#107,.T.);
#260=EDGE_CURVE('',#215,#208,#108,.T.);
#261=EDGE_CURVE('',#216,#217,#109,.T.);
#262=EDGE_CURVE('',#217,#192,#110,.T.);
#263=EDGE_CURVE('',#216,#209,#111,.T.);
#264=EDGE_CURVE('',#215,#216,#184,.T.);
#265=EDGE_CURVE('',#218,#205,#112,.T.);
#266=EDGE_CURVE('',#218,#213,#113,.T.);
#267=EDGE_CURVE('',#219,#218,#114,.T.);
#268=EDGE_CURVE('',#219,#204,#115,.T.);
#269=EDGE_CURVE('',#220,#219,#116,.T.);
#270=EDGE_CURVE('',#220,#203,#117,.T.);
#271=EDGE_CURVE('',#221,#220,#185,.T.);
#272=EDGE_CURVE('',#221,#202,#118,.T.);
#273=EDGE_CURVE('',#222,#221,#119,.T.);
#274=EDGE_CURVE('',#222,#201,#120,.T.);
#275=EDGE_CURVE('',#212,#222,#121,.T.);
#276=EDGE_CURVE('',#223,#197,#122,.T.);
#277=EDGE_CURVE('',#223,#210,#123,.T.);
#278=EDGE_CURVE('',#224,#223,#186,.T.);
#279=EDGE_CURVE('',#224,#196,#124,.T.);
#280=EDGE_CURVE('',#225,#224,#125,.T.);
#281=EDGE_CURVE('',#225,#195,#126,.T.);
#282=EDGE_CURVE('',#226,#225,#187,.T.);
#283=EDGE_CURVE('',#226,#194,#127,.T.);
#284=EDGE_CURVE('',#227,#226,#128,.T.);
#285=EDGE_CURVE('',#227,#193,#129,.T.);
#286=EDGE_CURVE('',#217,#227,#188,.T.);
#287=ORIENTED_EDGE('',*,*,#228,.T.);
#288=ORIENTED_EDGE('',*,*,#229,.T.);
#289=ORIENTED_EDGE('',*,*,#230,.T.);
#290=ORIENTED_EDGE('',*,*,#229,.F.);
#291=ORIENTED_EDGE('',*,*,#230,.F.);
#292=ORIENTED_EDGE('',*,*,#231,.T.);
#293=ORIENTED_EDGE('',*,*,#232,.T.);
#294=ORIENTED_EDGE('',*,*,#231,.F.);
#295=ORIENTED_EDGE('',*,*,#228,.F.);
#296=ORIENTED_EDGE('',*,*,#233,.T.);
#297=ORIENTED_EDGE('',*,*,#234,.T.);
#298=ORIENTED_EDGE('',*,*,#235,.T.);
#299=ORIENTED_EDGE('',*,*,#236,.T.);
#300=ORIENTED_EDGE('',*,*,#237,.T.);
#301=ORIENTED_EDGE('',*,*,#238,.T.);
#302=ORIENTED_EDGE('',*,*,#239,.F.);
#303=ORIENTED_EDGE('',*,*,#240,.T.);
#304=ORIENTED_EDGE('',*,*,#241,.T.);
#305=ORIENTED_EDGE('',*,*,#242,.T.);
#306=ORIENTED_EDGE('',*,*,#243,.T.);
#307=ORIENTED_EDGE('',*,*,#244,.T.);
#308=ORIENTED_EDGE('',*,*,#245,.T.);
#309=ORIENTED_EDGE('',*,*,#246,.T.);
#310=ORIENTED_EDGE('',*,*,#247,.F.);
#311=ORIENTED_EDGE('',*,*,#248,.T.);
#312=ORIENTED_EDGE('',*,*,#249,.T.);
#313=ORIENTED_EDGE('',*,*,#250,.T.);
#314=ORIENTED_EDGE('',*,*,#251,.T.);
#315=ORIENTED_EDGE('',*,*,#252,.T.);
#316=ORIENTED_EDGE('',*,*,#239,.T.);
#317=ORIENTED_EDGE('',*,*,#253,.T.);
#318=ORIENTED_EDGE('',*,*,#252,.F.);
#319=ORIENTED_EDGE('',*,*,#254,.T.);
#320=ORIENTED_EDGE('',*,*,#255,.T.);
#321=ORIENTED_EDGE('',*,*,#240,.F.);
#322=ORIENTED_EDGE('',*,*,#256,.T.);
#323=ORIENTED_EDGE('',*,*,#257,.T.);
#324=ORIENTED_EDGE('',*,*,#247,.T.);
#325=ORIENTED_EDGE('',*,*,#258,.T.);
#326=ORIENTED_EDGE('',*,*,#257,.F.);
#327=ORIENTED_EDGE('',*,*,#259,.T.);
#328=ORIENTED_EDGE('',*,*,#260,.T.);
#329=ORIENTED_EDGE('',*,*,#248,.F.);
#330=ORIENTED_EDGE('',*,*,#261,.T.);
#331=ORIENTED_EDGE('',*,*,#262,.T.);
#332=ORIENTED_EDGE('',*,*,#250,.F.);
#333=ORIENTED_EDGE('',*,*,#263,.F.);
#334=ORIENTED_EDGE('',*,*,#264,.T.);
#335=ORIENTED_EDGE('',*,*,#263,.T.);
#336=ORIENTED_EDGE('',*,*,#249,.F.);
#337=ORIENTED_EDGE('',*,*,#260,.F.);
#338=ORIENTED_EDGE('',*,*,#258,.F.);
#339=ORIENTED_EDGE('',*,*,#246,.F.);
#340=ORIENTED_EDGE('',*,*,#265,.F.);
#341=ORIENTED_EDGE('',*,*,#266,.T.);
#342=ORIENTED_EDGE('',*,*,#267,.T.);
#343=ORIENTED_EDGE('',*,*,#265,.T.);
#344=ORIENTED_EDGE('',*,*,#245,.F.);
#345=ORIENTED_EDGE('',*,*,#268,.F.);
#346=ORIENTED_EDGE('',*,*,#269,.T.);
#347=ORIENTED_EDGE('',*,*,#268,.T.);
#348=ORIENTED_EDGE('',*,*,#244,.F.);
#349=ORIENTED_EDGE('',*,*,#270,.F.);
#350=ORIENTED_EDGE('',*,*,#271,.T.);
#351=ORIENTED_EDGE('',*,*,#270,.T.);
#352=ORIENTED_EDGE('',*,*,#243,.F.);
#353=ORIENTED_EDGE('',*,*,#272,.F.);
#354=ORIENTED_EDGE('',*,*,#273,.T.);
#355=ORIENTED_EDGE('',*,*,#272,.T.);
#356=ORIENTED_EDGE('',*,*,#242,.F.);
#357=ORIENTED_EDGE('',*,*,#274,.F.);
#358=ORIENTED_EDGE('',*,*,#275,.T.);
#359=ORIENTED_EDGE('',*,*,#274,.T.);
#360=ORIENTED_EDGE('',*,*,#241,.F.);
#361=ORIENTED_EDGE('',*,*,#255,.F.);
#362=ORIENTED_EDGE('',*,*,#253,.F.);
#363=ORIENTED_EDGE('',*,*,#238,.F.);
#364=ORIENTED_EDGE('',*,*,#276,.F.);
#365=ORIENTED_EDGE('',*,*,#277,.T.);
#366=ORIENTED_EDGE('',*,*,#278,.T.);
#367=ORIENTED_EDGE('',*,*,#276,.T.);
#368=ORIENTED_EDGE('',*,*,#237,.F.);
#369=ORIENTED_EDGE('',*,*,#279,.F.);
#370=ORIENTED_EDGE('',*,*,#280,.T.);
#371=ORIENTED_EDGE('',*,*,#279,.T.);
#372=ORIENTED_EDGE('',*,*,#236,.F.);
#373=ORIENTED_EDGE('',*,*,#281,.F.);
#374=ORIENTED_EDGE('',*,*,#282,.T.);
#375=ORIENTED_EDGE('',*,*,#281,.T.);
#376=ORIENTED_EDGE('',*,*,#235,.F.);
#377=ORIENTED_EDGE('',*,*,#283,.F.);
#378=ORIENTED_EDGE('',*,*,#284,.T.);
#379=ORIENTED_EDGE('',*,*,#283,.T.);
#380=ORIENTED_EDGE('',*,*,#234,.F.);
#381=ORIENTED_EDGE('',*,*,#285,.F.);
#382=ORIENTED_EDGE('',*,*,#286,.T.);
#383=ORIENTED_EDGE('',*,*,#285,.T.);
#384=ORIENTED_EDGE('',*,*,#233,.F.);
#385=ORIENTED_EDGE('',*,*,#262,.F.);
#386=ORIENTED_EDGE('',*,*,#232,.F.);
#387=ORIENTED_EDGE('',*,*,#286,.F.);
#388=ORIENTED_EDGE('',*,*,#261,.F.);
#389=ORIENTED_EDGE('',*,*,#264,.F.);
#390=ORIENTED_EDGE('',*,*,#259,.F.);
#391=ORIENTED_EDGE('',*,*,#256,.F.);
#392=ORIENTED_EDGE('',*,*,#266,.F.);
#393=ORIENTED_EDGE('',*,*,#267,.F.);
#394=ORIENTED_EDGE('',*,*,#269,.F.);
#395=ORIENTED_EDGE('',*,*,#271,.F.);
#396=ORIENTED_EDGE('',*,*,#273,.F.);
#397=ORIENTED_EDGE('',*,*,#275,.F.);
#398=ORIENTED_EDGE('',*,*,#254,.F.);
#399=ORIENTED_EDGE('',*,*,#251,.F.);
#400=ORIENTED_EDGE('',*,*,#277,.F.);
#401=ORIENTED_EDGE('',*,*,#278,.F.);
#402=ORIENTED_EDGE('',*,*,#280,.F.);
#403=ORIENTED_EDGE('',*,*,#282,.F.);
#404=ORIENTED_EDGE('',*,*,#284,.F.);
#405=CONICAL_SURFACE('',#442,9.50000014901161,0.785398163397448);
#406=ADVANCED_FACE('',(#38),#405,.T.);
#407=ADVANCED_FACE('',(#39),#32,.T.);
#408=ADVANCED_FACE('',(#40,#15),#17,.T.);
#409=ADVANCED_FACE('',(#41),#18,.T.);
#410=ADVANCED_FACE('',(#42),#19,.T.);
#411=ADVANCED_FACE('',(#43),#20,.T.);
#412=ADVANCED_FACE('',(#44),#21,.T.);
#413=ADVANCED_FACE('',(#45),#22,.T.);
#414=ADVANCED_FACE('',(#46),#33,.F.);
#415=ADVANCED_FACE('',(#47),#23,.T.);
#416=ADVANCED_FACE('',(#48),#24,.T.);
#417=ADVANCED_FACE('',(#49),#25,.T.);
#418=ADVANCED_FACE('',(#50),#34,.F.);
#419=ADVANCED_FACE('',(#51),#26,.T.);
#420=ADVANCED_FACE('',(#52),#27,.T.);
#421=ADVANCED_FACE('',(#53),#28,.T.);
#422=ADVANCED_FACE('',(#54),#35,.F.);
#423=ADVANCED_FACE('',(#55),#29,.T.);
#424=ADVANCED_FACE('',(#56),#36,.F.);
#425=ADVANCED_FACE('',(#57),#30,.T.);
#426=ADVANCED_FACE('',(#58),#37,.F.);
#427=ADVANCED_FACE('',(#59,#16),#31,.F.);
#428=CLOSED_SHELL('',(#406,#407,#408,#409,#410,#411,#412,#413,#414,#415,
#416,#417,#418,#419,#420,#421,#422,#423,#424,#425,#426,#427));
#429=DERIVED_UNIT_ELEMENT(#431,1.);
#430=DERIVED_UNIT_ELEMENT(#721,-3.);
#431=(
MASS_UNIT()
NAMED_UNIT(*)
SI_UNIT(.KILO.,.GRAM.)
);
#432=DERIVED_UNIT((#429,#430));
#433=MEASURE_REPRESENTATION_ITEM('density measure',
POSITIVE_RATIO_MEASURE(7850.),#432);
#434=PROPERTY_DEFINITION_REPRESENTATION(#439,#436);
#435=PROPERTY_DEFINITION_REPRESENTATION(#440,#437);
#436=REPRESENTATION('material name',(#438),#718);
#437=REPRESENTATION('density',(#433),#718);
#438=DESCRIPTIVE_REPRESENTATION_ITEM('Steel','Steel');
#439=PROPERTY_DEFINITION('material property','material name',#728);
#440=PROPERTY_DEFINITION('material property','density of part',#728);
#441=AXIS2_PLACEMENT_3D('',#595,#477,#478);
#442=AXIS2_PLACEMENT_3D('',#596,#479,#480);
#443=AXIS2_PLACEMENT_3D('',#598,#481,#482);
#444=AXIS2_PLACEMENT_3D('',#601,#484,#485);
#445=AXIS2_PLACEMENT_3D('',#602,#486,#487);
#446=AXIS2_PLACEMENT_3D('',#605,#489,#490);
#447=AXIS2_PLACEMENT_3D('',#606,#491,#492);
#448=AXIS2_PLACEMENT_3D('',#609,#493,#494);
#449=AXIS2_PLACEMENT_3D('',#613,#496,#497);
#450=AXIS2_PLACEMENT_3D('',#617,#499,#500);
#451=AXIS2_PLACEMENT_3D('',#629,#506,#507);
#452=AXIS2_PLACEMENT_3D('',#641,#513,#514);
#453=AXIS2_PLACEMENT_3D('',#643,#516,#517);
#454=AXIS2_PLACEMENT_3D('',#649,#521,#522);
#455=AXIS2_PLACEMENT_3D('',#653,#525,#526);
#456=AXIS2_PLACEMENT_3D('',#659,#530,#531);
#457=AXIS2_PLACEMENT_3D('',#663,#534,#535);
#458=AXIS2_PLACEMENT_3D('',#669,#539,#540);
#459=AXIS2_PLACEMENT_3D('',#670,#541,#542);
#460=AXIS2_PLACEMENT_3D('',#671,#543,#544);
#461=AXIS2_PLACEMENT_3D('',#675,#547,#548);
#462=AXIS2_PLACEMENT_3D('',#679,#551,#552);
#463=AXIS2_PLACEMENT_3D('',#683,#555,#556);
#464=AXIS2_PLACEMENT_3D('',#685,#557,#558);
#465=AXIS2_PLACEMENT_3D('',#687,#560,#561);
#466=AXIS2_PLACEMENT_3D('',#691,#564,#565);
#467=AXIS2_PLACEMENT_3D('',#693,#567,#568);
#468=AXIS2_PLACEMENT_3D('',#697,#571,#572);
#469=AXIS2_PLACEMENT_3D('',#699,#573,#574);
#470=AXIS2_PLACEMENT_3D('',#701,#576,#577);
#471=AXIS2_PLACEMENT_3D('',#705,#580,#581);
#472=AXIS2_PLACEMENT_3D('',#707,#582,#583);
#473=AXIS2_PLACEMENT_3D('',#709,#585,#586);
#474=AXIS2_PLACEMENT_3D('',#713,#589,#590);
#475=AXIS2_PLACEMENT_3D('',#714,#591,#592);
#476=AXIS2_PLACEMENT_3D('',#715,#593,#594);
#477=DIRECTION('axis',(0.,0.,1.));
#478=DIRECTION('refdir',(1.,0.,0.));
#479=DIRECTION('center_axis',(0.,0.,-1.));
#480=DIRECTION('ref_axis',(1.,0.,0.));
#481=DIRECTION('center_axis',(0.,0.,-1.));
#482=DIRECTION('ref_axis',(1.,0.,0.));
#483=DIRECTION('',(-0.707106781186547,-8.65956056235493E-17,-0.707106781186548));
#484=DIRECTION('center_axis',(0.,0.,1.));
#485=DIRECTION('ref_axis',(1.,0.,0.));
#486=DIRECTION('center_axis',(0.,0.,1.));
#487=DIRECTION('ref_axis',(1.,0.,0.));
#488=DIRECTION('',(0.,0.,-1.));
#489=DIRECTION('center_axis',(0.,0.,1.));
#490=DIRECTION('ref_axis',(1.,0.,0.));
#491=DIRECTION('center_axis',(0.,0.,1.));
#492=DIRECTION('ref_axis',(1.,0.,0.));
#493=DIRECTION('center_axis',(0.,0.,-1.));
#494=DIRECTION('ref_axis',(0.,1.,0.));
#495=DIRECTION('',(1.,0.,0.));
#496=DIRECTION('center_axis',(0.,0.,-1.));
#497=DIRECTION('ref_axis',(1.,0.,0.));
#498=DIRECTION('',(0.,-1.,0.));
#499=DIRECTION('center_axis',(0.,0.,-1.));
#500=DIRECTION('ref_axis',(0.,-1.,0.));
#501=DIRECTION('',(-1.,-6.07377876836581E-17,0.));
#502=DIRECTION('',(0.707106781186548,-0.707106781186547,0.));
#503=DIRECTION('',(0.,1.,0.));
#504=DIRECTION('',(-1.,0.,0.));
#505=DIRECTION('',(0.,-1.,0.));
#506=DIRECTION('center_axis',(0.,0.,-1.));
#507=DIRECTION('ref_axis',(1.,0.,0.));
#508=DIRECTION('',(0.,1.,0.));
#509=DIRECTION('',(-1.,0.,0.));
#510=DIRECTION('',(0.,-1.,0.));
#511=DIRECTION('',(0.707106781186548,0.707106781186547,0.));
#512=DIRECTION('',(-1.,-6.07377876836581E-17,0.));
#513=DIRECTION('center_axis',(0.,0.,-1.));
#514=DIRECTION('ref_axis',(-1.,0.,0.));
#515=DIRECTION('',(0.,1.,0.));
#516=DIRECTION('center_axis',(0.707106781186547,0.707106781186548,0.));
#517=DIRECTION('ref_axis',(0.,0.,-1.));
#518=DIRECTION('',(-0.707106781186548,0.707106781186547,0.));
#519=DIRECTION('',(0.,0.,1.));
#520=DIRECTION('',(0.,0.,-1.));
#521=DIRECTION('center_axis',(1.,0.,0.));
#522=DIRECTION('ref_axis',(0.,1.,0.));
#523=DIRECTION('',(0.,1.,0.));
#524=DIRECTION('',(0.,0.,1.));
#525=DIRECTION('center_axis',(-0.707106781186547,0.707106781186548,0.));
#526=DIRECTION('ref_axis',(0.,0.,1.));
#527=DIRECTION('',(-0.707106781186548,-0.707106781186547,0.));
#528=DIRECTION('',(0.,0.,1.));
#529=DIRECTION('',(0.,0.,-1.));
#530=DIRECTION('center_axis',(-6.07377876836581E-17,1.,0.));
#531=DIRECTION('ref_axis',(-1.,-6.07377876836581E-17,0.));
#532=DIRECTION('',(-1.,-6.07377876836581E-17,0.));
#533=DIRECTION('',(0.,0.,1.));
#534=DIRECTION('center_axis',(1.,0.,0.));
#535=DIRECTION('ref_axis',(0.,1.,0.));
#536=DIRECTION('',(0.,1.,0.));
#537=DIRECTION('',(0.,0.,1.));
#538=DIRECTION('',(0.,0.,1.));
#539=DIRECTION('center_axis',(0.,0.,1.));
#540=DIRECTION('ref_axis',(-1.,0.,0.));
#541=DIRECTION('center_axis',(0.,0.,-1.));
#542=DIRECTION('ref_axis',(-1.,0.,0.));
#543=DIRECTION('center_axis',(-1.,0.,0.));
#544=DIRECTION('ref_axis',(0.,-1.,0.));
#545=DIRECTION('',(0.,0.,1.));
#546=DIRECTION('',(0.,-1.,0.));
#547=DIRECTION('center_axis',(0.,1.,0.));
#548=DIRECTION('ref_axis',(-1.,0.,0.));
#549=DIRECTION('',(-1.,0.,0.));
#550=DIRECTION('',(0.,0.,1.));
#551=DIRECTION('center_axis',(1.,0.,0.));
#552=DIRECTION('ref_axis',(0.,1.,0.));
#553=DIRECTION('',(0.,1.,0.));
#554=DIRECTION('',(0.,0.,1.));
#555=DIRECTION('center_axis',(0.,0.,1.));
#556=DIRECTION('ref_axis',(-1.83697019872103E-16,-1.,0.));
#557=DIRECTION('center_axis',(0.,0.,-1.));
#558=DIRECTION('ref_axis',(1.,0.,0.));
#559=DIRECTION('',(0.,0.,1.));
#560=DIRECTION('center_axis',(-1.,0.,0.));
#561=DIRECTION('ref_axis',(0.,-1.,0.));
#562=DIRECTION('',(0.,-1.,0.));
#563=DIRECTION('',(0.,0.,1.));
#564=DIRECTION('center_axis',(0.,1.,0.));
#565=DIRECTION('ref_axis',(-1.,0.,0.));
#566=DIRECTION('',(-1.,0.,0.));
#567=DIRECTION('center_axis',(-6.07377876836581E-17,1.,0.));
#568=DIRECTION('ref_axis',(-1.,-6.07377876836581E-17,0.));
#569=DIRECTION('',(0.,0.,1.));
#570=DIRECTION('',(-1.,-6.07377876836581E-17,0.));
#571=DIRECTION('center_axis',(0.,0.,1.));
#572=DIRECTION('ref_axis',(0.,-1.,0.));
#573=DIRECTION('center_axis',(0.,0.,-1.));
#574=DIRECTION('ref_axis',(0.,-1.,0.));
#575=DIRECTION('',(0.,0.,1.));
#576=DIRECTION('center_axis',(-1.,0.,0.));
#577=DIRECTION('ref_axis',(0.,-1.,0.));
#578=DIRECTION('',(0.,-1.,0.));
#579=DIRECTION('',(0.,0.,1.));
#580=DIRECTION('center_axis',(0.,0.,1.));
#581=DIRECTION('ref_axis',(1.,0.,0.));
#582=DIRECTION('center_axis',(0.,0.,-1.));
#583=DIRECTION('ref_axis',(1.,0.,0.));
#584=DIRECTION('',(0.,0.,1.));
#585=DIRECTION('center_axis',(0.,-1.,0.));
#586=DIRECTION('ref_axis',(1.,0.,0.));
#587=DIRECTION('',(1.,0.,0.));
#588=DIRECTION('',(0.,0.,1.));
#589=DIRECTION('center_axis',(0.,0.,1.));
#590=DIRECTION('ref_axis',(0.,1.,0.));
#591=DIRECTION('center_axis',(0.,0.,-1.));
#592=DIRECTION('ref_axis',(0.,1.,0.));
#593=DIRECTION('center_axis',(0.,0.,1.));
#594=DIRECTION('ref_axis',(1.,0.,0.));
#595=CARTESIAN_POINT('',(0.,0.,0.));
#596=CARTESIAN_POINT('Origin',(0.,0.,2.5));
#597=CARTESIAN_POINT('',(-9.00000014901161,1.10218213748128E-15,3.));
#598=CARTESIAN_POINT('Origin',(0.,0.,3.));
#599=CARTESIAN_POINT('',(-10.0000001490116,-1.22464681739601E-15,2.));
#600=CARTESIAN_POINT('',(-9.50000014901161,-1.16341447743864E-15,2.5));
#601=CARTESIAN_POINT('Origin',(0.,0.,2.));
#602=CARTESIAN_POINT('Origin',(0.,0.,0.));
#603=CARTESIAN_POINT('',(-10.0000001490116,-1.22464681739601E-15,0.));
#604=CARTESIAN_POINT('',(-10.0000001490116,-1.22464681739601E-15,0.));
#605=CARTESIAN_POINT('Origin',(0.,0.,0.));
#606=CARTESIAN_POINT('Origin',(0.,0.,3.));
#607=CARTESIAN_POINT('',(-6.,5.03582832738312,3.));
#608=CARTESIAN_POINT('',(-3.99999999999989,7.03582832738323,3.));
#609=CARTESIAN_POINT('Origin',(-3.99999999999989,5.03582832738312,3.));
#610=CARTESIAN_POINT('',(4.,7.03582832738323,3.));
#611=CARTESIAN_POINT('',(-3.99999999999989,7.03582832738323,3.));
#612=CARTESIAN_POINT('',(6.,5.03582832738323,3.));
#613=CARTESIAN_POINT('Origin',(4.,5.03582832738323,3.));
#614=CARTESIAN_POINT('',(6.,1.00000000000005,3.));
#615=CARTESIAN_POINT('',(6.,5.03582832738323,3.));
#616=CARTESIAN_POINT('',(4.99999999999996,0.,3.));
#617=CARTESIAN_POINT('Origin',(4.99999999999995,1.00000000000005,3.));
#618=CARTESIAN_POINT('',(3.28668200081647,-3.33801675313579E-16,3.));
#619=CARTESIAN_POINT('',(-5.,-8.37116407281162E-16,3.));
#620=CARTESIAN_POINT('',(2.68668200081647,0.6,3.));
#621=CARTESIAN_POINT('',(2.31501150061236,0.971670500204118,3.));
#622=CARTESIAN_POINT('',(2.68668200081647,2.8354409012912,3.));
#623=CARTESIAN_POINT('',(2.68668200081647,3.12250225675825E-16,3.));
#624=CARTESIAN_POINT('',(0.686682000816474,2.8354409012912,3.));
#625=CARTESIAN_POINT('',(2.68668200081647,2.8354409012912,3.));
#626=CARTESIAN_POINT('',(0.686682000816474,0.922479175783759,3.));
#627=CARTESIAN_POINT('',(0.686682000816474,2.8354409012912,3.));
#628=CARTESIAN_POINT('',(-0.686682000816474,0.922479175783759,3.));
#629=CARTESIAN_POINT('Origin',(0.,0.,3.));
#630=CARTESIAN_POINT('',(-0.686682000816474,2.79999993741512,3.));
#631=CARTESIAN_POINT('',(-0.686682000816474,2.79999993741512,3.));
#632=CARTESIAN_POINT('',(-2.68668200081647,2.79999993741512,3.));
#633=CARTESIAN_POINT('',(-2.68668200081647,2.79999993741512,3.));
#634=CARTESIAN_POINT('',(-2.68668200081647,0.599999999999999,3.));
#635=CARTESIAN_POINT('',(-2.68668200081647,-7.37257477290143E-17,3.));
#636=CARTESIAN_POINT('',(-3.28668200081647,-7.33053262412163E-16,3.));
#637=CARTESIAN_POINT('',(-2.31501150061236,0.971670500204118,3.));
#638=CARTESIAN_POINT('',(-5.,-1.11022302462516E-15,3.));
#639=CARTESIAN_POINT('',(-5.,-8.37116407281162E-16,3.));
#640=CARTESIAN_POINT('',(-6.,0.999999999999995,3.));
#641=CARTESIAN_POINT('Origin',(-5.,0.999999999999995,3.));
#642=CARTESIAN_POINT('',(-6.,0.999999999999995,3.));
#643=CARTESIAN_POINT('Origin',(2.98668200081647,0.3,0.));
#644=CARTESIAN_POINT('',(3.28668200081647,-3.33801675313579E-16,0.));
#645=CARTESIAN_POINT('',(2.68668200081647,0.6,0.));
#646=CARTESIAN_POINT('',(2.31501150061236,0.971670500204118,0.));
#647=CARTESIAN_POINT('',(2.68668200081647,0.6,0.));
#648=CARTESIAN_POINT('',(3.28668200081647,-2.77555756156289E-16,0.));
#649=CARTESIAN_POINT('Origin',(2.68668200081647,3.12250225675825E-16,0.));
#650=CARTESIAN_POINT('',(2.68668200081647,2.8354409012912,0.));
#651=CARTESIAN_POINT('',(2.68668200081647,3.12250225675825E-16,0.));
#652=CARTESIAN_POINT('',(2.68668200081647,2.8354409012912,0.));
#653=CARTESIAN_POINT('Origin',(-2.98668200081647,0.299999999999999,0.));
#654=CARTESIAN_POINT('',(-2.68668200081647,0.599999999999999,0.));
#655=CARTESIAN_POINT('',(-3.28668200081647,-7.33053262412163E-16,0.));
#656=CARTESIAN_POINT('',(-2.31501150061236,0.971670500204118,0.));
#657=CARTESIAN_POINT('',(-3.28668200081647,-7.63278329429795E-16,0.));
#658=CARTESIAN_POINT('',(-2.68668200081647,0.599999999999999,0.));
#659=CARTESIAN_POINT('Origin',(-2.68668200081647,-6.96610589801968E-16,
0.));
#660=CARTESIAN_POINT('',(-5.,-1.38777878078145E-15,0.));
#661=CARTESIAN_POINT('',(-5.,-8.37116407281162E-16,0.));
#662=CARTESIAN_POINT('',(-5.,-1.38777878078145E-15,0.));
#663=CARTESIAN_POINT('Origin',(-6.,0.999999999999995,0.));
#664=CARTESIAN_POINT('',(-6.,0.999999999999995,0.));
#665=CARTESIAN_POINT('',(-6.,5.03582832738312,0.));
#666=CARTESIAN_POINT('',(-6.,0.999999999999995,0.));
#667=CARTESIAN_POINT('',(-6.,5.03582832738312,0.));
#668=CARTESIAN_POINT('',(-6.,0.999999999999995,0.));
#669=CARTESIAN_POINT('Origin',(-5.,0.999999999999995,0.));
#670=CARTESIAN_POINT('Origin',(-5.,0.999999999999995,0.));
#671=CARTESIAN_POINT('Origin',(-2.68668200081647,2.79999993741512,0.));
#672=CARTESIAN_POINT('',(-2.68668200081647,2.79999993741512,0.));
#673=CARTESIAN_POINT('',(-2.68668200081647,2.79999993741512,0.));
#674=CARTESIAN_POINT('',(-2.68668200081647,-7.37257477290143E-17,0.));
#675=CARTESIAN_POINT('Origin',(-0.686682000816474,2.79999993741512,0.));
#676=CARTESIAN_POINT('',(-0.686682000816474,2.79999993741512,0.));
#677=CARTESIAN_POINT('',(-2.68668200081647,2.79999993741512,0.));
#678=CARTESIAN_POINT('',(-0.686682000816474,2.79999993741512,0.));
#679=CARTESIAN_POINT('Origin',(-0.686682000816474,0.922479175783759,0.));
#680=CARTESIAN_POINT('',(-0.686682000816474,0.922479175783759,0.));
#681=CARTESIAN_POINT('',(-0.686682000816474,2.79999993741512,0.));
#682=CARTESIAN_POINT('',(-0.686682000816474,0.922479175783759,0.));
#683=CARTESIAN_POINT('Origin',(0.,0.,0.));
#684=CARTESIAN_POINT('',(0.686682000816474,0.922479175783759,0.));
#685=CARTESIAN_POINT('Origin',(0.,0.,0.));
#686=CARTESIAN_POINT('',(0.686682000816474,0.922479175783759,0.));
#687=CARTESIAN_POINT('Origin',(0.686682000816474,2.8354409012912,0.));
#688=CARTESIAN_POINT('',(0.686682000816474,2.8354409012912,0.));
#689=CARTESIAN_POINT('',(0.686682000816474,2.8354409012912,0.));
#690=CARTESIAN_POINT('',(0.686682000816474,2.8354409012912,0.));
#691=CARTESIAN_POINT('Origin',(2.68668200081647,2.8354409012912,0.));
#692=CARTESIAN_POINT('',(2.68668200081647,2.8354409012912,0.));
#693=CARTESIAN_POINT('Origin',(4.99999999999995,-2.29738530444583E-16,0.));
#694=CARTESIAN_POINT('',(4.99999999999995,-2.77555756156289E-16,0.));
#695=CARTESIAN_POINT('',(4.99999999999995,-2.77555756156289E-16,0.));
#696=CARTESIAN_POINT('',(-5.,-8.37116407281162E-16,0.));
#697=CARTESIAN_POINT('Origin',(4.99999999999995,1.00000000000005,0.));
#698=CARTESIAN_POINT('',(6.,1.00000000000005,0.));
#699=CARTESIAN_POINT('Origin',(4.99999999999995,1.00000000000005,0.));
#700=CARTESIAN_POINT('',(6.,1.00000000000005,0.));
#701=CARTESIAN_POINT('Origin',(6.,5.03582832738323,0.));
#702=CARTESIAN_POINT('',(6.,5.03582832738323,0.));
#703=CARTESIAN_POINT('',(6.,5.03582832738323,0.));
#704=CARTESIAN_POINT('',(6.,5.03582832738323,0.));
#705=CARTESIAN_POINT('Origin',(4.,5.03582832738323,0.));
#706=CARTESIAN_POINT('',(4.,7.03582832738323,0.));
#707=CARTESIAN_POINT('Origin',(4.,5.03582832738323,0.));
#708=CARTESIAN_POINT('',(4.,7.03582832738323,0.));
#709=CARTESIAN_POINT('Origin',(-3.99999999999989,7.03582832738323,0.));
#710=CARTESIAN_POINT('',(-3.99999999999989,7.03582832738323,0.));
#711=CARTESIAN_POINT('',(-3.99999999999989,7.03582832738323,0.));
#712=CARTESIAN_POINT('',(-3.99999999999989,7.03582832738323,0.));
#713=CARTESIAN_POINT('Origin',(-3.99999999999989,5.03582832738312,0.));
#714=CARTESIAN_POINT('Origin',(-3.99999999999989,5.03582832738312,0.));
#715=CARTESIAN_POINT('Origin',(0.,0.,0.));
#716=UNCERTAINTY_MEASURE_WITH_UNIT(LENGTH_MEASURE(0.01),#720,
'DISTANCE_ACCURACY_VALUE',
'Maximum model space distance between geometric entities at asserted c
onnectivities');
#717=UNCERTAINTY_MEASURE_WITH_UNIT(LENGTH_MEASURE(0.01),#720,
'DISTANCE_ACCURACY_VALUE',
'Maximum model space distance between geometric entities at asserted c
onnectivities');
#718=(
GEOMETRIC_REPRESENTATION_CONTEXT(3)
GLOBAL_UNCERTAINTY_ASSIGNED_CONTEXT((#716))
GLOBAL_UNIT_ASSIGNED_CONTEXT((#720,#722,#723))
REPRESENTATION_CONTEXT('','3D')
);
#719=(
GEOMETRIC_REPRESENTATION_CONTEXT(3)
GLOBAL_UNCERTAINTY_ASSIGNED_CONTEXT((#717))
GLOBAL_UNIT_ASSIGNED_CONTEXT((#720,#722,#723))
REPRESENTATION_CONTEXT('','3D')
);
#720=(
LENGTH_UNIT()
NAMED_UNIT(*)
SI_UNIT(.MILLI.,.METRE.)
);
#721=(
LENGTH_UNIT()
NAMED_UNIT(*)
SI_UNIT($,.METRE.)
);
#722=(
NAMED_UNIT(*)
PLANE_ANGLE_UNIT()
SI_UNIT($,.RADIAN.)
);
#723=(
NAMED_UNIT(*)
SI_UNIT($,.STERADIAN.)
SOLID_ANGLE_UNIT()
);
#724=SHAPE_DEFINITION_REPRESENTATION(#725,#726);
#725=PRODUCT_DEFINITION_SHAPE('',$,#728);
#726=SHAPE_REPRESENTATION('',(#441),#718);
#727=PRODUCT_DEFINITION_CONTEXT('part definition',#732,'design');
#728=PRODUCT_DEFINITION('2026-08-03-19-29-42-971','centerDisk',#729,#727);
#729=PRODUCT_DEFINITION_FORMATION('',$,#734);
#730=PRODUCT_RELATED_PRODUCT_CATEGORY('centerDisk','centerDisk',(#734));
#731=APPLICATION_PROTOCOL_DEFINITION('international standard',
'automotive_design',2009,#732);
#732=APPLICATION_CONTEXT(
'Core Data for Automotive Mechanical Design Process');
#733=PRODUCT_CONTEXT('part definition',#732,'mechanical');
#734=PRODUCT('2026-08-03-19-29-42-971','centerDisk',$,(#733));
#735=PRESENTATION_STYLE_ASSIGNMENT((#736));
#736=SURFACE_STYLE_USAGE(.BOTH.,#737);
#737=SURFACE_SIDE_STYLE('',(#738));
#738=SURFACE_STYLE_FILL_AREA(#739);
#739=FILL_AREA_STYLE('Steel - Satin',(#740));
#740=FILL_AREA_STYLE_COLOUR('Steel - Satin',#741);
#741=COLOUR_RGB('Steel - Satin',0.627450980392157,0.627450980392157,0.627450980392157);
ENDSEC;
END-ISO-10303-21;
