ISO-10303-21;
HEADER;
/* Generated by software containing ST-Developer
 * from STEP Tools, Inc. (www.steptools.com) 
 */

FILE_DESCRIPTION(
/* description */ (''),
/* implementation_level */ '2;1');

FILE_NAME(
/* name */ 'fiberHolderCase2.step',
/* time_stamp */ '2026-08-03T19:35:14+02:00',
/* author */ (''),
/* organization */ (''),
/* preprocessor_version */ 'ST-DEVELOPER v20.1',
/* originating_system */ 'Autodesk Translation Framework v15.8.0.0',
/* authorisation */ '');

FILE_SCHEMA (('AUTOMOTIVE_DESIGN { 1 0 10303 214 3 1 1 }'));
ENDSEC;

DATA;
#10=MECHANICAL_DESIGN_GEOMETRIC_PRESENTATION_REPRESENTATION('',(#13),#1437);
#11=SHAPE_REPRESENTATION_RELATIONSHIP('SRR','None',#1444,#12);
#12=ADVANCED_BREP_SHAPE_REPRESENTATION('',(#14),#1436);
#13=STYLED_ITEM('',(#1453),#14);
#14=MANIFOLD_SOLID_BREP('Body2',#673);
#15=CONICAL_SURFACE('',#731,19.,0.785398163397448);
#16=FACE_BOUND('',#100,.T.);
#17=FACE_BOUND('',#101,.T.);
#18=FACE_BOUND('',#102,.T.);
#19=FACE_BOUND('',#103,.T.);
#20=FACE_BOUND('',#111,.T.);
#21=FACE_BOUND('',#114,.T.);
#22=FACE_BOUND('',#117,.T.);
#23=FACE_BOUND('',#120,.T.);
#24=FACE_BOUND('',#125,.T.);
#25=FACE_BOUND('',#126,.T.);
#26=FACE_BOUND('',#129,.T.);
#27=FACE_BOUND('',#130,.T.);
#28=FACE_BOUND('',#131,.T.);
#29=FACE_BOUND('',#132,.T.);
#30=FACE_BOUND('',#141,.T.);
#31=FACE_BOUND('',#142,.T.);
#32=B_SPLINE_CURVE_WITH_KNOTS('',3,(#988,#989,#990,#991,#992,#993,#994,
#995,#996,#997,#998,#999,#1000,#1001,#1002,#1003,#1004,#1005,#1006,#1007,
#1008,#1009,#1010,#1011,#1012,#1013,#1014,#1015,#1016,#1017,#1018,#1019,
#1020,#1021,#1022,#1023,#1024,#1025),.UNSPECIFIED.,.T.,.F.,(4,2,2,2,2,2,
2,2,2,2,2,2,2,2,2,2,2,2,4),(0.,0.031688351052746,0.063376702105492,0.126753404210984,
0.231867983312587,0.336982562414189,0.423393015516123,0.509803468618057,
0.568526601687309,0.627249734756561,0.685972867825812,0.744696000895064,
0.831106453996998,0.917516907098932,1.02263148620053,1.12774606530214,1.19112276740763,
1.22281111846038,1.25449946951312),.UNSPECIFIED.);
#33=B_SPLINE_CURVE_WITH_KNOTS('',3,(#1027,#1028,#1029,#1030,#1031,#1032,
#1033,#1034,#1035,#1036,#1037,#1038,#1039,#1040,#1041,#1042,#1043,#1044,
#1045,#1046,#1047,#1048,#1049,#1050,#1051,#1052,#1053,#1054,#1055,#1056,
#1057,#1058,#1059,#1060,#1061,#1062,#1063,#1064),.UNSPECIFIED.,.T.,.F.,
(4,2,2,2,2,2,2,2,2,2,2,2,2,2,2,2,2,2,4),(0.,0.0316883510527461,0.0633767021054923,
0.126753404210985,0.231867983312587,0.33698256241419,0.423393015516124,
0.509803468618058,0.56852660168731,0.627249734756561,0.685972867825813,
0.744696000895064,0.831106453996998,0.917516907098933,1.02263148620054,
1.12774606530214,1.19112276740763,1.22281111846038,1.25449946951312),
 .UNSPECIFIED.);
#34=B_SPLINE_CURVE_WITH_KNOTS('',3,(#1066,#1067,#1068,#1069,#1070,#1071,
#1072,#1073,#1074,#1075,#1076,#1077,#1078,#1079,#1080,#1081,#1082,#1083,
#1084,#1085,#1086,#1087,#1088,#1089,#1090,#1091,#1092,#1093,#1094,#1095,
#1096,#1097,#1098,#1099,#1100,#1101,#1102,#1103),.UNSPECIFIED.,.T.,.F.,
(4,2,2,2,2,2,2,2,2,2,2,2,2,2,2,2,2,2,4),(0.,0.0587231330692517,0.117446266138503,
0.203856719240438,0.290267172342372,0.395381751443975,0.500496330545579,
0.563873032651071,0.595561383703817,0.627249734756563,0.658938085809309,
0.690626436862055,0.754003138967548,0.859117718069151,0.964232297170754,
1.05064275027269,1.13705320337462,1.19577633644387,1.25449946951313),
 .UNSPECIFIED.);
#35=B_SPLINE_CURVE_WITH_KNOTS('',3,(#1105,#1106,#1107,#1108,#1109,#1110,
#1111,#1112,#1113,#1114,#1115,#1116,#1117,#1118,#1119,#1120,#1121,#1122,
#1123,#1124,#1125,#1126,#1127,#1128,#1129,#1130,#1131,#1132,#1133,#1134,
#1135,#1136,#1137,#1138,#1139,#1140,#1141,#1142),.UNSPECIFIED.,.T.,.F.,
(4,2,2,2,2,2,2,2,2,2,2,2,2,2,2,2,2,2,4),(0.,0.0587231330692515,0.117446266138503,
0.203856719240437,0.290267172342371,0.395381751443974,0.500496330545577,
0.56387303265107,0.595561383703816,0.627249734756562,0.658938085809308,
0.690626436862054,0.754003138967547,0.85911771806915,0.964232297170753,
1.05064275027269,1.13705320337462,1.19577633644387,1.25449946951312),
 .UNSPECIFIED.);
#36=B_SPLINE_CURVE_WITH_KNOTS('',3,(#1187,#1188,#1189,#1190,#1191,#1192,
#1193,#1194,#1195,#1196,#1197,#1198,#1199,#1200,#1201,#1202,#1203,#1204,
#1205,#1206,#1207,#1208,#1209,#1210,#1211,#1212,#1213,#1214,#1215,#1216),
 .UNSPECIFIED.,.F.,.F.,(4,2,2,2,2,2,2,2,2,2,2,2,2,2,4),(0.255618646771105,
0.307622488124175,0.499405639246993,0.691188790369811,0.85924690596478,
1.02730502155975,1.17661104559731,1.32591706963487,1.47522309367243,1.62452911771,
1.79258723330496,1.96064534889993,2.15242850002275,2.34421165114557,2.39621549249864),
 .UNSPECIFIED.);
#37=B_SPLINE_CURVE_WITH_KNOTS('',3,(#1225,#1226,#1227,#1228,#1229,#1230,
#1231,#1232,#1233,#1234,#1235,#1236,#1237,#1238,#1239,#1240,#1241,#1242,
#1243,#1244,#1245,#1246,#1247,#1248,#1249,#1250,#1251,#1252,#1253,#1254,
#1255),.UNSPECIFIED.,.F.,.F.,(4,2,2,2,2,2,2,3,2,2,2,2,2,2,4),(-1.07029836160262,
-1.01829459455511,-0.826511438902383,-0.634728283249658,-0.466670165494854,
-0.298612047740051,-0.149306023870026,0.,0.149306023870025,0.298612047740051,
0.466670165494854,0.634728283249657,0.826511438902382,1.01829459455511,
1.07029835935455),.UNSPECIFIED.);
#38=B_SPLINE_CURVE_WITH_KNOTS('',3,(#1264,#1265,#1266,#1267,#1268,#1269,
#1270,#1271,#1272,#1273,#1274,#1275,#1276,#1277,#1278,#1279,#1280,#1281,
#1282,#1283,#1284,#1285,#1286,#1287,#1288,#1289,#1290,#1291,#1292,#1293),
 .UNSPECIFIED.,.F.,.F.,(4,2,2,2,2,2,2,2,2,2,2,2,2,2,4),(0.255618685530277,
0.307622488606529,0.4994056419943,0.691188795382072,0.859246912056958,1.02730502873184,
1.17661105268564,1.32591707663943,1.47522310059323,1.62452912454702,1.79258724122191,
1.96064535789679,2.15242851128456,2.34421166467233,2.39621546774859),
 .UNSPECIFIED.);
#39=B_SPLINE_CURVE_WITH_KNOTS('',3,(#1302,#1303,#1304,#1305,#1306,#1307,
#1308,#1309,#1310,#1311,#1312,#1313,#1314,#1315,#1316,#1317,#1318,#1319,
#1320,#1321,#1322,#1323,#1324,#1325,#1326,#1327,#1328,#1329,#1330,#1331,
#1332),.UNSPECIFIED.,.F.,.F.,(4,2,2,2,2,2,2,3,2,2,2,2,2,2,4),(-1.07029839335723,
-1.0182945880329,-0.826511434645131,-0.63472828125736,-0.466670164582474,
-0.298612047907588,-0.149306023953794,0.,0.149306023953794,0.298612047907588,
0.466670164582474,0.63472828125736,0.826511434645131,1.0182945880329,1.07029839110916),
 .UNSPECIFIED.);
#40=B_SPLINE_CURVE_WITH_KNOTS('',3,(#1336,#1337,#1338,#1339,#1340,#1341,
#1342,#1343,#1344,#1345,#1346,#1347,#1348,#1349,#1350,#1351,#1352,#1353,
#1354,#1355,#1356,#1357,#1358),.UNSPECIFIED.,.F.,.F.,(4,3,2,2,2,2,2,2,2,
2,4),(-0.0818496757191615,0.,0.102625503149839,0.205251006299679,0.274548579138161,
0.343846151976643,0.413143724815126,0.482441297653609,0.585066800803447,
0.687692303953285,0.76954197953014),.UNSPECIFIED.);
#41=B_SPLINE_CURVE_WITH_KNOTS('',3,(#1363,#1364,#1365,#1366,#1367,#1368,
#1369,#1370,#1371,#1372,#1373,#1374,#1375,#1376,#1377,#1378,#1379,#1380,
#1381,#1382,#1383,#1384,#1385),.UNSPECIFIED.,.F.,.F.,(4,3,2,2,2,2,2,2,2,
2,4),(-0.0818496757191651,0.,0.102625503149839,0.205251006299678,0.274548579138161,
0.343846151976643,0.413143724815125,0.482441297653608,0.585066800803447,
0.687692303953285,0.769541979530141),.UNSPECIFIED.);
#42=CYLINDRICAL_SURFACE('',#694,12.);
#43=CYLINDRICAL_SURFACE('',#707,4.);
#44=CYLINDRICAL_SURFACE('',#711,4.);
#45=CYLINDRICAL_SURFACE('',#715,4.);
#46=CYLINDRICAL_SURFACE('',#719,4.);
#47=CYLINDRICAL_SURFACE('',#720,2.);
#48=CYLINDRICAL_SURFACE('',#722,2.);
#49=CYLINDRICAL_SURFACE('',#733,17.5);
#50=CYLINDRICAL_SURFACE('',#735,22.5);
#51=CYLINDRICAL_SURFACE('',#739,1.25);
#52=CYLINDRICAL_SURFACE('',#741,1.25);
#53=CYLINDRICAL_SURFACE('',#747,1.6);
#54=CYLINDRICAL_SURFACE('',#748,1.6);
#55=CYLINDRICAL_SURFACE('',#749,1.6);
#56=CYLINDRICAL_SURFACE('',#750,1.6);
#57=FACE_OUTER_BOUND('',#94,.T.);
#58=FACE_OUTER_BOUND('',#95,.T.);
#59=FACE_OUTER_BOUND('',#96,.T.);
#60=FACE_OUTER_BOUND('',#97,.T.);
#61=FACE_OUTER_BOUND('',#98,.T.);
#62=FACE_OUTER_BOUND('',#99,.T.);
#63=FACE_OUTER_BOUND('',#104,.T.);
#64=FACE_OUTER_BOUND('',#105,.T.);
#65=FACE_OUTER_BOUND('',#106,.T.);
#66=FACE_OUTER_BOUND('',#107,.T.);
#67=FACE_OUTER_BOUND('',#108,.T.);
#68=FACE_OUTER_BOUND('',#109,.T.);
#69=FACE_OUTER_BOUND('',#110,.T.);
#70=FACE_OUTER_BOUND('',#112,.T.);
#71=FACE_OUTER_BOUND('',#113,.T.);
#72=FACE_OUTER_BOUND('',#115,.T.);
#73=FACE_OUTER_BOUND('',#116,.T.);
#74=FACE_OUTER_BOUND('',#118,.T.);
#75=FACE_OUTER_BOUND('',#119,.T.);
#76=FACE_OUTER_BOUND('',#121,.T.);
#77=FACE_OUTER_BOUND('',#122,.T.);
#78=FACE_OUTER_BOUND('',#123,.T.);
#79=FACE_OUTER_BOUND('',#124,.T.);
#80=FACE_OUTER_BOUND('',#127,.T.);
#81=FACE_OUTER_BOUND('',#128,.T.);
#82=FACE_OUTER_BOUND('',#133,.T.);
#83=FACE_OUTER_BOUND('',#134,.T.);
#84=FACE_OUTER_BOUND('',#135,.T.);
#85=FACE_OUTER_BOUND('',#136,.T.);
#86=FACE_OUTER_BOUND('',#137,.T.);
#87=FACE_OUTER_BOUND('',#138,.T.);
#88=FACE_OUTER_BOUND('',#139,.T.);
#89=FACE_OUTER_BOUND('',#140,.T.);
#90=FACE_OUTER_BOUND('',#143,.T.);
#91=FACE_OUTER_BOUND('',#144,.T.);
#92=FACE_OUTER_BOUND('',#145,.T.);
#93=FACE_OUTER_BOUND('',#146,.T.);
#94=EDGE_LOOP('',(#433,#434,#435,#436,#437,#438,#439,#440,#441,#442,#443,
#444));
#95=EDGE_LOOP('',(#445,#446,#447,#448));
#96=EDGE_LOOP('',(#449,#450,#451,#452));
#97=EDGE_LOOP('',(#453,#454,#455,#456));
#98=EDGE_LOOP('',(#457,#458,#459,#460));
#99=EDGE_LOOP('',(#461,#462,#463,#464,#465,#466));
#100=EDGE_LOOP('',(#467));
#101=EDGE_LOOP('',(#468));
#102=EDGE_LOOP('',(#469));
#103=EDGE_LOOP('',(#470));
#104=EDGE_LOOP('',(#471,#472,#473,#474));
#105=EDGE_LOOP('',(#475,#476,#477,#478,#479,#480,#481));
#106=EDGE_LOOP('',(#482,#483,#484,#485));
#107=EDGE_LOOP('',(#486,#487,#488,#489));
#108=EDGE_LOOP('',(#490,#491,#492,#493));
#109=EDGE_LOOP('',(#494,#495,#496,#497,#498,#499,#500));
#110=EDGE_LOOP('',(#501,#502));
#111=EDGE_LOOP('',(#503));
#112=EDGE_LOOP('',(#504,#505));
#113=EDGE_LOOP('',(#506,#507));
#114=EDGE_LOOP('',(#508));
#115=EDGE_LOOP('',(#509,#510));
#116=EDGE_LOOP('',(#511,#512));
#117=EDGE_LOOP('',(#513));
#118=EDGE_LOOP('',(#514,#515));
#119=EDGE_LOOP('',(#516,#517));
#120=EDGE_LOOP('',(#518));
#121=EDGE_LOOP('',(#519,#520));
#122=EDGE_LOOP('',(#521,#522));
#123=EDGE_LOOP('',(#523,#524));
#124=EDGE_LOOP('',(#525,#526,#527,#528,#529,#530,#531,#532));
#125=EDGE_LOOP('',(#533));
#126=EDGE_LOOP('',(#534));
#127=EDGE_LOOP('',(#535,#536,#537,#538,#539,#540,#541,#542));
#128=EDGE_LOOP('',(#543,#544,#545,#546));
#129=EDGE_LOOP('',(#547,#548));
#130=EDGE_LOOP('',(#549,#550));
#131=EDGE_LOOP('',(#551,#552));
#132=EDGE_LOOP('',(#553,#554));
#133=EDGE_LOOP('',(#555,#556));
#134=EDGE_LOOP('',(#557,#558,#559,#560,#561,#562,#563,#564));
#135=EDGE_LOOP('',(#565,#566,#567,#568));
#136=EDGE_LOOP('',(#569,#570,#571,#572));
#137=EDGE_LOOP('',(#573,#574,#575,#576,#577,#578,#579,#580));
#138=EDGE_LOOP('',(#581,#582,#583,#584,#585,#586));
#139=EDGE_LOOP('',(#587,#588,#589,#590,#591,#592,#593,#594));
#140=EDGE_LOOP('',(#595,#596));
#141=EDGE_LOOP('',(#597));
#142=EDGE_LOOP('',(#598));
#143=EDGE_LOOP('',(#599,#600,#601,#602));
#144=EDGE_LOOP('',(#603,#604,#605,#606));
#145=EDGE_LOOP('',(#607,#608,#609,#610));
#146=EDGE_LOOP('',(#611,#612,#613,#614));
#147=CIRCLE('',#688,12.);
#148=CIRCLE('',#689,17.5);
#149=CIRCLE('',#695,12.);
#150=CIRCLE('',#696,12.);
#151=CIRCLE('',#697,12.);
#152=CIRCLE('',#705,4.);
#153=CIRCLE('',#706,1.6);
#154=CIRCLE('',#709,4.);
#155=CIRCLE('',#710,1.6);
#156=CIRCLE('',#713,4.);
#157=CIRCLE('',#714,1.6);
#158=CIRCLE('',#717,4.);
#159=CIRCLE('',#718,1.6);
#160=CIRCLE('',#721,2.);
#161=CIRCLE('',#723,2.);
#162=CIRCLE('',#725,20.5);
#163=CIRCLE('',#726,22.5);
#164=CIRCLE('',#727,20.5);
#165=CIRCLE('',#728,20.5);
#166=CIRCLE('',#729,1.25);
#167=CIRCLE('',#730,1.25);
#168=CIRCLE('',#732,17.5);
#169=CIRCLE('',#736,22.5);
#170=CIRCLE('',#737,22.5);
#171=CIRCLE('',#738,22.5);
#172=CIRCLE('',#740,1.25);
#173=CIRCLE('',#742,1.25);
#174=LINE('',#939,#228);
#175=LINE('',#941,#229);
#176=LINE('',#945,#230);
#177=LINE('',#947,#231);
#178=LINE('',#949,#232);
#179=LINE('',#951,#233);
#180=LINE('',#953,#234);
#181=LINE('',#957,#235);
#182=LINE('',#959,#236);
#183=LINE('',#960,#237);
#184=LINE('',#963,#238);
#185=LINE('',#965,#239);
#186=LINE('',#966,#240);
#187=LINE('',#969,#241);
#188=LINE('',#970,#242);
#189=LINE('',#973,#243);
#190=LINE('',#974,#244);
#191=LINE('',#977,#245);
#192=LINE('',#978,#246);
#193=LINE('',#981,#247);
#194=LINE('',#1145,#248);
#195=LINE('',#1146,#249);
#196=LINE('',#1149,#250);
#197=LINE('',#1151,#251);
#198=LINE('',#1153,#252);
#199=LINE('',#1155,#253);
#200=LINE('',#1156,#254);
#201=LINE('',#1159,#255);
#202=LINE('',#1161,#256);
#203=LINE('',#1162,#257);
#204=LINE('',#1165,#258);
#205=LINE('',#1166,#259);
#206=LINE('',#1168,#260);
#207=LINE('',#1171,#261);
#208=LINE('',#1173,#262);
#209=LINE('',#1175,#263);
#210=LINE('',#1177,#264);
#211=LINE('',#1178,#265);
#212=LINE('',#1182,#266);
#213=LINE('',#1220,#267);
#214=LINE('',#1259,#268);
#215=LINE('',#1297,#269);
#216=LINE('',#1400,#270);
#217=LINE('',#1407,#271);
#218=LINE('',#1410,#272);
#219=LINE('',#1414,#273);
#220=LINE('',#1418,#274);
#221=LINE('',#1420,#275);
#222=LINE('',#1422,#276);
#223=LINE('',#1423,#277);
#224=LINE('',#1427,#278);
#225=LINE('',#1429,#279);
#226=LINE('',#1431,#280);
#227=LINE('',#1433,#281);
#228=VECTOR('',#755,10.);
#229=VECTOR('',#756,10.);
#230=VECTOR('',#759,10.);
#231=VECTOR('',#760,10.);
#232=VECTOR('',#761,10.);
#233=VECTOR('',#762,10.);
#234=VECTOR('',#763,10.);
#235=VECTOR('',#766,10.);
#236=VECTOR('',#767,10.);
#237=VECTOR('',#768,10.);
#238=VECTOR('',#771,10.);
#239=VECTOR('',#772,10.);
#240=VECTOR('',#773,10.);
#241=VECTOR('',#776,10.);
#242=VECTOR('',#777,10.);
#243=VECTOR('',#780,10.);
#244=VECTOR('',#781,10.);
#245=VECTOR('',#784,10.);
#246=VECTOR('',#785,10.);
#247=VECTOR('',#788,10.);
#248=VECTOR('',#797,10.);
#249=VECTOR('',#798,10.);
#250=VECTOR('',#801,10.);
#251=VECTOR('',#802,10.);
#252=VECTOR('',#803,10.);
#253=VECTOR('',#804,10.);
#254=VECTOR('',#805,10.);
#255=VECTOR('',#808,10.);
#256=VECTOR('',#809,10.);
#257=VECTOR('',#810,10.);
#258=VECTOR('',#813,10.);
#259=VECTOR('',#814,10.);
#260=VECTOR('',#817,10.);
#261=VECTOR('',#820,10.);
#262=VECTOR('',#821,10.);
#263=VECTOR('',#822,10.);
#264=VECTOR('',#823,10.);
#265=VECTOR('',#824,10.);
#266=VECTOR('',#827,10.);
#267=VECTOR('',#836,10.);
#268=VECTOR('',#845,10.);
#269=VECTOR('',#854,10.);
#270=VECTOR('',#891,10.);
#271=VECTOR('',#898,10.);
#272=VECTOR('',#901,10.);
#273=VECTOR('',#906,1.25);
#274=VECTOR('',#911,1.25);
#275=VECTOR('',#914,10.);
#276=VECTOR('',#917,10.);
#277=VECTOR('',#918,10.);
#278=VECTOR('',#925,1.6);
#279=VECTOR('',#928,1.6);
#280=VECTOR('',#931,1.6);
#281=VECTOR('',#934,1.6);
#282=VERTEX_POINT('',#937);
#283=VERTEX_POINT('',#938);
#284=VERTEX_POINT('',#940);
#285=VERTEX_POINT('',#942);
#286=VERTEX_POINT('',#944);
#287=VERTEX_POINT('',#946);
#288=VERTEX_POINT('',#948);
#289=VERTEX_POINT('',#950);
#290=VERTEX_POINT('',#952);
#291=VERTEX_POINT('',#954);
#292=VERTEX_POINT('',#956);
#293=VERTEX_POINT('',#958);
#294=VERTEX_POINT('',#962);
#295=VERTEX_POINT('',#964);
#296=VERTEX_POINT('',#968);
#297=VERTEX_POINT('',#972);
#298=VERTEX_POINT('',#976);
#299=VERTEX_POINT('',#980);
#300=VERTEX_POINT('',#982);
#301=VERTEX_POINT('',#984);
#302=VERTEX_POINT('',#987);
#303=VERTEX_POINT('',#1026);
#304=VERTEX_POINT('',#1065);
#305=VERTEX_POINT('',#1104);
#306=VERTEX_POINT('',#1144);
#307=VERTEX_POINT('',#1148);
#308=VERTEX_POINT('',#1150);
#309=VERTEX_POINT('',#1152);
#310=VERTEX_POINT('',#1154);
#311=VERTEX_POINT('',#1158);
#312=VERTEX_POINT('',#1160);
#313=VERTEX_POINT('',#1164);
#314=VERTEX_POINT('',#1170);
#315=VERTEX_POINT('',#1172);
#316=VERTEX_POINT('',#1174);
#317=VERTEX_POINT('',#1176);
#318=VERTEX_POINT('',#1180);
#319=VERTEX_POINT('',#1181);
#320=VERTEX_POINT('',#1184);
#321=VERTEX_POINT('',#1218);
#322=VERTEX_POINT('',#1219);
#323=VERTEX_POINT('',#1222);
#324=VERTEX_POINT('',#1257);
#325=VERTEX_POINT('',#1258);
#326=VERTEX_POINT('',#1261);
#327=VERTEX_POINT('',#1295);
#328=VERTEX_POINT('',#1296);
#329=VERTEX_POINT('',#1299);
#330=VERTEX_POINT('',#1334);
#331=VERTEX_POINT('',#1335);
#332=VERTEX_POINT('',#1361);
#333=VERTEX_POINT('',#1362);
#334=VERTEX_POINT('',#1392);
#335=VERTEX_POINT('',#1394);
#336=VERTEX_POINT('',#1402);
#337=VERTEX_POINT('',#1404);
#338=VERTEX_POINT('',#1406);
#339=VERTEX_POINT('',#1408);
#340=VERTEX_POINT('',#1412);
#341=VERTEX_POINT('',#1416);
#342=EDGE_CURVE('',#282,#283,#174,.T.);
#343=EDGE_CURVE('',#284,#282,#175,.T.);
#344=EDGE_CURVE('',#285,#284,#147,.T.);
#345=EDGE_CURVE('',#286,#285,#176,.T.);
#346=EDGE_CURVE('',#287,#286,#177,.T.);
#347=EDGE_CURVE('',#288,#287,#178,.T.);
#348=EDGE_CURVE('',#289,#288,#179,.T.);
#349=EDGE_CURVE('',#290,#289,#180,.T.);
#350=EDGE_CURVE('',#291,#290,#148,.T.);
#351=EDGE_CURVE('',#292,#291,#181,.T.);
#352=EDGE_CURVE('',#293,#292,#182,.T.);
#353=EDGE_CURVE('',#283,#293,#183,.T.);
#354=EDGE_CURVE('',#294,#288,#184,.T.);
#355=EDGE_CURVE('',#295,#294,#185,.T.);
#356=EDGE_CURVE('',#289,#295,#186,.T.);
#357=EDGE_CURVE('',#287,#296,#187,.T.);
#358=EDGE_CURVE('',#296,#294,#188,.T.);
#359=EDGE_CURVE('',#297,#286,#189,.T.);
#360=EDGE_CURVE('',#297,#296,#190,.T.);
#361=EDGE_CURVE('',#285,#298,#191,.T.);
#362=EDGE_CURVE('',#298,#297,#192,.T.);
#363=EDGE_CURVE('',#284,#299,#193,.T.);
#364=EDGE_CURVE('',#299,#300,#149,.T.);
#365=EDGE_CURVE('',#300,#301,#150,.T.);
#366=EDGE_CURVE('',#301,#298,#151,.T.);
#367=EDGE_CURVE('',#302,#302,#32,.T.);
#368=EDGE_CURVE('',#303,#303,#33,.T.);
#369=EDGE_CURVE('',#304,#304,#34,.T.);
#370=EDGE_CURVE('',#305,#305,#35,.T.);
#371=EDGE_CURVE('',#282,#306,#194,.T.);
#372=EDGE_CURVE('',#306,#299,#195,.T.);
#373=EDGE_CURVE('',#295,#307,#196,.T.);
#374=EDGE_CURVE('',#307,#308,#197,.T.);
#375=EDGE_CURVE('',#308,#309,#198,.T.);
#376=EDGE_CURVE('',#310,#309,#199,.T.);
#377=EDGE_CURVE('',#310,#290,#200,.T.);
#378=EDGE_CURVE('',#311,#292,#201,.T.);
#379=EDGE_CURVE('',#311,#312,#202,.T.);
#380=EDGE_CURVE('',#293,#312,#203,.T.);
#381=EDGE_CURVE('',#313,#283,#204,.T.);
#382=EDGE_CURVE('',#306,#313,#205,.T.);
#383=EDGE_CURVE('',#312,#313,#206,.T.);
#384=EDGE_CURVE('',#291,#314,#207,.T.);
#385=EDGE_CURVE('',#315,#314,#208,.T.);
#386=EDGE_CURVE('',#315,#316,#209,.T.);
#387=EDGE_CURVE('',#316,#317,#210,.T.);
#388=EDGE_CURVE('',#317,#311,#211,.T.);
#389=EDGE_CURVE('',#318,#319,#212,.T.);
#390=EDGE_CURVE('',#319,#318,#152,.T.);
#391=EDGE_CURVE('',#320,#320,#153,.T.);
#392=EDGE_CURVE('',#319,#318,#36,.T.);
#393=EDGE_CURVE('',#321,#322,#213,.T.);
#394=EDGE_CURVE('',#322,#321,#154,.T.);
#395=EDGE_CURVE('',#323,#323,#155,.T.);
#396=EDGE_CURVE('',#322,#321,#37,.T.);
#397=EDGE_CURVE('',#324,#325,#214,.T.);
#398=EDGE_CURVE('',#325,#324,#156,.T.);
#399=EDGE_CURVE('',#326,#326,#157,.T.);
#400=EDGE_CURVE('',#325,#324,#38,.T.);
#401=EDGE_CURVE('',#327,#328,#215,.T.);
#402=EDGE_CURVE('',#328,#327,#158,.T.);
#403=EDGE_CURVE('',#329,#329,#159,.T.);
#404=EDGE_CURVE('',#328,#327,#39,.T.);
#405=EDGE_CURVE('',#330,#331,#40,.T.);
#406=EDGE_CURVE('',#330,#331,#160,.T.);
#407=EDGE_CURVE('',#332,#333,#41,.T.);
#408=EDGE_CURVE('',#332,#333,#161,.T.);
#409=EDGE_CURVE('',#309,#330,#162,.T.);
#410=EDGE_CURVE('',#316,#308,#163,.T.);
#411=EDGE_CURVE('',#333,#315,#164,.T.);
#412=EDGE_CURVE('',#331,#332,#165,.T.);
#413=EDGE_CURVE('',#334,#334,#166,.T.);
#414=EDGE_CURVE('',#335,#335,#167,.T.);
#415=EDGE_CURVE('',#314,#310,#168,.T.);
#416=EDGE_CURVE('',#300,#301,#216,.T.);
#417=EDGE_CURVE('',#336,#317,#169,.T.);
#418=EDGE_CURVE('',#307,#337,#170,.T.);
#419=EDGE_CURVE('',#337,#338,#217,.T.);
#420=EDGE_CURVE('',#339,#338,#171,.T.);
#421=EDGE_CURVE('',#339,#336,#218,.T.);
#422=EDGE_CURVE('',#340,#340,#172,.T.);
#423=EDGE_CURVE('',#340,#334,#219,.T.);
#424=EDGE_CURVE('',#341,#341,#173,.T.);
#425=EDGE_CURVE('',#341,#335,#220,.T.);
#426=EDGE_CURVE('',#337,#301,#221,.T.);
#427=EDGE_CURVE('',#338,#339,#222,.T.);
#428=EDGE_CURVE('',#300,#336,#223,.T.);
#429=EDGE_CURVE('',#305,#320,#224,.T.);
#430=EDGE_CURVE('',#304,#326,#225,.T.);
#431=EDGE_CURVE('',#303,#323,#226,.T.);
#432=EDGE_CURVE('',#302,#329,#227,.T.);
#433=ORIENTED_EDGE('',*,*,#342,.F.);
#434=ORIENTED_EDGE('',*,*,#343,.F.);
#435=ORIENTED_EDGE('',*,*,#344,.F.);
#436=ORIENTED_EDGE('',*,*,#345,.F.);
#437=ORIENTED_EDGE('',*,*,#346,.F.);
#438=ORIENTED_EDGE('',*,*,#347,.F.);
#439=ORIENTED_EDGE('',*,*,#348,.F.);
#440=ORIENTED_EDGE('',*,*,#349,.F.);
#441=ORIENTED_EDGE('',*,*,#350,.F.);
#442=ORIENTED_EDGE('',*,*,#351,.F.);
#443=ORIENTED_EDGE('',*,*,#352,.F.);
#444=ORIENTED_EDGE('',*,*,#353,.F.);
#445=ORIENTED_EDGE('',*,*,#348,.T.);
#446=ORIENTED_EDGE('',*,*,#354,.F.);
#447=ORIENTED_EDGE('',*,*,#355,.F.);
#448=ORIENTED_EDGE('',*,*,#356,.F.);
#449=ORIENTED_EDGE('',*,*,#347,.T.);
#450=ORIENTED_EDGE('',*,*,#357,.T.);
#451=ORIENTED_EDGE('',*,*,#358,.T.);
#452=ORIENTED_EDGE('',*,*,#354,.T.);
#453=ORIENTED_EDGE('',*,*,#346,.T.);
#454=ORIENTED_EDGE('',*,*,#359,.F.);
#455=ORIENTED_EDGE('',*,*,#360,.T.);
#456=ORIENTED_EDGE('',*,*,#357,.F.);
#457=ORIENTED_EDGE('',*,*,#345,.T.);
#458=ORIENTED_EDGE('',*,*,#361,.T.);
#459=ORIENTED_EDGE('',*,*,#362,.T.);
#460=ORIENTED_EDGE('',*,*,#359,.T.);
#461=ORIENTED_EDGE('',*,*,#344,.T.);
#462=ORIENTED_EDGE('',*,*,#363,.T.);
#463=ORIENTED_EDGE('',*,*,#364,.T.);
#464=ORIENTED_EDGE('',*,*,#365,.T.);
#465=ORIENTED_EDGE('',*,*,#366,.T.);
#466=ORIENTED_EDGE('',*,*,#361,.F.);
#467=ORIENTED_EDGE('',*,*,#367,.T.);
#468=ORIENTED_EDGE('',*,*,#368,.T.);
#469=ORIENTED_EDGE('',*,*,#369,.T.);
#470=ORIENTED_EDGE('',*,*,#370,.T.);
#471=ORIENTED_EDGE('',*,*,#343,.T.);
#472=ORIENTED_EDGE('',*,*,#371,.T.);
#473=ORIENTED_EDGE('',*,*,#372,.T.);
#474=ORIENTED_EDGE('',*,*,#363,.F.);
#475=ORIENTED_EDGE('',*,*,#349,.T.);
#476=ORIENTED_EDGE('',*,*,#356,.T.);
#477=ORIENTED_EDGE('',*,*,#373,.T.);
#478=ORIENTED_EDGE('',*,*,#374,.T.);
#479=ORIENTED_EDGE('',*,*,#375,.T.);
#480=ORIENTED_EDGE('',*,*,#376,.F.);
#481=ORIENTED_EDGE('',*,*,#377,.T.);
#482=ORIENTED_EDGE('',*,*,#352,.T.);
#483=ORIENTED_EDGE('',*,*,#378,.F.);
#484=ORIENTED_EDGE('',*,*,#379,.T.);
#485=ORIENTED_EDGE('',*,*,#380,.F.);
#486=ORIENTED_EDGE('',*,*,#342,.T.);
#487=ORIENTED_EDGE('',*,*,#381,.F.);
#488=ORIENTED_EDGE('',*,*,#382,.F.);
#489=ORIENTED_EDGE('',*,*,#371,.F.);
#490=ORIENTED_EDGE('',*,*,#353,.T.);
#491=ORIENTED_EDGE('',*,*,#380,.T.);
#492=ORIENTED_EDGE('',*,*,#383,.T.);
#493=ORIENTED_EDGE('',*,*,#381,.T.);
#494=ORIENTED_EDGE('',*,*,#351,.T.);
#495=ORIENTED_EDGE('',*,*,#384,.T.);
#496=ORIENTED_EDGE('',*,*,#385,.F.);
#497=ORIENTED_EDGE('',*,*,#386,.T.);
#498=ORIENTED_EDGE('',*,*,#387,.T.);
#499=ORIENTED_EDGE('',*,*,#388,.T.);
#500=ORIENTED_EDGE('',*,*,#378,.T.);
#501=ORIENTED_EDGE('',*,*,#389,.F.);
#502=ORIENTED_EDGE('',*,*,#390,.F.);
#503=ORIENTED_EDGE('',*,*,#391,.F.);
#504=ORIENTED_EDGE('',*,*,#392,.F.);
#505=ORIENTED_EDGE('',*,*,#390,.T.);
#506=ORIENTED_EDGE('',*,*,#393,.F.);
#507=ORIENTED_EDGE('',*,*,#394,.F.);
#508=ORIENTED_EDGE('',*,*,#395,.F.);
#509=ORIENTED_EDGE('',*,*,#396,.F.);
#510=ORIENTED_EDGE('',*,*,#394,.T.);
#511=ORIENTED_EDGE('',*,*,#397,.F.);
#512=ORIENTED_EDGE('',*,*,#398,.F.);
#513=ORIENTED_EDGE('',*,*,#399,.F.);
#514=ORIENTED_EDGE('',*,*,#400,.F.);
#515=ORIENTED_EDGE('',*,*,#398,.T.);
#516=ORIENTED_EDGE('',*,*,#401,.F.);
#517=ORIENTED_EDGE('',*,*,#402,.F.);
#518=ORIENTED_EDGE('',*,*,#403,.F.);
#519=ORIENTED_EDGE('',*,*,#404,.F.);
#520=ORIENTED_EDGE('',*,*,#402,.T.);
#521=ORIENTED_EDGE('',*,*,#405,.F.);
#522=ORIENTED_EDGE('',*,*,#406,.T.);
#523=ORIENTED_EDGE('',*,*,#407,.F.);
#524=ORIENTED_EDGE('',*,*,#408,.T.);
#525=ORIENTED_EDGE('',*,*,#406,.F.);
#526=ORIENTED_EDGE('',*,*,#409,.F.);
#527=ORIENTED_EDGE('',*,*,#375,.F.);
#528=ORIENTED_EDGE('',*,*,#410,.F.);
#529=ORIENTED_EDGE('',*,*,#386,.F.);
#530=ORIENTED_EDGE('',*,*,#411,.F.);
#531=ORIENTED_EDGE('',*,*,#408,.F.);
#532=ORIENTED_EDGE('',*,*,#412,.F.);
#533=ORIENTED_EDGE('',*,*,#413,.T.);
#534=ORIENTED_EDGE('',*,*,#414,.T.);
#535=ORIENTED_EDGE('',*,*,#405,.T.);
#536=ORIENTED_EDGE('',*,*,#412,.T.);
#537=ORIENTED_EDGE('',*,*,#407,.T.);
#538=ORIENTED_EDGE('',*,*,#411,.T.);
#539=ORIENTED_EDGE('',*,*,#385,.T.);
#540=ORIENTED_EDGE('',*,*,#415,.T.);
#541=ORIENTED_EDGE('',*,*,#376,.T.);
#542=ORIENTED_EDGE('',*,*,#409,.T.);
#543=ORIENTED_EDGE('',*,*,#350,.T.);
#544=ORIENTED_EDGE('',*,*,#377,.F.);
#545=ORIENTED_EDGE('',*,*,#415,.F.);
#546=ORIENTED_EDGE('',*,*,#384,.F.);
#547=ORIENTED_EDGE('',*,*,#392,.T.);
#548=ORIENTED_EDGE('',*,*,#389,.T.);
#549=ORIENTED_EDGE('',*,*,#396,.T.);
#550=ORIENTED_EDGE('',*,*,#393,.T.);
#551=ORIENTED_EDGE('',*,*,#400,.T.);
#552=ORIENTED_EDGE('',*,*,#397,.T.);
#553=ORIENTED_EDGE('',*,*,#404,.T.);
#554=ORIENTED_EDGE('',*,*,#401,.T.);
#555=ORIENTED_EDGE('',*,*,#365,.F.);
#556=ORIENTED_EDGE('',*,*,#416,.T.);
#557=ORIENTED_EDGE('',*,*,#417,.T.);
#558=ORIENTED_EDGE('',*,*,#387,.F.);
#559=ORIENTED_EDGE('',*,*,#410,.T.);
#560=ORIENTED_EDGE('',*,*,#374,.F.);
#561=ORIENTED_EDGE('',*,*,#418,.T.);
#562=ORIENTED_EDGE('',*,*,#419,.T.);
#563=ORIENTED_EDGE('',*,*,#420,.F.);
#564=ORIENTED_EDGE('',*,*,#421,.T.);
#565=ORIENTED_EDGE('',*,*,#422,.F.);
#566=ORIENTED_EDGE('',*,*,#423,.T.);
#567=ORIENTED_EDGE('',*,*,#413,.F.);
#568=ORIENTED_EDGE('',*,*,#423,.F.);
#569=ORIENTED_EDGE('',*,*,#424,.F.);
#570=ORIENTED_EDGE('',*,*,#425,.T.);
#571=ORIENTED_EDGE('',*,*,#414,.F.);
#572=ORIENTED_EDGE('',*,*,#425,.F.);
#573=ORIENTED_EDGE('',*,*,#366,.F.);
#574=ORIENTED_EDGE('',*,*,#426,.F.);
#575=ORIENTED_EDGE('',*,*,#418,.F.);
#576=ORIENTED_EDGE('',*,*,#373,.F.);
#577=ORIENTED_EDGE('',*,*,#355,.T.);
#578=ORIENTED_EDGE('',*,*,#358,.F.);
#579=ORIENTED_EDGE('',*,*,#360,.F.);
#580=ORIENTED_EDGE('',*,*,#362,.F.);
#581=ORIENTED_EDGE('',*,*,#427,.F.);
#582=ORIENTED_EDGE('',*,*,#419,.F.);
#583=ORIENTED_EDGE('',*,*,#426,.T.);
#584=ORIENTED_EDGE('',*,*,#416,.F.);
#585=ORIENTED_EDGE('',*,*,#428,.T.);
#586=ORIENTED_EDGE('',*,*,#421,.F.);
#587=ORIENTED_EDGE('',*,*,#364,.F.);
#588=ORIENTED_EDGE('',*,*,#372,.F.);
#589=ORIENTED_EDGE('',*,*,#382,.T.);
#590=ORIENTED_EDGE('',*,*,#383,.F.);
#591=ORIENTED_EDGE('',*,*,#379,.F.);
#592=ORIENTED_EDGE('',*,*,#388,.F.);
#593=ORIENTED_EDGE('',*,*,#417,.F.);
#594=ORIENTED_EDGE('',*,*,#428,.F.);
#595=ORIENTED_EDGE('',*,*,#427,.T.);
#596=ORIENTED_EDGE('',*,*,#420,.T.);
#597=ORIENTED_EDGE('',*,*,#424,.T.);
#598=ORIENTED_EDGE('',*,*,#422,.T.);
#599=ORIENTED_EDGE('',*,*,#370,.F.);
#600=ORIENTED_EDGE('',*,*,#429,.T.);
#601=ORIENTED_EDGE('',*,*,#391,.T.);
#602=ORIENTED_EDGE('',*,*,#429,.F.);
#603=ORIENTED_EDGE('',*,*,#369,.F.);
#604=ORIENTED_EDGE('',*,*,#430,.T.);
#605=ORIENTED_EDGE('',*,*,#399,.T.);
#606=ORIENTED_EDGE('',*,*,#430,.F.);
#607=ORIENTED_EDGE('',*,*,#368,.F.);
#608=ORIENTED_EDGE('',*,*,#431,.T.);
#609=ORIENTED_EDGE('',*,*,#395,.T.);
#610=ORIENTED_EDGE('',*,*,#431,.F.);
#611=ORIENTED_EDGE('',*,*,#367,.F.);
#612=ORIENTED_EDGE('',*,*,#432,.T.);
#613=ORIENTED_EDGE('',*,*,#403,.T.);
#614=ORIENTED_EDGE('',*,*,#432,.F.);
#615=PLANE('',#687);
#616=PLANE('',#690);
#617=PLANE('',#691);
#618=PLANE('',#692);
#619=PLANE('',#693);
#620=PLANE('',#698);
#621=PLANE('',#699);
#622=PLANE('',#700);
#623=PLANE('',#701);
#624=PLANE('',#702);
#625=PLANE('',#703);
#626=PLANE('',#704);
#627=PLANE('',#708);
#628=PLANE('',#712);
#629=PLANE('',#716);
#630=PLANE('',#724);
#631=PLANE('',#734);
#632=PLANE('',#743);
#633=PLANE('',#744);
#634=PLANE('',#745);
#635=PLANE('',#746);
#636=ADVANCED_FACE('',(#57),#615,.F.);
#637=ADVANCED_FACE('',(#58),#616,.T.);
#638=ADVANCED_FACE('',(#59),#617,.T.);
#639=ADVANCED_FACE('',(#60),#618,.T.);
#640=ADVANCED_FACE('',(#61),#619,.T.);
#641=ADVANCED_FACE('',(#62,#16,#17,#18,#19),#42,.F.);
#642=ADVANCED_FACE('',(#63),#620,.F.);
#643=ADVANCED_FACE('',(#64),#621,.T.);
#644=ADVANCED_FACE('',(#65),#622,.T.);
#645=ADVANCED_FACE('',(#66),#623,.T.);
#646=ADVANCED_FACE('',(#67),#624,.T.);
#647=ADVANCED_FACE('',(#68),#625,.F.);
#648=ADVANCED_FACE('',(#69,#20),#626,.T.);
#649=ADVANCED_FACE('',(#70),#43,.F.);
#650=ADVANCED_FACE('',(#71,#21),#627,.T.);
#651=ADVANCED_FACE('',(#72),#44,.F.);
#652=ADVANCED_FACE('',(#73,#22),#628,.T.);
#653=ADVANCED_FACE('',(#74),#45,.F.);
#654=ADVANCED_FACE('',(#75,#23),#629,.T.);
#655=ADVANCED_FACE('',(#76),#46,.F.);
#656=ADVANCED_FACE('',(#77),#47,.F.);
#657=ADVANCED_FACE('',(#78),#48,.F.);
#658=ADVANCED_FACE('',(#79,#24,#25),#630,.T.);
#659=ADVANCED_FACE('',(#80),#15,.T.);
#660=ADVANCED_FACE('',(#81,#26,#27,#28,#29),#49,.T.);
#661=ADVANCED_FACE('',(#82),#631,.F.);
#662=ADVANCED_FACE('',(#83),#50,.T.);
#663=ADVANCED_FACE('',(#84),#51,.F.);
#664=ADVANCED_FACE('',(#85),#52,.F.);
#665=ADVANCED_FACE('',(#86),#632,.T.);
#666=ADVANCED_FACE('',(#87),#633,.F.);
#667=ADVANCED_FACE('',(#88),#634,.T.);
#668=ADVANCED_FACE('',(#89,#30,#31),#635,.T.);
#669=ADVANCED_FACE('',(#90),#53,.F.);
#670=ADVANCED_FACE('',(#91),#54,.F.);
#671=ADVANCED_FACE('',(#92),#55,.F.);
#672=ADVANCED_FACE('',(#93),#56,.F.);
#673=CLOSED_SHELL('',(#636,#637,#638,#639,#640,#641,#642,#643,#644,#645,
#646,#647,#648,#649,#650,#651,#652,#653,#654,#655,#656,#657,#658,#659,#660,
#661,#662,#663,#664,#665,#666,#667,#668,#669,#670,#671,#672));
#674=DERIVED_UNIT_ELEMENT(#676,1.);
#675=DERIVED_UNIT_ELEMENT(#1439,-3.);
#676=(
MASS_UNIT()
NAMED_UNIT(*)
SI_UNIT(.KILO.,.GRAM.)
);
#677=DERIVED_UNIT((#674,#675));
#678=MEASURE_REPRESENTATION_ITEM('density measure',
POSITIVE_RATIO_MEASURE(7850.),#677);
#679=PROPERTY_DEFINITION_REPRESENTATION(#684,#681);
#680=PROPERTY_DEFINITION_REPRESENTATION(#685,#682);
#681=REPRESENTATION('material name',(#683),#1436);
#682=REPRESENTATION('density',(#678),#1436);
#683=DESCRIPTIVE_REPRESENTATION_ITEM('Steel','Steel');
#684=PROPERTY_DEFINITION('material property','material name',#1446);
#685=PROPERTY_DEFINITION('material property','density of part',#1446);
#686=AXIS2_PLACEMENT_3D('',#935,#751,#752);
#687=AXIS2_PLACEMENT_3D('',#936,#753,#754);
#688=AXIS2_PLACEMENT_3D('',#943,#757,#758);
#689=AXIS2_PLACEMENT_3D('',#955,#764,#765);
#690=AXIS2_PLACEMENT_3D('',#961,#769,#770);
#691=AXIS2_PLACEMENT_3D('',#967,#774,#775);
#692=AXIS2_PLACEMENT_3D('',#971,#778,#779);
#693=AXIS2_PLACEMENT_3D('',#975,#782,#783);
#694=AXIS2_PLACEMENT_3D('',#979,#786,#787);
#695=AXIS2_PLACEMENT_3D('',#983,#789,#790);
#696=AXIS2_PLACEMENT_3D('',#985,#791,#792);
#697=AXIS2_PLACEMENT_3D('',#986,#793,#794);
#698=AXIS2_PLACEMENT_3D('',#1143,#795,#796);
#699=AXIS2_PLACEMENT_3D('',#1147,#799,#800);
#700=AXIS2_PLACEMENT_3D('',#1157,#806,#807);
#701=AXIS2_PLACEMENT_3D('',#1163,#811,#812);
#702=AXIS2_PLACEMENT_3D('',#1167,#815,#816);
#703=AXIS2_PLACEMENT_3D('',#1169,#818,#819);
#704=AXIS2_PLACEMENT_3D('',#1179,#825,#826);
#705=AXIS2_PLACEMENT_3D('',#1183,#828,#829);
#706=AXIS2_PLACEMENT_3D('',#1185,#830,#831);
#707=AXIS2_PLACEMENT_3D('',#1186,#832,#833);
#708=AXIS2_PLACEMENT_3D('',#1217,#834,#835);
#709=AXIS2_PLACEMENT_3D('',#1221,#837,#838);
#710=AXIS2_PLACEMENT_3D('',#1223,#839,#840);
#711=AXIS2_PLACEMENT_3D('',#1224,#841,#842);
#712=AXIS2_PLACEMENT_3D('',#1256,#843,#844);
#713=AXIS2_PLACEMENT_3D('',#1260,#846,#847);
#714=AXIS2_PLACEMENT_3D('',#1262,#848,#849);
#715=AXIS2_PLACEMENT_3D('',#1263,#850,#851);
#716=AXIS2_PLACEMENT_3D('',#1294,#852,#853);
#717=AXIS2_PLACEMENT_3D('',#1298,#855,#856);
#718=AXIS2_PLACEMENT_3D('',#1300,#857,#858);
#719=AXIS2_PLACEMENT_3D('',#1301,#859,#860);
#720=AXIS2_PLACEMENT_3D('',#1333,#861,#862);
#721=AXIS2_PLACEMENT_3D('',#1359,#863,#864);
#722=AXIS2_PLACEMENT_3D('',#1360,#865,#866);
#723=AXIS2_PLACEMENT_3D('',#1386,#867,#868);
#724=AXIS2_PLACEMENT_3D('',#1387,#869,#870);
#725=AXIS2_PLACEMENT_3D('',#1388,#871,#872);
#726=AXIS2_PLACEMENT_3D('',#1389,#873,#874);
#727=AXIS2_PLACEMENT_3D('',#1390,#875,#876);
#728=AXIS2_PLACEMENT_3D('',#1391,#877,#878);
#729=AXIS2_PLACEMENT_3D('',#1393,#879,#880);
#730=AXIS2_PLACEMENT_3D('',#1395,#881,#882);
#731=AXIS2_PLACEMENT_3D('',#1396,#883,#884);
#732=AXIS2_PLACEMENT_3D('',#1397,#885,#886);
#733=AXIS2_PLACEMENT_3D('',#1398,#887,#888);
#734=AXIS2_PLACEMENT_3D('',#1399,#889,#890);
#735=AXIS2_PLACEMENT_3D('',#1401,#892,#893);
#736=AXIS2_PLACEMENT_3D('',#1403,#894,#895);
#737=AXIS2_PLACEMENT_3D('',#1405,#896,#897);
#738=AXIS2_PLACEMENT_3D('',#1409,#899,#900);
#739=AXIS2_PLACEMENT_3D('',#1411,#902,#903);
#740=AXIS2_PLACEMENT_3D('',#1413,#904,#905);
#741=AXIS2_PLACEMENT_3D('',#1415,#907,#908);
#742=AXIS2_PLACEMENT_3D('',#1417,#909,#910);
#743=AXIS2_PLACEMENT_3D('',#1419,#912,#913);
#744=AXIS2_PLACEMENT_3D('',#1421,#915,#916);
#745=AXIS2_PLACEMENT_3D('',#1424,#919,#920);
#746=AXIS2_PLACEMENT_3D('',#1425,#921,#922);
#747=AXIS2_PLACEMENT_3D('',#1426,#923,#924);
#748=AXIS2_PLACEMENT_3D('',#1428,#926,#927);
#749=AXIS2_PLACEMENT_3D('',#1430,#929,#930);
#750=AXIS2_PLACEMENT_3D('',#1432,#932,#933);
#751=DIRECTION('axis',(0.,0.,1.));
#752=DIRECTION('refdir',(1.,0.,0.));
#753=DIRECTION('center_axis',(0.,0.,1.));
#754=DIRECTION('ref_axis',(1.,0.,0.));
#755=DIRECTION('',(0.,-1.,0.));
#756=DIRECTION('',(1.,0.,0.));
#757=DIRECTION('center_axis',(0.,0.,-1.));
#758=DIRECTION('ref_axis',(1.,0.,0.));
#759=DIRECTION('',(1.,-1.22464679914735E-16,0.));
#760=DIRECTION('',(0.,1.,0.));
#761=DIRECTION('',(1.,0.,0.));
#762=DIRECTION('',(0.,-1.,0.));
#763=DIRECTION('',(1.,-1.22464679914735E-16,0.));
#764=DIRECTION('center_axis',(0.,0.,1.));
#765=DIRECTION('ref_axis',(1.,0.,0.));
#766=DIRECTION('',(1.,0.,0.));
#767=DIRECTION('',(0.,1.,0.));
#768=DIRECTION('',(1.,0.,0.));
#769=DIRECTION('center_axis',(-1.,0.,0.));
#770=DIRECTION('ref_axis',(0.,0.,-1.));
#771=DIRECTION('',(0.,0.,-1.));
#772=DIRECTION('',(0.,-1.,0.));
#773=DIRECTION('',(0.,0.,1.));
#774=DIRECTION('center_axis',(0.,-1.,0.));
#775=DIRECTION('ref_axis',(0.,0.,-1.));
#776=DIRECTION('',(0.,0.,1.));
#777=DIRECTION('',(-1.,0.,0.));
#778=DIRECTION('center_axis',(1.,0.,0.));
#779=DIRECTION('ref_axis',(0.,0.,1.));
#780=DIRECTION('',(0.,0.,-1.));
#781=DIRECTION('',(0.,-1.,0.));
#782=DIRECTION('center_axis',(-1.22464679914735E-16,-1.,0.));
#783=DIRECTION('ref_axis',(-1.,1.22464679914735E-16,0.));
#784=DIRECTION('',(0.,0.,1.));
#785=DIRECTION('',(-1.,1.22464679914735E-16,0.));
#786=DIRECTION('center_axis',(0.,0.,1.));
#787=DIRECTION('ref_axis',(1.,0.,0.));
#788=DIRECTION('',(0.,0.,1.));
#789=DIRECTION('center_axis',(0.,0.,1.));
#790=DIRECTION('ref_axis',(1.,0.,0.));
#791=DIRECTION('center_axis',(0.,0.,1.));
#792=DIRECTION('ref_axis',(1.,0.,0.));
#793=DIRECTION('center_axis',(0.,0.,1.));
#794=DIRECTION('ref_axis',(1.,0.,0.));
#795=DIRECTION('center_axis',(0.,1.,0.));
#796=DIRECTION('ref_axis',(1.,0.,0.));
#797=DIRECTION('',(0.,0.,1.));
#798=DIRECTION('',(-1.,0.,0.));
#799=DIRECTION('center_axis',(-1.22464679914735E-16,-1.,0.));
#800=DIRECTION('ref_axis',(-1.,1.22464679914735E-16,0.));
#801=DIRECTION('',(-1.,1.22464679914735E-16,0.));
#802=DIRECTION('',(0.,0.,-1.));
#803=DIRECTION('',(1.,-1.22464679914735E-16,0.));
#804=DIRECTION('',(-0.707106781186547,8.65956056235493E-17,0.707106781186548));
#805=DIRECTION('',(5.62138240316535E-17,-6.8842079668197E-33,-1.));
#806=DIRECTION('center_axis',(1.,0.,0.));
#807=DIRECTION('ref_axis',(0.,0.,1.));
#808=DIRECTION('',(0.,0.,-1.));
#809=DIRECTION('',(0.,-1.,0.));
#810=DIRECTION('',(0.,0.,1.));
#811=DIRECTION('center_axis',(-1.,0.,0.));
#812=DIRECTION('ref_axis',(0.,0.,-1.));
#813=DIRECTION('',(0.,0.,-1.));
#814=DIRECTION('',(0.,-1.,0.));
#815=DIRECTION('center_axis',(0.,-1.,0.));
#816=DIRECTION('ref_axis',(0.,0.,-1.));
#817=DIRECTION('',(-1.,0.,0.));
#818=DIRECTION('center_axis',(0.,1.,0.));
#819=DIRECTION('ref_axis',(1.,0.,0.));
#820=DIRECTION('',(5.62138240316535E-17,0.,1.));
#821=DIRECTION('',(-0.707106781186547,0.,-0.707106781186548));
#822=DIRECTION('',(1.,0.,0.));
#823=DIRECTION('',(0.,0.,1.));
#824=DIRECTION('',(-1.,0.,0.));
#825=DIRECTION('center_axis',(0.,1.,0.));
#826=DIRECTION('ref_axis',(1.,0.,0.));
#827=DIRECTION('',(0.,0.,1.));
#828=DIRECTION('center_axis',(0.,-1.,0.));
#829=DIRECTION('ref_axis',(1.,0.,0.));
#830=DIRECTION('center_axis',(0.,1.,0.));
#831=DIRECTION('ref_axis',(1.,0.,0.));
#832=DIRECTION('center_axis',(0.,-1.,0.));
#833=DIRECTION('ref_axis',(-1.,0.,-1.22464679914735E-16));
#834=DIRECTION('center_axis',(0.,1.,0.));
#835=DIRECTION('ref_axis',(1.,0.,0.));
#836=DIRECTION('',(0.,0.,-1.));
#837=DIRECTION('center_axis',(0.,-1.,0.));
#838=DIRECTION('ref_axis',(1.,0.,0.));
#839=DIRECTION('center_axis',(0.,1.,0.));
#840=DIRECTION('ref_axis',(1.,0.,0.));
#841=DIRECTION('center_axis',(0.,-1.,0.));
#842=DIRECTION('ref_axis',(1.,0.,0.));
#843=DIRECTION('center_axis',(0.,1.,0.));
#844=DIRECTION('ref_axis',(1.,0.,0.));
#845=DIRECTION('',(0.,0.,1.));
#846=DIRECTION('center_axis',(0.,-1.,0.));
#847=DIRECTION('ref_axis',(1.,0.,0.));
#848=DIRECTION('center_axis',(0.,1.,0.));
#849=DIRECTION('ref_axis',(1.,0.,0.));
#850=DIRECTION('center_axis',(0.,-1.,0.));
#851=DIRECTION('ref_axis',(-1.,0.,-1.01064309961486E-15));
#852=DIRECTION('center_axis',(0.,1.,0.));
#853=DIRECTION('ref_axis',(1.,0.,0.));
#854=DIRECTION('',(0.,0.,-1.));
#855=DIRECTION('center_axis',(0.,-1.,0.));
#856=DIRECTION('ref_axis',(1.,0.,0.));
#857=DIRECTION('center_axis',(0.,1.,0.));
#858=DIRECTION('ref_axis',(1.,0.,0.));
#859=DIRECTION('center_axis',(0.,-1.,0.));
#860=DIRECTION('ref_axis',(1.,0.,0.));
#861=DIRECTION('center_axis',(0.,0.,-1.));
#862=DIRECTION('ref_axis',(1.,0.,0.));
#863=DIRECTION('center_axis',(0.,0.,1.));
#864=DIRECTION('ref_axis',(1.,0.,0.));
#865=DIRECTION('center_axis',(0.,0.,-1.));
#866=DIRECTION('ref_axis',(-0.707106781186548,-0.707106781186547,0.));
#867=DIRECTION('center_axis',(0.,0.,1.));
#868=DIRECTION('ref_axis',(1.,0.,0.));
#869=DIRECTION('center_axis',(0.,0.,-1.));
#870=DIRECTION('ref_axis',(-1.,0.,0.));
#871=DIRECTION('center_axis',(0.,0.,-1.));
#872=DIRECTION('ref_axis',(1.,0.,0.));
#873=DIRECTION('center_axis',(0.,0.,1.));
#874=DIRECTION('ref_axis',(1.,-1.97372982155583E-16,0.));
#875=DIRECTION('center_axis',(0.,0.,-1.));
#876=DIRECTION('ref_axis',(1.,0.,0.));
#877=DIRECTION('center_axis',(0.,0.,-1.));
#878=DIRECTION('ref_axis',(1.,0.,0.));
#879=DIRECTION('center_axis',(0.,0.,1.));
#880=DIRECTION('ref_axis',(1.,0.,0.));
#881=DIRECTION('center_axis',(0.,0.,1.));
#882=DIRECTION('ref_axis',(1.,0.,0.));
#883=DIRECTION('center_axis',(0.,0.,1.));
#884=DIRECTION('ref_axis',(1.,0.,0.));
#885=DIRECTION('center_axis',(0.,0.,1.));
#886=DIRECTION('ref_axis',(1.,0.,0.));
#887=DIRECTION('center_axis',(0.,0.,1.));
#888=DIRECTION('ref_axis',(1.,0.,0.));
#889=DIRECTION('center_axis',(0.,0.,1.));
#890=DIRECTION('ref_axis',(1.,0.,0.));
#891=DIRECTION('',(-1.,-5.27929960154021E-17,0.));
#892=DIRECTION('center_axis',(0.,0.,1.));
#893=DIRECTION('ref_axis',(1.,0.,0.));
#894=DIRECTION('center_axis',(0.,0.,-1.));
#895=DIRECTION('ref_axis',(1.,0.,0.));
#896=DIRECTION('center_axis',(0.,0.,-1.));
#897=DIRECTION('ref_axis',(1.,0.,0.));
#898=DIRECTION('',(0.,0.,1.));
#899=DIRECTION('center_axis',(0.,0.,1.));
#900=DIRECTION('ref_axis',(1.,-1.97372982155583E-16,0.));
#901=DIRECTION('',(0.,0.,-1.));
#902=DIRECTION('center_axis',(0.,0.,-1.));
#903=DIRECTION('ref_axis',(1.,0.,0.));
#904=DIRECTION('center_axis',(0.,0.,-1.));
#905=DIRECTION('ref_axis',(1.,0.,0.));
#906=DIRECTION('',(0.,0.,-1.));
#907=DIRECTION('center_axis',(0.,0.,-1.));
#908=DIRECTION('ref_axis',(1.,0.,0.));
#909=DIRECTION('center_axis',(0.,0.,-1.));
#910=DIRECTION('ref_axis',(1.,0.,0.));
#911=DIRECTION('',(0.,0.,-1.));
#912=DIRECTION('center_axis',(0.,0.,1.));
#913=DIRECTION('ref_axis',(1.,0.,0.));
#914=DIRECTION('',(1.,5.27929960154021E-17,0.));
#915=DIRECTION('center_axis',(-5.27929960154021E-17,1.,0.));
#916=DIRECTION('ref_axis',(1.,5.27929960154021E-17,0.));
#917=DIRECTION('',(1.,5.27929960154021E-17,0.));
#918=DIRECTION('',(1.,5.27929960154021E-17,0.));
#919=DIRECTION('center_axis',(0.,0.,1.));
#920=DIRECTION('ref_axis',(1.,0.,0.));
#921=DIRECTION('center_axis',(0.,0.,1.));
#922=DIRECTION('ref_axis',(1.,0.,0.));
#923=DIRECTION('center_axis',(0.,1.,0.));
#924=DIRECTION('ref_axis',(1.,0.,0.));
#925=DIRECTION('',(0.,1.,0.));
#926=DIRECTION('center_axis',(0.,1.,0.));
#927=DIRECTION('ref_axis',(1.,0.,0.));
#928=DIRECTION('',(0.,1.,0.));
#929=DIRECTION('center_axis',(0.,1.,0.));
#930=DIRECTION('ref_axis',(1.,0.,0.));
#931=DIRECTION('',(0.,1.,0.));
#932=DIRECTION('center_axis',(0.,1.,0.));
#933=DIRECTION('ref_axis',(1.,0.,0.));
#934=DIRECTION('',(0.,1.,0.));
#935=CARTESIAN_POINT('',(0.,0.,0.));
#936=CARTESIAN_POINT('Origin',(0.,0.,10.1));
#937=CARTESIAN_POINT('',(15.5,0.,10.1));
#938=CARTESIAN_POINT('',(15.5,-1.8,10.1));
#939=CARTESIAN_POINT('',(15.5,0.,10.1));
#940=CARTESIAN_POINT('',(12.,0.,10.1));
#941=CARTESIAN_POINT('',(9.25,0.,10.1));
#942=CARTESIAN_POINT('',(-12.,1.46957615897682E-15,10.1));
#943=CARTESIAN_POINT('Origin',(0.,0.,10.1));
#944=CARTESIAN_POINT('',(-15.5,1.8982025386784E-15,10.1));
#945=CARTESIAN_POINT('',(-9.25,1.1327982892113E-15,10.1));
#946=CARTESIAN_POINT('',(-15.5,-1.8,10.1));
#947=CARTESIAN_POINT('',(-15.5,0.,10.1));
#948=CARTESIAN_POINT('',(-16.5,-1.8,10.1));
#949=CARTESIAN_POINT('',(-8.,-1.8,10.1));
#950=CARTESIAN_POINT('',(-16.5,2.02066721859313E-15,10.1));
#951=CARTESIAN_POINT('',(-16.5,0.,10.1));
#952=CARTESIAN_POINT('',(-17.5,2.14313189850787E-15,10.1));
#953=CARTESIAN_POINT('',(-9.25,1.1327982892113E-15,10.1));
#954=CARTESIAN_POINT('',(17.5,0.,10.1));
#955=CARTESIAN_POINT('Origin',(0.,0.,10.1));
#956=CARTESIAN_POINT('',(16.5,0.,10.1));
#957=CARTESIAN_POINT('',(9.25,0.,10.1));
#958=CARTESIAN_POINT('',(16.5,-1.8,10.1));
#959=CARTESIAN_POINT('',(16.5,0.,10.1));
#960=CARTESIAN_POINT('',(8.,-1.8,10.1));
#961=CARTESIAN_POINT('Origin',(-16.5,0.,86.));
#962=CARTESIAN_POINT('',(-16.5,-1.8,86.));
#963=CARTESIAN_POINT('',(-16.5,-1.8,86.));
#964=CARTESIAN_POINT('',(-16.5,0.,86.));
#965=CARTESIAN_POINT('',(-16.5,0.,86.));
#966=CARTESIAN_POINT('',(-16.5,2.02066721859313E-15,65.25));
#967=CARTESIAN_POINT('Origin',(-16.,-1.8,43.));
#968=CARTESIAN_POINT('',(-15.5,-1.8,86.));
#969=CARTESIAN_POINT('',(-15.5,-1.8,86.));
#970=CARTESIAN_POINT('',(16.5,-1.8,86.));
#971=CARTESIAN_POINT('Origin',(-15.5,0.,0.));
#972=CARTESIAN_POINT('',(-15.5,0.,86.));
#973=CARTESIAN_POINT('',(-15.5,1.8982025386784E-15,22.25));
#974=CARTESIAN_POINT('',(-15.5,0.,86.));
#975=CARTESIAN_POINT('Origin',(-18.5,2.2655965784226E-15,44.5));
#976=CARTESIAN_POINT('',(-12.,0.,86.));
#977=CARTESIAN_POINT('',(-12.,1.46957615897682E-15,0.));
#978=CARTESIAN_POINT('',(-9.25,1.11022302462516E-15,86.));
#979=CARTESIAN_POINT('Origin',(0.,0.,44.5));
#980=CARTESIAN_POINT('',(12.,0.,86.));
#981=CARTESIAN_POINT('',(12.,0.,0.));
#982=CARTESIAN_POINT('',(8.94427190999916,8.,86.));
#983=CARTESIAN_POINT('Origin',(0.,0.,86.));
#984=CARTESIAN_POINT('',(-8.94427190999916,8.,86.));
#985=CARTESIAN_POINT('Origin',(0.,0.,86.));
#986=CARTESIAN_POINT('Origin',(0.,0.,86.));
#987=CARTESIAN_POINT('',(-10.6,5.62494444417012,63.));
#988=CARTESIAN_POINT('Ctrl Pts',(-10.6,5.62494444417012,63.));
#989=CARTESIAN_POINT('Ctrl Pts',(-10.6,5.62494444417012,63.1056278368425));
#990=CARTESIAN_POINT('Ctrl Pts',(-10.5895578336909,5.6447160987088,63.2071970340207));
#991=CARTESIAN_POINT('Ctrl Pts',(-10.5523216971587,5.7140219447189,63.399921586705));
#992=CARTESIAN_POINT('Ctrl Pts',(-10.5254959120822,5.7635492459075,63.4910732717207));
#993=CARTESIAN_POINT('Ctrl Pts',(-10.4271544999756,5.94076640335856,63.7459175466873));
#994=CARTESIAN_POINT('Ctrl Pts',(-10.3371500939654,6.0971184927604,63.8908877727141));
#995=CARTESIAN_POINT('Ctrl Pts',(-10.0913451227158,6.50011359916339,64.195209409437));
#996=CARTESIAN_POINT('Ctrl Pts',(-9.8990291915654,6.79275433050134,64.3446948380038));
#997=CARTESIAN_POINT('Ctrl Pts',(-9.46946134985986,7.37980980400591,64.547922253495));
#998=CARTESIAN_POINT('Ctrl Pts',(-9.23175586289171,7.67446748543978,64.6));
#999=CARTESIAN_POINT('Ctrl Pts',(-8.80948285867988,8.15328006594862,64.6));
#1000=CARTESIAN_POINT('Ctrl Pts',(-8.59378801160677,8.38053472389166,64.5643001122401));
#1001=CARTESIAN_POINT('Ctrl Pts',(-8.17278319106201,8.79159648064556,64.388436483177));
#1002=CARTESIAN_POINT('Ctrl Pts',(-7.96781573192225,8.97561519928554,64.2479478057525));
#1003=CARTESIAN_POINT('Ctrl Pts',(-7.68893523174776,9.2142460476434,63.9327927033733));
#1004=CARTESIAN_POINT('Ctrl Pts',(-7.58306951008994,9.30084204326316,63.7690798114201));
#1005=CARTESIAN_POINT('Ctrl Pts',(-7.43837119922613,9.41696549438708,63.4006144015618));
#1006=CARTESIAN_POINT('Ctrl Pts',(-7.39999999999999,9.44669254289565,63.1957437768975));
#1007=CARTESIAN_POINT('Ctrl Pts',(-7.39999999999999,9.44669254289565,62.8042562231025));
#1008=CARTESIAN_POINT('Ctrl Pts',(-7.43837119922613,9.41696549438708,62.5993855984382));
#1009=CARTESIAN_POINT('Ctrl Pts',(-7.58306951008994,9.30084204326316,62.2309201885799));
#1010=CARTESIAN_POINT('Ctrl Pts',(-7.68893523174776,9.2142460476434,62.0672072966267));
#1011=CARTESIAN_POINT('Ctrl Pts',(-7.96781573192225,8.97561519928554,61.7520521942476));
#1012=CARTESIAN_POINT('Ctrl Pts',(-8.17278319106201,8.79159648064556,61.6115635168231));
#1013=CARTESIAN_POINT('Ctrl Pts',(-8.59378801160677,8.38053472389166,61.4356998877599));
#1014=CARTESIAN_POINT('Ctrl Pts',(-8.80948285867988,8.15328006594862,61.4));
#1015=CARTESIAN_POINT('Ctrl Pts',(-9.23175586289171,7.67446748543978,61.4));
#1016=CARTESIAN_POINT('Ctrl Pts',(-9.46946134985985,7.37980980400592,61.4520777465051));
#1017=CARTESIAN_POINT('Ctrl Pts',(-9.8990291915654,6.79275433050134,61.6553051619962));
#1018=CARTESIAN_POINT('Ctrl Pts',(-10.0913451227158,6.50011359916339,61.804790590563));
#1019=CARTESIAN_POINT('Ctrl Pts',(-10.3371500939654,6.0971184927604,62.1091122272859));
#1020=CARTESIAN_POINT('Ctrl Pts',(-10.4271544999756,5.94076640335856,62.2540824533128));
#1021=CARTESIAN_POINT('Ctrl Pts',(-10.5254959120822,5.7635492459075,62.5089267282794));
#1022=CARTESIAN_POINT('Ctrl Pts',(-10.5523216971587,5.7140219447189,62.6000784132951));
#1023=CARTESIAN_POINT('Ctrl Pts',(-10.5895578336909,5.6447160987088,62.7928029659794));
#1024=CARTESIAN_POINT('Ctrl Pts',(-10.6,5.62494444417012,62.8943721631575));
#1025=CARTESIAN_POINT('Ctrl Pts',(-10.6,5.62494444417012,63.));
#1026=CARTESIAN_POINT('',(-10.6,5.6249444441701,25.));
#1027=CARTESIAN_POINT('Ctrl Pts',(-10.6,5.6249444441701,25.));
#1028=CARTESIAN_POINT('Ctrl Pts',(-10.6,5.6249444441701,25.1056278368425));
#1029=CARTESIAN_POINT('Ctrl Pts',(-10.5895578336909,5.64471609870879,25.2071970340206));
#1030=CARTESIAN_POINT('Ctrl Pts',(-10.5523216971587,5.71402194471888,25.399921586705));
#1031=CARTESIAN_POINT('Ctrl Pts',(-10.5254959120822,5.76354924590749,25.4910732717207));
#1032=CARTESIAN_POINT('Ctrl Pts',(-10.4271544999756,5.94076640335854,25.7459175466873));
#1033=CARTESIAN_POINT('Ctrl Pts',(-10.3371500939654,6.09711849276038,25.8908877727141));
#1034=CARTESIAN_POINT('Ctrl Pts',(-10.0913451227159,6.50011359916338,26.195209409437));
#1035=CARTESIAN_POINT('Ctrl Pts',(-9.89902919156541,6.79275433050133,26.3446948380038));
#1036=CARTESIAN_POINT('Ctrl Pts',(-9.46946134985986,7.3798098040059,26.547922253495));
#1037=CARTESIAN_POINT('Ctrl Pts',(-9.23175586289172,7.67446748543977,26.6));
#1038=CARTESIAN_POINT('Ctrl Pts',(-8.80948285867989,8.15328006594861,26.6));
#1039=CARTESIAN_POINT('Ctrl Pts',(-8.59378801160677,8.38053472389165,26.5643001122402));
#1040=CARTESIAN_POINT('Ctrl Pts',(-8.17278319106201,8.79159648064555,26.388436483177));
#1041=CARTESIAN_POINT('Ctrl Pts',(-7.96781573192226,8.97561519928554,26.2479478057525));
#1042=CARTESIAN_POINT('Ctrl Pts',(-7.68893523174777,9.2142460476434,25.9327927033733));
#1043=CARTESIAN_POINT('Ctrl Pts',(-7.58306951008994,9.30084204326316,25.7690798114201));
#1044=CARTESIAN_POINT('Ctrl Pts',(-7.43837119922614,9.41696549438707,25.4006144015618));
#1045=CARTESIAN_POINT('Ctrl Pts',(-7.4,9.44669254289564,25.1957437768975));
#1046=CARTESIAN_POINT('Ctrl Pts',(-7.4,9.44669254289564,24.8042562231025));
#1047=CARTESIAN_POINT('Ctrl Pts',(-7.43837119922614,9.41696549438707,24.5993855984383));
#1048=CARTESIAN_POINT('Ctrl Pts',(-7.58306951008994,9.30084204326316,24.23092018858));
#1049=CARTESIAN_POINT('Ctrl Pts',(-7.68893523174777,9.2142460476434,24.0672072966268));
#1050=CARTESIAN_POINT('Ctrl Pts',(-7.96781573192226,8.97561519928554,23.7520521942476));
#1051=CARTESIAN_POINT('Ctrl Pts',(-8.17278319106201,8.79159648064555,23.6115635168231));
#1052=CARTESIAN_POINT('Ctrl Pts',(-8.59378801160677,8.38053472389165,23.4356998877599));
#1053=CARTESIAN_POINT('Ctrl Pts',(-8.80948285867989,8.15328006594861,23.4));
#1054=CARTESIAN_POINT('Ctrl Pts',(-9.23175586289172,7.67446748543977,23.4));
#1055=CARTESIAN_POINT('Ctrl Pts',(-9.46946134985986,7.3798098040059,23.4520777465051));
#1056=CARTESIAN_POINT('Ctrl Pts',(-9.89902919156541,6.79275433050133,23.6553051619963));
#1057=CARTESIAN_POINT('Ctrl Pts',(-10.0913451227159,6.50011359916338,23.8047905905631));
#1058=CARTESIAN_POINT('Ctrl Pts',(-10.3371500939654,6.09711849276038,24.1091122272859));
#1059=CARTESIAN_POINT('Ctrl Pts',(-10.4271544999756,5.94076640335854,24.2540824533128));
#1060=CARTESIAN_POINT('Ctrl Pts',(-10.5254959120822,5.76354924590749,24.5089267282794));
#1061=CARTESIAN_POINT('Ctrl Pts',(-10.5523216971587,5.71402194471888,24.6000784132951));
#1062=CARTESIAN_POINT('Ctrl Pts',(-10.5895578336909,5.64471609870879,24.7928029659794));
#1063=CARTESIAN_POINT('Ctrl Pts',(-10.6,5.6249444441701,24.8943721631575));
#1064=CARTESIAN_POINT('Ctrl Pts',(-10.6,5.6249444441701,25.));
#1065=CARTESIAN_POINT('',(7.40000000000001,9.44669254289563,63.));
#1066=CARTESIAN_POINT('Ctrl Pts',(7.40000000000001,9.44669254289563,63.));
#1067=CARTESIAN_POINT('Ctrl Pts',(7.40000000000001,9.44669254289563,63.1957437768975));
#1068=CARTESIAN_POINT('Ctrl Pts',(7.43837119922615,9.41696549438706,63.4006144015618));
#1069=CARTESIAN_POINT('Ctrl Pts',(7.58306951008996,9.30084204326314,63.7690798114201));
#1070=CARTESIAN_POINT('Ctrl Pts',(7.68893523174778,9.21424604764339,63.9327927033733));
#1071=CARTESIAN_POINT('Ctrl Pts',(7.96781573192227,8.97561519928552,64.2479478057525));
#1072=CARTESIAN_POINT('Ctrl Pts',(8.17278319106203,8.79159648064553,64.388436483177));
#1073=CARTESIAN_POINT('Ctrl Pts',(8.59378801160679,8.38053472389163,64.5643001122401));
#1074=CARTESIAN_POINT('Ctrl Pts',(8.80948285867991,8.1532800659486,64.6));
#1075=CARTESIAN_POINT('Ctrl Pts',(9.23175586289174,7.67446748543975,64.6));
#1076=CARTESIAN_POINT('Ctrl Pts',(9.46946134985988,7.37980980400588,64.547922253495));
#1077=CARTESIAN_POINT('Ctrl Pts',(9.89902919156543,6.7927543305013,64.3446948380038));
#1078=CARTESIAN_POINT('Ctrl Pts',(10.0913451227159,6.50011359916335,64.195209409437));
#1079=CARTESIAN_POINT('Ctrl Pts',(10.3371500939654,6.09711849276035,63.8908877727141));
#1080=CARTESIAN_POINT('Ctrl Pts',(10.4271544999756,5.94076640335851,63.7459175466873));
#1081=CARTESIAN_POINT('Ctrl Pts',(10.5254959120822,5.76354924590745,63.4910732717207));
#1082=CARTESIAN_POINT('Ctrl Pts',(10.5523216971588,5.71402194471885,63.3999215867049));
#1083=CARTESIAN_POINT('Ctrl Pts',(10.589557833691,5.64471609870875,63.2071970340207));
#1084=CARTESIAN_POINT('Ctrl Pts',(10.6,5.62494444417007,63.1056278368425));
#1085=CARTESIAN_POINT('Ctrl Pts',(10.6,5.62494444417007,62.8943721631575));
#1086=CARTESIAN_POINT('Ctrl Pts',(10.589557833691,5.64471609870875,62.7928029659794));
#1087=CARTESIAN_POINT('Ctrl Pts',(10.5523216971588,5.71402194471885,62.6000784132951));
#1088=CARTESIAN_POINT('Ctrl Pts',(10.5254959120822,5.76354924590745,62.5089267282794));
#1089=CARTESIAN_POINT('Ctrl Pts',(10.4271544999756,5.94076640335851,62.2540824533128));
#1090=CARTESIAN_POINT('Ctrl Pts',(10.3371500939654,6.09711849276035,62.1091122272859));
#1091=CARTESIAN_POINT('Ctrl Pts',(10.0913451227159,6.50011359916335,61.804790590563));
#1092=CARTESIAN_POINT('Ctrl Pts',(9.89902919156543,6.79275433050131,61.6553051619962));
#1093=CARTESIAN_POINT('Ctrl Pts',(9.46946134985988,7.37980980400588,61.4520777465051));
#1094=CARTESIAN_POINT('Ctrl Pts',(9.23175586289174,7.67446748543975,61.4));
#1095=CARTESIAN_POINT('Ctrl Pts',(8.80948285867991,8.1532800659486,61.4));
#1096=CARTESIAN_POINT('Ctrl Pts',(8.59378801160679,8.38053472389164,61.4356998877599));
#1097=CARTESIAN_POINT('Ctrl Pts',(8.17278319106203,8.79159648064554,61.6115635168231));
#1098=CARTESIAN_POINT('Ctrl Pts',(7.96781573192227,8.97561519928552,61.7520521942476));
#1099=CARTESIAN_POINT('Ctrl Pts',(7.68893523174778,9.21424604764339,62.0672072966267));
#1100=CARTESIAN_POINT('Ctrl Pts',(7.58306951008996,9.30084204326314,62.2309201885799));
#1101=CARTESIAN_POINT('Ctrl Pts',(7.43837119922615,9.41696549438706,62.5993855984382));
#1102=CARTESIAN_POINT('Ctrl Pts',(7.40000000000001,9.44669254289563,62.8042562231025));
#1103=CARTESIAN_POINT('Ctrl Pts',(7.40000000000001,9.44669254289563,63.));
#1104=CARTESIAN_POINT('',(7.4,9.44669254289563,25.));
#1105=CARTESIAN_POINT('Ctrl Pts',(7.4,9.44669254289563,25.));
#1106=CARTESIAN_POINT('Ctrl Pts',(7.4,9.44669254289563,25.1957437768975));
#1107=CARTESIAN_POINT('Ctrl Pts',(7.43837119922615,9.41696549438707,25.4006144015618));
#1108=CARTESIAN_POINT('Ctrl Pts',(7.58306951008995,9.30084204326315,25.7690798114201));
#1109=CARTESIAN_POINT('Ctrl Pts',(7.68893523174778,9.21424604764339,25.9327927033733));
#1110=CARTESIAN_POINT('Ctrl Pts',(7.96781573192226,8.97561519928553,26.2479478057525));
#1111=CARTESIAN_POINT('Ctrl Pts',(8.17278319106202,8.79159648064554,26.388436483177));
#1112=CARTESIAN_POINT('Ctrl Pts',(8.59378801160678,8.38053472389164,26.5643001122401));
#1113=CARTESIAN_POINT('Ctrl Pts',(8.8094828586799,8.1532800659486,26.6));
#1114=CARTESIAN_POINT('Ctrl Pts',(9.23175586289173,7.67446748543976,26.6));
#1115=CARTESIAN_POINT('Ctrl Pts',(9.46946134985987,7.37980980400589,26.547922253495));
#1116=CARTESIAN_POINT('Ctrl Pts',(9.89902919156542,6.79275433050132,26.3446948380038));
#1117=CARTESIAN_POINT('Ctrl Pts',(10.0913451227159,6.50011359916336,26.195209409437));
#1118=CARTESIAN_POINT('Ctrl Pts',(10.3371500939654,6.09711849276036,25.8908877727141));
#1119=CARTESIAN_POINT('Ctrl Pts',(10.4271544999756,5.94076640335853,25.7459175466873));
#1120=CARTESIAN_POINT('Ctrl Pts',(10.5254959120822,5.76354924590747,25.4910732717207));
#1121=CARTESIAN_POINT('Ctrl Pts',(10.5523216971587,5.71402194471887,25.399921586705));
#1122=CARTESIAN_POINT('Ctrl Pts',(10.5895578336909,5.64471609870877,25.2071970340207));
#1123=CARTESIAN_POINT('Ctrl Pts',(10.6,5.62494444417009,25.1056278368425));
#1124=CARTESIAN_POINT('Ctrl Pts',(10.6,5.62494444417009,24.8943721631575));
#1125=CARTESIAN_POINT('Ctrl Pts',(10.5895578336909,5.64471609870877,24.7928029659794));
#1126=CARTESIAN_POINT('Ctrl Pts',(10.5523216971587,5.71402194471887,24.6000784132951));
#1127=CARTESIAN_POINT('Ctrl Pts',(10.5254959120822,5.76354924590747,24.5089267282794));
#1128=CARTESIAN_POINT('Ctrl Pts',(10.4271544999756,5.94076640335853,24.2540824533128));
#1129=CARTESIAN_POINT('Ctrl Pts',(10.3371500939654,6.09711849276036,24.1091122272859));
#1130=CARTESIAN_POINT('Ctrl Pts',(10.0913451227159,6.50011359916336,23.8047905905631));
#1131=CARTESIAN_POINT('Ctrl Pts',(9.89902919156542,6.79275433050132,23.6553051619963));
#1132=CARTESIAN_POINT('Ctrl Pts',(9.46946134985987,7.37980980400589,23.4520777465051));
#1133=CARTESIAN_POINT('Ctrl Pts',(9.23175586289173,7.67446748543976,23.4));
#1134=CARTESIAN_POINT('Ctrl Pts',(8.8094828586799,8.15328006594861,23.4));
#1135=CARTESIAN_POINT('Ctrl Pts',(8.59378801160678,8.38053472389164,23.4356998877599));
#1136=CARTESIAN_POINT('Ctrl Pts',(8.17278319106202,8.79159648064554,23.6115635168231));
#1137=CARTESIAN_POINT('Ctrl Pts',(7.96781573192226,8.97561519928553,23.7520521942476));
#1138=CARTESIAN_POINT('Ctrl Pts',(7.68893523174778,9.21424604764339,24.0672072966268));
#1139=CARTESIAN_POINT('Ctrl Pts',(7.58306951008995,9.30084204326315,24.23092018858));
#1140=CARTESIAN_POINT('Ctrl Pts',(7.43837119922615,9.41696549438707,24.5993855984383));
#1141=CARTESIAN_POINT('Ctrl Pts',(7.4,9.44669254289563,24.8042562231025));
#1142=CARTESIAN_POINT('Ctrl Pts',(7.4,9.44669254289563,25.));
#1143=CARTESIAN_POINT('Origin',(18.5,0.,44.5));
#1144=CARTESIAN_POINT('',(15.5,0.,86.));
#1145=CARTESIAN_POINT('',(15.5,0.,65.25));
#1146=CARTESIAN_POINT('',(9.25,0.,86.));
#1147=CARTESIAN_POINT('Origin',(-18.5,2.2655965784226E-15,44.5));
#1148=CARTESIAN_POINT('',(-22.5,0.,86.));
#1149=CARTESIAN_POINT('',(-9.25,1.11022302462516E-15,86.));
#1150=CARTESIAN_POINT('',(-22.5,2.75545529808154E-15,84.));
#1151=CARTESIAN_POINT('',(-22.5,2.75545529808154E-15,84.));
#1152=CARTESIAN_POINT('',(-20.5,2.51052593825208E-15,84.));
#1153=CARTESIAN_POINT('',(-17.5,2.14313189850787E-15,84.));
#1154=CARTESIAN_POINT('',(-17.5,2.14313189850787E-15,81.));
#1155=CARTESIAN_POINT('',(-19.,2.32682891837997E-15,82.5));
#1156=CARTESIAN_POINT('',(-17.5,2.14313189850787E-15,5.00000000000001));
#1157=CARTESIAN_POINT('Origin',(16.5,0.,0.));
#1158=CARTESIAN_POINT('',(16.5,0.,86.));
#1159=CARTESIAN_POINT('',(16.5,0.,22.25));
#1160=CARTESIAN_POINT('',(16.5,-1.8,86.));
#1161=CARTESIAN_POINT('',(16.5,0.,86.));
#1162=CARTESIAN_POINT('',(16.5,-1.8,0.));
#1163=CARTESIAN_POINT('Origin',(15.5,0.,86.));
#1164=CARTESIAN_POINT('',(15.5,-1.8,86.));
#1165=CARTESIAN_POINT('',(15.5,-1.8,0.));
#1166=CARTESIAN_POINT('',(15.5,0.,86.));
#1167=CARTESIAN_POINT('Origin',(16.,-1.8,43.));
#1168=CARTESIAN_POINT('',(16.5,-1.8,86.));
#1169=CARTESIAN_POINT('Origin',(18.5,0.,44.5));
#1170=CARTESIAN_POINT('',(17.5,0.,81.));
#1171=CARTESIAN_POINT('',(17.5,0.,5.00000000000001));
#1172=CARTESIAN_POINT('',(20.5,0.,84.));
#1173=CARTESIAN_POINT('',(19.,0.,82.5));
#1174=CARTESIAN_POINT('',(22.5,0.,84.));
#1175=CARTESIAN_POINT('',(17.5,0.,84.));
#1176=CARTESIAN_POINT('',(22.5,0.,86.));
#1177=CARTESIAN_POINT('',(22.5,0.,84.));
#1178=CARTESIAN_POINT('',(9.25,0.,86.));
#1179=CARTESIAN_POINT('Origin',(8.99999980144468,12.5,25.0000008481728));
#1180=CARTESIAN_POINT('',(12.2474487139159,12.5,22.6646046160765));
#1181=CARTESIAN_POINT('',(12.2474487139159,12.5,27.3353970802691));
#1182=CARTESIAN_POINT('',(12.2474487139159,12.5,44.5));
#1183=CARTESIAN_POINT('Origin',(8.99999980144468,12.5,25.0000008481728));
#1184=CARTESIAN_POINT('',(7.4,12.5,25.));
#1185=CARTESIAN_POINT('Origin',(9.00000000000001,12.5,25.));
#1186=CARTESIAN_POINT('Origin',(8.99999980144468,17.5,25.0000008481728));
#1187=CARTESIAN_POINT('Ctrl Pts',(12.2474487139159,12.5,27.3353970802691));
#1188=CARTESIAN_POINT('Ctrl Pts',(12.1560380523156,12.5895637911884,27.4625067542176));
#1189=CARTESIAN_POINT('Ctrl Pts',(12.0595998490392,12.6820466858349,27.5807696925003));
#1190=CARTESIAN_POINT('Ctrl Pts',(11.5972314533866,13.1149731060191,28.0898343470621));
#1191=CARTESIAN_POINT('Ctrl Pts',(11.1382679736572,13.5131135667507,28.426641494249));
#1192=CARTESIAN_POINT('Ctrl Pts',(10.1142672766231,14.2956934093782,28.8823281088842));
#1193=CARTESIAN_POINT('Ctrl Pts',(9.54825599933179,14.6795600299134,29.0000008481728));
#1194=CARTESIAN_POINT('Ctrl Pts',(8.51956706822108,15.296430759249,29.0000008481728));
#1195=CARTESIAN_POINT('Ctrl Pts',(7.98719045749208,15.5809388453469,28.9078010797355));
#1196=CARTESIAN_POINT('Ctrl Pts',(6.97917483113208,16.0577701998633,28.4947044394606));
#1197=CARTESIAN_POINT('Ctrl Pts',(6.50451354448798,16.2512618916693,28.1727725142643));
#1198=CARTESIAN_POINT('Ctrl Pts',(5.79209080308016,16.5175577556651,27.4374824833874));
#1199=CARTESIAN_POINT('Ctrl Pts',(5.49495125620672,16.6162178115475,26.9972652012896));
#1200=CARTESIAN_POINT('Ctrl Pts',(5.09883677317337,16.742014383648,26.027307560252));
#1201=CARTESIAN_POINT('Ctrl Pts',(4.99999980144468,16.7705098904462,25.4976875949647));
#1202=CARTESIAN_POINT('Ctrl Pts',(4.99999980144468,16.7705098904462,24.502314101381));
#1203=CARTESIAN_POINT('Ctrl Pts',(5.09883677317336,16.7420143836481,23.9726941360937));
#1204=CARTESIAN_POINT('Ctrl Pts',(5.49495125620672,16.6162178115475,23.0027364950561));
#1205=CARTESIAN_POINT('Ctrl Pts',(5.79209080308016,16.5175577556651,22.5625192129583));
#1206=CARTESIAN_POINT('Ctrl Pts',(6.50451354448797,16.2512618916693,21.8272291820813));
#1207=CARTESIAN_POINT('Ctrl Pts',(6.97917483113208,16.0577701998633,21.5052972568851));
#1208=CARTESIAN_POINT('Ctrl Pts',(7.98719045749208,15.5809388453469,21.0922006166102));
#1209=CARTESIAN_POINT('Ctrl Pts',(8.51956706822108,15.296430759249,21.0000008481728));
#1210=CARTESIAN_POINT('Ctrl Pts',(9.54825599933179,14.6795600299134,21.0000008481728));
#1211=CARTESIAN_POINT('Ctrl Pts',(10.1142672766231,14.2956934093782,21.1176735874614));
#1212=CARTESIAN_POINT('Ctrl Pts',(11.1382679736572,13.5131135667507,21.5733602020966));
#1213=CARTESIAN_POINT('Ctrl Pts',(11.5972314533866,13.1149731060191,21.9101673492836));
#1214=CARTESIAN_POINT('Ctrl Pts',(12.0595998490392,12.6820466858349,22.4192320038453));
#1215=CARTESIAN_POINT('Ctrl Pts',(12.1560380523156,12.5895637911884,22.5374949421281));
#1216=CARTESIAN_POINT('Ctrl Pts',(12.2474487139159,12.5,22.6646046160765));
#1217=CARTESIAN_POINT('Origin',(-9.00000019855532,12.5,25.0000008481728));
#1218=CARTESIAN_POINT('',(-12.2474487139159,12.5,27.335397632465));
#1219=CARTESIAN_POINT('',(-12.2474487139159,12.5,22.6646040638806));
#1220=CARTESIAN_POINT('',(-12.2474487139159,12.5,44.5));
#1221=CARTESIAN_POINT('Origin',(-9.00000019855532,12.5,25.0000008481728));
#1222=CARTESIAN_POINT('',(-10.6,12.5,25.));
#1223=CARTESIAN_POINT('Origin',(-9.,12.5,25.));
#1224=CARTESIAN_POINT('Origin',(-9.00000019855532,17.5,25.0000008481728));
#1225=CARTESIAN_POINT('Ctrl Pts',(-12.2474487139159,12.5,22.6646040638806));
#1226=CARTESIAN_POINT('Ctrl Pts',(-12.1560381758054,12.5895636701935,22.5374946072471));
#1227=CARTESIAN_POINT('Ctrl Pts',(-12.0596001155329,12.6820464303757,22.4192318610487));
#1228=CARTESIAN_POINT('Ctrl Pts',(-11.5972318623415,13.1149727449919,21.9101673585927));
#1229=CARTESIAN_POINT('Ctrl Pts',(-11.1382683817678,13.5131132311623,21.5733602085213));
#1230=CARTESIAN_POINT('Ctrl Pts',(-10.1142676809606,14.2956931240631,21.1176735891478));
#1231=CARTESIAN_POINT('Ctrl Pts',(-9.54825640069314,14.6795597695072,21.0000008481728));
#1232=CARTESIAN_POINT('Ctrl Pts',(-8.51956746678026,15.2964305375293,21.0000008481728));
#1233=CARTESIAN_POINT('Ctrl Pts',(-7.98719085611293,15.5809386412909,21.0922006160296));
#1234=CARTESIAN_POINT('Ctrl Pts',(-6.97917522721351,16.0577700279936,21.5052972572686));
#1235=CARTESIAN_POINT('Ctrl Pts',(-6.50451393803568,16.251261734304,21.8272291841074));
#1236=CARTESIAN_POINT('Ctrl Pts',(-5.79209119690011,16.517557617576,22.5625192178215));
#1237=CARTESIAN_POINT('Ctrl Pts',(-5.49495165149822,16.6162176808342,23.0027364985905));
#1238=CARTESIAN_POINT('Ctrl Pts',(-5.09883717009462,16.7420142627732,23.9726941374775));
#1239=CARTESIAN_POINT('Ctrl Pts',(-5.00000019855532,16.7705097720507,24.5023141019394));
#1240=CARTESIAN_POINT('Ctrl Pts',(-5.00000019855532,16.7705097720507,25.0000008481728));
#1241=CARTESIAN_POINT('Ctrl Pts',(-5.00000019855532,16.7705097720507,25.4976875944062));
#1242=CARTESIAN_POINT('Ctrl Pts',(-5.09883717009462,16.7420142627732,26.0273075588681));
#1243=CARTESIAN_POINT('Ctrl Pts',(-5.49495165149822,16.6162176808342,26.9972651977552));
#1244=CARTESIAN_POINT('Ctrl Pts',(-5.7920911969001,16.517557617576,27.4374824785241));
#1245=CARTESIAN_POINT('Ctrl Pts',(-6.50451393803568,16.251261734304,28.1727725122382));
#1246=CARTESIAN_POINT('Ctrl Pts',(-6.97917522721351,16.0577700279936,28.494704439077));
#1247=CARTESIAN_POINT('Ctrl Pts',(-7.98719085611293,15.5809386412909,28.9078010803161));
#1248=CARTESIAN_POINT('Ctrl Pts',(-8.51956746678026,15.2964305375293,29.0000008481728));
#1249=CARTESIAN_POINT('Ctrl Pts',(-9.54825640069314,14.6795597695072,29.0000008481728));
#1250=CARTESIAN_POINT('Ctrl Pts',(-10.1142676809606,14.2956931240631,28.8823281071979));
#1251=CARTESIAN_POINT('Ctrl Pts',(-11.1382683817678,13.5131132311623,28.4266414878243));
#1252=CARTESIAN_POINT('Ctrl Pts',(-11.5972318623415,13.1149727449919,28.089834337753));
#1253=CARTESIAN_POINT('Ctrl Pts',(-12.0596001112692,12.6820464343679,27.5807698399913));
#1254=CARTESIAN_POINT('Ctrl Pts',(-12.1560381739365,12.5895636720247,27.4625070916974));
#1255=CARTESIAN_POINT('Ctrl Pts',(-12.2474487139159,12.5,27.335397632465));
#1256=CARTESIAN_POINT('Origin',(9.00000000000001,12.5,63.));
#1257=CARTESIAN_POINT('',(12.2474487139159,12.5,60.6646034918057));
#1258=CARTESIAN_POINT('',(12.2474487139159,12.5,65.3353965081943));
#1259=CARTESIAN_POINT('',(12.2474487139159,12.5,44.5));
#1260=CARTESIAN_POINT('Origin',(9.00000000000001,12.5,63.));
#1261=CARTESIAN_POINT('',(7.40000000000001,12.5,63.));
#1262=CARTESIAN_POINT('Origin',(9.00000000000001,12.5,63.));
#1263=CARTESIAN_POINT('Origin',(9.00000000000001,17.5,63.));
#1264=CARTESIAN_POINT('Ctrl Pts',(12.2474487139159,12.5,65.3353965081943));
#1265=CARTESIAN_POINT('Ctrl Pts',(12.156038113126,12.5895637316066,65.4625060747847));
#1266=CARTESIAN_POINT('Ctrl Pts',(12.0595999801542,12.6820465601014,65.580768918073));
#1267=CARTESIAN_POINT('Ctrl Pts',(11.5972316578641,13.1149729255055,66.0898334942347));
#1268=CARTESIAN_POINT('Ctrl Pts',(11.1382681777125,13.5131133989565,66.4266406428639));
#1269=CARTESIAN_POINT('Ctrl Pts',(10.1142674787919,14.2956932667207,66.8823272598682));
#1270=CARTESIAN_POINT('Ctrl Pts',(9.54825620001248,14.6795598997103,67.));
#1271=CARTESIAN_POINT('Ctrl Pts',(8.51956726750069,15.2964306483891,67.));
#1272=CARTESIAN_POINT('Ctrl Pts',(7.98719065680252,15.5809387433189,66.907800231853));
#1273=CARTESIAN_POINT('Ctrl Pts',(6.97917502917281,16.0577701139285,66.494703591096));
#1274=CARTESIAN_POINT('Ctrl Pts',(6.50451374126184,16.2512618129867,66.1727716650785));
#1275=CARTESIAN_POINT('Ctrl Pts',(5.79209099999014,16.5175576866205,65.4374816327829));
#1276=CARTESIAN_POINT('Ctrl Pts',(5.49495145385248,16.6162177461908,64.9972643513496));
#1277=CARTESIAN_POINT('Ctrl Pts',(5.098836971634,16.7420143232106,64.0273067113873));
#1278=CARTESIAN_POINT('Ctrl Pts',(5.00000000000001,16.7705098312484,63.4976867465127));
#1279=CARTESIAN_POINT('Ctrl Pts',(5.00000000000001,16.7705098312484,62.5023132534874));
#1280=CARTESIAN_POINT('Ctrl Pts',(5.098836971634,16.7420143232106,61.9726932886128));
#1281=CARTESIAN_POINT('Ctrl Pts',(5.49495145385248,16.6162177461908,61.0027356486505));
#1282=CARTESIAN_POINT('Ctrl Pts',(5.79209099999014,16.5175576866205,60.5625183672171));
#1283=CARTESIAN_POINT('Ctrl Pts',(6.50451374126184,16.2512618129867,59.8272283349216));
#1284=CARTESIAN_POINT('Ctrl Pts',(6.9791750291728,16.0577701139285,59.505296408904));
#1285=CARTESIAN_POINT('Ctrl Pts',(7.98719065680252,15.5809387433189,59.0921997681471));
#1286=CARTESIAN_POINT('Ctrl Pts',(8.51956726750068,15.2964306483891,59.));
#1287=CARTESIAN_POINT('Ctrl Pts',(9.54825620001248,14.6795598997103,59.));
#1288=CARTESIAN_POINT('Ctrl Pts',(10.1142674787919,14.2956932667207,59.1176727401318));
#1289=CARTESIAN_POINT('Ctrl Pts',(11.1382681777125,13.5131133989565,59.5733593571362));
#1290=CARTESIAN_POINT('Ctrl Pts',(11.5972316578641,13.1149729255055,59.9101665057653));
#1291=CARTESIAN_POINT('Ctrl Pts',(12.0595999801542,12.6820465601014,60.419231081927));
#1292=CARTESIAN_POINT('Ctrl Pts',(12.156038113126,12.5895637316066,60.5374939252153));
#1293=CARTESIAN_POINT('Ctrl Pts',(12.2474487139159,12.5,60.6646034918057));
#1294=CARTESIAN_POINT('Origin',(-8.99999999999999,12.5,63.));
#1295=CARTESIAN_POINT('',(-12.2474487139159,12.5,65.3353965081943));
#1296=CARTESIAN_POINT('',(-12.2474487139159,12.5,60.6646034918058));
#1297=CARTESIAN_POINT('',(-12.2474487139159,12.5,44.5));
#1298=CARTESIAN_POINT('Origin',(-8.99999999999999,12.5,63.));
#1299=CARTESIAN_POINT('',(-10.6,12.5,63.));
#1300=CARTESIAN_POINT('Origin',(-8.99999999999999,12.5,63.));
#1301=CARTESIAN_POINT('Origin',(-8.99999999999999,17.5,63.));
#1302=CARTESIAN_POINT('Ctrl Pts',(-12.2474487139159,12.5,60.6646034918058));
#1303=CARTESIAN_POINT('Ctrl Pts',(-12.156038114995,12.5895637297754,60.5374939278142));
#1304=CARTESIAN_POINT('Ctrl Pts',(-12.0595999844179,12.6820465561092,60.4192310866214));
#1305=CARTESIAN_POINT('Ctrl Pts',(-11.597231657864,13.1149729255055,59.9101665057653));
#1306=CARTESIAN_POINT('Ctrl Pts',(-11.1382681777125,13.5131133989565,59.5733593571362));
#1307=CARTESIAN_POINT('Ctrl Pts',(-10.1142674787918,14.2956932667207,59.1176727401318));
#1308=CARTESIAN_POINT('Ctrl Pts',(-9.54825620001246,14.6795598997103,59.));
#1309=CARTESIAN_POINT('Ctrl Pts',(-8.51956726750066,15.2964306483892,59.));
#1310=CARTESIAN_POINT('Ctrl Pts',(-7.9871906568025,15.5809387433189,59.0921997681471));
#1311=CARTESIAN_POINT('Ctrl Pts',(-6.97917502917278,16.0577701139285,59.5052964089041));
#1312=CARTESIAN_POINT('Ctrl Pts',(-6.50451374126181,16.2512618129867,59.8272283349216));
#1313=CARTESIAN_POINT('Ctrl Pts',(-5.79209099999012,16.5175576866205,60.5625183672171));
#1314=CARTESIAN_POINT('Ctrl Pts',(-5.49495145385246,16.6162177461909,61.0027356486505));
#1315=CARTESIAN_POINT('Ctrl Pts',(-5.09883697163398,16.7420143232106,61.9726932886128));
#1316=CARTESIAN_POINT('Ctrl Pts',(-4.99999999999998,16.7705098312484,62.5023132534874));
#1317=CARTESIAN_POINT('Ctrl Pts',(-4.99999999999998,16.7705098312484,63.));
#1318=CARTESIAN_POINT('Ctrl Pts',(-4.99999999999998,16.7705098312484,63.4976867465127));
#1319=CARTESIAN_POINT('Ctrl Pts',(-5.09883697163398,16.7420143232106,64.0273067113873));
#1320=CARTESIAN_POINT('Ctrl Pts',(-5.49495145385246,16.6162177461909,64.9972643513496));
#1321=CARTESIAN_POINT('Ctrl Pts',(-5.79209099999012,16.5175576866205,65.4374816327829));
#1322=CARTESIAN_POINT('Ctrl Pts',(-6.50451374126181,16.2512618129867,66.1727716650785));
#1323=CARTESIAN_POINT('Ctrl Pts',(-6.97917502917278,16.0577701139285,66.494703591096));
#1324=CARTESIAN_POINT('Ctrl Pts',(-7.98719065680249,15.5809387433189,66.907800231853));
#1325=CARTESIAN_POINT('Ctrl Pts',(-8.51956726750066,15.2964306483892,67.));
#1326=CARTESIAN_POINT('Ctrl Pts',(-9.54825620001245,14.6795598997103,67.));
#1327=CARTESIAN_POINT('Ctrl Pts',(-10.1142674787918,14.2956932667207,66.8823272598682));
#1328=CARTESIAN_POINT('Ctrl Pts',(-11.1382681777125,13.5131133989565,66.4266406428639));
#1329=CARTESIAN_POINT('Ctrl Pts',(-11.597231657864,13.1149729255055,66.0898334942347));
#1330=CARTESIAN_POINT('Ctrl Pts',(-12.0595999801542,12.6820465601014,65.580768918073));
#1331=CARTESIAN_POINT('Ctrl Pts',(-12.156038113126,12.5895637316066,65.4625060747847));
#1332=CARTESIAN_POINT('Ctrl Pts',(-12.2474487139159,12.5,65.3353965081943));
#1333=CARTESIAN_POINT('Origin',(-14.1421356237256,14.1421356237363,80.));
#1334=CARTESIAN_POINT('',(-15.8141289436521,13.0446665635249,84.));
#1335=CARTESIAN_POINT('',(-13.044666563513,15.814128943662,84.));
#1336=CARTESIAN_POINT('Ctrl Pts',(-15.8141289436521,13.0446665635249,84.));
#1337=CARTESIAN_POINT('Ctrl Pts',(-15.6981300265393,12.8679422971534,83.7980619043392));
#1338=CARTESIAN_POINT('Ctrl Pts',(-15.5572129398421,12.715680258719,83.5926702779288));
#1339=CARTESIAN_POINT('Ctrl Pts',(-15.4078389954359,12.5935895395524,83.3997487421324));
#1340=CARTESIAN_POINT('Ctrl Pts',(-15.2205496009763,12.4405086461426,83.157858111466));
#1341=CARTESIAN_POINT('Ctrl Pts',(-14.9882956610242,12.3099607388564,82.8951896504423));
#1342=CARTESIAN_POINT('Ctrl Pts',(-14.472346935486,12.1512030749814,82.3968199250125));
#1343=CARTESIAN_POINT('Ctrl Pts',(-14.1888263475287,12.1225878110662,82.1610675934965));
#1344=CARTESIAN_POINT('Ctrl Pts',(-13.7160809223705,12.1786444478321,81.8420275134774));
#1345=CARTESIAN_POINT('Ctrl Pts',(-13.5023525225048,12.2336110140622,81.7189551417516));
#1346=CARTESIAN_POINT('Ctrl Pts',(-13.0899329410128,12.4261348704191,81.5474578771891));
#1347=CARTESIAN_POINT('Ctrl Pts',(-12.8912580069326,12.5645861157832,81.5));
#1348=CARTESIAN_POINT('Ctrl Pts',(-12.5645861157735,12.8912580069421,81.5));
#1349=CARTESIAN_POINT('Ctrl Pts',(-12.4261348704092,13.0899329410222,81.5474578771891));
#1350=CARTESIAN_POINT('Ctrl Pts',(-12.2336110140519,13.502352522514,81.7189551417516));
#1351=CARTESIAN_POINT('Ctrl Pts',(-12.1786444478217,13.7160809223797,81.8420275134774));
#1352=CARTESIAN_POINT('Ctrl Pts',(-12.1225878110555,14.1888263475379,82.1610675934965));
#1353=CARTESIAN_POINT('Ctrl Pts',(-12.1512030749705,14.4723469354952,82.3968199250126));
#1354=CARTESIAN_POINT('Ctrl Pts',(-12.3099607388451,14.9882956610336,82.8951896504423));
#1355=CARTESIAN_POINT('Ctrl Pts',(-12.4405086461311,15.2205496009857,83.157858111466));
#1356=CARTESIAN_POINT('Ctrl Pts',(-12.715680258495,15.557212939592,83.5926702775934));
#1357=CARTESIAN_POINT('Ctrl Pts',(-12.8679422978384,15.6981300270065,83.7980619051356));
#1358=CARTESIAN_POINT('Ctrl Pts',(-13.044666563513,15.814128943662,84.));
#1359=CARTESIAN_POINT('Origin',(-14.1421356237256,14.1421356237363,84.));
#1360=CARTESIAN_POINT('Origin',(14.142135623731,14.1421356237309,80.));
#1361=CARTESIAN_POINT('',(13.044666563519,15.814128943657,84.));
#1362=CARTESIAN_POINT('',(15.814128943657,13.044666563519,84.));
#1363=CARTESIAN_POINT('Ctrl Pts',(13.044666563519,15.814128943657,84.));
#1364=CARTESIAN_POINT('Ctrl Pts',(12.8679422971475,15.6981300265442,83.7980619043392));
#1365=CARTESIAN_POINT('Ctrl Pts',(12.7156802587131,15.5572129398469,83.5926702779289));
#1366=CARTESIAN_POINT('Ctrl Pts',(12.5935895395466,15.4078389954407,83.3997487421324));
#1367=CARTESIAN_POINT('Ctrl Pts',(12.4405086461369,15.220549600981,83.157858111466));
#1368=CARTESIAN_POINT('Ctrl Pts',(12.3099607388508,14.9882956610289,82.8951896504423));
#1369=CARTESIAN_POINT('Ctrl Pts',(12.1512030749759,14.4723469354906,82.3968199250125));
#1370=CARTESIAN_POINT('Ctrl Pts',(12.1225878110609,14.1888263475333,82.1610675934965));
#1371=CARTESIAN_POINT('Ctrl Pts',(12.1786444478269,13.7160809223751,81.8420275134774));
#1372=CARTESIAN_POINT('Ctrl Pts',(12.233611014057,13.5023525225094,81.7189551417516));
#1373=CARTESIAN_POINT('Ctrl Pts',(12.4261348704142,13.0899329410175,81.5474578771891));
#1374=CARTESIAN_POINT('Ctrl Pts',(12.5645861157783,12.8912580069374,81.5));
#1375=CARTESIAN_POINT('Ctrl Pts',(12.8912580069374,12.5645861157783,81.5));
#1376=CARTESIAN_POINT('Ctrl Pts',(13.0899329410175,12.4261348704142,81.5474578771891));
#1377=CARTESIAN_POINT('Ctrl Pts',(13.5023525225094,12.233611014057,81.7189551417516));
#1378=CARTESIAN_POINT('Ctrl Pts',(13.7160809223751,12.1786444478269,81.8420275134774));
#1379=CARTESIAN_POINT('Ctrl Pts',(14.1888263475333,12.1225878110609,82.1610675934965));
#1380=CARTESIAN_POINT('Ctrl Pts',(14.4723469354906,12.1512030749759,82.3968199250126));
#1381=CARTESIAN_POINT('Ctrl Pts',(14.9882956610289,12.3099607388508,82.8951896504423));
#1382=CARTESIAN_POINT('Ctrl Pts',(15.220549600981,12.4405086461369,83.157858111466));
#1383=CARTESIAN_POINT('Ctrl Pts',(15.5572129395872,12.7156802585008,83.5926702775934));
#1384=CARTESIAN_POINT('Ctrl Pts',(15.6981300270016,12.8679422978444,83.7980619051356));
#1385=CARTESIAN_POINT('Ctrl Pts',(15.814128943657,13.044666563519,84.));
#1386=CARTESIAN_POINT('Origin',(14.142135623731,14.1421356237309,84.));
#1387=CARTESIAN_POINT('Origin',(22.5,0.,84.));
#1388=CARTESIAN_POINT('Origin',(0.,0.,84.));
#1389=CARTESIAN_POINT('Origin',(-8.48588818362673E-18,4.44089209850063E-15,
84.));
#1390=CARTESIAN_POINT('Origin',(0.,0.,84.));
#1391=CARTESIAN_POINT('Origin',(0.,0.,84.));
#1392=CARTESIAN_POINT('',(-15.3921356237256,14.1421356237363,84.));
#1393=CARTESIAN_POINT('Origin',(-14.1421356237256,14.1421356237363,84.));
#1394=CARTESIAN_POINT('',(12.892135623731,14.1421356237309,84.));
#1395=CARTESIAN_POINT('Origin',(14.142135623731,14.1421356237309,84.));
#1396=CARTESIAN_POINT('Origin',(0.,0.,82.5));
#1397=CARTESIAN_POINT('Origin',(0.,0.,81.));
#1398=CARTESIAN_POINT('Origin',(0.,0.,44.5));
#1399=CARTESIAN_POINT('Origin',(-4.44089209850063E-15,15.25,86.));
#1400=CARTESIAN_POINT('',(21.0297408448131,8.,86.));
#1401=CARTESIAN_POINT('Origin',(0.,0.,86.5));
#1402=CARTESIAN_POINT('',(21.0297408448131,8.,86.));
#1403=CARTESIAN_POINT('Origin',(0.,0.,86.));
#1404=CARTESIAN_POINT('',(-21.0297408448131,8.,86.));
#1405=CARTESIAN_POINT('Origin',(0.,0.,86.));
#1406=CARTESIAN_POINT('',(-21.0297408448131,8.,89.));
#1407=CARTESIAN_POINT('',(-21.0297408448131,8.,86.5));
#1408=CARTESIAN_POINT('',(21.0297408448131,8.,89.));
#1409=CARTESIAN_POINT('Origin',(-8.48588818362673E-18,4.44089209850063E-15,
89.));
#1410=CARTESIAN_POINT('',(21.0297408448131,8.,86.5));
#1411=CARTESIAN_POINT('Origin',(-14.1421356237256,14.1421356237363,89.));
#1412=CARTESIAN_POINT('',(-15.3921356237256,14.1421356237363,89.));
#1413=CARTESIAN_POINT('Origin',(-14.1421356237256,14.1421356237363,89.));
#1414=CARTESIAN_POINT('',(-15.3921356237256,14.1421356237363,89.));
#1415=CARTESIAN_POINT('Origin',(14.142135623731,14.1421356237309,89.));
#1416=CARTESIAN_POINT('',(12.892135623731,14.1421356237309,89.));
#1417=CARTESIAN_POINT('Origin',(14.142135623731,14.1421356237309,89.));
#1418=CARTESIAN_POINT('',(12.892135623731,14.1421356237309,89.));
#1419=CARTESIAN_POINT('Origin',(0.,4.,86.));
#1420=CARTESIAN_POINT('',(21.0297408448131,8.,86.));
#1421=CARTESIAN_POINT('Origin',(-21.0297408448131,8.,89.));
#1422=CARTESIAN_POINT('',(-4.51487042240654,8.,89.));
#1423=CARTESIAN_POINT('',(21.0297408448131,8.,86.));
#1424=CARTESIAN_POINT('Origin',(0.,4.,86.));
#1425=CARTESIAN_POINT('Origin',(12.,0.,89.));
#1426=CARTESIAN_POINT('Origin',(9.00000000000001,0.,25.));
#1427=CARTESIAN_POINT('',(7.4,0.,25.));
#1428=CARTESIAN_POINT('Origin',(9.00000000000001,0.,63.));
#1429=CARTESIAN_POINT('',(7.40000000000001,0.,63.));
#1430=CARTESIAN_POINT('Origin',(-9.,0.,25.));
#1431=CARTESIAN_POINT('',(-10.6,0.,25.));
#1432=CARTESIAN_POINT('Origin',(-8.99999999999999,0.,63.));
#1433=CARTESIAN_POINT('',(-10.6,0.,63.));
#1434=UNCERTAINTY_MEASURE_WITH_UNIT(LENGTH_MEASURE(0.01),#1438,
'DISTANCE_ACCURACY_VALUE',
'Maximum model space distance between geometric entities at asserted c
onnectivities');
#1435=UNCERTAINTY_MEASURE_WITH_UNIT(LENGTH_MEASURE(0.01),#1438,
'DISTANCE_ACCURACY_VALUE',
'Maximum model space distance between geometric entities at asserted c
onnectivities');
#1436=(
GEOMETRIC_REPRESENTATION_CONTEXT(3)
GLOBAL_UNCERTAINTY_ASSIGNED_CONTEXT((#1434))
GLOBAL_UNIT_ASSIGNED_CONTEXT((#1438,#1440,#1441))
REPRESENTATION_CONTEXT('','3D')
);
#1437=(
GEOMETRIC_REPRESENTATION_CONTEXT(3)
GLOBAL_UNCERTAINTY_ASSIGNED_CONTEXT((#1435))
GLOBAL_UNIT_ASSIGNED_CONTEXT((#1438,#1440,#1441))
REPRESENTATION_CONTEXT('','3D')
);
#1438=(
LENGTH_UNIT()
NAMED_UNIT(*)
SI_UNIT(.MILLI.,.METRE.)
);
#1439=(
LENGTH_UNIT()
NAMED_UNIT(*)
SI_UNIT($,.METRE.)
);
#1440=(
NAMED_UNIT(*)
PLANE_ANGLE_UNIT()
SI_UNIT($,.RADIAN.)
);
#1441=(
NAMED_UNIT(*)
SI_UNIT($,.STERADIAN.)
SOLID_ANGLE_UNIT()
);
#1442=SHAPE_DEFINITION_REPRESENTATION(#1443,#1444);
#1443=PRODUCT_DEFINITION_SHAPE('',$,#1446);
#1444=SHAPE_REPRESENTATION('',(#686),#1436);
#1445=PRODUCT_DEFINITION_CONTEXT('part definition',#1450,'design');
#1446=PRODUCT_DEFINITION('2026-08-03-19-35-13-998','fiberHolderCase2',#1447,
#1445);
#1447=PRODUCT_DEFINITION_FORMATION('',$,#1452);
#1448=PRODUCT_RELATED_PRODUCT_CATEGORY('fiberHolderCase2',
'fiberHolderCase2',(#1452));
#1449=APPLICATION_PROTOCOL_DEFINITION('international standard',
'automotive_design',2009,#1450);
#1450=APPLICATION_CONTEXT(
'Core Data for Automotive Mechanical Design Process');
#1451=PRODUCT_CONTEXT('part definition',#1450,'mechanical');
#1452=PRODUCT('2026-08-03-19-35-13-998','fiberHolderCase2',$,(#1451));
#1453=PRESENTATION_STYLE_ASSIGNMENT((#1454));
#1454=SURFACE_STYLE_USAGE(.BOTH.,#1455);
#1455=SURFACE_SIDE_STYLE('',(#1456));
#1456=SURFACE_STYLE_FILL_AREA(#1457);
#1457=FILL_AREA_STYLE('Steel - Satin',(#1458));
#1458=FILL_AREA_STYLE_COLOUR('Steel - Satin',#1459);
#1459=COLOUR_RGB('Steel - Satin',0.627450980392157,0.627450980392157,0.627450980392157);
ENDSEC;
END-ISO-10303-21;
