ISO-10303-21;
HEADER;
/* Generated by software containing ST-Developer
 * from STEP Tools, Inc. (www.steptools.com) 
 */

FILE_DESCRIPTION(
/* description */ (''),
/* implementation_level */ '2;1');

FILE_NAME(
/* name */ 'fiberFixationBracketOuter.step',
/* time_stamp */ '2026-08-03T19:34:49+02:00',
/* author */ (''),
/* organization */ (''),
/* preprocessor_version */ 'ST-DEVELOPER v20.1',
/* originating_system */ 'Autodesk Translation Framework v15.8.0.0',
/* authorisation */ '');

FILE_SCHEMA (('AUTOMOTIVE_DESIGN { 1 0 10303 214 3 1 1 }'));
ENDSEC;

DATA;
#10=MECHANICAL_DESIGN_GEOMETRIC_PRESENTATION_REPRESENTATION('',(#13),#475);
#11=SHAPE_REPRESENTATION_RELATIONSHIP('SRR','None',#482,#12);
#12=ADVANCED_BREP_SHAPE_REPRESENTATION('',(#14),#474);
#13=STYLED_ITEM('',(#492),#14);
#14=MANIFOLD_SOLID_BREP('Body1',#279);
#15=FACE_BOUND('',#51,.T.);
#16=FACE_BOUND('',#52,.T.);
#17=FACE_BOUND('',#55,.T.);
#18=FACE_BOUND('',#56,.T.);
#19=FACE_BOUND('',#59,.T.);
#20=FACE_BOUND('',#60,.T.);
#21=FACE_BOUND('',#63,.T.);
#22=FACE_BOUND('',#64,.T.);
#23=PLANE('',#308);
#24=PLANE('',#309);
#25=PLANE('',#310);
#26=PLANE('',#314);
#27=PLANE('',#315);
#28=PLANE('',#316);
#29=PLANE('',#317);
#30=PLANE('',#318);
#31=FACE_OUTER_BOUND('',#45,.T.);
#32=FACE_OUTER_BOUND('',#46,.T.);
#33=FACE_OUTER_BOUND('',#47,.T.);
#34=FACE_OUTER_BOUND('',#48,.T.);
#35=FACE_OUTER_BOUND('',#49,.T.);
#36=FACE_OUTER_BOUND('',#50,.T.);
#37=FACE_OUTER_BOUND('',#53,.T.);
#38=FACE_OUTER_BOUND('',#54,.T.);
#39=FACE_OUTER_BOUND('',#57,.T.);
#40=FACE_OUTER_BOUND('',#58,.T.);
#41=FACE_OUTER_BOUND('',#61,.T.);
#42=FACE_OUTER_BOUND('',#62,.T.);
#43=FACE_OUTER_BOUND('',#65,.T.);
#44=FACE_OUTER_BOUND('',#66,.T.);
#45=EDGE_LOOP('',(#187,#188,#189,#190));
#46=EDGE_LOOP('',(#191,#192,#193,#194));
#47=EDGE_LOOP('',(#195,#196,#197,#198));
#48=EDGE_LOOP('',(#199,#200,#201,#202));
#49=EDGE_LOOP('',(#203,#204,#205,#206));
#50=EDGE_LOOP('',(#207,#208,#209,#210));
#51=EDGE_LOOP('',(#211));
#52=EDGE_LOOP('',(#212));
#53=EDGE_LOOP('',(#213,#214,#215,#216));
#54=EDGE_LOOP('',(#217,#218,#219,#220));
#55=EDGE_LOOP('',(#221));
#56=EDGE_LOOP('',(#222));
#57=EDGE_LOOP('',(#223,#224,#225,#226));
#58=EDGE_LOOP('',(#227,#228,#229,#230));
#59=EDGE_LOOP('',(#231));
#60=EDGE_LOOP('',(#232));
#61=EDGE_LOOP('',(#233,#234,#235,#236));
#62=EDGE_LOOP('',(#237,#238,#239,#240));
#63=EDGE_LOOP('',(#241));
#64=EDGE_LOOP('',(#242));
#65=EDGE_LOOP('',(#243,#244,#245,#246,#247,#248,#249,#250));
#66=EDGE_LOOP('',(#251,#252,#253,#254,#255,#256,#257,#258));
#67=LINE('',#402,#91);
#68=LINE('',#408,#92);
#69=LINE('',#414,#93);
#70=LINE('',#420,#94);
#71=LINE('',#427,#95);
#72=LINE('',#430,#96);
#73=LINE('',#433,#97);
#74=LINE('',#435,#98);
#75=LINE('',#436,#99);
#76=LINE('',#439,#100);
#77=LINE('',#441,#101);
#78=LINE('',#442,#102);
#79=LINE('',#445,#103);
#80=LINE('',#447,#104);
#81=LINE('',#448,#105);
#82=LINE('',#454,#106);
#83=LINE('',#457,#107);
#84=LINE('',#459,#108);
#85=LINE('',#460,#109);
#86=LINE('',#463,#110);
#87=LINE('',#465,#111);
#88=LINE('',#466,#112);
#89=LINE('',#468,#113);
#90=LINE('',#469,#114);
#91=VECTOR('',#325,1.5);
#92=VECTOR('',#332,1.5);
#93=VECTOR('',#339,1.5);
#94=VECTOR('',#346,1.5);
#95=VECTOR('',#353,10.);
#96=VECTOR('',#356,10.);
#97=VECTOR('',#359,10.);
#98=VECTOR('',#360,10.);
#99=VECTOR('',#361,10.);
#100=VECTOR('',#364,10.);
#101=VECTOR('',#365,10.);
#102=VECTOR('',#366,10.);
#103=VECTOR('',#369,10.);
#104=VECTOR('',#370,10.);
#105=VECTOR('',#371,10.);
#106=VECTOR('',#378,10.);
#107=VECTOR('',#381,10.);
#108=VECTOR('',#382,10.);
#109=VECTOR('',#383,10.);
#110=VECTOR('',#386,10.);
#111=VECTOR('',#387,10.);
#112=VECTOR('',#388,10.);
#113=VECTOR('',#391,10.);
#114=VECTOR('',#392,10.);
#115=CIRCLE('',#294,1.5);
#116=CIRCLE('',#295,1.5);
#117=CIRCLE('',#297,1.5);
#118=CIRCLE('',#298,1.5);
#119=CIRCLE('',#300,1.5);
#120=CIRCLE('',#301,1.5);
#121=CIRCLE('',#303,1.5);
#122=CIRCLE('',#304,1.5);
#123=CIRCLE('',#306,4.5);
#124=CIRCLE('',#307,4.5);
#125=CIRCLE('',#312,6.);
#126=CIRCLE('',#313,6.);
#127=VERTEX_POINT('',#399);
#128=VERTEX_POINT('',#401);
#129=VERTEX_POINT('',#405);
#130=VERTEX_POINT('',#407);
#131=VERTEX_POINT('',#411);
#132=VERTEX_POINT('',#413);
#133=VERTEX_POINT('',#417);
#134=VERTEX_POINT('',#419);
#135=VERTEX_POINT('',#423);
#136=VERTEX_POINT('',#424);
#137=VERTEX_POINT('',#426);
#138=VERTEX_POINT('',#428);
#139=VERTEX_POINT('',#432);
#140=VERTEX_POINT('',#434);
#141=VERTEX_POINT('',#438);
#142=VERTEX_POINT('',#440);
#143=VERTEX_POINT('',#444);
#144=VERTEX_POINT('',#446);
#145=VERTEX_POINT('',#450);
#146=VERTEX_POINT('',#452);
#147=VERTEX_POINT('',#456);
#148=VERTEX_POINT('',#458);
#149=VERTEX_POINT('',#462);
#150=VERTEX_POINT('',#464);
#151=EDGE_CURVE('',#127,#127,#115,.T.);
#152=EDGE_CURVE('',#127,#128,#67,.T.);
#153=EDGE_CURVE('',#128,#128,#116,.T.);
#154=EDGE_CURVE('',#129,#129,#117,.T.);
#155=EDGE_CURVE('',#129,#130,#68,.T.);
#156=EDGE_CURVE('',#130,#130,#118,.T.);
#157=EDGE_CURVE('',#131,#131,#119,.T.);
#158=EDGE_CURVE('',#131,#132,#69,.T.);
#159=EDGE_CURVE('',#132,#132,#120,.T.);
#160=EDGE_CURVE('',#133,#133,#121,.T.);
#161=EDGE_CURVE('',#133,#134,#70,.T.);
#162=EDGE_CURVE('',#134,#134,#122,.T.);
#163=EDGE_CURVE('',#135,#136,#123,.T.);
#164=EDGE_CURVE('',#135,#137,#71,.T.);
#165=EDGE_CURVE('',#138,#137,#124,.T.);
#166=EDGE_CURVE('',#136,#138,#72,.T.);
#167=EDGE_CURVE('',#136,#139,#73,.T.);
#168=EDGE_CURVE('',#140,#138,#74,.T.);
#169=EDGE_CURVE('',#139,#140,#75,.T.);
#170=EDGE_CURVE('',#139,#141,#76,.T.);
#171=EDGE_CURVE('',#142,#140,#77,.T.);
#172=EDGE_CURVE('',#141,#142,#78,.T.);
#173=EDGE_CURVE('',#141,#143,#79,.T.);
#174=EDGE_CURVE('',#144,#142,#80,.T.);
#175=EDGE_CURVE('',#143,#144,#81,.T.);
#176=EDGE_CURVE('',#145,#143,#125,.T.);
#177=EDGE_CURVE('',#146,#144,#126,.T.);
#178=EDGE_CURVE('',#145,#146,#82,.T.);
#179=EDGE_CURVE('',#147,#145,#83,.T.);
#180=EDGE_CURVE('',#148,#146,#84,.T.);
#181=EDGE_CURVE('',#147,#148,#85,.T.);
#182=EDGE_CURVE('',#149,#147,#86,.T.);
#183=EDGE_CURVE('',#150,#148,#87,.T.);
#184=EDGE_CURVE('',#149,#150,#88,.T.);
#185=EDGE_CURVE('',#135,#149,#89,.T.);
#186=EDGE_CURVE('',#137,#150,#90,.T.);
#187=ORIENTED_EDGE('',*,*,#151,.F.);
#188=ORIENTED_EDGE('',*,*,#152,.T.);
#189=ORIENTED_EDGE('',*,*,#153,.F.);
#190=ORIENTED_EDGE('',*,*,#152,.F.);
#191=ORIENTED_EDGE('',*,*,#154,.F.);
#192=ORIENTED_EDGE('',*,*,#155,.T.);
#193=ORIENTED_EDGE('',*,*,#156,.F.);
#194=ORIENTED_EDGE('',*,*,#155,.F.);
#195=ORIENTED_EDGE('',*,*,#157,.F.);
#196=ORIENTED_EDGE('',*,*,#158,.T.);
#197=ORIENTED_EDGE('',*,*,#159,.F.);
#198=ORIENTED_EDGE('',*,*,#158,.F.);
#199=ORIENTED_EDGE('',*,*,#160,.F.);
#200=ORIENTED_EDGE('',*,*,#161,.T.);
#201=ORIENTED_EDGE('',*,*,#162,.F.);
#202=ORIENTED_EDGE('',*,*,#161,.F.);
#203=ORIENTED_EDGE('',*,*,#163,.F.);
#204=ORIENTED_EDGE('',*,*,#164,.T.);
#205=ORIENTED_EDGE('',*,*,#165,.F.);
#206=ORIENTED_EDGE('',*,*,#166,.F.);
#207=ORIENTED_EDGE('',*,*,#167,.F.);
#208=ORIENTED_EDGE('',*,*,#166,.T.);
#209=ORIENTED_EDGE('',*,*,#168,.F.);
#210=ORIENTED_EDGE('',*,*,#169,.F.);
#211=ORIENTED_EDGE('',*,*,#151,.T.);
#212=ORIENTED_EDGE('',*,*,#157,.T.);
#213=ORIENTED_EDGE('',*,*,#170,.F.);
#214=ORIENTED_EDGE('',*,*,#169,.T.);
#215=ORIENTED_EDGE('',*,*,#171,.F.);
#216=ORIENTED_EDGE('',*,*,#172,.F.);
#217=ORIENTED_EDGE('',*,*,#173,.F.);
#218=ORIENTED_EDGE('',*,*,#172,.T.);
#219=ORIENTED_EDGE('',*,*,#174,.F.);
#220=ORIENTED_EDGE('',*,*,#175,.F.);
#221=ORIENTED_EDGE('',*,*,#153,.T.);
#222=ORIENTED_EDGE('',*,*,#159,.T.);
#223=ORIENTED_EDGE('',*,*,#176,.T.);
#224=ORIENTED_EDGE('',*,*,#175,.T.);
#225=ORIENTED_EDGE('',*,*,#177,.F.);
#226=ORIENTED_EDGE('',*,*,#178,.F.);
#227=ORIENTED_EDGE('',*,*,#179,.T.);
#228=ORIENTED_EDGE('',*,*,#178,.T.);
#229=ORIENTED_EDGE('',*,*,#180,.F.);
#230=ORIENTED_EDGE('',*,*,#181,.F.);
#231=ORIENTED_EDGE('',*,*,#156,.T.);
#232=ORIENTED_EDGE('',*,*,#162,.T.);
#233=ORIENTED_EDGE('',*,*,#182,.T.);
#234=ORIENTED_EDGE('',*,*,#181,.T.);
#235=ORIENTED_EDGE('',*,*,#183,.F.);
#236=ORIENTED_EDGE('',*,*,#184,.F.);
#237=ORIENTED_EDGE('',*,*,#185,.T.);
#238=ORIENTED_EDGE('',*,*,#184,.T.);
#239=ORIENTED_EDGE('',*,*,#186,.F.);
#240=ORIENTED_EDGE('',*,*,#164,.F.);
#241=ORIENTED_EDGE('',*,*,#154,.T.);
#242=ORIENTED_EDGE('',*,*,#160,.T.);
#243=ORIENTED_EDGE('',*,*,#186,.T.);
#244=ORIENTED_EDGE('',*,*,#183,.T.);
#245=ORIENTED_EDGE('',*,*,#180,.T.);
#246=ORIENTED_EDGE('',*,*,#177,.T.);
#247=ORIENTED_EDGE('',*,*,#174,.T.);
#248=ORIENTED_EDGE('',*,*,#171,.T.);
#249=ORIENTED_EDGE('',*,*,#168,.T.);
#250=ORIENTED_EDGE('',*,*,#165,.T.);
#251=ORIENTED_EDGE('',*,*,#185,.F.);
#252=ORIENTED_EDGE('',*,*,#163,.T.);
#253=ORIENTED_EDGE('',*,*,#167,.T.);
#254=ORIENTED_EDGE('',*,*,#170,.T.);
#255=ORIENTED_EDGE('',*,*,#173,.T.);
#256=ORIENTED_EDGE('',*,*,#176,.F.);
#257=ORIENTED_EDGE('',*,*,#179,.F.);
#258=ORIENTED_EDGE('',*,*,#182,.F.);
#259=CYLINDRICAL_SURFACE('',#293,1.5);
#260=CYLINDRICAL_SURFACE('',#296,1.5);
#261=CYLINDRICAL_SURFACE('',#299,1.5);
#262=CYLINDRICAL_SURFACE('',#302,1.5);
#263=CYLINDRICAL_SURFACE('',#305,4.5);
#264=CYLINDRICAL_SURFACE('',#311,6.);
#265=ADVANCED_FACE('',(#31),#259,.F.);
#266=ADVANCED_FACE('',(#32),#260,.F.);
#267=ADVANCED_FACE('',(#33),#261,.F.);
#268=ADVANCED_FACE('',(#34),#262,.F.);
#269=ADVANCED_FACE('',(#35),#263,.F.);
#270=ADVANCED_FACE('',(#36,#15,#16),#23,.T.);
#271=ADVANCED_FACE('',(#37),#24,.T.);
#272=ADVANCED_FACE('',(#38,#17,#18),#25,.T.);
#273=ADVANCED_FACE('',(#39),#264,.T.);
#274=ADVANCED_FACE('',(#40,#19,#20),#26,.T.);
#275=ADVANCED_FACE('',(#41),#27,.T.);
#276=ADVANCED_FACE('',(#42,#21,#22),#28,.T.);
#277=ADVANCED_FACE('',(#43),#29,.T.);
#278=ADVANCED_FACE('',(#44),#30,.F.);
#279=CLOSED_SHELL('',(#265,#266,#267,#268,#269,#270,#271,#272,#273,#274,
#275,#276,#277,#278));
#280=DERIVED_UNIT_ELEMENT(#282,1.);
#281=DERIVED_UNIT_ELEMENT(#477,-3.);
#282=(
MASS_UNIT()
NAMED_UNIT(*)
SI_UNIT(.KILO.,.GRAM.)
);
#283=DERIVED_UNIT((#280,#281));
#284=MEASURE_REPRESENTATION_ITEM('density measure',
POSITIVE_RATIO_MEASURE(7850.),#283);
#285=PROPERTY_DEFINITION_REPRESENTATION(#290,#287);
#286=PROPERTY_DEFINITION_REPRESENTATION(#291,#288);
#287=REPRESENTATION('material name',(#289),#474);
#288=REPRESENTATION('density',(#284),#474);
#289=DESCRIPTIVE_REPRESENTATION_ITEM('Steel','Steel');
#290=PROPERTY_DEFINITION('material property','material name',#484);
#291=PROPERTY_DEFINITION('material property','density of part',#484);
#292=AXIS2_PLACEMENT_3D('',#397,#319,#320);
#293=AXIS2_PLACEMENT_3D('',#398,#321,#322);
#294=AXIS2_PLACEMENT_3D('',#400,#323,#324);
#295=AXIS2_PLACEMENT_3D('',#403,#326,#327);
#296=AXIS2_PLACEMENT_3D('',#404,#328,#329);
#297=AXIS2_PLACEMENT_3D('',#406,#330,#331);
#298=AXIS2_PLACEMENT_3D('',#409,#333,#334);
#299=AXIS2_PLACEMENT_3D('',#410,#335,#336);
#300=AXIS2_PLACEMENT_3D('',#412,#337,#338);
#301=AXIS2_PLACEMENT_3D('',#415,#340,#341);
#302=AXIS2_PLACEMENT_3D('',#416,#342,#343);
#303=AXIS2_PLACEMENT_3D('',#418,#344,#345);
#304=AXIS2_PLACEMENT_3D('',#421,#347,#348);
#305=AXIS2_PLACEMENT_3D('',#422,#349,#350);
#306=AXIS2_PLACEMENT_3D('',#425,#351,#352);
#307=AXIS2_PLACEMENT_3D('',#429,#354,#355);
#308=AXIS2_PLACEMENT_3D('',#431,#357,#358);
#309=AXIS2_PLACEMENT_3D('',#437,#362,#363);
#310=AXIS2_PLACEMENT_3D('',#443,#367,#368);
#311=AXIS2_PLACEMENT_3D('',#449,#372,#373);
#312=AXIS2_PLACEMENT_3D('',#451,#374,#375);
#313=AXIS2_PLACEMENT_3D('',#453,#376,#377);
#314=AXIS2_PLACEMENT_3D('',#455,#379,#380);
#315=AXIS2_PLACEMENT_3D('',#461,#384,#385);
#316=AXIS2_PLACEMENT_3D('',#467,#389,#390);
#317=AXIS2_PLACEMENT_3D('',#470,#393,#394);
#318=AXIS2_PLACEMENT_3D('',#471,#395,#396);
#319=DIRECTION('axis',(0.,0.,1.));
#320=DIRECTION('refdir',(1.,0.,0.));
#321=DIRECTION('center_axis',(0.,1.,0.));
#322=DIRECTION('ref_axis',(1.,0.,0.));
#323=DIRECTION('center_axis',(0.,1.,0.));
#324=DIRECTION('ref_axis',(1.,0.,0.));
#325=DIRECTION('',(0.,1.,0.));
#326=DIRECTION('center_axis',(0.,-1.,0.));
#327=DIRECTION('ref_axis',(1.,0.,0.));
#328=DIRECTION('center_axis',(0.,1.,0.));
#329=DIRECTION('ref_axis',(1.,0.,0.));
#330=DIRECTION('center_axis',(-3.4017966642982E-17,1.,0.));
#331=DIRECTION('ref_axis',(1.,0.,0.));
#332=DIRECTION('',(0.,1.,0.));
#333=DIRECTION('center_axis',(0.,-1.,0.));
#334=DIRECTION('ref_axis',(1.,0.,0.));
#335=DIRECTION('center_axis',(0.,1.,0.));
#336=DIRECTION('ref_axis',(1.,0.,0.));
#337=DIRECTION('center_axis',(0.,1.,0.));
#338=DIRECTION('ref_axis',(1.,0.,0.));
#339=DIRECTION('',(0.,1.,0.));
#340=DIRECTION('center_axis',(0.,-1.,0.));
#341=DIRECTION('ref_axis',(1.,0.,0.));
#342=DIRECTION('center_axis',(0.,1.,0.));
#343=DIRECTION('ref_axis',(1.,0.,0.));
#344=DIRECTION('center_axis',(-3.4017966642982E-17,1.,0.));
#345=DIRECTION('ref_axis',(1.,0.,0.));
#346=DIRECTION('',(0.,1.,0.));
#347=DIRECTION('center_axis',(0.,-1.,0.));
#348=DIRECTION('ref_axis',(1.,0.,0.));
#349=DIRECTION('center_axis',(0.,0.,1.));
#350=DIRECTION('ref_axis',(1.,1.13393222143273E-17,0.));
#351=DIRECTION('center_axis',(0.,0.,1.));
#352=DIRECTION('ref_axis',(1.,1.13393222143273E-17,0.));
#353=DIRECTION('',(0.,0.,1.));
#354=DIRECTION('center_axis',(0.,0.,-1.));
#355=DIRECTION('ref_axis',(1.,1.13393222143273E-17,0.));
#356=DIRECTION('',(0.,0.,1.));
#357=DIRECTION('center_axis',(0.,-1.,0.));
#358=DIRECTION('ref_axis',(1.,0.,0.));
#359=DIRECTION('',(-1.,0.,0.));
#360=DIRECTION('',(1.,0.,0.));
#361=DIRECTION('',(0.,0.,1.));
#362=DIRECTION('center_axis',(-1.,0.,0.));
#363=DIRECTION('ref_axis',(0.,-1.,0.));
#364=DIRECTION('',(0.,1.,0.));
#365=DIRECTION('',(0.,-1.,0.));
#366=DIRECTION('',(0.,0.,1.));
#367=DIRECTION('center_axis',(0.,1.,0.));
#368=DIRECTION('ref_axis',(-1.,0.,0.));
#369=DIRECTION('',(1.,0.,0.));
#370=DIRECTION('',(-1.,0.,0.));
#371=DIRECTION('',(0.,0.,1.));
#372=DIRECTION('center_axis',(0.,0.,1.));
#373=DIRECTION('ref_axis',(1.,1.7008983321491E-17,0.));
#374=DIRECTION('center_axis',(0.,0.,1.));
#375=DIRECTION('ref_axis',(1.,1.7008983321491E-17,0.));
#376=DIRECTION('center_axis',(0.,0.,1.));
#377=DIRECTION('ref_axis',(1.,1.7008983321491E-17,0.));
#378=DIRECTION('',(0.,0.,1.));
#379=DIRECTION('center_axis',(0.,1.,0.));
#380=DIRECTION('ref_axis',(-1.,0.,0.));
#381=DIRECTION('',(-1.,0.,0.));
#382=DIRECTION('',(-1.,0.,0.));
#383=DIRECTION('',(0.,0.,1.));
#384=DIRECTION('center_axis',(1.,0.,0.));
#385=DIRECTION('ref_axis',(0.,1.,0.));
#386=DIRECTION('',(0.,1.,0.));
#387=DIRECTION('',(0.,1.,0.));
#388=DIRECTION('',(0.,0.,1.));
#389=DIRECTION('center_axis',(3.4017966642982E-17,-1.,0.));
#390=DIRECTION('ref_axis',(1.,3.4017966642982E-17,0.));
#391=DIRECTION('',(1.,3.4017966642982E-17,0.));
#392=DIRECTION('',(1.,3.4017966642982E-17,0.));
#393=DIRECTION('center_axis',(0.,0.,1.));
#394=DIRECTION('ref_axis',(1.,0.,0.));
#395=DIRECTION('center_axis',(0.,0.,1.));
#396=DIRECTION('ref_axis',(1.,0.,0.));
#397=CARTESIAN_POINT('',(0.,0.,0.));
#398=CARTESIAN_POINT('Origin',(-8.99999999999999,0.,2.));
#399=CARTESIAN_POINT('',(-10.5,0.,2.));
#400=CARTESIAN_POINT('Origin',(-8.99999999999999,0.,2.));
#401=CARTESIAN_POINT('',(-10.5,1.5,2.));
#402=CARTESIAN_POINT('',(-10.5,0.,2.));
#403=CARTESIAN_POINT('Origin',(-8.99999999999999,1.5,2.));
#404=CARTESIAN_POINT('Origin',(9.00000000000001,0.,2.00000000000001));
#405=CARTESIAN_POINT('',(7.50000000000001,0.,2.00000000000001));
#406=CARTESIAN_POINT('Origin',(9.00000000000001,5.1026949964473E-17,2.00000000000001));
#407=CARTESIAN_POINT('',(7.50000000000001,1.5,2.00000000000001));
#408=CARTESIAN_POINT('',(7.50000000000001,0.,2.00000000000001));
#409=CARTESIAN_POINT('Origin',(9.00000000000001,1.5,2.00000000000001));
#410=CARTESIAN_POINT('Origin',(-9.00000000000002,0.,9.99999999999999));
#411=CARTESIAN_POINT('',(-10.5,0.,9.99999999999999));
#412=CARTESIAN_POINT('Origin',(-9.00000000000002,0.,9.99999999999999));
#413=CARTESIAN_POINT('',(-10.5,1.5,9.99999999999999));
#414=CARTESIAN_POINT('',(-10.5,0.,9.99999999999999));
#415=CARTESIAN_POINT('Origin',(-9.00000000000002,1.5,9.99999999999999));
#416=CARTESIAN_POINT('Origin',(9.00000000000001,0.,10.));
#417=CARTESIAN_POINT('',(7.5,0.,10.));
#418=CARTESIAN_POINT('Origin',(9.00000000000001,5.1026949964473E-17,10.));
#419=CARTESIAN_POINT('',(7.5,1.5,10.));
#420=CARTESIAN_POINT('',(7.5,0.,10.));
#421=CARTESIAN_POINT('Origin',(9.00000000000001,1.5,10.));
#422=CARTESIAN_POINT('Origin',(0.,0.,0.));
#423=CARTESIAN_POINT('',(4.5,5.1026949964473E-17,0.));
#424=CARTESIAN_POINT('',(-4.5,5.00064109651836E-16,0.));
#425=CARTESIAN_POINT('Origin',(0.,0.,0.));
#426=CARTESIAN_POINT('',(4.5,5.1026949964473E-17,12.));
#427=CARTESIAN_POINT('',(4.5,5.1026949964473E-17,0.));
#428=CARTESIAN_POINT('',(-4.5,5.00064109651836E-16,12.));
#429=CARTESIAN_POINT('Origin',(0.,0.,12.));
#430=CARTESIAN_POINT('',(-4.5,5.00064109651836E-16,0.));
#431=CARTESIAN_POINT('Origin',(-12.,0.,0.));
#432=CARTESIAN_POINT('',(-12.,0.,0.));
#433=CARTESIAN_POINT('',(-4.5,0.,0.));
#434=CARTESIAN_POINT('',(-12.,0.,12.));
#435=CARTESIAN_POINT('',(-4.5,0.,12.));
#436=CARTESIAN_POINT('',(-12.,0.,0.));
#437=CARTESIAN_POINT('Origin',(-12.,1.5,0.));
#438=CARTESIAN_POINT('',(-12.,1.5,0.));
#439=CARTESIAN_POINT('',(-12.,0.,0.));
#440=CARTESIAN_POINT('',(-12.,1.5,12.));
#441=CARTESIAN_POINT('',(-12.,0.,12.));
#442=CARTESIAN_POINT('',(-12.,1.5,0.));
#443=CARTESIAN_POINT('Origin',(-5.80947501931113,1.5,0.));
#444=CARTESIAN_POINT('',(-5.80947501931113,1.5,0.));
#445=CARTESIAN_POINT('',(-12.,1.5,0.));
#446=CARTESIAN_POINT('',(-5.80947501931113,1.5,12.));
#447=CARTESIAN_POINT('',(-12.,1.5,12.));
#448=CARTESIAN_POINT('',(-5.80947501931113,1.5,0.));
#449=CARTESIAN_POINT('Origin',(0.,0.,0.));
#450=CARTESIAN_POINT('',(5.80947501931113,1.5,0.));
#451=CARTESIAN_POINT('Origin',(0.,0.,0.));
#452=CARTESIAN_POINT('',(5.80947501931113,1.5,12.));
#453=CARTESIAN_POINT('Origin',(0.,0.,12.));
#454=CARTESIAN_POINT('',(5.80947501931113,1.5,0.));
#455=CARTESIAN_POINT('Origin',(12.,1.5,0.));
#456=CARTESIAN_POINT('',(12.,1.5,0.));
#457=CARTESIAN_POINT('',(12.,1.5,0.));
#458=CARTESIAN_POINT('',(12.,1.5,12.));
#459=CARTESIAN_POINT('',(12.,1.5,12.));
#460=CARTESIAN_POINT('',(12.,1.5,0.));
#461=CARTESIAN_POINT('Origin',(12.,3.06161699786838E-16,0.));
#462=CARTESIAN_POINT('',(12.,3.06161699786838E-16,0.));
#463=CARTESIAN_POINT('',(12.,3.06161699786838E-16,0.));
#464=CARTESIAN_POINT('',(12.,3.06161699786838E-16,12.));
#465=CARTESIAN_POINT('',(12.,3.06161699786838E-16,12.));
#466=CARTESIAN_POINT('',(12.,3.06161699786838E-16,0.));
#467=CARTESIAN_POINT('Origin',(4.5,5.1026949964473E-17,0.));
#468=CARTESIAN_POINT('',(4.5,5.1026949964473E-17,0.));
#469=CARTESIAN_POINT('',(4.5,5.1026949964473E-17,12.));
#470=CARTESIAN_POINT('Origin',(0.,3.,12.));
#471=CARTESIAN_POINT('Origin',(0.,3.,0.));
#472=UNCERTAINTY_MEASURE_WITH_UNIT(LENGTH_MEASURE(0.01),#476,
'DISTANCE_ACCURACY_VALUE',
'Maximum model space distance between geometric entities at asserted c
onnectivities');
#473=UNCERTAINTY_MEASURE_WITH_UNIT(LENGTH_MEASURE(0.01),#476,
'DISTANCE_ACCURACY_VALUE',
'Maximum model space distance between geometric entities at asserted c
onnectivities');
#474=(
GEOMETRIC_REPRESENTATION_CONTEXT(3)
GLOBAL_UNCERTAINTY_ASSIGNED_CONTEXT((#472))
GLOBAL_UNIT_ASSIGNED_CONTEXT((#476,#478,#479))
REPRESENTATION_CONTEXT('','3D')
);
#475=(
GEOMETRIC_REPRESENTATION_CONTEXT(3)
GLOBAL_UNCERTAINTY_ASSIGNED_CONTEXT((#473))
GLOBAL_UNIT_ASSIGNED_CONTEXT((#476,#478,#479))
REPRESENTATION_CONTEXT('','3D')
);
#476=(
LENGTH_UNIT()
NAMED_UNIT(*)
SI_UNIT(.MILLI.,.METRE.)
);
#477=(
LENGTH_UNIT()
NAMED_UNIT(*)
SI_UNIT($,.METRE.)
);
#478=(
NAMED_UNIT(*)
PLANE_ANGLE_UNIT()
SI_UNIT($,.RADIAN.)
);
#479=(
NAMED_UNIT(*)
SI_UNIT($,.STERADIAN.)
SOLID_ANGLE_UNIT()
);
#480=SHAPE_DEFINITION_REPRESENTATION(#481,#482);
#481=PRODUCT_DEFINITION_SHAPE('',$,#484);
#482=SHAPE_REPRESENTATION('',(#292),#474);
#483=PRODUCT_DEFINITION_CONTEXT('part definition',#488,'design');
#484=PRODUCT_DEFINITION('2026-08-03-19-34-49-935',
'fiberFixationBracketOuter',#485,#483);
#485=PRODUCT_DEFINITION_FORMATION('',$,#490);
#486=PRODUCT_RELATED_PRODUCT_CATEGORY('fiberFixationBracketOuter',
'fiberFixationBracketOuter',(#490));
#487=APPLICATION_PROTOCOL_DEFINITION('international standard',
'automotive_design',2009,#488);
#488=APPLICATION_CONTEXT(
'Core Data for Automotive Mechanical Design Process');
#489=PRODUCT_CONTEXT('part definition',#488,'mechanical');
#490=PRODUCT('2026-08-03-19-34-49-935','fiberFixationBracketOuter',$,(#489));
#491=PRESENTATION_STYLE_ASSIGNMENT((#493));
#492=PRESENTATION_STYLE_ASSIGNMENT((#494));
#493=SURFACE_STYLE_USAGE(.BOTH.,#495);
#494=SURFACE_STYLE_USAGE(.BOTH.,#496);
#495=SURFACE_SIDE_STYLE('',(#497));
#496=SURFACE_SIDE_STYLE('',(#498));
#497=SURFACE_STYLE_FILL_AREA(#499);
#498=SURFACE_STYLE_FILL_AREA(#500);
#499=FILL_AREA_STYLE('Steel - Satin',(#501));
#500=FILL_AREA_STYLE('Orgasol\X\AE Invent Smooth - PA 12',(#502));
#501=FILL_AREA_STYLE_COLOUR('Steel - Satin',#503);
#502=FILL_AREA_STYLE_COLOUR('Orgasol\X\AE Invent Smooth - PA 12',#504);
#503=COLOUR_RGB('Steel - Satin',0.627450980392157,0.627450980392157,0.627450980392157);
#504=COLOUR_RGB('Orgasol\X\AE Invent Smooth - PA 12',0.964705882352941,
0.964705882352941,0.952941176470588);
ENDSEC;
END-ISO-10303-21;
