ISO-10303-21;
HEADER;
/* Generated by software containing ST-Developer
 * from STEP Tools, Inc. (www.steptools.com) 
 */

FILE_DESCRIPTION(
/* description */ (''),
/* implementation_level */ '2;1');

FILE_NAME(
/* name */ 'sensor_holder.step',
/* time_stamp */ '2026-08-03T17:52:19+02:00',
/* author */ (''),
/* organization */ (''),
/* preprocessor_version */ 'ST-DEVELOPER v20.1',
/* originating_system */ 'Autodesk Translation Framework v15.8.0.0',
/* authorisation */ '');

FILE_SCHEMA (('AUTOMOTIVE_DESIGN { 1 0 10303 214 3 1 1 }'));
ENDSEC;

DATA;
#10=MECHANICAL_DESIGN_GEOMETRIC_PRESENTATION_REPRESENTATION('',(#13),#1288);
#11=SHAPE_REPRESENTATION_RELATIONSHIP('SRR','None',#1295,#12);
#12=ADVANCED_BREP_SHAPE_REPRESENTATION('',(#14),#1287);
#13=STYLED_ITEM('',(#1304),#14);
#14=MANIFOLD_SOLID_BREP('Body1',#696);
#15=CONICAL_SURFACE('',#756,7.50000000000001,0.785398163397447);
#16=CONICAL_SURFACE('',#760,7.5,0.785398163397447);
#17=CONICAL_SURFACE('',#764,7.50000000000001,0.785398163397447);
#18=CONICAL_SURFACE('',#768,7.50000000000001,0.785398163397447);
#19=PLANE('',#720);
#20=PLANE('',#723);
#21=PLANE('',#739);
#22=PLANE('',#753);
#23=PLANE('',#755);
#24=PLANE('',#759);
#25=PLANE('',#763);
#26=PLANE('',#767);
#27=PLANE('',#773);
#28=PLANE('',#775);
#29=PLANE('',#776);
#30=PLANE('',#779);
#31=PLANE('',#781);
#32=PLANE('',#782);
#33=PLANE('',#786);
#34=LINE('',#1024,#85);
#35=LINE('',#1026,#86);
#36=LINE('',#1045,#87);
#37=LINE('',#1046,#88);
#38=LINE('',#1057,#89);
#39=LINE('',#1059,#90);
#40=LINE('',#1060,#91);
#41=LINE('',#1068,#92);
#42=LINE('',#1074,#93);
#43=LINE('',#1091,#94);
#44=LINE('',#1121,#95);
#45=LINE('',#1122,#96);
#46=LINE('',#1138,#97);
#47=LINE('',#1148,#98);
#48=LINE('',#1168,#99);
#49=LINE('',#1176,#100);
#50=LINE('',#1187,#101);
#51=LINE('',#1188,#102);
#52=LINE('',#1196,#103);
#53=LINE('',#1197,#104);
#54=LINE('',#1201,#105);
#55=LINE('',#1205,#106);
#56=LINE('',#1207,#107);
#57=LINE('',#1209,#108);
#58=LINE('',#1210,#109);
#59=LINE('',#1214,#110);
#60=LINE('',#1220,#111);
#61=LINE('',#1221,#112);
#62=LINE('',#1222,#113);
#63=LINE('',#1226,#114);
#64=LINE('',#1232,#115);
#65=LINE('',#1233,#116);
#66=LINE('',#1234,#117);
#67=LINE('',#1238,#118);
#68=LINE('',#1244,#119);
#69=LINE('',#1245,#120);
#70=LINE('',#1246,#121);
#71=LINE('',#1252,#122);
#72=LINE('',#1255,#123);
#73=LINE('',#1258,#124);
#74=LINE('',#1259,#125);
#75=LINE('',#1260,#126);
#76=LINE('',#1262,#127);
#77=LINE('',#1264,#128);
#78=LINE('',#1269,#129);
#79=LINE('',#1271,#130);
#80=LINE('',#1272,#131);
#81=LINE('',#1273,#132);
#82=LINE('',#1275,#133);
#83=LINE('',#1280,#134);
#84=LINE('',#1283,#135);
#85=VECTOR('',#799,10.);
#86=VECTOR('',#800,10.);
#87=VECTOR('',#805,10.);
#88=VECTOR('',#806,10.);
#89=VECTOR('',#815,10.);
#90=VECTOR('',#816,10.);
#91=VECTOR('',#817,10.);
#92=VECTOR('',#820,10.);
#93=VECTOR('',#827,10.);
#94=VECTOR('',#828,10.);
#95=VECTOR('',#841,10.);
#96=VECTOR('',#842,10.);
#97=VECTOR('',#851,10.);
#98=VECTOR('',#854,10.);
#99=VECTOR('',#867,10.);
#100=VECTOR('',#868,10.);
#101=VECTOR('',#881,10.);
#102=VECTOR('',#882,10.);
#103=VECTOR('',#893,10.);
#104=VECTOR('',#894,10.);
#105=VECTOR('',#899,10.);
#106=VECTOR('',#902,10.);
#107=VECTOR('',#903,10.);
#108=VECTOR('',#904,10.);
#109=VECTOR('',#905,10.);
#110=VECTOR('',#908,10.);
#111=VECTOR('',#915,10.);
#112=VECTOR('',#916,10.);
#113=VECTOR('',#917,10.);
#114=VECTOR('',#920,10.);
#115=VECTOR('',#927,10.);
#116=VECTOR('',#928,10.);
#117=VECTOR('',#929,10.);
#118=VECTOR('',#932,10.);
#119=VECTOR('',#939,10.);
#120=VECTOR('',#940,10.);
#121=VECTOR('',#941,10.);
#122=VECTOR('',#950,10.);
#123=VECTOR('',#953,10.);
#124=VECTOR('',#956,10.);
#125=VECTOR('',#957,10.);
#126=VECTOR('',#958,10.);
#127=VECTOR('',#961,10.);
#128=VECTOR('',#964,10.);
#129=VECTOR('',#973,10.);
#130=VECTOR('',#974,10.);
#131=VECTOR('',#975,10.);
#132=VECTOR('',#976,10.);
#133=VECTOR('',#979,10.);
#134=VECTOR('',#986,10.);
#135=VECTOR('',#991,10.);
#136=CYLINDRICAL_SURFACE('',#714,1.);
#137=CYLINDRICAL_SURFACE('',#715,1.);
#138=CYLINDRICAL_SURFACE('',#721,8.);
#139=CYLINDRICAL_SURFACE('',#724,1.);
#140=CYLINDRICAL_SURFACE('',#729,1.);
#141=CYLINDRICAL_SURFACE('',#734,8.);
#142=CYLINDRICAL_SURFACE('',#736,20.1);
#143=CYLINDRICAL_SURFACE('',#740,1.);
#144=CYLINDRICAL_SURFACE('',#746,1.);
#145=CYLINDRICAL_SURFACE('',#752,1.);
#146=CYLINDRICAL_SURFACE('',#771,8.);
#147=CYLINDRICAL_SURFACE('',#774,8.00000000000001);
#148=CYLINDRICAL_SURFACE('',#777,8.);
#149=CYLINDRICAL_SURFACE('',#780,8.00000000000001);
#150=CYLINDRICAL_SURFACE('',#784,8.00000000000001);
#151=CYLINDRICAL_SURFACE('',#785,8.00000000000001);
#152=FACE_OUTER_BOUND('',#193,.T.);
#153=FACE_OUTER_BOUND('',#194,.T.);
#154=FACE_OUTER_BOUND('',#195,.T.);
#155=FACE_OUTER_BOUND('',#196,.T.);
#156=FACE_OUTER_BOUND('',#197,.T.);
#157=FACE_OUTER_BOUND('',#198,.T.);
#158=FACE_OUTER_BOUND('',#199,.T.);
#159=FACE_OUTER_BOUND('',#200,.T.);
#160=FACE_OUTER_BOUND('',#201,.T.);
#161=FACE_OUTER_BOUND('',#202,.T.);
#162=FACE_OUTER_BOUND('',#203,.T.);
#163=FACE_OUTER_BOUND('',#204,.T.);
#164=FACE_OUTER_BOUND('',#205,.T.);
#165=FACE_OUTER_BOUND('',#206,.T.);
#166=FACE_OUTER_BOUND('',#207,.T.);
#167=FACE_OUTER_BOUND('',#208,.T.);
#168=FACE_OUTER_BOUND('',#209,.T.);
#169=FACE_OUTER_BOUND('',#210,.T.);
#170=FACE_OUTER_BOUND('',#211,.T.);
#171=FACE_OUTER_BOUND('',#212,.T.);
#172=FACE_OUTER_BOUND('',#213,.T.);
#173=FACE_OUTER_BOUND('',#214,.T.);
#174=FACE_OUTER_BOUND('',#215,.T.);
#175=FACE_OUTER_BOUND('',#216,.T.);
#176=FACE_OUTER_BOUND('',#217,.T.);
#177=FACE_OUTER_BOUND('',#218,.T.);
#178=FACE_OUTER_BOUND('',#219,.T.);
#179=FACE_OUTER_BOUND('',#220,.T.);
#180=FACE_OUTER_BOUND('',#221,.T.);
#181=FACE_OUTER_BOUND('',#222,.T.);
#182=FACE_OUTER_BOUND('',#223,.T.);
#183=FACE_OUTER_BOUND('',#224,.T.);
#184=FACE_OUTER_BOUND('',#225,.T.);
#185=FACE_OUTER_BOUND('',#226,.T.);
#186=FACE_OUTER_BOUND('',#227,.T.);
#187=FACE_OUTER_BOUND('',#228,.T.);
#188=FACE_OUTER_BOUND('',#229,.T.);
#189=FACE_OUTER_BOUND('',#230,.T.);
#190=FACE_OUTER_BOUND('',#231,.T.);
#191=FACE_OUTER_BOUND('',#232,.T.);
#192=FACE_OUTER_BOUND('',#233,.T.);
#193=EDGE_LOOP('',(#447,#448,#449,#450,#451));
#194=EDGE_LOOP('',(#452,#453,#454,#455));
#195=EDGE_LOOP('',(#456,#457,#458,#459));
#196=EDGE_LOOP('',(#460,#461,#462,#463,#464));
#197=EDGE_LOOP('',(#465,#466,#467,#468));
#198=EDGE_LOOP('',(#469,#470,#471,#472,#473));
#199=EDGE_LOOP('',(#474,#475,#476,#477));
#200=EDGE_LOOP('',(#478,#479,#480,#481));
#201=EDGE_LOOP('',(#482,#483,#484,#485,#486));
#202=EDGE_LOOP('',(#487,#488,#489,#490));
#203=EDGE_LOOP('',(#491,#492,#493,#494,#495));
#204=EDGE_LOOP('',(#496,#497,#498,#499,#500,#501));
#205=EDGE_LOOP('',(#502,#503,#504,#505,#506,#507,#508,#509,#510,#511,#512,
#513));
#206=EDGE_LOOP('',(#514,#515,#516,#517));
#207=EDGE_LOOP('',(#518,#519,#520,#521));
#208=EDGE_LOOP('',(#522,#523,#524,#525));
#209=EDGE_LOOP('',(#526,#527,#528,#529));
#210=EDGE_LOOP('',(#530,#531,#532,#533));
#211=EDGE_LOOP('',(#534,#535,#536,#537));
#212=EDGE_LOOP('',(#538,#539,#540,#541,#542,#543,#544,#545));
#213=EDGE_LOOP('',(#546,#547,#548,#549));
#214=EDGE_LOOP('',(#550,#551,#552,#553));
#215=EDGE_LOOP('',(#554,#555,#556,#557));
#216=EDGE_LOOP('',(#558,#559,#560,#561));
#217=EDGE_LOOP('',(#562,#563,#564,#565));
#218=EDGE_LOOP('',(#566,#567,#568,#569));
#219=EDGE_LOOP('',(#570,#571,#572,#573));
#220=EDGE_LOOP('',(#574,#575,#576,#577));
#221=EDGE_LOOP('',(#578,#579,#580,#581));
#222=EDGE_LOOP('',(#582,#583,#584,#585,#586,#587,#588,#589));
#223=EDGE_LOOP('',(#590,#591,#592,#593));
#224=EDGE_LOOP('',(#594,#595,#596,#597));
#225=EDGE_LOOP('',(#598,#599,#600,#601,#602,#603,#604,#605));
#226=EDGE_LOOP('',(#606,#607,#608,#609,#610));
#227=EDGE_LOOP('',(#611,#612,#613,#614,#615,#616,#617,#618));
#228=EDGE_LOOP('',(#619,#620,#621,#622,#623,#624));
#229=EDGE_LOOP('',(#625,#626,#627,#628));
#230=EDGE_LOOP('',(#629,#630,#631,#632,#633,#634,#635,#636));
#231=EDGE_LOOP('',(#637,#638,#639,#640));
#232=EDGE_LOOP('',(#641,#642,#643,#644));
#233=EDGE_LOOP('',(#645,#646,#647,#648));
#234=B_SPLINE_CURVE_WITH_KNOTS('',3,(#1004,#1005,#1006,#1007,#1008,#1009,
#1010,#1011,#1012,#1013,#1014,#1015,#1016,#1017),.UNSPECIFIED.,.F.,.F.,
(4,2,2,2,2,2,4),(-0.000678174774002079,0.,0.0437713699142039,0.0848029635580332,
0.13020213573996,0.163621640411388,0.192089788683984),.UNSPECIFIED.);
#235=B_SPLINE_CURVE_WITH_KNOTS('',3,(#1018,#1019,#1020,#1021),
 .UNSPECIFIED.,.F.,.F.,(4,4),(0.62598306674761,0.630732540833399),
 .UNSPECIFIED.);
#236=B_SPLINE_CURVE_WITH_KNOTS('',3,(#1027,#1028,#1029,#1030,#1031,#1032,
#1033,#1034,#1035,#1036,#1037,#1038,#1039,#1040),.UNSPECIFIED.,.F.,.F.,
(4,2,2,2,2,2,4),(-0.190750301607312,-0.1900792251465,-0.146766000982295,
-0.106163876424981,-0.0612398878582533,-0.028170178134289,0.),
 .UNSPECIFIED.);
#237=B_SPLINE_CURVE_WITH_KNOTS('',3,(#1051,#1052,#1053,#1054),
 .UNSPECIFIED.,.F.,.F.,(4,4),(0.,0.00475187311548423),.UNSPECIFIED.);
#238=B_SPLINE_CURVE_WITH_KNOTS('',3,(#1063,#1064,#1065,#1066),
 .UNSPECIFIED.,.F.,.F.,(4,4),(6.62968238490946,6.72631473595028),
 .UNSPECIFIED.);
#239=B_SPLINE_CURVE_WITH_KNOTS('',3,(#1076,#1077,#1078,#1079,#1080,#1081,
#1082,#1083,#1084,#1085,#1086,#1087,#1088,#1089),.UNSPECIFIED.,.F.,.F.,
(4,2,2,2,2,2,4),(-0.190750301607188,-0.190079225146334,-0.146766000982343,
-0.106163876425008,-0.0612398878582698,-0.0281701781342934,0.),
 .UNSPECIFIED.);
#240=B_SPLINE_CURVE_WITH_KNOTS('',3,(#1092,#1093,#1094,#1095,#1096,#1097,
#1098,#1099,#1100,#1101,#1102,#1103,#1104,#1105),.UNSPECIFIED.,.F.,.F.,
(4,2,2,2,2,2,4),(-0.000678174773967133,0.,0.0437713699135557,0.084802963556682,
0.130202135737838,0.16362164040869,0.192089788680796),.UNSPECIFIED.);
#241=B_SPLINE_CURVE_WITH_KNOTS('',3,(#1113,#1114,#1115,#1116),
 .UNSPECIFIED.,.F.,.F.,(4,4),(0.625983066748377,0.630732540834168),
 .UNSPECIFIED.);
#242=B_SPLINE_CURVE_WITH_KNOTS('',3,(#1127,#1128,#1129,#1130),
 .UNSPECIFIED.,.F.,.F.,(4,4),(0.,0.00475187311548479),.UNSPECIFIED.);
#243=B_SPLINE_CURVE_WITH_KNOTS('',3,(#1133,#1134,#1135,#1136),
 .UNSPECIFIED.,.F.,.F.,(4,4),(2.27559412310012,2.37222647414099),
 .UNSPECIFIED.);
#244=B_SPLINE_CURVE_WITH_KNOTS('',3,(#1140,#1141,#1142,#1143,#1144,#1145),
 .UNSPECIFIED.,.F.,.F.,(4,2,4),(0.,0.199612414115175,0.399224828230349),
 .UNSPECIFIED.);
#245=B_SPLINE_CURVE_WITH_KNOTS('',3,(#1151,#1152,#1153,#1154),
 .UNSPECIFIED.,.F.,.F.,(4,4),(1.98186178766839,2.07849413870922),
 .UNSPECIFIED.);
#246=B_SPLINE_CURVE_WITH_KNOTS('',3,(#1157,#1158,#1159,#1160),
 .UNSPECIFIED.,.F.,.F.,(4,4),(6.33595004947774,6.43258240051856),
 .UNSPECIFIED.);
#247=B_SPLINE_CURVE_WITH_KNOTS('',3,(#1170,#1171,#1172,#1173,#1174,#1175),
 .UNSPECIFIED.,.F.,.F.,(4,2,4),(0.824405506925265,1.02401792104044,1.22363033515561),
 .UNSPECIFIED.);
#248=CIRCLE('',#711,8.);
#249=CIRCLE('',#712,0.999999999999996);
#250=CIRCLE('',#713,7.);
#251=CIRCLE('',#716,1.);
#252=CIRCLE('',#718,7.);
#253=CIRCLE('',#719,8.);
#254=CIRCLE('',#722,8.);
#255=CIRCLE('',#726,8.);
#256=CIRCLE('',#727,1.);
#257=CIRCLE('',#728,7.);
#258=CIRCLE('',#730,1.);
#259=CIRCLE('',#732,7.00000000000001);
#260=CIRCLE('',#733,8.00000000000001);
#261=CIRCLE('',#735,8.);
#262=CIRCLE('',#737,20.1);
#263=CIRCLE('',#738,20.1);
#264=CIRCLE('',#741,1.);
#265=CIRCLE('',#743,1.);
#266=CIRCLE('',#744,8.00000000000001);
#267=CIRCLE('',#745,7.00000000000001);
#268=CIRCLE('',#747,1.);
#269=CIRCLE('',#749,1.);
#270=CIRCLE('',#750,8.00000000000001);
#271=CIRCLE('',#751,7.00000000000001);
#272=CIRCLE('',#754,8.00000000000001);
#273=CIRCLE('',#757,7.00000000000001);
#274=CIRCLE('',#758,8.00000000000001);
#275=CIRCLE('',#761,7.);
#276=CIRCLE('',#762,8.);
#277=CIRCLE('',#765,7.00000000000001);
#278=CIRCLE('',#766,8.00000000000001);
#279=CIRCLE('',#769,7.00000000000001);
#280=CIRCLE('',#770,8.00000000000001);
#281=CIRCLE('',#772,8.);
#282=CIRCLE('',#778,8.);
#283=CIRCLE('',#783,8.00000000000001);
#284=VERTEX_POINT('',#996);
#285=VERTEX_POINT('',#997);
#286=VERTEX_POINT('',#999);
#287=VERTEX_POINT('',#1001);
#288=VERTEX_POINT('',#1003);
#289=VERTEX_POINT('',#1023);
#290=VERTEX_POINT('',#1025);
#291=VERTEX_POINT('',#1042);
#292=VERTEX_POINT('',#1043);
#293=VERTEX_POINT('',#1049);
#294=VERTEX_POINT('',#1056);
#295=VERTEX_POINT('',#1058);
#296=VERTEX_POINT('',#1062);
#297=VERTEX_POINT('',#1067);
#298=VERTEX_POINT('',#1072);
#299=VERTEX_POINT('',#1073);
#300=VERTEX_POINT('',#1075);
#301=VERTEX_POINT('',#1090);
#302=VERTEX_POINT('',#1107);
#303=VERTEX_POINT('',#1108);
#304=VERTEX_POINT('',#1110);
#305=VERTEX_POINT('',#1118);
#306=VERTEX_POINT('',#1119);
#307=VERTEX_POINT('',#1125);
#308=VERTEX_POINT('',#1132);
#309=VERTEX_POINT('',#1137);
#310=VERTEX_POINT('',#1139);
#311=VERTEX_POINT('',#1146);
#312=VERTEX_POINT('',#1150);
#313=VERTEX_POINT('',#1156);
#314=VERTEX_POINT('',#1164);
#315=VERTEX_POINT('',#1165);
#316=VERTEX_POINT('',#1167);
#317=VERTEX_POINT('',#1169);
#318=VERTEX_POINT('',#1178);
#319=VERTEX_POINT('',#1179);
#320=VERTEX_POINT('',#1184);
#321=VERTEX_POINT('',#1185);
#322=VERTEX_POINT('',#1190);
#323=VERTEX_POINT('',#1191);
#324=VERTEX_POINT('',#1199);
#325=VERTEX_POINT('',#1203);
#326=VERTEX_POINT('',#1204);
#327=VERTEX_POINT('',#1206);
#328=VERTEX_POINT('',#1208);
#329=VERTEX_POINT('',#1212);
#330=VERTEX_POINT('',#1213);
#331=VERTEX_POINT('',#1218);
#332=VERTEX_POINT('',#1219);
#333=VERTEX_POINT('',#1224);
#334=VERTEX_POINT('',#1225);
#335=VERTEX_POINT('',#1230);
#336=VERTEX_POINT('',#1231);
#337=VERTEX_POINT('',#1236);
#338=VERTEX_POINT('',#1237);
#339=VERTEX_POINT('',#1242);
#340=VERTEX_POINT('',#1243);
#341=VERTEX_POINT('',#1251);
#342=VERTEX_POINT('',#1253);
#343=VERTEX_POINT('',#1257);
#344=VERTEX_POINT('',#1270);
#345=VERTEX_POINT('',#1278);
#346=EDGE_CURVE('',#284,#285,#248,.T.);
#347=EDGE_CURVE('',#285,#286,#249,.T.);
#348=EDGE_CURVE('',#286,#287,#250,.T.);
#349=EDGE_CURVE('',#287,#288,#234,.T.);
#350=EDGE_CURVE('',#288,#284,#235,.T.);
#351=EDGE_CURVE('',#289,#288,#34,.T.);
#352=EDGE_CURVE('',#287,#290,#35,.T.);
#353=EDGE_CURVE('',#290,#289,#236,.T.);
#354=EDGE_CURVE('',#291,#292,#251,.T.);
#355=EDGE_CURVE('',#292,#286,#36,.T.);
#356=EDGE_CURVE('',#285,#291,#37,.T.);
#357=EDGE_CURVE('',#290,#292,#252,.T.);
#358=EDGE_CURVE('',#291,#293,#253,.T.);
#359=EDGE_CURVE('',#293,#289,#237,.T.);
#360=EDGE_CURVE('',#294,#285,#38,.T.);
#361=EDGE_CURVE('',#295,#294,#39,.T.);
#362=EDGE_CURVE('',#295,#291,#40,.T.);
#363=EDGE_CURVE('',#284,#296,#238,.T.);
#364=EDGE_CURVE('',#297,#296,#41,.T.);
#365=EDGE_CURVE('',#294,#297,#254,.T.);
#366=EDGE_CURVE('',#298,#299,#42,.T.);
#367=EDGE_CURVE('',#299,#300,#239,.T.);
#368=EDGE_CURVE('',#300,#301,#43,.T.);
#369=EDGE_CURVE('',#298,#301,#240,.T.);
#370=EDGE_CURVE('',#302,#303,#255,.T.);
#371=EDGE_CURVE('',#303,#304,#256,.T.);
#372=EDGE_CURVE('',#304,#298,#257,.T.);
#373=EDGE_CURVE('',#301,#302,#241,.T.);
#374=EDGE_CURVE('',#305,#306,#258,.T.);
#375=EDGE_CURVE('',#306,#304,#44,.T.);
#376=EDGE_CURVE('',#303,#305,#45,.T.);
#377=EDGE_CURVE('',#299,#306,#259,.T.);
#378=EDGE_CURVE('',#305,#307,#260,.T.);
#379=EDGE_CURVE('',#307,#300,#242,.T.);
#380=EDGE_CURVE('',#302,#308,#243,.T.);
#381=EDGE_CURVE('',#309,#308,#46,.T.);
#382=EDGE_CURVE('',#310,#309,#244,.F.);
#383=EDGE_CURVE('',#311,#310,#261,.T.);
#384=EDGE_CURVE('',#311,#303,#47,.T.);
#385=EDGE_CURVE('',#312,#293,#245,.T.);
#386=EDGE_CURVE('',#308,#312,#262,.T.);
#387=EDGE_CURVE('',#313,#307,#246,.T.);
#388=EDGE_CURVE('',#296,#313,#263,.T.);
#389=EDGE_CURVE('',#314,#315,#264,.T.);
#390=EDGE_CURVE('',#315,#316,#48,.T.);
#391=EDGE_CURVE('',#316,#317,#247,.F.);
#392=EDGE_CURVE('',#317,#314,#49,.T.);
#393=EDGE_CURVE('',#318,#319,#265,.T.);
#394=EDGE_CURVE('',#319,#315,#266,.T.);
#395=EDGE_CURVE('',#314,#318,#267,.T.);
#396=EDGE_CURVE('',#320,#321,#268,.T.);
#397=EDGE_CURVE('',#321,#319,#50,.T.);
#398=EDGE_CURVE('',#318,#320,#51,.T.);
#399=EDGE_CURVE('',#322,#323,#269,.T.);
#400=EDGE_CURVE('',#323,#321,#270,.T.);
#401=EDGE_CURVE('',#320,#322,#271,.T.);
#402=EDGE_CURVE('',#309,#323,#52,.T.);
#403=EDGE_CURVE('',#322,#310,#53,.T.);
#404=EDGE_CURVE('',#317,#324,#272,.T.);
#405=EDGE_CURVE('',#324,#311,#54,.T.);
#406=EDGE_CURVE('',#325,#326,#55,.T.);
#407=EDGE_CURVE('',#326,#327,#56,.T.);
#408=EDGE_CURVE('',#327,#328,#57,.T.);
#409=EDGE_CURVE('',#328,#325,#58,.T.);
#410=EDGE_CURVE('',#329,#330,#59,.T.);
#411=EDGE_CURVE('',#330,#326,#273,.T.);
#412=EDGE_CURVE('',#325,#329,#274,.T.);
#413=EDGE_CURVE('',#331,#332,#60,.T.);
#414=EDGE_CURVE('',#332,#330,#61,.T.);
#415=EDGE_CURVE('',#329,#331,#62,.T.);
#416=EDGE_CURVE('',#333,#334,#63,.T.);
#417=EDGE_CURVE('',#334,#332,#275,.T.);
#418=EDGE_CURVE('',#331,#333,#276,.T.);
#419=EDGE_CURVE('',#335,#336,#64,.T.);
#420=EDGE_CURVE('',#336,#334,#65,.T.);
#421=EDGE_CURVE('',#333,#335,#66,.T.);
#422=EDGE_CURVE('',#337,#338,#67,.T.);
#423=EDGE_CURVE('',#338,#336,#277,.T.);
#424=EDGE_CURVE('',#335,#337,#278,.T.);
#425=EDGE_CURVE('',#339,#340,#68,.T.);
#426=EDGE_CURVE('',#340,#338,#69,.T.);
#427=EDGE_CURVE('',#337,#339,#70,.T.);
#428=EDGE_CURVE('',#327,#340,#279,.T.);
#429=EDGE_CURVE('',#339,#328,#280,.T.);
#430=EDGE_CURVE('',#341,#331,#71,.T.);
#431=EDGE_CURVE('',#342,#341,#281,.T.);
#432=EDGE_CURVE('',#342,#333,#72,.T.);
#433=EDGE_CURVE('',#343,#312,#73,.T.);
#434=EDGE_CURVE('',#343,#341,#74,.T.);
#435=EDGE_CURVE('',#323,#329,#75,.T.);
#436=EDGE_CURVE('',#321,#325,#76,.T.);
#437=EDGE_CURVE('',#319,#328,#77,.T.);
#438=EDGE_CURVE('',#343,#295,#282,.T.);
#439=EDGE_CURVE('',#315,#339,#78,.T.);
#440=EDGE_CURVE('',#344,#337,#79,.T.);
#441=EDGE_CURVE('',#344,#297,#80,.T.);
#442=EDGE_CURVE('',#316,#313,#81,.T.);
#443=EDGE_CURVE('',#324,#305,#82,.T.);
#444=EDGE_CURVE('',#344,#345,#283,.T.);
#445=EDGE_CURVE('',#342,#345,#83,.T.);
#446=EDGE_CURVE('',#345,#335,#84,.T.);
#447=ORIENTED_EDGE('',*,*,#346,.T.);
#448=ORIENTED_EDGE('',*,*,#347,.T.);
#449=ORIENTED_EDGE('',*,*,#348,.T.);
#450=ORIENTED_EDGE('',*,*,#349,.T.);
#451=ORIENTED_EDGE('',*,*,#350,.T.);
#452=ORIENTED_EDGE('',*,*,#351,.T.);
#453=ORIENTED_EDGE('',*,*,#349,.F.);
#454=ORIENTED_EDGE('',*,*,#352,.T.);
#455=ORIENTED_EDGE('',*,*,#353,.T.);
#456=ORIENTED_EDGE('',*,*,#354,.T.);
#457=ORIENTED_EDGE('',*,*,#355,.T.);
#458=ORIENTED_EDGE('',*,*,#347,.F.);
#459=ORIENTED_EDGE('',*,*,#356,.T.);
#460=ORIENTED_EDGE('',*,*,#357,.T.);
#461=ORIENTED_EDGE('',*,*,#354,.F.);
#462=ORIENTED_EDGE('',*,*,#358,.T.);
#463=ORIENTED_EDGE('',*,*,#359,.T.);
#464=ORIENTED_EDGE('',*,*,#353,.F.);
#465=ORIENTED_EDGE('',*,*,#356,.F.);
#466=ORIENTED_EDGE('',*,*,#360,.F.);
#467=ORIENTED_EDGE('',*,*,#361,.F.);
#468=ORIENTED_EDGE('',*,*,#362,.T.);
#469=ORIENTED_EDGE('',*,*,#346,.F.);
#470=ORIENTED_EDGE('',*,*,#363,.T.);
#471=ORIENTED_EDGE('',*,*,#364,.F.);
#472=ORIENTED_EDGE('',*,*,#365,.F.);
#473=ORIENTED_EDGE('',*,*,#360,.T.);
#474=ORIENTED_EDGE('',*,*,#348,.F.);
#475=ORIENTED_EDGE('',*,*,#355,.F.);
#476=ORIENTED_EDGE('',*,*,#357,.F.);
#477=ORIENTED_EDGE('',*,*,#352,.F.);
#478=ORIENTED_EDGE('',*,*,#366,.T.);
#479=ORIENTED_EDGE('',*,*,#367,.T.);
#480=ORIENTED_EDGE('',*,*,#368,.T.);
#481=ORIENTED_EDGE('',*,*,#369,.F.);
#482=ORIENTED_EDGE('',*,*,#370,.T.);
#483=ORIENTED_EDGE('',*,*,#371,.T.);
#484=ORIENTED_EDGE('',*,*,#372,.T.);
#485=ORIENTED_EDGE('',*,*,#369,.T.);
#486=ORIENTED_EDGE('',*,*,#373,.T.);
#487=ORIENTED_EDGE('',*,*,#374,.T.);
#488=ORIENTED_EDGE('',*,*,#375,.T.);
#489=ORIENTED_EDGE('',*,*,#371,.F.);
#490=ORIENTED_EDGE('',*,*,#376,.T.);
#491=ORIENTED_EDGE('',*,*,#377,.T.);
#492=ORIENTED_EDGE('',*,*,#374,.F.);
#493=ORIENTED_EDGE('',*,*,#378,.T.);
#494=ORIENTED_EDGE('',*,*,#379,.T.);
#495=ORIENTED_EDGE('',*,*,#367,.F.);
#496=ORIENTED_EDGE('',*,*,#370,.F.);
#497=ORIENTED_EDGE('',*,*,#380,.T.);
#498=ORIENTED_EDGE('',*,*,#381,.F.);
#499=ORIENTED_EDGE('',*,*,#382,.F.);
#500=ORIENTED_EDGE('',*,*,#383,.F.);
#501=ORIENTED_EDGE('',*,*,#384,.T.);
#502=ORIENTED_EDGE('',*,*,#359,.F.);
#503=ORIENTED_EDGE('',*,*,#385,.F.);
#504=ORIENTED_EDGE('',*,*,#386,.F.);
#505=ORIENTED_EDGE('',*,*,#380,.F.);
#506=ORIENTED_EDGE('',*,*,#373,.F.);
#507=ORIENTED_EDGE('',*,*,#368,.F.);
#508=ORIENTED_EDGE('',*,*,#379,.F.);
#509=ORIENTED_EDGE('',*,*,#387,.F.);
#510=ORIENTED_EDGE('',*,*,#388,.F.);
#511=ORIENTED_EDGE('',*,*,#363,.F.);
#512=ORIENTED_EDGE('',*,*,#350,.F.);
#513=ORIENTED_EDGE('',*,*,#351,.F.);
#514=ORIENTED_EDGE('',*,*,#366,.F.);
#515=ORIENTED_EDGE('',*,*,#372,.F.);
#516=ORIENTED_EDGE('',*,*,#375,.F.);
#517=ORIENTED_EDGE('',*,*,#377,.F.);
#518=ORIENTED_EDGE('',*,*,#389,.T.);
#519=ORIENTED_EDGE('',*,*,#390,.T.);
#520=ORIENTED_EDGE('',*,*,#391,.T.);
#521=ORIENTED_EDGE('',*,*,#392,.T.);
#522=ORIENTED_EDGE('',*,*,#393,.T.);
#523=ORIENTED_EDGE('',*,*,#394,.T.);
#524=ORIENTED_EDGE('',*,*,#389,.F.);
#525=ORIENTED_EDGE('',*,*,#395,.T.);
#526=ORIENTED_EDGE('',*,*,#396,.T.);
#527=ORIENTED_EDGE('',*,*,#397,.T.);
#528=ORIENTED_EDGE('',*,*,#393,.F.);
#529=ORIENTED_EDGE('',*,*,#398,.T.);
#530=ORIENTED_EDGE('',*,*,#399,.T.);
#531=ORIENTED_EDGE('',*,*,#400,.T.);
#532=ORIENTED_EDGE('',*,*,#396,.F.);
#533=ORIENTED_EDGE('',*,*,#401,.T.);
#534=ORIENTED_EDGE('',*,*,#382,.T.);
#535=ORIENTED_EDGE('',*,*,#402,.T.);
#536=ORIENTED_EDGE('',*,*,#399,.F.);
#537=ORIENTED_EDGE('',*,*,#403,.T.);
#538=ORIENTED_EDGE('',*,*,#403,.F.);
#539=ORIENTED_EDGE('',*,*,#401,.F.);
#540=ORIENTED_EDGE('',*,*,#398,.F.);
#541=ORIENTED_EDGE('',*,*,#395,.F.);
#542=ORIENTED_EDGE('',*,*,#392,.F.);
#543=ORIENTED_EDGE('',*,*,#404,.T.);
#544=ORIENTED_EDGE('',*,*,#405,.T.);
#545=ORIENTED_EDGE('',*,*,#383,.T.);
#546=ORIENTED_EDGE('',*,*,#406,.T.);
#547=ORIENTED_EDGE('',*,*,#407,.T.);
#548=ORIENTED_EDGE('',*,*,#408,.T.);
#549=ORIENTED_EDGE('',*,*,#409,.T.);
#550=ORIENTED_EDGE('',*,*,#410,.T.);
#551=ORIENTED_EDGE('',*,*,#411,.T.);
#552=ORIENTED_EDGE('',*,*,#406,.F.);
#553=ORIENTED_EDGE('',*,*,#412,.T.);
#554=ORIENTED_EDGE('',*,*,#413,.T.);
#555=ORIENTED_EDGE('',*,*,#414,.T.);
#556=ORIENTED_EDGE('',*,*,#410,.F.);
#557=ORIENTED_EDGE('',*,*,#415,.T.);
#558=ORIENTED_EDGE('',*,*,#416,.T.);
#559=ORIENTED_EDGE('',*,*,#417,.T.);
#560=ORIENTED_EDGE('',*,*,#413,.F.);
#561=ORIENTED_EDGE('',*,*,#418,.T.);
#562=ORIENTED_EDGE('',*,*,#419,.T.);
#563=ORIENTED_EDGE('',*,*,#420,.T.);
#564=ORIENTED_EDGE('',*,*,#416,.F.);
#565=ORIENTED_EDGE('',*,*,#421,.T.);
#566=ORIENTED_EDGE('',*,*,#422,.T.);
#567=ORIENTED_EDGE('',*,*,#423,.T.);
#568=ORIENTED_EDGE('',*,*,#419,.F.);
#569=ORIENTED_EDGE('',*,*,#424,.T.);
#570=ORIENTED_EDGE('',*,*,#425,.T.);
#571=ORIENTED_EDGE('',*,*,#426,.T.);
#572=ORIENTED_EDGE('',*,*,#422,.F.);
#573=ORIENTED_EDGE('',*,*,#427,.T.);
#574=ORIENTED_EDGE('',*,*,#408,.F.);
#575=ORIENTED_EDGE('',*,*,#428,.T.);
#576=ORIENTED_EDGE('',*,*,#425,.F.);
#577=ORIENTED_EDGE('',*,*,#429,.T.);
#578=ORIENTED_EDGE('',*,*,#418,.F.);
#579=ORIENTED_EDGE('',*,*,#430,.F.);
#580=ORIENTED_EDGE('',*,*,#431,.F.);
#581=ORIENTED_EDGE('',*,*,#432,.T.);
#582=ORIENTED_EDGE('',*,*,#381,.T.);
#583=ORIENTED_EDGE('',*,*,#386,.T.);
#584=ORIENTED_EDGE('',*,*,#433,.F.);
#585=ORIENTED_EDGE('',*,*,#434,.T.);
#586=ORIENTED_EDGE('',*,*,#430,.T.);
#587=ORIENTED_EDGE('',*,*,#415,.F.);
#588=ORIENTED_EDGE('',*,*,#435,.F.);
#589=ORIENTED_EDGE('',*,*,#402,.F.);
#590=ORIENTED_EDGE('',*,*,#400,.F.);
#591=ORIENTED_EDGE('',*,*,#435,.T.);
#592=ORIENTED_EDGE('',*,*,#412,.F.);
#593=ORIENTED_EDGE('',*,*,#436,.F.);
#594=ORIENTED_EDGE('',*,*,#397,.F.);
#595=ORIENTED_EDGE('',*,*,#436,.T.);
#596=ORIENTED_EDGE('',*,*,#409,.F.);
#597=ORIENTED_EDGE('',*,*,#437,.F.);
#598=ORIENTED_EDGE('',*,*,#407,.F.);
#599=ORIENTED_EDGE('',*,*,#411,.F.);
#600=ORIENTED_EDGE('',*,*,#414,.F.);
#601=ORIENTED_EDGE('',*,*,#417,.F.);
#602=ORIENTED_EDGE('',*,*,#420,.F.);
#603=ORIENTED_EDGE('',*,*,#423,.F.);
#604=ORIENTED_EDGE('',*,*,#426,.F.);
#605=ORIENTED_EDGE('',*,*,#428,.F.);
#606=ORIENTED_EDGE('',*,*,#358,.F.);
#607=ORIENTED_EDGE('',*,*,#362,.F.);
#608=ORIENTED_EDGE('',*,*,#438,.F.);
#609=ORIENTED_EDGE('',*,*,#433,.T.);
#610=ORIENTED_EDGE('',*,*,#385,.T.);
#611=ORIENTED_EDGE('',*,*,#390,.F.);
#612=ORIENTED_EDGE('',*,*,#439,.T.);
#613=ORIENTED_EDGE('',*,*,#427,.F.);
#614=ORIENTED_EDGE('',*,*,#440,.F.);
#615=ORIENTED_EDGE('',*,*,#441,.T.);
#616=ORIENTED_EDGE('',*,*,#364,.T.);
#617=ORIENTED_EDGE('',*,*,#388,.T.);
#618=ORIENTED_EDGE('',*,*,#442,.F.);
#619=ORIENTED_EDGE('',*,*,#378,.F.);
#620=ORIENTED_EDGE('',*,*,#443,.F.);
#621=ORIENTED_EDGE('',*,*,#404,.F.);
#622=ORIENTED_EDGE('',*,*,#391,.F.);
#623=ORIENTED_EDGE('',*,*,#442,.T.);
#624=ORIENTED_EDGE('',*,*,#387,.T.);
#625=ORIENTED_EDGE('',*,*,#376,.F.);
#626=ORIENTED_EDGE('',*,*,#384,.F.);
#627=ORIENTED_EDGE('',*,*,#405,.F.);
#628=ORIENTED_EDGE('',*,*,#443,.T.);
#629=ORIENTED_EDGE('',*,*,#438,.T.);
#630=ORIENTED_EDGE('',*,*,#361,.T.);
#631=ORIENTED_EDGE('',*,*,#365,.T.);
#632=ORIENTED_EDGE('',*,*,#441,.F.);
#633=ORIENTED_EDGE('',*,*,#444,.T.);
#634=ORIENTED_EDGE('',*,*,#445,.F.);
#635=ORIENTED_EDGE('',*,*,#431,.T.);
#636=ORIENTED_EDGE('',*,*,#434,.F.);
#637=ORIENTED_EDGE('',*,*,#394,.F.);
#638=ORIENTED_EDGE('',*,*,#437,.T.);
#639=ORIENTED_EDGE('',*,*,#429,.F.);
#640=ORIENTED_EDGE('',*,*,#439,.F.);
#641=ORIENTED_EDGE('',*,*,#424,.F.);
#642=ORIENTED_EDGE('',*,*,#446,.F.);
#643=ORIENTED_EDGE('',*,*,#444,.F.);
#644=ORIENTED_EDGE('',*,*,#440,.T.);
#645=ORIENTED_EDGE('',*,*,#421,.F.);
#646=ORIENTED_EDGE('',*,*,#432,.F.);
#647=ORIENTED_EDGE('',*,*,#445,.T.);
#648=ORIENTED_EDGE('',*,*,#446,.T.);
#649=TOROIDAL_SURFACE('',#710,7.,1.);
#650=TOROIDAL_SURFACE('',#717,7.,1.);
#651=TOROIDAL_SURFACE('',#725,7.,1.);
#652=TOROIDAL_SURFACE('',#731,7.00000000000001,1.);
#653=TOROIDAL_SURFACE('',#742,7.00000000000001,1.);
#654=TOROIDAL_SURFACE('',#748,7.00000000000001,1.);
#655=ADVANCED_FACE('',(#152),#649,.T.);
#656=ADVANCED_FACE('',(#153),#136,.T.);
#657=ADVANCED_FACE('',(#154),#137,.T.);
#658=ADVANCED_FACE('',(#155),#650,.T.);
#659=ADVANCED_FACE('',(#156),#19,.T.);
#660=ADVANCED_FACE('',(#157),#138,.T.);
#661=ADVANCED_FACE('',(#158),#20,.T.);
#662=ADVANCED_FACE('',(#159),#139,.T.);
#663=ADVANCED_FACE('',(#160),#651,.T.);
#664=ADVANCED_FACE('',(#161),#140,.T.);
#665=ADVANCED_FACE('',(#162),#652,.T.);
#666=ADVANCED_FACE('',(#163),#141,.T.);
#667=ADVANCED_FACE('',(#164),#142,.F.);
#668=ADVANCED_FACE('',(#165),#21,.T.);
#669=ADVANCED_FACE('',(#166),#143,.T.);
#670=ADVANCED_FACE('',(#167),#653,.T.);
#671=ADVANCED_FACE('',(#168),#144,.T.);
#672=ADVANCED_FACE('',(#169),#654,.T.);
#673=ADVANCED_FACE('',(#170),#145,.T.);
#674=ADVANCED_FACE('',(#171),#22,.T.);
#675=ADVANCED_FACE('',(#172),#23,.T.);
#676=ADVANCED_FACE('',(#173),#15,.T.);
#677=ADVANCED_FACE('',(#174),#24,.T.);
#678=ADVANCED_FACE('',(#175),#16,.T.);
#679=ADVANCED_FACE('',(#176),#25,.T.);
#680=ADVANCED_FACE('',(#177),#17,.T.);
#681=ADVANCED_FACE('',(#178),#26,.T.);
#682=ADVANCED_FACE('',(#179),#18,.T.);
#683=ADVANCED_FACE('',(#180),#146,.T.);
#684=ADVANCED_FACE('',(#181),#27,.T.);
#685=ADVANCED_FACE('',(#182),#147,.T.);
#686=ADVANCED_FACE('',(#183),#28,.T.);
#687=ADVANCED_FACE('',(#184),#29,.F.);
#688=ADVANCED_FACE('',(#185),#148,.T.);
#689=ADVANCED_FACE('',(#186),#30,.T.);
#690=ADVANCED_FACE('',(#187),#149,.T.);
#691=ADVANCED_FACE('',(#188),#31,.T.);
#692=ADVANCED_FACE('',(#189),#32,.T.);
#693=ADVANCED_FACE('',(#190),#150,.T.);
#694=ADVANCED_FACE('',(#191),#151,.T.);
#695=ADVANCED_FACE('',(#192),#33,.T.);
#696=CLOSED_SHELL('',(#655,#656,#657,#658,#659,#660,#661,#662,#663,#664,
#665,#666,#667,#668,#669,#670,#671,#672,#673,#674,#675,#676,#677,#678,#679,
#680,#681,#682,#683,#684,#685,#686,#687,#688,#689,#690,#691,#692,#693,#694,
#695));
#697=DERIVED_UNIT_ELEMENT(#699,1.);
#698=DERIVED_UNIT_ELEMENT(#1290,-3.);
#699=(
MASS_UNIT()
NAMED_UNIT(*)
SI_UNIT(.KILO.,.GRAM.)
);
#700=DERIVED_UNIT((#697,#698));
#701=MEASURE_REPRESENTATION_ITEM('density measure',
POSITIVE_RATIO_MEASURE(7850.),#700);
#702=PROPERTY_DEFINITION_REPRESENTATION(#707,#704);
#703=PROPERTY_DEFINITION_REPRESENTATION(#708,#705);
#704=REPRESENTATION('material name',(#706),#1287);
#705=REPRESENTATION('density',(#701),#1287);
#706=DESCRIPTIVE_REPRESENTATION_ITEM('Steel','Steel');
#707=PROPERTY_DEFINITION('material property','material name',#1297);
#708=PROPERTY_DEFINITION('material property','density of part',#1297);
#709=AXIS2_PLACEMENT_3D('',#994,#787,#788);
#710=AXIS2_PLACEMENT_3D('',#995,#789,#790);
#711=AXIS2_PLACEMENT_3D('',#998,#791,#792);
#712=AXIS2_PLACEMENT_3D('',#1000,#793,#794);
#713=AXIS2_PLACEMENT_3D('',#1002,#795,#796);
#714=AXIS2_PLACEMENT_3D('',#1022,#797,#798);
#715=AXIS2_PLACEMENT_3D('',#1041,#801,#802);
#716=AXIS2_PLACEMENT_3D('',#1044,#803,#804);
#717=AXIS2_PLACEMENT_3D('',#1047,#807,#808);
#718=AXIS2_PLACEMENT_3D('',#1048,#809,#810);
#719=AXIS2_PLACEMENT_3D('',#1050,#811,#812);
#720=AXIS2_PLACEMENT_3D('',#1055,#813,#814);
#721=AXIS2_PLACEMENT_3D('',#1061,#818,#819);
#722=AXIS2_PLACEMENT_3D('',#1069,#821,#822);
#723=AXIS2_PLACEMENT_3D('',#1070,#823,#824);
#724=AXIS2_PLACEMENT_3D('',#1071,#825,#826);
#725=AXIS2_PLACEMENT_3D('',#1106,#829,#830);
#726=AXIS2_PLACEMENT_3D('',#1109,#831,#832);
#727=AXIS2_PLACEMENT_3D('',#1111,#833,#834);
#728=AXIS2_PLACEMENT_3D('',#1112,#835,#836);
#729=AXIS2_PLACEMENT_3D('',#1117,#837,#838);
#730=AXIS2_PLACEMENT_3D('',#1120,#839,#840);
#731=AXIS2_PLACEMENT_3D('',#1123,#843,#844);
#732=AXIS2_PLACEMENT_3D('',#1124,#845,#846);
#733=AXIS2_PLACEMENT_3D('',#1126,#847,#848);
#734=AXIS2_PLACEMENT_3D('',#1131,#849,#850);
#735=AXIS2_PLACEMENT_3D('',#1147,#852,#853);
#736=AXIS2_PLACEMENT_3D('',#1149,#855,#856);
#737=AXIS2_PLACEMENT_3D('',#1155,#857,#858);
#738=AXIS2_PLACEMENT_3D('',#1161,#859,#860);
#739=AXIS2_PLACEMENT_3D('',#1162,#861,#862);
#740=AXIS2_PLACEMENT_3D('',#1163,#863,#864);
#741=AXIS2_PLACEMENT_3D('',#1166,#865,#866);
#742=AXIS2_PLACEMENT_3D('',#1177,#869,#870);
#743=AXIS2_PLACEMENT_3D('',#1180,#871,#872);
#744=AXIS2_PLACEMENT_3D('',#1181,#873,#874);
#745=AXIS2_PLACEMENT_3D('',#1182,#875,#876);
#746=AXIS2_PLACEMENT_3D('',#1183,#877,#878);
#747=AXIS2_PLACEMENT_3D('',#1186,#879,#880);
#748=AXIS2_PLACEMENT_3D('',#1189,#883,#884);
#749=AXIS2_PLACEMENT_3D('',#1192,#885,#886);
#750=AXIS2_PLACEMENT_3D('',#1193,#887,#888);
#751=AXIS2_PLACEMENT_3D('',#1194,#889,#890);
#752=AXIS2_PLACEMENT_3D('',#1195,#891,#892);
#753=AXIS2_PLACEMENT_3D('',#1198,#895,#896);
#754=AXIS2_PLACEMENT_3D('',#1200,#897,#898);
#755=AXIS2_PLACEMENT_3D('',#1202,#900,#901);
#756=AXIS2_PLACEMENT_3D('',#1211,#906,#907);
#757=AXIS2_PLACEMENT_3D('',#1215,#909,#910);
#758=AXIS2_PLACEMENT_3D('',#1216,#911,#912);
#759=AXIS2_PLACEMENT_3D('',#1217,#913,#914);
#760=AXIS2_PLACEMENT_3D('',#1223,#918,#919);
#761=AXIS2_PLACEMENT_3D('',#1227,#921,#922);
#762=AXIS2_PLACEMENT_3D('',#1228,#923,#924);
#763=AXIS2_PLACEMENT_3D('',#1229,#925,#926);
#764=AXIS2_PLACEMENT_3D('',#1235,#930,#931);
#765=AXIS2_PLACEMENT_3D('',#1239,#933,#934);
#766=AXIS2_PLACEMENT_3D('',#1240,#935,#936);
#767=AXIS2_PLACEMENT_3D('',#1241,#937,#938);
#768=AXIS2_PLACEMENT_3D('',#1247,#942,#943);
#769=AXIS2_PLACEMENT_3D('',#1248,#944,#945);
#770=AXIS2_PLACEMENT_3D('',#1249,#946,#947);
#771=AXIS2_PLACEMENT_3D('',#1250,#948,#949);
#772=AXIS2_PLACEMENT_3D('',#1254,#951,#952);
#773=AXIS2_PLACEMENT_3D('',#1256,#954,#955);
#774=AXIS2_PLACEMENT_3D('',#1261,#959,#960);
#775=AXIS2_PLACEMENT_3D('',#1263,#962,#963);
#776=AXIS2_PLACEMENT_3D('',#1265,#965,#966);
#777=AXIS2_PLACEMENT_3D('',#1266,#967,#968);
#778=AXIS2_PLACEMENT_3D('',#1267,#969,#970);
#779=AXIS2_PLACEMENT_3D('',#1268,#971,#972);
#780=AXIS2_PLACEMENT_3D('',#1274,#977,#978);
#781=AXIS2_PLACEMENT_3D('',#1276,#980,#981);
#782=AXIS2_PLACEMENT_3D('',#1277,#982,#983);
#783=AXIS2_PLACEMENT_3D('',#1279,#984,#985);
#784=AXIS2_PLACEMENT_3D('',#1281,#987,#988);
#785=AXIS2_PLACEMENT_3D('',#1282,#989,#990);
#786=AXIS2_PLACEMENT_3D('',#1284,#992,#993);
#787=DIRECTION('axis',(0.,0.,1.));
#788=DIRECTION('refdir',(1.,0.,0.));
#789=DIRECTION('center_axis',(0.,0.,1.));
#790=DIRECTION('ref_axis',(1.,0.,0.));
#791=DIRECTION('center_axis',(0.,0.,1.));
#792=DIRECTION('ref_axis',(0.70267346612776,0.711512473537885,0.));
#793=DIRECTION('center_axis',(1.,0.,0.));
#794=DIRECTION('ref_axis',(0.,1.,0.));
#795=DIRECTION('center_axis',(0.,0.,-1.));
#796=DIRECTION('ref_axis',(0.70267346612776,0.711512473537885,0.));
#797=DIRECTION('center_axis',(1.,0.,0.));
#798=DIRECTION('ref_axis',(0.,-0.690147315821444,0.723668903894908));
#799=DIRECTION('',(1.,0.,0.));
#800=DIRECTION('',(-1.,0.,0.));
#801=DIRECTION('center_axis',(-1.,0.,0.));
#802=DIRECTION('ref_axis',(0.,0.707106781186544,0.707106781186551));
#803=DIRECTION('center_axis',(1.,0.,0.));
#804=DIRECTION('ref_axis',(0.,1.,0.));
#805=DIRECTION('',(1.,0.,0.));
#806=DIRECTION('',(-1.,0.,0.));
#807=DIRECTION('center_axis',(0.,0.,1.));
#808=DIRECTION('ref_axis',(1.,0.,0.));
#809=DIRECTION('center_axis',(0.,0.,-1.));
#810=DIRECTION('ref_axis',(-0.70267346612776,0.711512473537885,0.));
#811=DIRECTION('center_axis',(0.,0.,1.));
#812=DIRECTION('ref_axis',(-0.70267346612776,0.711512473537885,0.));
#813=DIRECTION('center_axis',(0.,1.,0.));
#814=DIRECTION('ref_axis',(-1.,0.,0.));
#815=DIRECTION('',(0.,0.,1.));
#816=DIRECTION('',(1.,0.,0.));
#817=DIRECTION('',(0.,0.,1.));
#818=DIRECTION('center_axis',(0.,0.,1.));
#819=DIRECTION('ref_axis',(1.,0.,0.));
#820=DIRECTION('',(0.,0.,1.));
#821=DIRECTION('center_axis',(0.,0.,-1.));
#822=DIRECTION('ref_axis',(1.,0.,0.));
#823=DIRECTION('center_axis',(0.,0.,1.));
#824=DIRECTION('ref_axis',(1.,0.,0.));
#825=DIRECTION('center_axis',(-1.,0.,0.));
#826=DIRECTION('ref_axis',(0.,0.690147315821444,0.723668903894908));
#827=DIRECTION('',(1.,0.,0.));
#828=DIRECTION('',(-1.,0.,0.));
#829=DIRECTION('center_axis',(0.,0.,1.));
#830=DIRECTION('ref_axis',(1.,0.,0.));
#831=DIRECTION('center_axis',(0.,0.,1.));
#832=DIRECTION('ref_axis',(-0.702673466127759,-0.711512473537886,0.));
#833=DIRECTION('center_axis',(-1.,-4.44089209850062E-15,0.));
#834=DIRECTION('ref_axis',(4.44089209850062E-15,-1.,0.));
#835=DIRECTION('center_axis',(0.,0.,-1.));
#836=DIRECTION('ref_axis',(-0.702673466127759,-0.711512473537886,0.));
#837=DIRECTION('center_axis',(1.,0.,0.));
#838=DIRECTION('ref_axis',(0.,-0.707106781186544,0.707106781186551));
#839=DIRECTION('center_axis',(-1.,-4.44089209850062E-15,0.));
#840=DIRECTION('ref_axis',(4.44089209850062E-15,-1.,0.));
#841=DIRECTION('',(-1.,0.,0.));
#842=DIRECTION('',(1.,0.,0.));
#843=DIRECTION('center_axis',(0.,0.,1.));
#844=DIRECTION('ref_axis',(1.,0.,0.));
#845=DIRECTION('center_axis',(0.,0.,-1.));
#846=DIRECTION('ref_axis',(0.702673466127759,-0.711512473537886,0.));
#847=DIRECTION('center_axis',(0.,0.,1.));
#848=DIRECTION('ref_axis',(0.702673466127759,-0.711512473537886,0.));
#849=DIRECTION('center_axis',(0.,0.,1.));
#850=DIRECTION('ref_axis',(-1.,0.,0.));
#851=DIRECTION('',(0.,0.,1.));
#852=DIRECTION('center_axis',(0.,0.,-1.));
#853=DIRECTION('ref_axis',(-1.,0.,0.));
#854=DIRECTION('',(0.,0.,1.));
#855=DIRECTION('center_axis',(1.,0.,0.));
#856=DIRECTION('ref_axis',(0.,1.,0.));
#857=DIRECTION('center_axis',(1.,0.,0.));
#858=DIRECTION('ref_axis',(0.,1.,0.));
#859=DIRECTION('center_axis',(-1.,0.,0.));
#860=DIRECTION('ref_axis',(0.,1.,0.));
#861=DIRECTION('center_axis',(0.,0.,1.));
#862=DIRECTION('ref_axis',(1.,0.,0.));
#863=DIRECTION('center_axis',(0.,-1.,0.));
#864=DIRECTION('ref_axis',(0.707106781186546,0.,0.707106781186549));
#865=DIRECTION('center_axis',(0.,1.,0.));
#866=DIRECTION('ref_axis',(0.,0.,1.));
#867=DIRECTION('',(0.,1.,0.));
#868=DIRECTION('',(0.,-1.,0.));
#869=DIRECTION('center_axis',(0.,0.,1.));
#870=DIRECTION('ref_axis',(1.,0.,0.));
#871=DIRECTION('center_axis',(1.,0.,0.));
#872=DIRECTION('ref_axis',(0.,0.,1.));
#873=DIRECTION('center_axis',(0.,0.,1.));
#874=DIRECTION('ref_axis',(0.707106781186547,-0.707106781186547,0.));
#875=DIRECTION('center_axis',(0.,0.,-1.));
#876=DIRECTION('ref_axis',(0.707106781186547,-0.707106781186547,0.));
#877=DIRECTION('center_axis',(-1.,0.,0.));
#878=DIRECTION('ref_axis',(0.,-0.707106781186546,0.707106781186549));
#879=DIRECTION('center_axis',(1.,0.,0.));
#880=DIRECTION('ref_axis',(0.,0.,1.));
#881=DIRECTION('',(1.,0.,0.));
#882=DIRECTION('',(-1.,0.,0.));
#883=DIRECTION('center_axis',(0.,0.,1.));
#884=DIRECTION('ref_axis',(1.,0.,0.));
#885=DIRECTION('center_axis',(0.,-1.,0.));
#886=DIRECTION('ref_axis',(0.,0.,1.));
#887=DIRECTION('center_axis',(0.,0.,1.));
#888=DIRECTION('ref_axis',(-0.707106781186548,-0.707106781186547,0.));
#889=DIRECTION('center_axis',(0.,0.,-1.));
#890=DIRECTION('ref_axis',(-0.707106781186548,-0.707106781186547,0.));
#891=DIRECTION('center_axis',(0.,1.,0.));
#892=DIRECTION('ref_axis',(-0.707106781186546,0.,0.707106781186549));
#893=DIRECTION('',(0.,-1.,0.));
#894=DIRECTION('',(0.,1.,0.));
#895=DIRECTION('center_axis',(0.,0.,1.));
#896=DIRECTION('ref_axis',(1.,0.,0.));
#897=DIRECTION('center_axis',(0.,0.,-1.));
#898=DIRECTION('ref_axis',(0.,-1.,0.));
#899=DIRECTION('',(-1.,0.,0.));
#900=DIRECTION('center_axis',(0.,-0.707106781186549,-0.707106781186546));
#901=DIRECTION('ref_axis',(-1.,0.,0.));
#902=DIRECTION('',(0.,0.707106781186546,-0.707106781186549));
#903=DIRECTION('',(1.,0.,0.));
#904=DIRECTION('',(0.,-0.707106781186546,0.707106781186549));
#905=DIRECTION('',(-1.,0.,0.));
#906=DIRECTION('center_axis',(0.,0.,1.));
#907=DIRECTION('ref_axis',(-1.,0.,0.));
#908=DIRECTION('',(0.707106781186546,0.,-0.707106781186549));
#909=DIRECTION('center_axis',(0.,0.,1.));
#910=DIRECTION('ref_axis',(-1.,0.,0.));
#911=DIRECTION('center_axis',(0.,0.,-1.));
#912=DIRECTION('ref_axis',(-1.,0.,0.));
#913=DIRECTION('center_axis',(-0.707106781186549,0.,-0.707106781186546));
#914=DIRECTION('ref_axis',(-0.707106781186546,0.,0.707106781186549));
#915=DIRECTION('',(0.707106781186546,0.,-0.707106781186549));
#916=DIRECTION('',(0.,-1.,0.));
#917=DIRECTION('',(0.,1.,0.));
#918=DIRECTION('center_axis',(0.,0.,1.));
#919=DIRECTION('ref_axis',(0.,1.,0.));
#920=DIRECTION('',(0.,-0.707106781186546,-0.707106781186549));
#921=DIRECTION('center_axis',(0.,0.,1.));
#922=DIRECTION('ref_axis',(0.,1.,0.));
#923=DIRECTION('center_axis',(0.,0.,-1.));
#924=DIRECTION('ref_axis',(0.,1.,0.));
#925=DIRECTION('center_axis',(0.,0.707106781186549,-0.707106781186546));
#926=DIRECTION('ref_axis',(-1.,0.,0.));
#927=DIRECTION('',(0.,-0.707106781186546,-0.707106781186549));
#928=DIRECTION('',(-1.,0.,0.));
#929=DIRECTION('',(1.,0.,0.));
#930=DIRECTION('center_axis',(0.,0.,1.));
#931=DIRECTION('ref_axis',(1.,0.,0.));
#932=DIRECTION('',(-0.707106781186546,0.,-0.707106781186549));
#933=DIRECTION('center_axis',(0.,0.,1.));
#934=DIRECTION('ref_axis',(1.,0.,0.));
#935=DIRECTION('center_axis',(0.,0.,-1.));
#936=DIRECTION('ref_axis',(1.,0.,0.));
#937=DIRECTION('center_axis',(0.707106781186549,0.,-0.707106781186546));
#938=DIRECTION('ref_axis',(-0.707106781186546,0.,-0.707106781186549));
#939=DIRECTION('',(-0.707106781186546,0.,-0.707106781186549));
#940=DIRECTION('',(0.,1.,0.));
#941=DIRECTION('',(0.,-1.,0.));
#942=DIRECTION('center_axis',(0.,0.,1.));
#943=DIRECTION('ref_axis',(0.,-1.,0.));
#944=DIRECTION('center_axis',(0.,0.,1.));
#945=DIRECTION('ref_axis',(0.,-1.,0.));
#946=DIRECTION('center_axis',(0.,0.,-1.));
#947=DIRECTION('ref_axis',(0.,-1.,0.));
#948=DIRECTION('center_axis',(0.,0.,-1.));
#949=DIRECTION('ref_axis',(0.,1.,0.));
#950=DIRECTION('',(0.,0.,-1.));
#951=DIRECTION('center_axis',(0.,0.,1.));
#952=DIRECTION('ref_axis',(0.,1.,0.));
#953=DIRECTION('',(0.,0.,-1.));
#954=DIRECTION('center_axis',(-1.,0.,0.));
#955=DIRECTION('ref_axis',(0.,1.,0.));
#956=DIRECTION('',(0.,0.,1.));
#957=DIRECTION('',(0.,1.,0.));
#958=DIRECTION('',(0.,0.,-1.));
#959=DIRECTION('center_axis',(0.,0.,-1.));
#960=DIRECTION('ref_axis',(-1.,0.,0.));
#961=DIRECTION('',(0.,0.,-1.));
#962=DIRECTION('center_axis',(0.,-1.,0.));
#963=DIRECTION('ref_axis',(-1.,0.,0.));
#964=DIRECTION('',(0.,0.,-1.));
#965=DIRECTION('center_axis',(0.,0.,1.));
#966=DIRECTION('ref_axis',(1.,0.,0.));
#967=DIRECTION('center_axis',(0.,0.,1.));
#968=DIRECTION('ref_axis',(0.,1.,0.));
#969=DIRECTION('center_axis',(0.,0.,-1.));
#970=DIRECTION('ref_axis',(0.,1.,0.));
#971=DIRECTION('center_axis',(1.,0.,0.));
#972=DIRECTION('ref_axis',(0.,-1.,0.));
#973=DIRECTION('',(0.,0.,-1.));
#974=DIRECTION('',(0.,0.,-1.));
#975=DIRECTION('',(0.,-1.,0.));
#976=DIRECTION('',(0.,0.,1.));
#977=DIRECTION('center_axis',(0.,0.,1.));
#978=DIRECTION('ref_axis',(0.,-1.,0.));
#979=DIRECTION('',(0.,0.,1.));
#980=DIRECTION('center_axis',(0.,-1.,0.));
#981=DIRECTION('ref_axis',(1.,0.,0.));
#982=DIRECTION('center_axis',(0.,0.,1.));
#983=DIRECTION('ref_axis',(1.,0.,0.));
#984=DIRECTION('center_axis',(0.,0.,1.));
#985=DIRECTION('ref_axis',(1.,0.,0.));
#986=DIRECTION('',(1.,0.,0.));
#987=DIRECTION('center_axis',(0.,0.,-1.));
#988=DIRECTION('ref_axis',(0.,-1.,0.));
#989=DIRECTION('center_axis',(0.,0.,-1.));
#990=DIRECTION('ref_axis',(1.,0.,0.));
#991=DIRECTION('',(0.,0.,-1.));
#992=DIRECTION('center_axis',(0.,1.,0.));
#993=DIRECTION('ref_axis',(1.,0.,0.));
#994=CARTESIAN_POINT('',(0.,0.,0.));
#995=CARTESIAN_POINT('Origin',(38.,20.,29.));
#996=CARTESIAN_POINT('',(45.9996474074308,20.0751089660804,29.));
#997=CARTESIAN_POINT('',(38.,28.,29.));
#998=CARTESIAN_POINT('Origin',(38.,20.,29.));
#999=CARTESIAN_POINT('',(38.,27.,30.));
#1000=CARTESIAN_POINT('Origin',(38.,27.,29.));
#1001=CARTESIAN_POINT('',(44.9167622370789,21.076289996107,30.));
#1002=CARTESIAN_POINT('Origin',(38.,20.,30.));
#1003=CARTESIAN_POINT('',(45.9985016867513,20.077413692974,29.0473933649289));
#1004=CARTESIAN_POINT('Ctrl Pts',(44.9167622370788,21.076289996107,30.));
#1005=CARTESIAN_POINT('Ctrl Pts',(44.9184792055142,21.0748195359772,30.));
#1006=CARTESIAN_POINT('Ctrl Pts',(44.9201959059301,21.0733487578588,29.9999967566207));
#1007=CARTESIAN_POINT('Ctrl Pts',(45.0326950904869,20.9769295489632,29.999571319726));
#1008=CARTESIAN_POINT('Ctrl Pts',(45.1429700282503,20.8800910257087,29.9856255259572));
#1009=CARTESIAN_POINT('Ctrl Pts',(45.3489321371412,20.6952194304411,29.9292632102995));
#1010=CARTESIAN_POINT('Ctrl Pts',(45.4462622664724,20.6059638067644,29.8883498547048));
#1011=CARTESIAN_POINT('Ctrl Pts',(45.637479391768,20.4275141694003,29.7692774250444));
#1012=CARTESIAN_POINT('Ctrl Pts',(45.7312347004176,20.3380560760902,29.6867242962471));
#1013=CARTESIAN_POINT('Ctrl Pts',(45.8658007187081,20.207947870753,29.5049416968589));
#1014=CARTESIAN_POINT('Ctrl Pts',(45.9138137397633,20.1609125755561,29.4160774312397));
#1015=CARTESIAN_POINT('Ctrl Pts',(45.9763680541382,20.0993550724804,29.2315306643671));
#1016=CARTESIAN_POINT('Ctrl Pts',(45.9940132775746,20.0818588711917,29.1410812301308));
#1017=CARTESIAN_POINT('Ctrl Pts',(45.9985016867513,20.077413692974,29.0473933649289));
#1018=CARTESIAN_POINT('Ctrl Pts',(45.9985016867513,20.077413692974,29.0473933649289));
#1019=CARTESIAN_POINT('Ctrl Pts',(45.9992576385083,20.0766650223088,29.0316141648773));
#1020=CARTESIAN_POINT('Ctrl Pts',(45.9996400122448,20.0758966068047,29.0158119733668));
#1021=CARTESIAN_POINT('Ctrl Pts',(45.9996474074308,20.0751089660804,29.));
#1022=CARTESIAN_POINT('Origin',(-46.,21.076289996107,29.));
#1023=CARTESIAN_POINT('',(-45.9985016867513,20.077413692974,29.0473933649289));
#1024=CARTESIAN_POINT('',(-46.,20.077413692974,29.0473933649289));
#1025=CARTESIAN_POINT('',(-44.9167622370789,21.076289996107,30.));
#1026=CARTESIAN_POINT('',(-46.,21.076289996107,30.));
#1027=CARTESIAN_POINT('Ctrl Pts',(-44.9167622370789,21.076289996107,30.));
#1028=CARTESIAN_POINT('Ctrl Pts',(-44.918479205514,21.0748195359774,30.));
#1029=CARTESIAN_POINT('Ctrl Pts',(-44.9201959059303,21.0733487578587,29.9999967566207));
#1030=CARTESIAN_POINT('Ctrl Pts',(-45.0326950904838,20.9769295489659,29.999571319726));
#1031=CARTESIAN_POINT('Ctrl Pts',(-45.1429700282498,20.8800910257092,29.9856255259573));
#1032=CARTESIAN_POINT('Ctrl Pts',(-45.3489321371412,20.6952194304412,29.9292632102995));
#1033=CARTESIAN_POINT('Ctrl Pts',(-45.4462622664724,20.6059638067644,29.8883498547048));
#1034=CARTESIAN_POINT('Ctrl Pts',(-45.6374793917681,20.4275141694003,29.7692774250444));
#1035=CARTESIAN_POINT('Ctrl Pts',(-45.7312347004176,20.3380560760902,29.6867242962471));
#1036=CARTESIAN_POINT('Ctrl Pts',(-45.8658007187081,20.207947870753,29.5049416968589));
#1037=CARTESIAN_POINT('Ctrl Pts',(-45.9138137397633,20.1609125755561,29.4160774312397));
#1038=CARTESIAN_POINT('Ctrl Pts',(-45.9763680541382,20.0993550724804,29.2315306643671));
#1039=CARTESIAN_POINT('Ctrl Pts',(-45.9940132775746,20.0818588711917,29.1410812301308));
#1040=CARTESIAN_POINT('Ctrl Pts',(-45.9985016867513,20.077413692974,29.0473933649289));
#1041=CARTESIAN_POINT('Origin',(19.,27.,29.));
#1042=CARTESIAN_POINT('',(-38.,28.,29.));
#1043=CARTESIAN_POINT('',(-38.,27.,30.));
#1044=CARTESIAN_POINT('Origin',(-38.,27.,29.));
#1045=CARTESIAN_POINT('',(19.,27.,30.));
#1046=CARTESIAN_POINT('',(19.,28.,29.));
#1047=CARTESIAN_POINT('Origin',(-38.,20.,29.));
#1048=CARTESIAN_POINT('Origin',(-38.,20.,30.));
#1049=CARTESIAN_POINT('',(-45.9996474074308,20.0751089660804,29.));
#1050=CARTESIAN_POINT('Origin',(-38.,20.,29.));
#1051=CARTESIAN_POINT('Ctrl Pts',(-45.9996474074308,20.0751089660804,29.));
#1052=CARTESIAN_POINT('Ctrl Pts',(-45.9996400085094,20.0758970046537,29.0158199602286));
#1053=CARTESIAN_POINT('Ctrl Pts',(-45.9992572592475,20.0766653979167,29.0316220812994));
#1054=CARTESIAN_POINT('Ctrl Pts',(-45.9985016867513,20.077413692974,29.0473933649289));
#1055=CARTESIAN_POINT('Origin',(38.,28.,0.));
#1056=CARTESIAN_POINT('',(38.,28.,0.));
#1057=CARTESIAN_POINT('',(38.,28.,0.));
#1058=CARTESIAN_POINT('',(-38.,28.,0.));
#1059=CARTESIAN_POINT('',(19.,28.,0.));
#1060=CARTESIAN_POINT('',(-38.,28.,0.));
#1061=CARTESIAN_POINT('Origin',(38.,20.,0.));
#1062=CARTESIAN_POINT('',(46.,20.,27.9975015605498));
#1063=CARTESIAN_POINT('Ctrl Pts',(45.9996474074308,20.0751089660804,28.9999999999999));
#1064=CARTESIAN_POINT('Ctrl Pts',(45.9998022419182,20.0586179747883,28.6689415528529));
#1065=CARTESIAN_POINT('Ctrl Pts',(46.,20.03371905984,28.3342714593496));
#1066=CARTESIAN_POINT('Ctrl Pts',(46.,20.,27.9975015605498));
#1067=CARTESIAN_POINT('',(46.,20.,0.));
#1068=CARTESIAN_POINT('',(46.,20.,0.));
#1069=CARTESIAN_POINT('Origin',(38.,20.,0.));
#1070=CARTESIAN_POINT('Origin',(0.,0.,30.));
#1071=CARTESIAN_POINT('Origin',(-46.,-21.076289996107,29.));
#1072=CARTESIAN_POINT('',(-44.9167622370788,-21.076289996107,30.));
#1073=CARTESIAN_POINT('',(44.9167622370788,-21.076289996107,30.));
#1074=CARTESIAN_POINT('',(-46.,-21.076289996107,30.));
#1075=CARTESIAN_POINT('',(45.9985016867513,-20.077413692974,29.0473933649289));
#1076=CARTESIAN_POINT('Ctrl Pts',(44.9167622370788,-21.076289996107,30.));
#1077=CARTESIAN_POINT('Ctrl Pts',(44.9184792055142,-21.0748195359773,30.));
#1078=CARTESIAN_POINT('Ctrl Pts',(44.9201959059301,-21.0733487578588,29.9999967566207));
#1079=CARTESIAN_POINT('Ctrl Pts',(45.0326950904872,-20.9769295489631,29.999571319726));
#1080=CARTESIAN_POINT('Ctrl Pts',(45.1429700282504,-20.8800910257087,29.9856255259572));
#1081=CARTESIAN_POINT('Ctrl Pts',(45.3489321371412,-20.6952194304412,29.9292632102995));
#1082=CARTESIAN_POINT('Ctrl Pts',(45.4462622664724,-20.6059638067645,29.8883498547048));
#1083=CARTESIAN_POINT('Ctrl Pts',(45.637479391768,-20.4275141694004,29.7692774250444));
#1084=CARTESIAN_POINT('Ctrl Pts',(45.7312347004176,-20.3380560760903,29.6867242962471));
#1085=CARTESIAN_POINT('Ctrl Pts',(45.8658007187081,-20.207947870753,29.5049416968589));
#1086=CARTESIAN_POINT('Ctrl Pts',(45.9138137397633,-20.1609125755561,29.4160774312397));
#1087=CARTESIAN_POINT('Ctrl Pts',(45.9763680541382,-20.0993550724804,29.2315306643671));
#1088=CARTESIAN_POINT('Ctrl Pts',(45.9940132775746,-20.0818588711917,29.1410812301308));
#1089=CARTESIAN_POINT('Ctrl Pts',(45.9985016867513,-20.077413692974,29.0473933649289));
#1090=CARTESIAN_POINT('',(-45.9985016867513,-20.077413692974,29.0473933649289));
#1091=CARTESIAN_POINT('',(-46.,-20.077413692974,29.0473933649289));
#1092=CARTESIAN_POINT('Ctrl Pts',(-44.9167622370788,-21.076289996107,30.));
#1093=CARTESIAN_POINT('Ctrl Pts',(-44.9184792055141,-21.0748195359773,30.));
#1094=CARTESIAN_POINT('Ctrl Pts',(-44.9201959059302,-21.0733487578587,29.9999967566207));
#1095=CARTESIAN_POINT('Ctrl Pts',(-45.0326950904853,-20.9769295489647,29.999571319726));
#1096=CARTESIAN_POINT('Ctrl Pts',(-45.1429700282501,-20.880091025709,29.9856255259573));
#1097=CARTESIAN_POINT('Ctrl Pts',(-45.3489321371412,-20.6952194304412,29.9292632102995));
#1098=CARTESIAN_POINT('Ctrl Pts',(-45.4462622664724,-20.6059638067645,29.8883498547048));
#1099=CARTESIAN_POINT('Ctrl Pts',(-45.637479391768,-20.4275141694004,29.7692774250444));
#1100=CARTESIAN_POINT('Ctrl Pts',(-45.7312347004176,-20.3380560760903,29.6867242962471));
#1101=CARTESIAN_POINT('Ctrl Pts',(-45.8658007187081,-20.2079478707531,29.5049416968589));
#1102=CARTESIAN_POINT('Ctrl Pts',(-45.9138137397633,-20.1609125755561,29.4160774312397));
#1103=CARTESIAN_POINT('Ctrl Pts',(-45.9763680541382,-20.0993550724804,29.2315306643671));
#1104=CARTESIAN_POINT('Ctrl Pts',(-45.9940132775746,-20.0818588711917,29.1410812301308));
#1105=CARTESIAN_POINT('Ctrl Pts',(-45.9985016867513,-20.077413692974,29.0473933649289));
#1106=CARTESIAN_POINT('Origin',(-38.,-20.,29.));
#1107=CARTESIAN_POINT('',(-45.9996474074308,-20.0751089660804,29.));
#1108=CARTESIAN_POINT('',(-38.,-28.,29.));
#1109=CARTESIAN_POINT('Origin',(-38.,-20.,29.));
#1110=CARTESIAN_POINT('',(-38.,-27.,30.));
#1111=CARTESIAN_POINT('Origin',(-38.,-27.,29.));
#1112=CARTESIAN_POINT('Origin',(-38.,-20.,30.));
#1113=CARTESIAN_POINT('Ctrl Pts',(-45.9985016867513,-20.077413692974,29.0473933649289));
#1114=CARTESIAN_POINT('Ctrl Pts',(-45.9992576385083,-20.0766650223088,29.0316141648773));
#1115=CARTESIAN_POINT('Ctrl Pts',(-45.9996400122448,-20.0758966068047,29.0158119733668));
#1116=CARTESIAN_POINT('Ctrl Pts',(-45.9996474074308,-20.0751089660804,29.));
#1117=CARTESIAN_POINT('Origin',(-19.,-27.,29.));
#1118=CARTESIAN_POINT('',(38.,-28.,29.));
#1119=CARTESIAN_POINT('',(38.,-27.,30.));
#1120=CARTESIAN_POINT('Origin',(38.,-27.,29.));
#1121=CARTESIAN_POINT('',(-19.,-27.,30.));
#1122=CARTESIAN_POINT('',(-19.,-28.,29.));
#1123=CARTESIAN_POINT('Origin',(38.,-20.,29.));
#1124=CARTESIAN_POINT('Origin',(38.,-20.,30.));
#1125=CARTESIAN_POINT('',(45.9996474074308,-20.0751089660804,29.));
#1126=CARTESIAN_POINT('Origin',(38.,-20.,29.));
#1127=CARTESIAN_POINT('Ctrl Pts',(45.9996474074308,-20.0751089660804,29.));
#1128=CARTESIAN_POINT('Ctrl Pts',(45.9996400085094,-20.0758970046537,29.0158199602286));
#1129=CARTESIAN_POINT('Ctrl Pts',(45.9992572592475,-20.0766653979167,29.0316220812994));
#1130=CARTESIAN_POINT('Ctrl Pts',(45.9985016867513,-20.077413692974,29.0473933649289));
#1131=CARTESIAN_POINT('Origin',(-38.,-20.,0.));
#1132=CARTESIAN_POINT('',(-46.,-20.,27.9975015605494));
#1133=CARTESIAN_POINT('Ctrl Pts',(-45.9996474074308,-20.0751089660804,29.));
#1134=CARTESIAN_POINT('Ctrl Pts',(-45.9998022419182,-20.0586179747883,28.6689415528527));
#1135=CARTESIAN_POINT('Ctrl Pts',(-46.,-20.03371905984,28.3342714593493));
#1136=CARTESIAN_POINT('Ctrl Pts',(-46.,-20.,27.9975015605494));
#1137=CARTESIAN_POINT('',(-46.,-20.,-1.));
#1138=CARTESIAN_POINT('',(-46.,-20.,0.));
#1139=CARTESIAN_POINT('',(-45.,-23.8729833462074,0.));
#1140=CARTESIAN_POINT('Ctrl Pts',(-46.,-20.,-1.));
#1141=CARTESIAN_POINT('Ctrl Pts',(-46.,-20.6273212961327,-0.778208428760918));
#1142=CARTESIAN_POINT('Ctrl Pts',(-45.9220229510159,-21.3091647131943,-0.534968778030723));
#1143=CARTESIAN_POINT('Ctrl Pts',(-45.5826309148048,-22.6412414058238,-0.147451330796511));
#1144=CARTESIAN_POINT('Ctrl Pts',(-45.3221231481518,-23.2907804717048,-6.93889390390723E-17));
#1145=CARTESIAN_POINT('Ctrl Pts',(-45.,-23.8729833462074,-6.93889390390723E-17));
#1146=CARTESIAN_POINT('',(-38.,-28.,0.));
#1147=CARTESIAN_POINT('Origin',(-38.,-20.,0.));
#1148=CARTESIAN_POINT('',(-38.,-28.,0.));
#1149=CARTESIAN_POINT('Origin',(-46.,-6.66133814775094E-15,30.));
#1150=CARTESIAN_POINT('',(-46.,20.,27.9975015605498));
#1151=CARTESIAN_POINT('Ctrl Pts',(-46.,20.,27.9975015605498));
#1152=CARTESIAN_POINT('Ctrl Pts',(-46.,20.03371905984,28.3342714593496));
#1153=CARTESIAN_POINT('Ctrl Pts',(-45.9998022419182,20.0586179747883,28.6689415528529));
#1154=CARTESIAN_POINT('Ctrl Pts',(-45.9996474074308,20.0751089660804,29.));
#1155=CARTESIAN_POINT('Origin',(-46.,-6.66133814775094E-15,30.));
#1156=CARTESIAN_POINT('',(46.,-20.,27.9975015605498));
#1157=CARTESIAN_POINT('Ctrl Pts',(46.,-20.,27.9975015605498));
#1158=CARTESIAN_POINT('Ctrl Pts',(46.,-20.03371905984,28.3342714593495));
#1159=CARTESIAN_POINT('Ctrl Pts',(45.9998022419182,-20.0586179747883,28.6689415528528));
#1160=CARTESIAN_POINT('Ctrl Pts',(45.9996474074308,-20.0751089660804,28.9999999999999));
#1161=CARTESIAN_POINT('Origin',(46.,-6.66133814775094E-15,30.));
#1162=CARTESIAN_POINT('Origin',(0.,0.,30.));
#1163=CARTESIAN_POINT('Origin',(45.,21.,-1.));
#1164=CARTESIAN_POINT('',(45.,-42.,0.));
#1165=CARTESIAN_POINT('',(46.,-42.,-1.));
#1166=CARTESIAN_POINT('Origin',(45.,-42.,-1.));
#1167=CARTESIAN_POINT('',(46.,-20.,-1.));
#1168=CARTESIAN_POINT('',(46.,21.,-1.));
#1169=CARTESIAN_POINT('',(45.,-23.8729833462074,0.));
#1170=CARTESIAN_POINT('Ctrl Pts',(45.,-23.8729833462074,-6.93889390390723E-17));
#1171=CARTESIAN_POINT('Ctrl Pts',(45.3221231481518,-23.2907804717048,1.24523571843645E-16));
#1172=CARTESIAN_POINT('Ctrl Pts',(45.5826309148048,-22.6412414058238,-0.147451330796511));
#1173=CARTESIAN_POINT('Ctrl Pts',(45.9220229510159,-21.3091647131943,-0.534968778030724));
#1174=CARTESIAN_POINT('Ctrl Pts',(46.,-20.6273212961327,-0.778208428760918));
#1175=CARTESIAN_POINT('Ctrl Pts',(46.,-20.,-1.));
#1176=CARTESIAN_POINT('',(45.,21.,0.));
#1177=CARTESIAN_POINT('Origin',(38.,-42.,-1.));
#1178=CARTESIAN_POINT('',(38.,-49.,0.));
#1179=CARTESIAN_POINT('',(38.,-50.,-1.));
#1180=CARTESIAN_POINT('Origin',(38.,-49.,-1.));
#1181=CARTESIAN_POINT('Origin',(38.,-42.,-1.));
#1182=CARTESIAN_POINT('Origin',(38.,-42.,0.));
#1183=CARTESIAN_POINT('Origin',(19.,-49.,-1.));
#1184=CARTESIAN_POINT('',(-38.,-49.,0.));
#1185=CARTESIAN_POINT('',(-38.,-50.,-1.));
#1186=CARTESIAN_POINT('Origin',(-38.,-49.,-1.));
#1187=CARTESIAN_POINT('',(19.,-50.,-1.));
#1188=CARTESIAN_POINT('',(19.,-49.,0.));
#1189=CARTESIAN_POINT('Origin',(-38.,-42.,-1.));
#1190=CARTESIAN_POINT('',(-45.,-42.,0.));
#1191=CARTESIAN_POINT('',(-46.,-42.,-1.));
#1192=CARTESIAN_POINT('Origin',(-45.,-42.,-1.));
#1193=CARTESIAN_POINT('Origin',(-38.,-42.,-1.));
#1194=CARTESIAN_POINT('Origin',(-38.,-42.,0.));
#1195=CARTESIAN_POINT('Origin',(-45.,-21.,-1.));
#1196=CARTESIAN_POINT('',(-46.,-21.,-1.));
#1197=CARTESIAN_POINT('',(-45.,-21.,0.));
#1198=CARTESIAN_POINT('Origin',(0.,0.,0.));
#1199=CARTESIAN_POINT('',(38.,-28.,0.));
#1200=CARTESIAN_POINT('Origin',(38.,-20.,0.));
#1201=CARTESIAN_POINT('',(-19.,-28.,0.));
#1202=CARTESIAN_POINT('Origin',(19.,-49.5,-14.5));
#1203=CARTESIAN_POINT('',(-38.,-50.,-14.));
#1204=CARTESIAN_POINT('',(-38.,-49.,-15.));
#1205=CARTESIAN_POINT('',(-38.,-50.,-14.));
#1206=CARTESIAN_POINT('',(38.,-49.,-15.));
#1207=CARTESIAN_POINT('',(19.,-49.,-15.));
#1208=CARTESIAN_POINT('',(38.,-50.,-14.));
#1209=CARTESIAN_POINT('',(38.,-49.,-15.));
#1210=CARTESIAN_POINT('',(19.,-50.,-14.));
#1211=CARTESIAN_POINT('Origin',(-38.,-42.,-14.5));
#1212=CARTESIAN_POINT('',(-46.,-42.,-14.));
#1213=CARTESIAN_POINT('',(-45.,-42.,-15.));
#1214=CARTESIAN_POINT('',(-46.,-42.,-14.));
#1215=CARTESIAN_POINT('Origin',(-38.,-42.,-15.));
#1216=CARTESIAN_POINT('Origin',(-38.,-42.,-14.));
#1217=CARTESIAN_POINT('Origin',(-45.5,-21.,-14.5));
#1218=CARTESIAN_POINT('',(-46.,42.,-14.));
#1219=CARTESIAN_POINT('',(-45.,42.,-15.));
#1220=CARTESIAN_POINT('',(-46.,42.,-14.));
#1221=CARTESIAN_POINT('',(-45.,-21.,-15.));
#1222=CARTESIAN_POINT('',(-46.,-21.,-14.));
#1223=CARTESIAN_POINT('Origin',(-38.,42.,-14.5));
#1224=CARTESIAN_POINT('',(-38.,50.,-14.));
#1225=CARTESIAN_POINT('',(-38.,49.,-15.));
#1226=CARTESIAN_POINT('',(-38.,50.,-14.));
#1227=CARTESIAN_POINT('Origin',(-38.,42.,-15.));
#1228=CARTESIAN_POINT('Origin',(-38.,42.,-14.));
#1229=CARTESIAN_POINT('Origin',(-19.,49.5,-14.5));
#1230=CARTESIAN_POINT('',(38.,50.,-14.));
#1231=CARTESIAN_POINT('',(38.,49.,-15.));
#1232=CARTESIAN_POINT('',(38.,50.,-14.));
#1233=CARTESIAN_POINT('',(-19.,49.,-15.));
#1234=CARTESIAN_POINT('',(-19.,50.,-14.));
#1235=CARTESIAN_POINT('Origin',(38.,42.,-14.5));
#1236=CARTESIAN_POINT('',(46.,42.,-14.));
#1237=CARTESIAN_POINT('',(45.,42.,-15.));
#1238=CARTESIAN_POINT('',(46.,42.,-14.));
#1239=CARTESIAN_POINT('Origin',(38.,42.,-15.));
#1240=CARTESIAN_POINT('Origin',(38.,42.,-14.));
#1241=CARTESIAN_POINT('Origin',(45.5,21.,-14.5));
#1242=CARTESIAN_POINT('',(46.,-42.,-14.));
#1243=CARTESIAN_POINT('',(45.,-42.,-15.));
#1244=CARTESIAN_POINT('',(46.,-42.,-14.));
#1245=CARTESIAN_POINT('',(45.,21.,-15.));
#1246=CARTESIAN_POINT('',(46.,21.,-14.));
#1247=CARTESIAN_POINT('Origin',(38.,-42.,-14.5));
#1248=CARTESIAN_POINT('Origin',(38.,-42.,-15.));
#1249=CARTESIAN_POINT('Origin',(38.,-42.,-14.));
#1250=CARTESIAN_POINT('Origin',(-38.,42.,0.));
#1251=CARTESIAN_POINT('',(-46.,42.,0.));
#1252=CARTESIAN_POINT('',(-46.,42.,0.));
#1253=CARTESIAN_POINT('',(-38.,50.,0.));
#1254=CARTESIAN_POINT('Origin',(-38.,42.,0.));
#1255=CARTESIAN_POINT('',(-38.,50.,0.));
#1256=CARTESIAN_POINT('Origin',(-46.,-42.,0.));
#1257=CARTESIAN_POINT('',(-46.,20.,0.));
#1258=CARTESIAN_POINT('',(-46.,20.,0.));
#1259=CARTESIAN_POINT('',(-46.,-42.,0.));
#1260=CARTESIAN_POINT('',(-46.,-42.,0.));
#1261=CARTESIAN_POINT('Origin',(-38.,-42.,0.));
#1262=CARTESIAN_POINT('',(-38.,-50.,0.));
#1263=CARTESIAN_POINT('Origin',(38.,-50.,0.));
#1264=CARTESIAN_POINT('',(38.,-50.,0.));
#1265=CARTESIAN_POINT('Origin',(0.,0.,-15.));
#1266=CARTESIAN_POINT('Origin',(-38.,20.,0.));
#1267=CARTESIAN_POINT('Origin',(-38.,20.,0.));
#1268=CARTESIAN_POINT('Origin',(46.,42.,0.));
#1269=CARTESIAN_POINT('',(46.,-42.,0.));
#1270=CARTESIAN_POINT('',(46.,42.,0.));
#1271=CARTESIAN_POINT('',(46.,42.,0.));
#1272=CARTESIAN_POINT('',(46.,42.,0.));
#1273=CARTESIAN_POINT('',(46.,-20.,0.));
#1274=CARTESIAN_POINT('Origin',(38.,-20.,0.));
#1275=CARTESIAN_POINT('',(38.,-28.,0.));
#1276=CARTESIAN_POINT('Origin',(-38.,-28.,0.));
#1277=CARTESIAN_POINT('Origin',(0.,0.,0.));
#1278=CARTESIAN_POINT('',(38.,50.,0.));
#1279=CARTESIAN_POINT('Origin',(38.,42.,0.));
#1280=CARTESIAN_POINT('',(-38.,50.,0.));
#1281=CARTESIAN_POINT('Origin',(38.,-42.,0.));
#1282=CARTESIAN_POINT('Origin',(38.,42.,0.));
#1283=CARTESIAN_POINT('',(38.,50.,0.));
#1284=CARTESIAN_POINT('Origin',(-38.,50.,0.));
#1285=UNCERTAINTY_MEASURE_WITH_UNIT(LENGTH_MEASURE(0.01),#1289,
'DISTANCE_ACCURACY_VALUE',
'Maximum model space distance between geometric entities at asserted c
onnectivities');
#1286=UNCERTAINTY_MEASURE_WITH_UNIT(LENGTH_MEASURE(0.01),#1289,
'DISTANCE_ACCURACY_VALUE',
'Maximum model space distance between geometric entities at asserted c
onnectivities');
#1287=(
GEOMETRIC_REPRESENTATION_CONTEXT(3)
GLOBAL_UNCERTAINTY_ASSIGNED_CONTEXT((#1285))
GLOBAL_UNIT_ASSIGNED_CONTEXT((#1289,#1291,#1292))
REPRESENTATION_CONTEXT('','3D')
);
#1288=(
GEOMETRIC_REPRESENTATION_CONTEXT(3)
GLOBAL_UNCERTAINTY_ASSIGNED_CONTEXT((#1286))
GLOBAL_UNIT_ASSIGNED_CONTEXT((#1289,#1291,#1292))
REPRESENTATION_CONTEXT('','3D')
);
#1289=(
LENGTH_UNIT()
NAMED_UNIT(*)
SI_UNIT(.MILLI.,.METRE.)
);
#1290=(
LENGTH_UNIT()
NAMED_UNIT(*)
SI_UNIT($,.METRE.)
);
#1291=(
NAMED_UNIT(*)
PLANE_ANGLE_UNIT()
SI_UNIT($,.RADIAN.)
);
#1292=(
NAMED_UNIT(*)
SI_UNIT($,.STERADIAN.)
SOLID_ANGLE_UNIT()
);
#1293=SHAPE_DEFINITION_REPRESENTATION(#1294,#1295);
#1294=PRODUCT_DEFINITION_SHAPE('',$,#1297);
#1295=SHAPE_REPRESENTATION('',(#709),#1287);
#1296=PRODUCT_DEFINITION_CONTEXT('part definition',#1301,'design');
#1297=PRODUCT_DEFINITION('sensor_holder','sensor_holder',#1298,#1296);
#1298=PRODUCT_DEFINITION_FORMATION('',$,#1303);
#1299=PRODUCT_RELATED_PRODUCT_CATEGORY('sensor_holder','sensor_holder',
(#1303));
#1300=APPLICATION_PROTOCOL_DEFINITION('international standard',
'automotive_design',2009,#1301);
#1301=APPLICATION_CONTEXT(
'Core Data for Automotive Mechanical Design Process');
#1302=PRODUCT_CONTEXT('part definition',#1301,'mechanical');
#1303=PRODUCT('sensor_holder','sensor_holder',$,(#1302));
#1304=PRESENTATION_STYLE_ASSIGNMENT((#1305));
#1305=SURFACE_STYLE_USAGE(.BOTH.,#1306);
#1306=SURFACE_SIDE_STYLE('',(#1307));
#1307=SURFACE_STYLE_FILL_AREA(#1308);
#1308=FILL_AREA_STYLE('Steel - Satin',(#1309));
#1309=FILL_AREA_STYLE_COLOUR('Steel - Satin',#1310);
#1310=COLOUR_RGB('Steel - Satin',0.627450980392157,0.627450980392157,0.627450980392157);
ENDSEC;
END-ISO-10303-21;
